note_on channel=0 note=50 velocity=45 time=5.02397084236
note_on channel=0 note=52 velocity=50 time=5.57460594177
note_off channel=0 note=50 velocity=64 time=5.64770293236
note_on channel=0 note=53 velocity=84 time=5.79026579857
note_on channel=0 note=55 velocity=51 time=6.36921882629
note_off channel=0 note=52 velocity=64 time=6.40659499168
note_off channel=0 note=53 velocity=64 time=6.59041500092
note_on channel=0 note=53 velocity=6 time=6.77291488647
note_off channel=0 note=55 velocity=64 time=6.84227800369
note_off channel=0 note=53 velocity=64 time=7.14778995514
note_on channel=0 note=52 velocity=29 time=7.18129086494
note_on channel=0 note=50 velocity=43 time=7.39268183708
note_off channel=0 note=52 velocity=64 time=7.42056894302
note_on channel=0 note=48 velocity=70 time=7.66262078285
note_off channel=0 note=50 velocity=64 time=7.70472788811
note_on channel=0 note=50 velocity=76 time=7.97728681564
note_off channel=0 note=48 velocity=64 time=8.0398337841
note_on channel=0 note=52 velocity=74 time=8.38910198212
note_on channel=0 note=53 velocity=48 time=8.62567090988
note_off channel=0 note=50 velocity=64 time=8.64131093025
note_off channel=0 note=52 velocity=64 time=8.66606688499
note_on channel=0 note=55 velocity=40 time=9.10011482239
note_off channel=0 note=55 velocity=64 time=9.54751086235
note_off channel=0 note=53 velocity=64 time=9.79122591019
note_on channel=0 note=52 velocity=39 time=9.84009194374
note_on channel=0 note=50 velocity=70 time=10.0524559021
note_off channel=0 note=52 velocity=64 time=10.1127898693
note_off channel=0 note=50 velocity=64 time=10.4402518272
note_on channel=0 note=48 velocity=55 time=10.7237730026
note_on channel=0 note=50 velocity=59 time=10.7238428593
note_on channel=0 note=52 velocity=33 time=11.0721359253
note_off channel=0 note=48 velocity=64 time=11.1853628159
note_off channel=0 note=50 velocity=64 time=11.2019078732
note_on channel=0 note=53 velocity=30 time=11.3129789829
note_off channel=0 note=52 velocity=64 time=11.3917508125
note_on channel=0 note=55 velocity=32 time=11.672413826
note_off channel=0 note=55 velocity=64 time=12.0628948212
note_off channel=0 note=53 velocity=64 time=12.3564469814
note_on channel=0 note=52 velocity=22 time=12.4178647995
note_off channel=0 note=52 velocity=64 time=12.6486749649
note_on channel=0 note=50 velocity=68 time=12.6652088165
note_off channel=0 note=50 velocity=64 time=13.0238938332
note_on channel=0 note=50 velocity=51 time=13.3072798252
note_on channel=0 note=52 velocity=72 time=13.6254479885
note_off channel=0 note=50 velocity=64 time=13.6568210125
note_on channel=0 note=53 velocity=59 time=13.9523098469
note_on channel=0 note=55 velocity=55 time=14.4696660042
note_off channel=0 note=52 velocity=64 time=14.5073759556
note_off channel=0 note=55 velocity=64 time=14.9733088017
note_off channel=0 note=53 velocity=64 time=15.3332569599
note_on channel=0 note=52 velocity=18 time=15.3766069412
note_on channel=0 note=50 velocity=70 time=15.7125489712
note_off channel=0 note=52 velocity=64 time=15.746614933
note_off channel=0 note=50 velocity=64 time=16.2021038532
