note_on channel=0 note=48 velocity=66 time=4.21119189262
note_off channel=0 note=48 velocity=64 time=4.61651706696
note_on channel=0 note=48 velocity=40 time=58.1116271019
note_off channel=0 note=48 velocity=64 time=58.1568050385
note_on channel=0 note=48 velocity=35 time=58.3715999126
note_off channel=0 note=48 velocity=64 time=58.4425520897
note_on channel=0 note=48 velocity=6 time=59.0360798836
note_off channel=0 note=48 velocity=64 time=59.19384408
note_on channel=0 note=52 velocity=30 time=116.204390049
note_off channel=0 note=52 velocity=64 time=117.235083103
note_on channel=0 note=55 velocity=6 time=225.464804888
note_off channel=0 note=55 velocity=64 time=225.984629869
note_on channel=0 note=52 velocity=10 time=235.512408972
note_off channel=0 note=52 velocity=64 time=235.73943305
note_on channel=0 note=53 velocity=54 time=255.941004038
note_off channel=0 note=53 velocity=64 time=256.378652096
note_on channel=0 note=53 velocity=55 time=256.705205917
note_off channel=0 note=53 velocity=64 time=256.891095877
note_on channel=0 note=55 velocity=35 time=262.16170001
note_off channel=0 note=55 velocity=64 time=262.511657
note_on channel=0 note=55 velocity=50 time=263.003048897
note_off channel=0 note=55 velocity=64 time=263.90637207
note_on channel=0 note=53 velocity=37 time=265.433794975
note_off channel=0 note=53 velocity=64 time=267.337805033
note_on channel=0 note=53 velocity=47 time=267.898387909
note_off channel=0 note=53 velocity=64 time=272.192111015
note_on channel=0 note=53 velocity=26 time=272.897305012
note_off channel=0 note=53 velocity=64 time=273.041152954
note_on channel=0 note=53 velocity=47 time=273.237302065
note_off channel=0 note=53 velocity=64 time=273.349128962
note_on channel=0 note=52 velocity=27 time=273.728169918
note_off channel=0 note=52 velocity=64 time=273.973481894
note_on channel=0 note=48 velocity=61 time=507.594599962
note_off channel=0 note=48 velocity=64 time=509.439621925
note_on channel=0 note=48 velocity=42 time=511.608475924
note_off channel=0 note=48 velocity=64 time=512.415525913
note_on channel=0 note=48 velocity=61 time=625.976953983
note_off channel=0 note=48 velocity=64 time=626.023411036
note_on channel=0 note=60 velocity=40 time=629.262647867
note_off channel=0 note=60 velocity=64 time=629.883697987
note_on channel=0 note=60 velocity=54 time=630.146751881
note_off channel=0 note=60 velocity=64 time=630.590051889
note_on channel=0 note=62 velocity=40 time=631.970926046
note_off channel=0 note=62 velocity=64 time=632.085004091
note_on channel=0 note=62 velocity=61 time=632.252317905
note_off channel=0 note=62 velocity=64 time=632.326071978
note_on channel=0 note=62 velocity=44 time=632.491002083
note_off channel=0 note=62 velocity=64 time=632.583391905
note_on channel=0 note=62 velocity=29 time=632.799947023
note_off channel=0 note=62 velocity=64 time=632.860259056
note_on channel=0 note=62 velocity=36 time=633.114331961
note_on channel=0 note=60 velocity=6 time=634.842835903
note_off channel=0 note=60 velocity=64 time=635.001725912
note_off channel=0 note=62 velocity=64 time=635.010634899
note_on channel=0 note=64 velocity=24 time=635.505418062
note_off channel=0 note=64 velocity=64 time=635.714734077
note_on channel=0 note=64 velocity=55 time=635.956613064
note_off channel=0 note=64 velocity=64 time=636.117362976
note_on channel=0 note=65 velocity=62 time=636.410749912
note_off channel=0 note=65 velocity=64 time=636.557646036
note_on channel=0 note=65 velocity=48 time=636.827769995
note_off channel=0 note=65 velocity=64 time=636.973996878
note_on channel=0 note=67 velocity=80 time=637.29843688
note_off channel=0 note=67 velocity=64 time=637.384671926
note_on channel=0 note=67 velocity=64 time=637.490576982
note_off channel=0 note=67 velocity=64 time=637.572303057
note_on channel=0 note=67 velocity=70 time=637.678344011
note_off channel=0 note=67 velocity=64 time=637.787097931
note_on channel=0 note=65 velocity=58 time=637.945587873
note_off channel=0 note=65 velocity=64 time=638.028713942
note_on channel=0 note=65 velocity=74 time=638.384679079
note_off channel=0 note=65 velocity=64 time=638.48467207
note_on channel=0 note=67 velocity=37 time=638.66011405
note_off channel=0 note=67 velocity=64 time=638.749816895
note_on channel=0 note=67 velocity=68 time=638.971338987
note_off channel=0 note=67 velocity=64 time=639.054001093
note_on channel=0 note=67 velocity=74 time=639.240015984
note_off channel=0 note=67 velocity=64 time=639.418250084
note_on channel=0 note=69 velocity=64 time=640.378572941
note_on channel=0 note=60 velocity=6 time=640.408303022
note_off channel=0 note=69 velocity=64 time=640.53361392
note_on channel=0 note=69 velocity=64 time=640.673803091
note_off channel=0 note=69 velocity=64 time=640.79409194
note_on channel=0 note=69 velocity=61 time=640.931784868
note_off channel=0 note=60 velocity=64 time=641.018496037
note_off channel=0 note=69 velocity=64 time=641.060069084
note_on channel=0 note=69 velocity=68 time=641.209652901
note_off channel=0 note=69 velocity=64 time=641.310587883
note_on channel=0 note=71 velocity=58 time=641.455751896
note_on channel=0 note=69 velocity=55 time=641.465336084
note_off channel=0 note=69 velocity=64 time=641.579024076
note_off channel=0 note=71 velocity=64 time=641.583564997
note_on channel=0 note=69 velocity=70 time=653.91059494
note_on channel=0 note=62 velocity=84 time=653.930907011
note_on channel=0 note=60 velocity=66 time=653.936850071
note_off channel=0 note=60 velocity=64 time=654.001132011
note_on channel=0 note=65 velocity=17 time=654.023550034
note_off channel=0 note=65 velocity=64 time=654.198468924
note_off channel=0 note=62 velocity=64 time=654.209407091
note_off channel=0 note=69 velocity=64 time=654.217209101
note_on channel=0 note=62 velocity=70 time=654.371037006
note_on channel=0 note=65 velocity=74 time=654.371790886
note_on channel=0 note=71 velocity=58 time=654.373482943
note_on channel=0 note=69 velocity=57 time=654.381313086
note_off channel=0 note=69 velocity=64 time=654.432296991
note_off channel=0 note=71 velocity=64 time=654.441688061
note_off channel=0 note=65 velocity=64 time=654.442620039
note_off channel=0 note=62 velocity=64 time=654.448711872
note_on channel=0 note=62 velocity=66 time=654.539463043
note_on channel=0 note=65 velocity=70 time=654.54104495
note_on channel=0 note=71 velocity=55 time=654.544548035
note_off channel=0 note=71 velocity=64 time=654.650743961
note_off channel=0 note=65 velocity=64 time=654.653488874
note_off channel=0 note=62 velocity=64 time=654.65496707
note_on channel=0 note=67 velocity=38 time=693.36022687
note_on channel=0 note=65 velocity=35 time=693.3801651
note_off channel=0 note=65 velocity=64 time=693.717972994
note_off channel=0 note=67 velocity=64 time=693.72000289
note_on channel=0 note=67 velocity=11 time=701.234529018
note_off channel=0 note=67 velocity=64 time=706.369971037
note_on channel=0 note=65 velocity=42 time=713.440540075
note_off channel=0 note=65 velocity=64 time=714.311273098
note_on channel=0 note=67 velocity=50 time=715.454156876
note_off channel=0 note=67 velocity=64 time=718.808778048
note_on channel=0 note=67 velocity=58 time=719.3775599
note_off channel=0 note=67 velocity=64 time=721.302326918
note_on channel=0 note=67 velocity=51 time=725.150409937
note_off channel=0 note=67 velocity=64 time=730.734277964
note_on channel=0 note=60 velocity=6 time=811.111166
note_on channel=0 note=69 velocity=6 time=811.330419064
note_off channel=0 note=60 velocity=64 time=812.665812969
note_off channel=0 note=69 velocity=64 time=812.77699399
note_on channel=0 note=69 velocity=51 time=816.027689934
note_off channel=0 note=69 velocity=64 time=816.324570894
note_on channel=0 note=69 velocity=31 time=816.564195871
note_off channel=0 note=69 velocity=64 time=816.770081997
note_on channel=0 note=69 velocity=57 time=816.959677935
note_on channel=0 note=71 velocity=51 time=816.959950924
note_off channel=0 note=71 velocity=64 time=817.061378002
note_off channel=0 note=69 velocity=64 time=817.066781998
note_on channel=0 note=67 velocity=43 time=823.620779037
note_off channel=0 note=67 velocity=64 time=824.972045898
control_change channel=0 control=1 value=67 time=827.955863953
control_change channel=0 control=1 value=68 time=827.977503061
control_change channel=0 control=1 value=69 time=827.993903875
control_change channel=0 control=1 value=70 time=828.013439894
control_change channel=0 control=1 value=71 time=828.024585009
control_change channel=0 control=1 value=72 time=828.042744875
control_change channel=0 control=1 value=73 time=828.057025909
control_change channel=0 control=1 value=74 time=828.084989071
control_change channel=0 control=1 value=75 time=828.096818924
control_change channel=0 control=1 value=76 time=828.123805046
control_change channel=0 control=1 value=77 time=828.144936085
note_on channel=0 note=67 velocity=29 time=828.145261049
control_change channel=0 control=1 value=78 time=828.160206079
control_change channel=0 control=1 value=79 time=828.205774069
control_change channel=0 control=1 value=80 time=828.250111103
note_off channel=0 note=67 velocity=64 time=828.628098011
note_on channel=0 note=65 velocity=19 time=829.746804953
note_off channel=0 note=65 velocity=64 time=831.331773043
note_on channel=0 note=65 velocity=19 time=832.078136921
note_off channel=0 note=65 velocity=64 time=832.167608023
note_on channel=0 note=65 velocity=49 time=832.36400795
note_off channel=0 note=65 velocity=64 time=832.6182549
note_on channel=0 note=65 velocity=52 time=832.904875994
note_off channel=0 note=65 velocity=64 time=833.531439066
note_on channel=0 note=60 velocity=44 time=851.732405901
note_off channel=0 note=60 velocity=64 time=853.095943928
note_on channel=0 note=62 velocity=34 time=854.128679037
note_off channel=0 note=62 velocity=64 time=863.855237961
note_on channel=0 note=61 velocity=36 time=865.023844957
note_off channel=0 note=61 velocity=64 time=867.857229948
note_on channel=0 note=62 velocity=27 time=868.74102807
note_off channel=0 note=62 velocity=64 time=871.502698898
note_on channel=0 note=63 velocity=22 time=872.701519966
note_off channel=0 note=63 velocity=64 time=877.866690874
note_on channel=0 note=64 velocity=33 time=878.658791065
note_off channel=0 note=64 velocity=64 time=886.117295027
note_on channel=0 note=64 velocity=49 time=886.768141031
note_off channel=0 note=64 velocity=64 time=887.693198919
note_on channel=0 note=64 velocity=26 time=888.194215059
note_off channel=0 note=64 velocity=64 time=888.812073946
note_on channel=0 note=64 velocity=6 time=895.837251902
note_off channel=0 note=64 velocity=64 time=899.410716057
note_on channel=0 note=65 velocity=40 time=901.027791023
note_off channel=0 note=65 velocity=64 time=901.136543036
note_on channel=0 note=65 velocity=51 time=901.255539894
note_off channel=0 note=65 velocity=64 time=903.221929073
note_on channel=0 note=65 velocity=6 time=904.565069914
note_off channel=0 note=65 velocity=64 time=906.454771042
note_on channel=0 note=67 velocity=27 time=917.50692296
note_on channel=0 note=69 velocity=6 time=917.664390087
note_off channel=0 note=67 velocity=64 time=920.426101923
note_off channel=0 note=69 velocity=64 time=920.42654109
