note_on channel=0 note=50 velocity=12 time=24.4101951122
note_off channel=0 note=50 velocity=64 time=25.1300411224
note_on channel=0 note=52 velocity=61 time=26.2503681183
note_off channel=0 note=52 velocity=64 time=26.86454916
note_on channel=0 note=48 velocity=68 time=113.05817914
note_off channel=0 note=48 velocity=64 time=114.373692989
note_on channel=0 note=53 velocity=62 time=131.777471066
note_off channel=0 note=53 velocity=64 time=131.843323946
note_on channel=0 note=53 velocity=66 time=131.945495129
note_off channel=0 note=53 velocity=64 time=132.012196064
note_on channel=0 note=53 velocity=62 time=132.102368116
note_off channel=0 note=53 velocity=64 time=132.182784081
note_on channel=0 note=53 velocity=61 time=132.278970003
note_off channel=0 note=53 velocity=64 time=132.344434977
note_on channel=0 note=53 velocity=62 time=132.453876019
note_off channel=0 note=53 velocity=64 time=132.510822058
note_on channel=0 note=52 velocity=48 time=170.597841978
note_off channel=0 note=52 velocity=64 time=170.779279947
note_on channel=0 note=52 velocity=31 time=170.98687315
note_off channel=0 note=52 velocity=64 time=171.076363087
note_on channel=0 note=52 velocity=32 time=171.287595034
note_off channel=0 note=52 velocity=64 time=171.748206139
note_on channel=0 note=50 velocity=17 time=654.410439968
note_off channel=0 note=50 velocity=64 time=654.59721899
note_on channel=0 note=50 velocity=58 time=654.707602024
note_off channel=0 note=50 velocity=64 time=654.791178942
note_on channel=0 note=50 velocity=58 time=654.899739027
note_off channel=0 note=50 velocity=64 time=654.992390156
note_on channel=0 note=50 velocity=49 time=655.154260159
note_off channel=0 note=50 velocity=64 time=655.822654009
note_on channel=0 note=50 velocity=35 time=660.968054056
note_off channel=0 note=50 velocity=64 time=661.419094086
note_on channel=0 note=50 velocity=57 time=661.566128969
note_off channel=0 note=50 velocity=64 time=661.632914066
note_on channel=0 note=50 velocity=58 time=661.759874105
note_off channel=0 note=50 velocity=64 time=662.504759073
note_on channel=0 note=48 velocity=42 time=826.038860083
note_off channel=0 note=48 velocity=64 time=826.100991011
