note_on channel=0 note=48 velocity=33 time=2.83524990082
note_on channel=0 note=50 velocity=20 time=3.59106087685
note_off channel=0 note=48 velocity=64 time=3.65070605278
note_on channel=0 note=52 velocity=52 time=4.37541294098
note_off channel=0 note=50 velocity=64 time=4.40142583847
note_on channel=0 note=53 velocity=48 time=5.08908605576
note_off channel=0 note=52 velocity=64 time=5.17777299881
note_on channel=0 note=55 velocity=49 time=5.9697060585
note_off channel=0 note=53 velocity=64 time=6.09483599663
note_on channel=0 note=53 velocity=55 time=6.79802489281
note_off channel=0 note=55 velocity=64 time=6.8725669384
note_on channel=0 note=52 velocity=61 time=7.59903597832
note_off channel=0 note=53 velocity=64 time=7.63182902336
note_on channel=0 note=50 velocity=59 time=8.28505802155
note_off channel=0 note=52 velocity=64 time=8.35059404373
note_on channel=0 note=48 velocity=58 time=9.05566096306
note_off channel=0 note=50 velocity=64 time=9.12275505066
note_on channel=0 note=50 velocity=66 time=9.77478790283
note_off channel=0 note=48 velocity=64 time=9.85388588905
note_on channel=0 note=52 velocity=64 time=10.5939948559
note_off channel=0 note=50 velocity=64 time=10.6004629135
note_on channel=0 note=53 velocity=74 time=11.2673928738
note_off channel=0 note=52 velocity=64 time=11.3411028385
note_on channel=0 note=55 velocity=57 time=11.9954168797
note_off channel=0 note=53 velocity=64 time=12.0536189079
note_on channel=0 note=53 velocity=66 time=12.6782250404
note_off channel=0 note=55 velocity=64 time=12.7226350307
note_on channel=0 note=52 velocity=54 time=13.4240269661
note_off channel=0 note=53 velocity=64 time=13.4530720711
note_on channel=0 note=50 velocity=55 time=14.1092998981
note_off channel=0 note=52 velocity=64 time=14.1762230396
note_on channel=0 note=48 velocity=74 time=14.8266248703
note_off channel=0 note=50 velocity=64 time=14.8982999325
note_off channel=0 note=48 velocity=64 time=15.9938910007
