note_on channel=0 note=48 velocity=25 time=8.59651303291
note_on channel=0 note=50 velocity=58 time=8.99055600166
note_off channel=0 note=48 velocity=64 time=9.06153106689
note_on channel=0 note=52 velocity=57 time=9.36024403572
note_off channel=0 note=50 velocity=64 time=9.38329100609
note_on channel=0 note=53 velocity=51 time=9.72775101662
note_off channel=0 note=52 velocity=64 time=9.77818799019
note_on channel=0 note=55 velocity=41 time=10.2771480083
note_off channel=0 note=53 velocity=64 time=10.2876288891
note_on channel=0 note=57 velocity=6 time=10.9056799412
note_off channel=0 note=55 velocity=64 time=10.9347240925
note_on channel=0 note=59 velocity=49 time=11.2749829292
note_off channel=0 note=57 velocity=64 time=11.2996029854
note_on channel=0 note=60 velocity=61 time=11.6562519073
note_off channel=0 note=59 velocity=64 time=11.6899299622
note_off channel=0 note=60 velocity=64 time=11.9348790646
note_on channel=0 note=48 velocity=44 time=12.8487548828
note_on channel=0 note=50 velocity=66 time=13.1090478897
note_off channel=0 note=48 velocity=64 time=13.131125927
note_off channel=0 note=50 velocity=64 time=13.4277310371
note_on channel=0 note=52 velocity=36 time=13.4317660332
note_off channel=0 note=52 velocity=64 time=13.6680400372
note_on channel=0 note=53 velocity=58 time=13.68759799
note_off channel=0 note=53 velocity=64 time=13.8916120529
note_on channel=0 note=53 velocity=66 time=13.9173228741
note_off channel=0 note=53 velocity=64 time=14.2049760818
note_on channel=0 note=57 velocity=47 time=14.2256000042
note_on channel=0 note=55 velocity=44 time=14.2294900417
note_off channel=0 note=57 velocity=64 time=14.4498639107
note_off channel=0 note=55 velocity=64 time=14.4535529613
note_on channel=0 note=57 velocity=33 time=14.5107529163
note_on channel=0 note=59 velocity=32 time=14.519288063
note_off channel=0 note=59 velocity=64 time=14.8097679615
note_off channel=0 note=57 velocity=64 time=14.8256680965
note_on channel=0 note=60 velocity=64 time=14.8295919895
note_off channel=0 note=60 velocity=64 time=15.1001839638
