note_on channel=0 note=48 velocity=57 time=11.8643739223
note_on channel=0 note=50 velocity=58 time=12.2924568653
note_off channel=0 note=48 velocity=64 time=12.3988909721
note_on channel=0 note=52 velocity=58 time=12.7700359821
note_off channel=0 note=50 velocity=64 time=12.793186903
note_on channel=0 note=53 velocity=64 time=13.287405014
note_off channel=0 note=52 velocity=64 time=13.3157949448
note_on channel=0 note=55 velocity=62 time=13.8293159008
note_off channel=0 note=53 velocity=64 time=13.8460898399
note_on channel=0 note=53 velocity=68 time=14.3137340546
note_off channel=0 note=55 velocity=64 time=14.3453819752
note_off channel=0 note=53 velocity=64 time=14.8353960514
note_on channel=0 note=52 velocity=68 time=14.836247921
note_on channel=0 note=50 velocity=70 time=15.3401138783
note_off channel=0 note=52 velocity=64 time=15.3497798443
note_on channel=0 note=48 velocity=54 time=15.7987499237
note_off channel=0 note=50 velocity=64 time=15.8096580505
note_on channel=0 note=50 velocity=61 time=16.256002903
note_off channel=0 note=48 velocity=64 time=16.3405029774
note_on channel=0 note=52 velocity=51 time=16.7450540066
note_off channel=0 note=50 velocity=64 time=16.749671936
note_on channel=0 note=53 velocity=62 time=17.2120718956
note_off channel=0 note=52 velocity=64 time=17.2838199139
note_off channel=0 note=53 velocity=64 time=17.7235078812
note_on channel=0 note=55 velocity=40 time=17.7461469173
note_on channel=0 note=53 velocity=61 time=18.1905930042
note_off channel=0 note=55 velocity=64 time=18.208920002
note_on channel=0 note=52 velocity=74 time=18.6793270111
note_off channel=0 note=53 velocity=64 time=18.6853890419
note_on channel=0 note=50 velocity=66 time=19.1957659721
note_off channel=0 note=52 velocity=64 time=19.1974389553
note_on channel=0 note=48 velocity=52 time=19.7174329758
note_off channel=0 note=50 velocity=64 time=19.7197048664
note_on channel=0 note=50 velocity=66 time=20.1863729954
note_off channel=0 note=48 velocity=64 time=20.2493798733
note_off channel=0 note=50 velocity=64 time=20.7320129871
note_on channel=0 note=52 velocity=54 time=20.7376580238
note_on channel=0 note=53 velocity=68 time=21.2137959003
note_off channel=0 note=52 velocity=64 time=21.246505022
note_off channel=0 note=53 velocity=64 time=21.6947779655
note_on channel=0 note=55 velocity=70 time=21.7001130581
note_on channel=0 note=53 velocity=68 time=22.1713428497
note_off channel=0 note=55 velocity=64 time=22.1944179535
note_off channel=0 note=53 velocity=64 time=22.6805078983
note_on channel=0 note=52 velocity=74 time=22.6826379299
note_on channel=0 note=50 velocity=72 time=23.1940200329
note_off channel=0 note=52 velocity=64 time=23.2115528584
note_off channel=0 note=50 velocity=64 time=23.7076380253
note_on channel=0 note=48 velocity=66 time=23.7077310085
note_off channel=0 note=48 velocity=64 time=24.1885960102
note_on channel=0 note=48 velocity=62 time=50.0157868862
note_on channel=0 note=50 velocity=55 time=50.38920784
note_off channel=0 note=48 velocity=64 time=50.4792840481
note_on channel=0 note=52 velocity=59 time=50.8301980495
note_off channel=0 note=50 velocity=64 time=50.8313629627
note_on channel=0 note=53 velocity=74 time=51.2915649414
note_off channel=0 note=52 velocity=64 time=51.3115098476
note_off channel=0 note=53 velocity=64 time=51.7132499218
note_on channel=0 note=55 velocity=72 time=51.7224309444
note_on channel=0 note=53 velocity=78 time=52.1343619823
note_off channel=0 note=55 velocity=64 time=52.156277895
note_off channel=0 note=53 velocity=64 time=52.5340080261
note_on channel=0 note=52 velocity=87 time=52.5362999439
note_on channel=0 note=50 velocity=72 time=52.9393558502
note_off channel=0 note=52 velocity=64 time=52.9455280304
note_off channel=0 note=50 velocity=64 time=53.3370239735
note_on channel=0 note=48 velocity=66 time=53.3385980129
note_on channel=0 note=50 velocity=62 time=53.835103035
note_off channel=0 note=48 velocity=64 time=53.8812549114
note_off channel=0 note=50 velocity=64 time=54.2297608852
note_on channel=0 note=52 velocity=58 time=54.2482309341
note_on channel=0 note=53 velocity=70 time=54.6087419987
note_off channel=0 note=52 velocity=64 time=54.6263070107
note_off channel=0 note=53 velocity=64 time=55.020305872
note_on channel=0 note=55 velocity=70 time=55.0267448425
note_on channel=0 note=53 velocity=74 time=55.4291529655
note_off channel=0 note=55 velocity=64 time=55.4683828354
note_on channel=0 note=52 velocity=87 time=55.8307209015
note_off channel=0 note=53 velocity=64 time=55.8307850361
note_off channel=0 note=52 velocity=64 time=56.2701220512
note_on channel=0 note=50 velocity=72 time=56.2846739292
note_off channel=0 note=50 velocity=64 time=56.6746408939
note_on channel=0 note=48 velocity=61 time=56.679156065
note_on channel=0 note=50 velocity=64 time=57.1340909004
note_off channel=0 note=48 velocity=64 time=57.1884899139
note_off channel=0 note=50 velocity=64 time=57.5619449615
note_on channel=0 note=52 velocity=54 time=57.5657658577
note_on channel=0 note=53 velocity=70 time=57.9570109844
note_off channel=0 note=52 velocity=64 time=57.9831500053
note_on channel=0 note=55 velocity=66 time=58.366809845
note_off channel=0 note=53 velocity=64 time=58.3735690117
note_on channel=0 note=53 velocity=74 time=58.7889668941
note_off channel=0 note=55 velocity=64 time=58.8060538769
note_off channel=0 note=53 velocity=64 time=59.1673588753
note_on channel=0 note=52 velocity=87 time=59.1749899387
note_off channel=0 note=52 velocity=64 time=59.6377449036
note_on channel=0 note=50 velocity=87 time=59.6520068645
note_on channel=0 note=48 velocity=70 time=60.0623869896
note_off channel=0 note=50 velocity=64 time=60.0767228603
note_off channel=0 note=48 velocity=64 time=60.8883068562
note_on channel=0 note=48 velocity=54 time=77.0438878536
note_on channel=0 note=50 velocity=50 time=77.4008338451
note_off channel=0 note=48 velocity=64 time=77.4533989429
note_on channel=0 note=52 velocity=58 time=77.7634038925
note_off channel=0 note=50 velocity=64 time=77.7726428509
note_on channel=0 note=53 velocity=70 time=78.0871748924
note_off channel=0 note=52 velocity=64 time=78.1314840317
note_on channel=0 note=55 velocity=84 time=78.4510798454
note_off channel=0 note=53 velocity=64 time=78.4719150066
note_on channel=0 note=53 velocity=76 time=78.7880358696
note_off channel=0 note=55 velocity=64 time=78.8333108425
note_on channel=0 note=52 velocity=84 time=79.1572709084
note_off channel=0 note=53 velocity=64 time=79.1720809937
note_on channel=0 note=50 velocity=87 time=79.5035200119
note_off channel=0 note=52 velocity=64 time=79.5175039768
note_on channel=0 note=48 velocity=62 time=79.8347249031
note_off channel=0 note=50 velocity=64 time=79.8399579525
note_on channel=0 note=50 velocity=66 time=80.2537679672
note_off channel=0 note=48 velocity=64 time=80.2896139622
note_off channel=0 note=50 velocity=64 time=80.6492879391
note_on channel=0 note=52 velocity=61 time=80.6502158642
note_on channel=0 note=53 velocity=68 time=80.9988520145
note_off channel=0 note=52 velocity=64 time=81.0264239311
note_on channel=0 note=55 velocity=80 time=81.3553948402
note_off channel=0 note=53 velocity=64 time=81.3608138561
note_on channel=0 note=53 velocity=76 time=81.7065088749
note_off channel=0 note=55 velocity=64 time=81.7283639908
note_off channel=0 note=53 velocity=64 time=82.0467228889
note_on channel=0 note=52 velocity=93 time=82.0491628647
note_off channel=0 note=52 velocity=64 time=82.4134399891
note_on channel=0 note=50 velocity=87 time=82.4137458801
note_on channel=0 note=48 velocity=66 time=82.7588779926
note_off channel=0 note=50 velocity=64 time=82.7651820183
note_on channel=0 note=50 velocity=66 time=83.1413488388
note_off channel=0 note=48 velocity=64 time=83.1881020069
note_off channel=0 note=50 velocity=64 time=83.4826879501
note_on channel=0 note=52 velocity=61 time=83.4870018959
note_on channel=0 note=53 velocity=70 time=83.8323588371
note_off channel=0 note=52 velocity=64 time=83.8582189083
note_off channel=0 note=53 velocity=64 time=84.1546809673
note_on channel=0 note=55 velocity=78 time=84.1646170616
note_on channel=0 note=53 velocity=80 time=84.5175209045
note_off channel=0 note=55 velocity=64 time=84.545940876
note_off channel=0 note=53 velocity=64 time=84.9210488796
note_on channel=0 note=52 velocity=93 time=84.9213140011
note_off channel=0 note=52 velocity=64 time=85.3010408878
note_on channel=0 note=50 velocity=102 time=85.3046908379
note_on channel=0 note=48 velocity=76 time=85.6664190292
note_off channel=0 note=50 velocity=64 time=85.6778559685
note_off channel=0 note=48 velocity=64 time=87.9711060524
note_on channel=0 note=48 velocity=55 time=134.907234907
note_on channel=0 note=50 velocity=64 time=135.219668865
note_off channel=0 note=48 velocity=64 time=135.266401052
note_on channel=0 note=52 velocity=62 time=135.553861856
note_off channel=0 note=50 velocity=64 time=135.578101873
note_on channel=0 note=53 velocity=72 time=135.801904917
note_off channel=0 note=52 velocity=64 time=135.877956867
note_off channel=0 note=53 velocity=64 time=136.145118952
note_on channel=0 note=55 velocity=84 time=136.147819996
note_on channel=0 note=53 velocity=84 time=136.441902876
note_off channel=0 note=55 velocity=64 time=136.480557919
note_on channel=0 note=52 velocity=93 time=136.761487961
note_off channel=0 note=53 velocity=64 time=136.786118031
note_on channel=0 note=50 velocity=87 time=137.056984901
note_off channel=0 note=52 velocity=64 time=137.076717854
note_on channel=0 note=48 velocity=70 time=137.363600016
note_off channel=0 note=50 velocity=64 time=137.381134033
note_on channel=0 note=50 velocity=70 time=137.690752983
note_off channel=0 note=48 velocity=64 time=137.748220921
note_on channel=0 note=52 velocity=58 time=137.986642838
note_off channel=0 note=50 velocity=64 time=137.990108013
note_on channel=0 note=53 velocity=76 time=138.293546915
note_off channel=0 note=52 velocity=64 time=138.361700058
note_off channel=0 note=53 velocity=64 time=138.633817911
note_on channel=0 note=55 velocity=84 time=138.644024849
note_on channel=0 note=53 velocity=68 time=138.960700989
note_off channel=0 note=55 velocity=64 time=138.998642921
note_on channel=0 note=52 velocity=93 time=139.275156021
note_off channel=0 note=53 velocity=64 time=139.287065983
note_on channel=0 note=50 velocity=84 time=139.564146996
note_off channel=0 note=52 velocity=64 time=139.580016851
note_on channel=0 note=48 velocity=68 time=139.884943962
note_off channel=0 note=50 velocity=64 time=139.889476061
note_on channel=0 note=50 velocity=66 time=140.206313848
note_off channel=0 note=48 velocity=64 time=140.253717899
note_on channel=0 note=52 velocity=57 time=140.515439034
note_off channel=0 note=50 velocity=64 time=140.527602911
note_on channel=0 note=53 velocity=78 time=140.814378977
note_off channel=0 note=52 velocity=64 time=140.860070944
note_on channel=0 note=55 velocity=72 time=141.136796951
note_off channel=0 note=53 velocity=64 time=141.158798933
note_on channel=0 note=53 velocity=78 time=141.454197884
note_off channel=0 note=55 velocity=64 time=141.493521929
note_on channel=0 note=52 velocity=93 time=141.775234938
note_off channel=0 note=53 velocity=64 time=141.788830996
note_on channel=0 note=50 velocity=93 time=142.079217911
note_off channel=0 note=52 velocity=64 time=142.080013037
note_on channel=0 note=48 velocity=84 time=142.387032032
note_off channel=0 note=50 velocity=64 time=142.388663054
note_off channel=0 note=48 velocity=64 time=144.473337889
note_on channel=0 note=48 velocity=61 time=155.305341005
note_on channel=0 note=50 velocity=70 time=155.56399703
note_off channel=0 note=48 velocity=64 time=155.612483978
note_on channel=0 note=52 velocity=57 time=155.871089935
note_off channel=0 note=50 velocity=64 time=155.901267052
note_on channel=0 note=53 velocity=78 time=156.095043898
note_off channel=0 note=52 velocity=64 time=156.151113987
note_on channel=0 note=55 velocity=93 time=156.379916906
note_off channel=0 note=53 velocity=64 time=156.409029961
note_on channel=0 note=53 velocity=68 time=156.646596909
note_off channel=0 note=55 velocity=64 time=156.694813013
note_on channel=0 note=52 velocity=108 time=156.910465002
note_off channel=0 note=53 velocity=64 time=156.946454048
note_on channel=0 note=50 velocity=102 time=157.16315794
note_off channel=0 note=52 velocity=64 time=157.176625013
note_off channel=0 note=50 velocity=64 time=157.43346405
note_on channel=0 note=48 velocity=70 time=157.433600903
note_on channel=0 note=50 velocity=68 time=157.705430031
note_off channel=0 note=48 velocity=64 time=157.748563051
note_on channel=0 note=52 velocity=58 time=157.969606876
note_off channel=0 note=50 velocity=64 time=157.985709906
note_on channel=0 note=53 velocity=78 time=158.206591845
note_off channel=0 note=52 velocity=64 time=158.252274036
note_on channel=0 note=55 velocity=93 time=158.484289885
note_off channel=0 note=53 velocity=64 time=158.503538847
note_on channel=0 note=53 velocity=68 time=158.743530035
note_off channel=0 note=55 velocity=64 time=158.800404072
note_on channel=0 note=52 velocity=102 time=159.029109955
note_off channel=0 note=53 velocity=64 time=159.043760061
note_on channel=0 note=50 velocity=87 time=159.2940979
note_off channel=0 note=52 velocity=64 time=159.312028885
note_on channel=0 note=48 velocity=70 time=159.565678835
note_off channel=0 note=50 velocity=64 time=159.575309992
note_on channel=0 note=50 velocity=72 time=159.84552598
note_off channel=0 note=48 velocity=64 time=159.901119947
note_on channel=0 note=52 velocity=68 time=160.09008503
note_off channel=0 note=50 velocity=64 time=160.10676384
note_on channel=0 note=53 velocity=76 time=160.359900951
note_off channel=0 note=52 velocity=64 time=160.392235994
note_off channel=0 note=53 velocity=64 time=160.64384985
note_on channel=0 note=55 velocity=87 time=160.647310972
note_on channel=0 note=53 velocity=87 time=160.884824038
note_off channel=0 note=55 velocity=64 time=160.927619934
note_on channel=0 note=52 velocity=93 time=161.176141024
note_off channel=0 note=53 velocity=64 time=161.200263023
note_on channel=0 note=50 velocity=102 time=161.436573029
note_off channel=0 note=52 velocity=64 time=161.445847988
note_off channel=0 note=50 velocity=64 time=161.699951887
note_on channel=0 note=48 velocity=74 time=161.70975399
note_off channel=0 note=48 velocity=64 time=163.516412973
note_on channel=0 note=48 velocity=68 time=177.390775919
note_on channel=0 note=50 velocity=70 time=177.688812971
note_off channel=0 note=48 velocity=64 time=177.724720001
note_on channel=0 note=52 velocity=64 time=177.965298891
note_off channel=0 note=50 velocity=64 time=177.980129004
note_on channel=0 note=53 velocity=80 time=178.175068855
note_off channel=0 note=52 velocity=64 time=178.215301037
note_on channel=0 note=55 velocity=87 time=178.431313038
note_off channel=0 note=53 velocity=64 time=178.455736876
note_on channel=0 note=53 velocity=76 time=178.651448011
note_off channel=0 note=55 velocity=64 time=178.704177856
note_on channel=0 note=52 velocity=93 time=178.928370953
note_off channel=0 note=53 velocity=64 time=178.950042963
note_on channel=0 note=50 velocity=93 time=179.155004978
note_off channel=0 note=52 velocity=64 time=179.169090033
note_on channel=0 note=48 velocity=70 time=179.400644064
note_off channel=0 note=50 velocity=64 time=179.40324688
note_on channel=0 note=50 velocity=72 time=179.665807009
note_off channel=0 note=48 velocity=64 time=179.697896004
note_off channel=0 note=50 velocity=64 time=179.886664867
note_on channel=0 note=52 velocity=68 time=179.887934923
note_on channel=0 note=53 velocity=84 time=180.113888979
note_off channel=0 note=52 velocity=64 time=180.164183855
note_on channel=0 note=55 velocity=87 time=180.374984026
note_off channel=0 note=53 velocity=64 time=180.3892169
note_on channel=0 note=53 velocity=93 time=180.631674051
note_off channel=0 note=55 velocity=64 time=180.677978039
note_on channel=0 note=52 velocity=93 time=180.921890974
note_off channel=0 note=53 velocity=64 time=180.923609018
note_on channel=0 note=50 velocity=93 time=181.13903594
note_off channel=0 note=52 velocity=64 time=181.143983841
note_on channel=0 note=48 velocity=68 time=181.400774956
note_off channel=0 note=50 velocity=64 time=181.408902884
note_on channel=0 note=50 velocity=68 time=181.651695013
note_off channel=0 note=48 velocity=64 time=181.689712048
note_on channel=0 note=52 velocity=61 time=181.921532869
note_off channel=0 note=50 velocity=64 time=181.92712307
note_on channel=0 note=53 velocity=76 time=182.13994503
note_off channel=0 note=52 velocity=64 time=182.1655159
note_off channel=0 note=53 velocity=64 time=182.392297983
note_on channel=0 note=55 velocity=93 time=182.400975943
note_on channel=0 note=53 velocity=68 time=182.598599911
note_off channel=0 note=55 velocity=64 time=182.627083063
note_on channel=0 note=52 velocity=102 time=182.896474838
note_off channel=0 note=53 velocity=64 time=182.930474043
note_on channel=0 note=50 velocity=102 time=183.14526391
note_off channel=0 note=52 velocity=64 time=183.148965836
note_off channel=0 note=50 velocity=64 time=183.392848015
note_on channel=0 note=48 velocity=78 time=183.396748066
note_off channel=0 note=48 velocity=64 time=184.996599913
note_on channel=0 note=48 velocity=66 time=189.700011969
note_on channel=0 note=50 velocity=59 time=189.968755007
note_off channel=0 note=48 velocity=64 time=190.020570993
note_on channel=0 note=52 velocity=61 time=190.218472958
note_off channel=0 note=50 velocity=64 time=190.227910995
note_on channel=0 note=53 velocity=84 time=190.42530489
note_off channel=0 note=52 velocity=64 time=190.466558933
note_on channel=0 note=55 velocity=93 time=190.68027997
note_off channel=0 note=53 velocity=64 time=190.702745914
note_on channel=0 note=53 velocity=84 time=190.902277946
note_off channel=0 note=55 velocity=64 time=190.954138994
note_on channel=0 note=52 velocity=102 time=191.179996014
note_off channel=0 note=53 velocity=64 time=191.204161882
note_on channel=0 note=50 velocity=93 time=191.399220943
note_off channel=0 note=52 velocity=64 time=191.411641836
note_on channel=0 note=48 velocity=74 time=191.625876904
note_off channel=0 note=50 velocity=64 time=191.626277924
note_on channel=0 note=50 velocity=76 time=191.872860909
note_off channel=0 note=48 velocity=64 time=191.926712036
note_on channel=0 note=52 velocity=70 time=192.112355947
note_off channel=0 note=50 velocity=64 time=192.125004053
note_on channel=0 note=53 velocity=84 time=192.333708048
note_off channel=0 note=52 velocity=64 time=192.363061905
note_off channel=0 note=53 velocity=64 time=192.567383051
note_on channel=0 note=55 velocity=93 time=192.572779894
note_on channel=0 note=53 velocity=78 time=192.79012084
note_off channel=0 note=55 velocity=64 time=192.839585066
note_on channel=0 note=52 velocity=102 time=193.062869072
note_off channel=0 note=53 velocity=64 time=193.082191944
note_off channel=0 note=52 velocity=64 time=193.291549921
note_on channel=0 note=50 velocity=93 time=193.303652048
note_on channel=0 note=48 velocity=76 time=193.529551983
note_off channel=0 note=50 velocity=64 time=193.532490015
note_on channel=0 note=50 velocity=70 time=193.787989855
note_off channel=0 note=48 velocity=64 time=193.83237195
note_on channel=0 note=52 velocity=66 time=194.022115946
note_off channel=0 note=50 velocity=64 time=194.025686979
note_on channel=0 note=53 velocity=76 time=194.249175072
note_off channel=0 note=52 velocity=64 time=194.278678894
note_off channel=0 note=53 velocity=64 time=194.488529921
note_on channel=0 note=55 velocity=93 time=194.496258974
note_on channel=0 note=53 velocity=80 time=194.714700937
note_off channel=0 note=55 velocity=64 time=194.746187925
note_on channel=0 note=52 velocity=102 time=194.999294996
note_off channel=0 note=53 velocity=64 time=195.00718689
note_on channel=0 note=50 velocity=93 time=195.219049931
note_off channel=0 note=52 velocity=64 time=195.221557856
note_off channel=0 note=50 velocity=64 time=195.456963062
note_on channel=0 note=48 velocity=76 time=195.460238934
note_off channel=0 note=48 velocity=64 time=197.065885067
note_on channel=0 note=48 velocity=76 time=204.035245895
note_on channel=0 note=50 velocity=84 time=204.29668498
note_off channel=0 note=48 velocity=64 time=204.343412876
note_on channel=0 note=52 velocity=66 time=204.534749031
note_off channel=0 note=50 velocity=64 time=204.549128056
note_on channel=0 note=53 velocity=87 time=204.738353014
note_off channel=0 note=52 velocity=64 time=204.785943985
note_on channel=0 note=55 velocity=102 time=204.979382038
note_off channel=0 note=53 velocity=64 time=205.000014067
note_on channel=0 note=53 velocity=93 time=205.191668987
note_off channel=0 note=55 velocity=64 time=205.244297981
note_on channel=0 note=52 velocity=102 time=205.461655855
note_off channel=0 note=53 velocity=64 time=205.493299007
note_on channel=0 note=50 velocity=102 time=205.665366888
note_off channel=0 note=52 velocity=64 time=205.685230017
note_off channel=0 note=50 velocity=64 time=205.883686066
note_on channel=0 note=48 velocity=74 time=205.883802891
note_on channel=0 note=50 velocity=84 time=206.102203846
note_off channel=0 note=48 velocity=64 time=206.165291071
note_on channel=0 note=52 velocity=64 time=206.351183891
note_off channel=0 note=50 velocity=64 time=206.369912863
note_on channel=0 note=53 velocity=78 time=206.564817905
note_off channel=0 note=52 velocity=64 time=206.600524902
note_off channel=0 note=53 velocity=64 time=206.799245834
note_on channel=0 note=55 velocity=102 time=206.801671028
note_on channel=0 note=53 velocity=87 time=207.007432938
note_off channel=0 note=55 velocity=64 time=207.045202971
note_on channel=0 note=52 velocity=108 time=207.27135396
note_off channel=0 note=53 velocity=64 time=207.281861067
note_on channel=0 note=50 velocity=93 time=207.491342068
note_off channel=0 note=52 velocity=64 time=207.5067029
note_on channel=0 note=48 velocity=76 time=207.72218895
note_off channel=0 note=50 velocity=64 time=207.730358839
note_on channel=0 note=50 velocity=78 time=207.977170944
note_off channel=0 note=48 velocity=64 time=208.028338909
note_on channel=0 note=52 velocity=72 time=208.207962036
note_off channel=0 note=50 velocity=64 time=208.215224981
note_on channel=0 note=53 velocity=87 time=208.419472933
note_off channel=0 note=52 velocity=64 time=208.445844889
note_on channel=0 note=55 velocity=102 time=208.653799057
note_off channel=0 note=53 velocity=64 time=208.659826994
note_on channel=0 note=53 velocity=87 time=208.860911846
note_off channel=0 note=55 velocity=64 time=208.893643856
note_on channel=0 note=52 velocity=108 time=209.100018024
note_off channel=0 note=53 velocity=64 time=209.124445915
note_off channel=0 note=52 velocity=64 time=209.324568033
note_on channel=0 note=50 velocity=102 time=209.325469971
note_off channel=0 note=50 velocity=64 time=209.547116041
note_on channel=0 note=48 velocity=93 time=209.561240911
note_off channel=0 note=48 velocity=64 time=211.050587893
note_on channel=0 note=48 velocity=68 time=216.558061838
note_on channel=0 note=50 velocity=78 time=216.792067051
note_off channel=0 note=48 velocity=64 time=216.84196496
note_on channel=0 note=52 velocity=64 time=217.009222984
note_off channel=0 note=50 velocity=64 time=217.044029951
note_on channel=0 note=53 velocity=93 time=217.220736027
note_off channel=0 note=52 velocity=64 time=217.258818865
note_off channel=0 note=53 velocity=64 time=217.438312054
note_on channel=0 note=55 velocity=93 time=217.44182992
note_on channel=0 note=53 velocity=84 time=217.643306971
note_off channel=0 note=55 velocity=64 time=217.683114052
note_on channel=0 note=52 velocity=87 time=217.882549047
note_off channel=0 note=53 velocity=64 time=217.910058022
note_on channel=0 note=50 velocity=93 time=218.075037003
note_off channel=0 note=52 velocity=64 time=218.079367876
note_off channel=0 note=50 velocity=64 time=218.282732964
note_on channel=0 note=48 velocity=76 time=218.283395052
note_on channel=0 note=50 velocity=64 time=218.517266035
note_off channel=0 note=48 velocity=64 time=218.57702899
note_on channel=0 note=52 velocity=66 time=218.763546944
note_off channel=0 note=50 velocity=64 time=218.774255037
note_on channel=0 note=53 velocity=80 time=218.970829964
note_off channel=0 note=52 velocity=64 time=219.007544994
note_off channel=0 note=53 velocity=64 time=219.178663969
note_on channel=0 note=55 velocity=102 time=219.185306072
note_on channel=0 note=53 velocity=74 time=219.362161875
note_off channel=0 note=55 velocity=64 time=219.37419796
note_on channel=0 note=52 velocity=108 time=219.618933916
note_off channel=0 note=53 velocity=64 time=219.646419048
note_off channel=0 note=52 velocity=64 time=219.841632843
note_on channel=0 note=50 velocity=102 time=219.843176842
note_off channel=0 note=50 velocity=64 time=220.062058926
note_on channel=0 note=48 velocity=76 time=220.06871295
note_on channel=0 note=50 velocity=74 time=220.288764954
note_off channel=0 note=48 velocity=64 time=220.33748889
note_on channel=0 note=52 velocity=70 time=220.490702868
note_off channel=0 note=50 velocity=64 time=220.501670837
note_on channel=0 note=53 velocity=93 time=220.694247007
note_off channel=0 note=52 velocity=64 time=220.740288973
note_off channel=0 note=53 velocity=64 time=220.928618908
note_on channel=0 note=55 velocity=102 time=220.939132929
note_on channel=0 note=53 velocity=84 time=221.12321806
note_off channel=0 note=55 velocity=64 time=221.159159899
note_on channel=0 note=52 velocity=93 time=221.357666016
note_off channel=0 note=53 velocity=64 time=221.379709005
note_off channel=0 note=52 velocity=64 time=221.562676907
note_on channel=0 note=50 velocity=93 time=221.564767838
note_off channel=0 note=50 velocity=64 time=221.778964996
note_on channel=0 note=48 velocity=84 time=221.791419029
note_off channel=0 note=48 velocity=64 time=223.228385925
note_on channel=0 note=48 velocity=70 time=228.387994051
note_on channel=0 note=50 velocity=93 time=228.633592844
note_off channel=0 note=48 velocity=64 time=228.681403875
note_on channel=0 note=52 velocity=61 time=228.863324881
note_off channel=0 note=50 velocity=64 time=228.877459049
note_on channel=0 note=53 velocity=80 time=229.043956041
note_off channel=0 note=52 velocity=64 time=229.080540895
note_off channel=0 note=53 velocity=64 time=229.25689888
note_on channel=0 note=55 velocity=93 time=229.27176404
note_on channel=0 note=53 velocity=76 time=229.447326899
note_off channel=0 note=55 velocity=64 time=229.480370045
note_on channel=0 note=52 velocity=102 time=229.682482004
note_off channel=0 note=53 velocity=64 time=229.715350866
note_on channel=0 note=50 velocity=102 time=229.876322985
note_off channel=0 note=52 velocity=64 time=229.879798889
note_off channel=0 note=50 velocity=64 time=230.088171005
note_on channel=0 note=48 velocity=74 time=230.092319965
note_on channel=0 note=50 velocity=76 time=230.301710844
note_off channel=0 note=48 velocity=64 time=230.350988865
note_on channel=0 note=52 velocity=61 time=230.50662899
note_off channel=0 note=50 velocity=64 time=230.516749859
note_on channel=0 note=53 velocity=84 time=230.711232901
note_off channel=0 note=52 velocity=64 time=230.76392293
note_off channel=0 note=53 velocity=64 time=230.929034948
note_on channel=0 note=55 velocity=102 time=230.938416004
note_on channel=0 note=53 velocity=80 time=231.10756588
note_off channel=0 note=55 velocity=64 time=231.131772041
note_on channel=0 note=52 velocity=102 time=231.337339878
note_off channel=0 note=53 velocity=64 time=231.376502991
note_off channel=0 note=52 velocity=64 time=231.527274847
note_on channel=0 note=50 velocity=102 time=231.538478851
note_on channel=0 note=48 velocity=78 time=231.75016284
note_off channel=0 note=50 velocity=64 time=231.754683971
note_on channel=0 note=50 velocity=72 time=231.968446016
note_off channel=0 note=48 velocity=64 time=232.012223959
note_on channel=0 note=52 velocity=68 time=232.138280869
note_off channel=0 note=50 velocity=64 time=232.152292967
note_on channel=0 note=53 velocity=87 time=232.358520031
note_off channel=0 note=52 velocity=64 time=232.394271851
note_off channel=0 note=53 velocity=64 time=232.596184969
note_on channel=0 note=55 velocity=93 time=232.608412027
note_on channel=0 note=53 velocity=74 time=232.79310298
note_off channel=0 note=55 velocity=64 time=232.818699837
note_on channel=0 note=52 velocity=102 time=233.035124063
note_off channel=0 note=53 velocity=64 time=233.058440924
note_on channel=0 note=50 velocity=102 time=233.231993914
note_off channel=0 note=52 velocity=64 time=233.232133865
note_off channel=0 note=50 velocity=64 time=233.435278893
note_on channel=0 note=48 velocity=93 time=233.44421792
note_off channel=0 note=48 velocity=64 time=234.800397873
note_on channel=0 note=48 velocity=64 time=240.282968998
note_on channel=0 note=50 velocity=68 time=240.463019848
note_off channel=0 note=48 velocity=64 time=240.534885883
note_on channel=0 note=52 velocity=61 time=240.664521933
note_off channel=0 note=50 velocity=64 time=240.700065851
note_on channel=0 note=53 velocity=80 time=240.867321968
note_off channel=0 note=52 velocity=64 time=240.924373865
note_on channel=0 note=55 velocity=78 time=241.0785079
note_off channel=0 note=53 velocity=64 time=241.080971956
note_on channel=0 note=53 velocity=72 time=241.264921904
note_off channel=0 note=55 velocity=64 time=241.295732021
note_on channel=0 note=52 velocity=93 time=241.472296
note_off channel=0 note=53 velocity=64 time=241.509340048
note_off channel=0 note=52 velocity=64 time=241.663908005
note_on channel=0 note=50 velocity=102 time=241.671879053
note_off channel=0 note=50 velocity=64 time=241.853855848
note_on channel=0 note=48 velocity=70 time=241.854502916
note_on channel=0 note=50 velocity=64 time=242.0844419
note_off channel=0 note=48 velocity=64 time=242.137856007
note_on channel=0 note=52 velocity=66 time=242.248898029
note_off channel=0 note=50 velocity=64 time=242.251147985
note_on channel=0 note=53 velocity=78 time=242.437978029
note_off channel=0 note=52 velocity=64 time=242.480774879
note_off channel=0 note=53 velocity=64 time=242.63959384
note_on channel=0 note=55 velocity=102 time=242.651041031
note_on channel=0 note=53 velocity=64 time=242.780950069
note_off channel=0 note=55 velocity=64 time=242.808516026
note_on channel=0 note=52 velocity=93 time=243.054736853
note_off channel=0 note=53 velocity=64 time=243.091863871
note_on channel=0 note=50 velocity=93 time=243.236315012
note_off channel=0 note=52 velocity=64 time=243.238920927
note_off channel=0 note=50 velocity=64 time=243.440089941
note_on channel=0 note=48 velocity=72 time=243.442471981
note_on channel=0 note=50 velocity=68 time=243.644840002
note_off channel=0 note=48 velocity=64 time=243.708919048
note_on channel=0 note=52 velocity=68 time=243.854106903
note_off channel=0 note=50 velocity=64 time=243.856368065
note_on channel=0 note=53 velocity=87 time=244.03867197
note_off channel=0 note=52 velocity=64 time=244.08810401
note_off channel=0 note=53 velocity=64 time=244.266137838
note_on channel=0 note=55 velocity=93 time=244.269855976
note_on channel=0 note=53 velocity=80 time=244.424612999
note_off channel=0 note=55 velocity=64 time=244.455677986
note_on channel=0 note=52 velocity=102 time=244.640977859
note_off channel=0 note=53 velocity=64 time=244.656168938
note_on channel=0 note=50 velocity=102 time=244.832721949
note_off channel=0 note=52 velocity=64 time=244.837036848
note_off channel=0 note=50 velocity=64 time=245.023766041
note_on channel=0 note=48 velocity=84 time=245.038112879
note_off channel=0 note=48 velocity=64 time=246.262302876
note_on channel=0 note=48 velocity=70 time=252.003799915
note_on channel=0 note=50 velocity=72 time=252.181006908
note_off channel=0 note=48 velocity=64 time=252.226824045
note_on channel=0 note=52 velocity=64 time=252.356925011
note_off channel=0 note=50 velocity=64 time=252.389766932
note_on channel=0 note=53 velocity=70 time=252.529198885
note_off channel=0 note=52 velocity=64 time=252.578038931
note_off channel=0 note=53 velocity=64 time=252.733427048
note_on channel=0 note=55 velocity=84 time=252.744211912
note_on channel=0 note=53 velocity=74 time=252.927065849
note_off channel=0 note=55 velocity=64 time=252.967026949
note_on channel=0 note=52 velocity=93 time=253.151797056
note_off channel=0 note=53 velocity=64 time=253.163064003
note_on channel=0 note=50 velocity=102 time=253.336221933
note_off channel=0 note=52 velocity=64 time=253.354264021
note_off channel=0 note=50 velocity=64 time=253.516680956
note_on channel=0 note=48 velocity=78 time=253.521795988
note_on channel=0 note=50 velocity=66 time=253.70886302
note_off channel=0 note=48 velocity=64 time=253.772987843
note_on channel=0 note=52 velocity=68 time=253.881496906
note_off channel=0 note=50 velocity=64 time=253.902526855
note_on channel=0 note=53 velocity=74 time=254.084182024
note_off channel=0 note=52 velocity=64 time=254.147246838
note_off channel=0 note=53 velocity=64 time=254.291688919
note_on channel=0 note=55 velocity=93 time=254.30605793
note_on channel=0 note=53 velocity=72 time=254.473459005
note_off channel=0 note=55 velocity=64 time=254.502076864
note_on channel=0 note=52 velocity=93 time=254.682663918
note_off channel=0 note=53 velocity=64 time=254.714370966
note_on channel=0 note=50 velocity=102 time=254.861311913
note_off channel=0 note=52 velocity=64 time=254.874471903
note_off channel=0 note=50 velocity=64 time=255.054497957
note_on channel=0 note=48 velocity=74 time=255.055336952
note_on channel=0 note=50 velocity=66 time=255.257539034
note_off channel=0 note=48 velocity=64 time=255.316141844
note_on channel=0 note=52 velocity=66 time=255.433061838
note_off channel=0 note=50 velocity=64 time=255.444923878
note_on channel=0 note=53 velocity=84 time=255.612084866
note_off channel=0 note=52 velocity=64 time=255.665483952
note_off channel=0 note=53 velocity=64 time=255.815841913
note_on channel=0 note=55 velocity=102 time=255.826444864
note_on channel=0 note=53 velocity=70 time=255.982871056
note_off channel=0 note=55 velocity=64 time=255.998466969
note_on channel=0 note=52 velocity=102 time=256.197938919
note_off channel=0 note=53 velocity=64 time=256.230988979
note_on channel=0 note=50 velocity=102 time=256.373147011
note_off channel=0 note=52 velocity=64 time=256.392717838
note_off channel=0 note=50 velocity=64 time=256.553573847
note_on channel=0 note=48 velocity=84 time=256.565629959
note_off channel=0 note=48 velocity=64 time=257.716318846
note_on channel=0 note=48 velocity=74 time=262.597691059
note_on channel=0 note=50 velocity=66 time=262.760643005
note_off channel=0 note=48 velocity=64 time=262.825055838
note_on channel=0 note=52 velocity=61 time=262.950515032
note_off channel=0 note=50 velocity=64 time=262.99180603
note_on channel=0 note=53 velocity=76 time=263.102388859
note_off channel=0 note=52 velocity=64 time=263.186900854
note_off channel=0 note=53 velocity=64 time=263.30446887
note_on channel=0 note=55 velocity=102 time=263.316109896
note_on channel=0 note=53 velocity=74 time=263.450144053
note_off channel=0 note=55 velocity=64 time=263.48260498
note_on channel=0 note=52 velocity=93 time=263.646987915
note_off channel=0 note=53 velocity=64 time=263.679388046
note_on channel=0 note=50 velocity=84 time=263.815042973
note_off channel=0 note=52 velocity=64 time=263.822579861
note_on channel=0 note=48 velocity=70 time=264.001643896
note_off channel=0 note=50 velocity=64 time=264.169656992
note_on channel=0 note=50 velocity=68 time=264.178459883
note_off channel=0 note=48 velocity=64 time=264.251176834
note_on channel=0 note=52 velocity=64 time=264.359675884
note_off channel=0 note=50 velocity=64 time=264.361153841
note_on channel=0 note=53 velocity=58 time=264.53727603
note_off channel=0 note=52 velocity=64 time=264.602387905
note_off channel=0 note=53 velocity=64 time=264.724159956
note_on channel=0 note=55 velocity=102 time=264.744992971
note_on channel=0 note=53 velocity=74 time=264.875782967
note_off channel=0 note=55 velocity=64 time=264.899724007
note_on channel=0 note=52 velocity=102 time=265.120230913
note_off channel=0 note=53 velocity=64 time=265.144670963
note_off channel=0 note=52 velocity=64 time=265.306563854
note_on channel=0 note=50 velocity=93 time=265.319378853
note_off channel=0 note=50 velocity=64 time=265.502110958
note_on channel=0 note=48 velocity=78 time=265.508970976
note_on channel=0 note=50 velocity=80 time=265.685662985
note_off channel=0 note=48 velocity=64 time=265.741734028
note_off channel=0 note=50 velocity=64 time=265.892163038
note_on channel=0 note=52 velocity=68 time=265.892385006
note_on channel=0 note=53 velocity=80 time=266.046113014
note_off channel=0 note=52 velocity=64 time=266.084421873
note_off channel=0 note=53 velocity=64 time=266.219704866
note_on channel=0 note=55 velocity=87 time=266.244802952
note_on channel=0 note=53 velocity=59 time=266.322576046
note_off channel=0 note=55 velocity=64 time=266.362344027
note_on channel=0 note=52 velocity=108 time=266.569561005
note_off channel=0 note=53 velocity=64 time=266.608985901
note_on channel=0 note=50 velocity=108 time=266.765006065
note_off channel=0 note=52 velocity=64 time=266.773836851
note_off channel=0 note=50 velocity=64 time=266.93294096
note_on channel=0 note=48 velocity=93 time=266.95460391
note_off channel=0 note=48 velocity=64 time=267.994701862
note_on channel=0 note=48 velocity=66 time=273.038501978
note_on channel=0 note=50 velocity=68 time=273.231709003
note_off channel=0 note=48 velocity=64 time=273.313066959
note_on channel=0 note=52 velocity=64 time=273.388752937
note_off channel=0 note=50 velocity=64 time=273.41019702
note_on channel=0 note=53 velocity=76 time=273.56001091
note_off channel=0 note=52 velocity=64 time=273.609125853
note_off channel=0 note=53 velocity=64 time=273.734488964
note_on channel=0 note=55 velocity=93 time=273.74636507
note_on channel=0 note=53 velocity=70 time=273.860713959
note_off channel=0 note=55 velocity=64 time=273.894705057
note_on channel=0 note=52 velocity=80 time=274.094164848
note_off channel=0 note=53 velocity=64 time=274.122787952
note_off channel=0 note=52 velocity=64 time=274.267094851
note_on channel=0 note=50 velocity=102 time=274.270663023
note_off channel=0 note=50 velocity=64 time=274.434123039
note_on channel=0 note=48 velocity=76 time=274.441720963
note_on channel=0 note=50 velocity=74 time=274.610223055
note_off channel=0 note=48 velocity=64 time=274.687289
note_on channel=0 note=52 velocity=62 time=274.796659946
note_off channel=0 note=50 velocity=64 time=274.802461863
note_on channel=0 note=53 velocity=80 time=274.952870846
note_off channel=0 note=52 velocity=64 time=275.020534039
note_off channel=0 note=53 velocity=64 time=275.126618862
note_on channel=0 note=53 velocity=66 time=275.15987587
note_on channel=0 note=55 velocity=61 time=275.280323982
note_off channel=0 note=53 velocity=64 time=275.304632902
note_off channel=0 note=55 velocity=64 time=275.511611938
note_on channel=0 note=52 velocity=72 time=275.529821873
note_on channel=0 note=50 velocity=87 time=275.668977022
note_off channel=0 note=52 velocity=64 time=275.727643967
note_off channel=0 note=50 velocity=64 time=275.799509048
note_on channel=0 note=48 velocity=78 time=275.803750038
note_on channel=0 note=50 velocity=80 time=275.954462051
note_off channel=0 note=48 velocity=64 time=276.080040932
note_on channel=0 note=52 velocity=62 time=276.112830877
note_off channel=0 note=50 velocity=64 time=276.125339031
note_on channel=0 note=53 velocity=76 time=276.240653992
note_off channel=0 note=52 velocity=64 time=276.403104067
note_off channel=0 note=53 velocity=64 time=276.43073988
note_on channel=0 note=55 velocity=102 time=276.45668602
note_on channel=0 note=53 velocity=66 time=276.597857952
note_off channel=0 note=55 velocity=64 time=276.628727913
note_on channel=0 note=52 velocity=102 time=276.806182861
note_off channel=0 note=53 velocity=64 time=276.841742992
note_on channel=0 note=50 velocity=87 time=276.944746017
note_off channel=0 note=52 velocity=64 time=276.969444036
note_off channel=0 note=50 velocity=64 time=277.126000881
note_on channel=0 note=48 velocity=87 time=277.137500048
note_off channel=0 note=48 velocity=64 time=277.381193876
note_on channel=0 note=48 velocity=78 time=278.487612009
note_on channel=0 note=50 velocity=70 time=278.671578884
note_off channel=0 note=48 velocity=64 time=278.743447065
note_on channel=0 note=52 velocity=58 time=278.85144186
note_off channel=0 note=50 velocity=64 time=278.883960962
note_on channel=0 note=53 velocity=87 time=279.017925978
note_off channel=0 note=52 velocity=64 time=279.088942051
note_off channel=0 note=53 velocity=64 time=279.156583071
note_on channel=0 note=55 velocity=87 time=279.174504995
note_on channel=0 note=53 velocity=78 time=279.322716951
note_off channel=0 note=55 velocity=64 time=279.34137702
note_on channel=0 note=52 velocity=102 time=279.549684048
note_off channel=0 note=53 velocity=64 time=279.575994968
note_on channel=0 note=50 velocity=102 time=279.694189072
note_off channel=0 note=52 velocity=64 time=279.726354837
note_on channel=0 note=48 velocity=76 time=279.850625038
note_off channel=0 note=50 velocity=64 time=279.861119986
note_on channel=0 note=50 velocity=84 time=280.029202938
note_off channel=0 note=48 velocity=64 time=280.09890604
note_on channel=0 note=52 velocity=64 time=280.20727706
note_off channel=0 note=50 velocity=64 time=280.241369009
note_on channel=0 note=53 velocity=93 time=280.375092983
note_off channel=0 note=52 velocity=64 time=280.45739007
note_off channel=0 note=53 velocity=64 time=280.552114964
note_on channel=0 note=55 velocity=102 time=280.568697929
note_on channel=0 note=53 velocity=74 time=280.717752934
note_off channel=0 note=55 velocity=64 time=280.735754013
note_on channel=0 note=52 velocity=87 time=280.92307806
note_off channel=0 note=53 velocity=64 time=280.957191944
note_on channel=0 note=50 velocity=93 time=281.068042994
note_off channel=0 note=52 velocity=64 time=281.091428995
note_off channel=0 note=50 velocity=64 time=281.215368986
note_on channel=0 note=48 velocity=80 time=281.222449064
note_on channel=0 note=50 velocity=84 time=281.384038925
note_off channel=0 note=48 velocity=64 time=281.454905987
note_on channel=0 note=52 velocity=70 time=281.552988052
note_off channel=0 note=50 velocity=64 time=281.579926014
note_on channel=0 note=53 velocity=78 time=281.707507849
note_off channel=0 note=52 velocity=64 time=281.798087835
note_off channel=0 note=53 velocity=64 time=281.880610943
note_on channel=0 note=55 velocity=108 time=281.904932022
note_on channel=0 note=53 velocity=70 time=282.032237053
note_off channel=0 note=55 velocity=64 time=282.040467024
note_on channel=0 note=52 velocity=76 time=282.216804028
note_off channel=0 note=53 velocity=64 time=282.261792898
note_on channel=0 note=50 velocity=102 time=282.398680925
note_off channel=0 note=52 velocity=64 time=282.41118598
note_off channel=0 note=50 velocity=64 time=282.556293964
note_on channel=0 note=48 velocity=78 time=282.562747955
note_off channel=0 note=48 velocity=64 time=282.912294865
note_on channel=0 note=48 velocity=80 time=283.898505926
note_on channel=0 note=50 velocity=72 time=284.067427874
note_off channel=0 note=48 velocity=64 time=284.125635862
note_on channel=0 note=52 velocity=55 time=284.251121998
note_off channel=0 note=50 velocity=64 time=284.284520864
note_on channel=0 note=53 velocity=84 time=284.41957593
note_off channel=0 note=52 velocity=64 time=284.524916887
note_off channel=0 note=53 velocity=64 time=284.580141068
note_on channel=0 note=55 velocity=93 time=284.605983973
note_on channel=0 note=53 velocity=74 time=284.756847858
note_off channel=0 note=55 velocity=64 time=284.780185938
note_on channel=0 note=52 velocity=93 time=284.925791025
note_off channel=0 note=53 velocity=64 time=284.955477953
note_on channel=0 note=50 velocity=102 time=285.09443593
note_off channel=0 note=52 velocity=64 time=285.126790047
note_on channel=0 note=48 velocity=76 time=285.266031027
note_off channel=0 note=50 velocity=64 time=285.268579006
note_on channel=0 note=50 velocity=70 time=285.470665932
note_off channel=0 note=48 velocity=64 time=285.534421921
note_on channel=0 note=52 velocity=62 time=285.625108004
note_off channel=0 note=50 velocity=64 time=285.644912004
note_on channel=0 note=53 velocity=87 time=285.778584003
note_off channel=0 note=52 velocity=64 time=285.901913881
note_off channel=0 note=53 velocity=64 time=285.949977875
note_on channel=0 note=55 velocity=102 time=285.961017847
note_on channel=0 note=57 velocity=87 time=285.961093903
note_off channel=0 note=57 velocity=64 time=286.088712931
note_off channel=0 note=55 velocity=64 time=286.09098506
note_on channel=0 note=53 velocity=66 time=286.092352867
note_on channel=0 note=52 velocity=64 time=286.261528969
note_off channel=0 note=53 velocity=64 time=286.304951906
note_on channel=0 note=50 velocity=93 time=286.444234848
note_off channel=0 note=52 velocity=64 time=286.500974894
note_off channel=0 note=50 velocity=64 time=286.646530867
note_on channel=0 note=48 velocity=72 time=286.653615952
note_on channel=0 note=50 velocity=80 time=286.827996016
note_off channel=0 note=48 velocity=64 time=286.904209852
note_off channel=0 note=50 velocity=64 time=286.957706928
note_on channel=0 note=55 velocity=66 time=287.062788963
note_on channel=0 note=53 velocity=76 time=287.103854895
note_off channel=0 note=55 velocity=64 time=287.168267965
note_off channel=0 note=53 velocity=64 time=287.216815948
note_on channel=0 note=50 velocity=102 time=287.237931013
note_off channel=0 note=50 velocity=64 time=287.303884983
note_on channel=0 note=55 velocity=87 time=287.37814188
note_on channel=0 note=53 velocity=108 time=287.397179842
note_off channel=0 note=55 velocity=64 time=287.431802034
note_off channel=0 note=53 velocity=64 time=287.458914995
note_on channel=0 note=50 velocity=80 time=287.507830858
note_on channel=0 note=48 velocity=70 time=287.509074926
note_off channel=0 note=50 velocity=64 time=287.527268887
note_off channel=0 note=48 velocity=64 time=287.532086849
note_on channel=0 note=55 velocity=70 time=287.624548912
note_on channel=0 note=52 velocity=74 time=287.644260883
note_on channel=0 note=53 velocity=78 time=287.644440889
note_off channel=0 note=53 velocity=64 time=287.656967878
note_off channel=0 note=52 velocity=64 time=287.66012001
note_off channel=0 note=55 velocity=64 time=287.669371843
note_on channel=0 note=50 velocity=87 time=287.681761026
note_off channel=0 note=50 velocity=64 time=287.706080914
note_on channel=0 note=48 velocity=93 time=287.722553015
note_off channel=0 note=48 velocity=64 time=287.788094044
note_on channel=0 note=55 velocity=68 time=287.886844873
note_on channel=0 note=52 velocity=93 time=287.897505999
note_on channel=0 note=53 velocity=58 time=287.900635004
note_off channel=0 note=52 velocity=64 time=287.916888952
note_off channel=0 note=53 velocity=64 time=287.919461966
note_on channel=0 note=50 velocity=93 time=287.932908058
note_off channel=0 note=55 velocity=64 time=287.947033882
note_off channel=0 note=50 velocity=64 time=287.953369856
note_on channel=0 note=48 velocity=62 time=292.539059877
note_on channel=0 note=50 velocity=64 time=292.684677839
note_off channel=0 note=48 velocity=64 time=292.733325005
note_on channel=0 note=52 velocity=55 time=292.836087942
note_off channel=0 note=50 velocity=64 time=292.875153065
note_on channel=0 note=53 velocity=74 time=292.970402956
note_off channel=0 note=52 velocity=64 time=293.124136925
note_off channel=0 note=53 velocity=64 time=293.173847914
note_on channel=0 note=55 velocity=87 time=293.180634022
note_on channel=0 note=53 velocity=72 time=293.336091042
note_off channel=0 note=55 velocity=64 time=293.355238914
note_on channel=0 note=52 velocity=80 time=293.552863836
note_off channel=0 note=53 velocity=64 time=293.585896015
note_on channel=0 note=50 velocity=84 time=293.725358009
note_off channel=0 note=52 velocity=64 time=293.742133856
note_on channel=0 note=48 velocity=66 time=293.887600899
note_off channel=0 note=50 velocity=64 time=293.955293894
note_on channel=0 note=50 velocity=66 time=294.054543972
note_off channel=0 note=48 velocity=64 time=294.121070862
note_on channel=0 note=52 velocity=59 time=294.192798853
note_off channel=0 note=50 velocity=64 time=294.21706605
note_on channel=0 note=53 velocity=84 time=294.344001055
note_off channel=0 note=52 velocity=64 time=294.41257
note_off channel=0 note=53 velocity=64 time=294.504174948
note_on channel=0 note=55 velocity=102 time=294.514577866
note_on channel=0 note=53 velocity=70 time=294.664980888
note_off channel=0 note=55 velocity=64 time=294.689484835
note_on channel=0 note=52 velocity=76 time=294.854542971
note_off channel=0 note=53 velocity=64 time=294.891131878
note_on channel=0 note=50 velocity=102 time=295.018688917
note_off channel=0 note=52 velocity=64 time=295.034886837
note_off channel=0 note=50 velocity=64 time=295.17519784
note_on channel=0 note=48 velocity=70 time=295.175539017
note_on channel=0 note=50 velocity=66 time=295.332520962
note_off channel=0 note=48 velocity=64 time=295.405796051
note_on channel=0 note=52 velocity=70 time=295.490100861
note_off channel=0 note=50 velocity=64 time=295.508950949
note_on channel=0 note=53 velocity=93 time=295.662406921
note_off channel=0 note=52 velocity=64 time=295.720937014
note_off channel=0 note=53 velocity=64 time=295.826092958
note_on channel=0 note=55 velocity=108 time=295.841464996
note_on channel=0 note=53 velocity=70 time=295.966243982
note_off channel=0 note=55 velocity=64 time=295.985463858
note_on channel=0 note=52 velocity=93 time=296.144299984
note_off channel=0 note=53 velocity=64 time=296.17967391
note_on channel=0 note=50 velocity=102 time=296.304111958
note_off channel=0 note=52 velocity=64 time=296.319195986
note_off channel=0 note=50 velocity=64 time=296.467531919
note_on channel=0 note=48 velocity=93 time=296.481246948
note_off channel=0 note=48 velocity=64 time=296.778755903
note_on channel=0 note=48 velocity=80 time=297.773772955
note_on channel=0 note=50 velocity=64 time=297.924308062
note_off channel=0 note=48 velocity=64 time=298.000324011
note_on channel=0 note=52 velocity=55 time=298.103697062
note_off channel=0 note=50 velocity=64 time=298.139086008
note_on channel=0 note=53 velocity=80 time=298.250083923
note_off channel=0 note=52 velocity=64 time=298.366690874
note_off channel=0 note=53 velocity=64 time=298.399028063
note_on channel=0 note=55 velocity=87 time=298.409554005
note_on channel=0 note=53 velocity=76 time=298.558991909
note_off channel=0 note=55 velocity=64 time=298.586506844
note_on channel=0 note=52 velocity=102 time=298.768586874
note_off channel=0 note=53 velocity=64 time=298.784950972
note_on channel=0 note=50 velocity=93 time=298.920186043
note_off channel=0 note=52 velocity=64 time=298.957265854
note_on channel=0 note=48 velocity=74 time=299.079773903
note_off channel=0 note=50 velocity=64 time=299.086775064
note_on channel=0 note=50 velocity=70 time=299.253424883
note_off channel=0 note=48 velocity=64 time=299.314988852
note_on channel=0 note=52 velocity=64 time=299.403476
note_off channel=0 note=50 velocity=64 time=299.436776876
note_on channel=0 note=53 velocity=70 time=299.557724953
note_off channel=0 note=52 velocity=64 time=299.694997072
note_off channel=0 note=53 velocity=64 time=299.740081072
note_on channel=0 note=55 velocity=93 time=299.751991034
note_on channel=0 note=53 velocity=64 time=299.882403851
note_off channel=0 note=55 velocity=64 time=299.904711962
note_on channel=0 note=52 velocity=78 time=300.062228918
note_off channel=0 note=53 velocity=64 time=300.130805016
note_on channel=0 note=50 velocity=108 time=300.227056026
note_off channel=0 note=52 velocity=64 time=300.258599997
note_on channel=0 note=48 velocity=70 time=300.385344028
note_off channel=0 note=50 velocity=64 time=300.399348974
note_on channel=0 note=50 velocity=84 time=300.545158863
note_off channel=0 note=48 velocity=64 time=300.601453066
note_on channel=0 note=52 velocity=68 time=300.727705002
note_off channel=0 note=50 velocity=64 time=300.757964849
note_on channel=0 note=53 velocity=80 time=300.87005806
note_off channel=0 note=52 velocity=64 time=301.01977396
note_off channel=0 note=53 velocity=64 time=301.052382946
note_on channel=0 note=55 velocity=93 time=301.06714201
note_on channel=0 note=57 velocity=84 time=301.071321964
note_on channel=0 note=53 velocity=68 time=301.194474936
note_off channel=0 note=57 velocity=64 time=301.199149847
note_off channel=0 note=55 velocity=64 time=301.201303005
note_on channel=0 note=52 velocity=80 time=301.348446846
note_off channel=0 note=53 velocity=64 time=301.396334887
note_on channel=0 note=50 velocity=108 time=301.505377054
note_off channel=0 note=52 velocity=64 time=301.566058874
note_on channel=0 note=48 velocity=84 time=301.670688868
note_off channel=0 note=50 velocity=64 time=301.689512014
note_off channel=0 note=48 velocity=64 time=301.968663931
note_on channel=0 note=48 velocity=87 time=303.040755033
note_on channel=0 note=50 velocity=70 time=303.190821886
note_off channel=0 note=48 velocity=64 time=303.249189854
note_on channel=0 note=52 velocity=58 time=303.354012012
note_off channel=0 note=50 velocity=64 time=303.404690981
note_on channel=0 note=53 velocity=74 time=303.48289299
note_off channel=0 note=52 velocity=64 time=303.596796036
note_on channel=0 note=55 velocity=93 time=303.673706055
note_off channel=0 note=53 velocity=64 time=303.710268021
note_on channel=0 note=53 velocity=68 time=303.833768845
note_off channel=0 note=55 velocity=64 time=303.862365961
note_on channel=0 note=52 velocity=78 time=303.952162027
note_off channel=0 note=53 velocity=64 time=303.982923985
note_on channel=0 note=50 velocity=84 time=304.094326019
note_off channel=0 note=52 velocity=64 time=304.137645006
note_on channel=0 note=48 velocity=68 time=304.283902884
note_off channel=0 note=50 velocity=64 time=304.303820848
note_on channel=0 note=50 velocity=70 time=304.450764894
note_off channel=0 note=48 velocity=64 time=304.528627872
note_on channel=0 note=52 velocity=62 time=304.642967939
note_off channel=0 note=50 velocity=64 time=304.680489063
note_on channel=0 note=53 velocity=76 time=304.814687967
note_off channel=0 note=52 velocity=64 time=304.922906876
note_off channel=0 note=53 velocity=64 time=304.985123873
note_on channel=0 note=55 velocity=102 time=304.989722967
note_on channel=0 note=53 velocity=72 time=305.135520935
note_off channel=0 note=55 velocity=64 time=305.158645868
note_on channel=0 note=52 velocity=70 time=305.26718998
note_off channel=0 note=53 velocity=64 time=305.324317932
note_on channel=0 note=50 velocity=93 time=305.426952839
note_off channel=0 note=52 velocity=64 time=305.467396021
note_on channel=0 note=48 velocity=72 time=305.605998993
note_off channel=0 note=50 velocity=64 time=305.621623039
note_on channel=0 note=50 velocity=74 time=305.773751974
note_off channel=0 note=48 velocity=64 time=305.834782839
note_on channel=0 note=52 velocity=59 time=305.949179888
note_off channel=0 note=50 velocity=64 time=305.991137028
note_on channel=0 note=53 velocity=76 time=306.11283803
note_off channel=0 note=52 velocity=64 time=306.225970984
note_on channel=0 note=55 velocity=102 time=306.291094065
note_off channel=0 note=53 velocity=64 time=306.291815996
note_on channel=0 note=53 velocity=72 time=306.418900967
note_off channel=0 note=55 velocity=64 time=306.443138838
note_on channel=0 note=52 velocity=84 time=306.545284986
note_off channel=0 note=53 velocity=64 time=306.565872908
note_on channel=0 note=50 velocity=102 time=306.707674026
note_off channel=0 note=52 velocity=64 time=306.761167049
note_on channel=0 note=48 velocity=87 time=306.90000391
note_off channel=0 note=50 velocity=64 time=306.902335882
note_off channel=0 note=48 velocity=64 time=307.196230888
