note_on channel=0 note=57 velocity=48 time=5.02502703667
note_off channel=0 note=57 velocity=64 time=5.13155007362
note_on channel=0 note=57 velocity=42 time=5.77118301392
note_off channel=0 note=57 velocity=64 time=5.88649892807
note_on channel=0 note=57 velocity=57 time=6.50815701485
note_off channel=0 note=57 velocity=64 time=6.61595892906
note_on channel=0 note=57 velocity=15 time=28.4312000275
note_off channel=0 note=57 velocity=64 time=29.6979529858
note_on channel=0 note=57 velocity=28 time=30.3484079838
note_off channel=0 note=57 velocity=64 time=31.9377369881
note_on channel=0 note=55 velocity=36 time=32.3321130276
note_on channel=0 note=57 velocity=42 time=32.3400099277
note_off channel=0 note=57 velocity=64 time=33.0876989365
note_off channel=0 note=55 velocity=64 time=33.1074268818
note_on channel=0 note=55 velocity=32 time=33.9089500904
note_off channel=0 note=55 velocity=64 time=35.3300139904
note_on channel=0 note=55 velocity=22 time=35.9705319405
note_off channel=0 note=55 velocity=64 time=36.562016964
note_on channel=0 note=55 velocity=18 time=37.1928551197
note_off channel=0 note=55 velocity=64 time=43.0752749443
note_on channel=0 note=43 velocity=20 time=77.8581600189
note_off channel=0 note=43 velocity=64 time=78.7815608978
note_on channel=0 note=43 velocity=18 time=79.5312290192
note_off channel=0 note=43 velocity=64 time=80.2302510738
note_on channel=0 note=21 velocity=39 time=82.0359721184
note_off channel=0 note=21 velocity=64 time=83.921546936
note_on channel=0 note=21 velocity=44 time=84.6711308956
note_off channel=0 note=21 velocity=64 time=88.1736710072
note_on channel=0 note=21 velocity=36 time=91.4803020954
note_off channel=0 note=21 velocity=64 time=101.519244909
note_on channel=0 note=21 velocity=62 time=686.632921934
note_off channel=0 note=21 velocity=64 time=699.537425995
note_on channel=0 note=23 velocity=53 time=700.575058937
note_off channel=0 note=23 velocity=64 time=708.405639887
note_on channel=0 note=21 velocity=56 time=805.431551933
note_off channel=0 note=21 velocity=64 time=809.26304698
note_on channel=0 note=21 velocity=48 time=809.693824053
note_off channel=0 note=21 velocity=64 time=810.136130095
note_on channel=0 note=21 velocity=56 time=810.666441917
note_off channel=0 note=21 velocity=64 time=811.226048946
note_on channel=0 note=21 velocity=41 time=811.736434937
note_off channel=0 note=21 velocity=64 time=812.242752075
