note_on channel=0 note=21 velocity=48 time=10.6075530052
note_off channel=0 note=21 velocity=64 time=15.5706939697
note_on channel=0 note=23 velocity=76 time=15.9017541409
note_off channel=0 note=23 velocity=64 time=18.539910078
note_on channel=0 note=22 velocity=52 time=19.2198700905
note_off channel=0 note=22 velocity=64 time=25.2998740673
note_on channel=0 note=29 velocity=57 time=28.5651211739
note_off channel=0 note=29 velocity=64 time=34.4382851124
note_on channel=0 note=21 velocity=10 time=205.551093102
note_off channel=0 note=21 velocity=64 time=205.806602001
note_on channel=0 note=21 velocity=41 time=205.940770149
note_off channel=0 note=21 velocity=64 time=206.012683153
note_on channel=0 note=21 velocity=30 time=206.407071114
note_off channel=0 note=21 velocity=64 time=208.484400034
note_on channel=0 note=21 velocity=30 time=209.130442142
note_off channel=0 note=21 velocity=64 time=214.208785057
note_on channel=0 note=27 velocity=45 time=215.377146959
note_off channel=0 note=27 velocity=64 time=219.161381006
note_on channel=0 note=28 velocity=52 time=219.292714119
note_off channel=0 note=28 velocity=64 time=220.611262083
note_on channel=0 note=28 velocity=9 time=221.285439014
note_off channel=0 note=28 velocity=64 time=221.468703032
note_on channel=0 note=28 velocity=41 time=222.099902153
note_off channel=0 note=28 velocity=64 time=222.570378065
note_on channel=0 note=29 velocity=84 time=222.735592127
note_off channel=0 note=29 velocity=64 time=225.332859039
note_on channel=0 note=30 velocity=43 time=225.863479137
note_off channel=0 note=30 velocity=64 time=227.192533016
note_on channel=0 note=31 velocity=53 time=227.335828066
note_off channel=0 note=31 velocity=64 time=227.93249917
note_on channel=0 note=32 velocity=17 time=228.195914984
note_off channel=0 note=32 velocity=64 time=228.696567059
note_on channel=0 note=33 velocity=34 time=228.960994005
note_off channel=0 note=33 velocity=64 time=230.094484091
note_on channel=0 note=34 velocity=24 time=231.490543127
note_off channel=0 note=34 velocity=64 time=232.323217154
note_on channel=0 note=34 velocity=47 time=232.442588091
note_off channel=0 note=34 velocity=64 time=232.559309006
note_on channel=0 note=34 velocity=45 time=232.654993057
note_off channel=0 note=34 velocity=64 time=232.76002717
note_on channel=0 note=34 velocity=70 time=232.877402067
note_off channel=0 note=34 velocity=64 time=232.993119001
note_on channel=0 note=34 velocity=43 time=233.104478121
note_off channel=0 note=34 velocity=64 time=233.256309032
note_on channel=0 note=34 velocity=24 time=233.347826004
note_off channel=0 note=34 velocity=64 time=233.490152121
note_on channel=0 note=34 velocity=39 time=233.594727993
note_off channel=0 note=34 velocity=64 time=241.082895041
note_on channel=0 note=34 velocity=47 time=242.506477118
note_off channel=0 note=34 velocity=64 time=243.53582716
note_on channel=0 note=34 velocity=34 time=243.678811073
note_off channel=0 note=34 velocity=64 time=243.790619135
note_on channel=0 note=34 velocity=29 time=243.914752007
note_off channel=0 note=34 velocity=64 time=244.065469027
note_on channel=0 note=34 velocity=23 time=244.168982983
note_off channel=0 note=34 velocity=64 time=244.371556044
note_on channel=0 note=34 velocity=28 time=244.458245993
note_off channel=0 note=34 velocity=64 time=248.951225996
note_on channel=0 note=34 velocity=31 time=249.203891993
note_off channel=0 note=34 velocity=64 time=249.263125181
note_on channel=0 note=34 velocity=31 time=249.386392117
note_off channel=0 note=34 velocity=64 time=249.446597099
note_on channel=0 note=34 velocity=20 time=249.569280148
note_off channel=0 note=34 velocity=64 time=249.615369081
note_on channel=0 note=34 velocity=27 time=250.106971979
note_off channel=0 note=34 velocity=64 time=250.162235022
note_on channel=0 note=34 velocity=19 time=250.286936045
note_off channel=0 note=34 velocity=64 time=250.33001709
note_on channel=0 note=34 velocity=22 time=250.452325106
note_off channel=0 note=34 velocity=64 time=250.499782085
note_on channel=0 note=34 velocity=6 time=251.36978507
note_off channel=0 note=34 velocity=64 time=252.150295019
note_on channel=0 note=34 velocity=50 time=252.614946127
note_off channel=0 note=34 velocity=64 time=253.465984106
note_on channel=0 note=34 velocity=33 time=253.584721088
note_off channel=0 note=34 velocity=64 time=253.647171974
note_on channel=0 note=34 velocity=40 time=253.720760107
note_off channel=0 note=34 velocity=64 time=253.832566023
note_on channel=0 note=34 velocity=24 time=253.887240171
note_off channel=0 note=34 velocity=64 time=253.974637032
note_on channel=0 note=34 velocity=35 time=254.14934206
note_off channel=0 note=34 velocity=64 time=254.294399023
note_on channel=0 note=34 velocity=56 time=254.600670099
note_off channel=0 note=34 velocity=64 time=263.523957968
note_on channel=0 note=35 velocity=27 time=264.16534996
note_off channel=0 note=35 velocity=64 time=264.554245949
note_on channel=0 note=35 velocity=26 time=264.663267136
note_off channel=0 note=35 velocity=64 time=264.936774015
note_on channel=0 note=36 velocity=38 time=265.189254045
note_off channel=0 note=36 velocity=64 time=270.490724087
note_on channel=0 note=37 velocity=58 time=271.018870115
note_off channel=0 note=37 velocity=64 time=272.491673946
note_on channel=0 note=37 velocity=39 time=272.635873079
note_off channel=0 note=37 velocity=64 time=272.827655077
note_on channel=0 note=37 velocity=32 time=272.988440037
note_off channel=0 note=37 velocity=64 time=285.507557154
note_on channel=0 note=38 velocity=81 time=367.662919044
note_off channel=0 note=38 velocity=64 time=367.788336992
note_on channel=0 note=38 velocity=63 time=367.883146048
note_off channel=0 note=38 velocity=64 time=368.008344173
note_on channel=0 note=38 velocity=80 time=368.085165977
note_off channel=0 note=38 velocity=64 time=368.584040165
note_on channel=0 note=38 velocity=60 time=369.187251091
note_off channel=0 note=38 velocity=64 time=369.256543159
note_on channel=0 note=38 velocity=48 time=369.373398066
note_off channel=0 note=38 velocity=64 time=369.437988043
note_on channel=0 note=38 velocity=35 time=369.568582058
note_off channel=0 note=38 velocity=64 time=369.646115065
note_on channel=0 note=38 velocity=43 time=369.757696152
note_off channel=0 note=38 velocity=64 time=369.846884966
note_on channel=0 note=38 velocity=59 time=369.963220119
note_off channel=0 note=38 velocity=64 time=370.058489084
note_on channel=0 note=38 velocity=70 time=370.181833029
note_off channel=0 note=38 velocity=64 time=373.611521006
note_on channel=0 note=38 velocity=46 time=374.210126162
note_off channel=0 note=38 velocity=64 time=374.488531113
note_on channel=0 note=38 velocity=62 time=374.835847139
note_off channel=0 note=38 velocity=64 time=375.083385944
note_on channel=0 note=38 velocity=38 time=375.316090107
note_off channel=0 note=38 velocity=64 time=375.623670101
note_on channel=0 note=38 velocity=25 time=376.057958126
note_off channel=0 note=38 velocity=64 time=376.118185997
note_on channel=0 note=38 velocity=47 time=376.217839956
note_off channel=0 note=38 velocity=64 time=376.271061182
note_on channel=0 note=38 velocity=73 time=376.348721981
note_off channel=0 note=38 velocity=64 time=376.405811071
note_on channel=0 note=38 velocity=62 time=376.514027119
note_off channel=0 note=38 velocity=64 time=376.598608971
note_on channel=0 note=38 velocity=47 time=376.694129944
note_off channel=0 note=38 velocity=64 time=376.753803968
note_on channel=0 note=38 velocity=46 time=376.856317043
note_off channel=0 note=38 velocity=64 time=376.913228989
note_on channel=0 note=38 velocity=65 time=377.00957799
note_off channel=0 note=38 velocity=64 time=377.065911055
note_on channel=0 note=38 velocity=62 time=377.169734955
note_off channel=0 note=38 velocity=64 time=377.257559061
note_on channel=0 note=38 velocity=66 time=377.371724129
note_off channel=0 note=38 velocity=64 time=377.571238995
note_on channel=0 note=38 velocity=52 time=377.669077158
note_off channel=0 note=38 velocity=64 time=378.368482113
note_on channel=0 note=38 velocity=62 time=378.878009081
note_off channel=0 note=38 velocity=64 time=379.363651991
note_on channel=0 note=38 velocity=30 time=379.906996965
note_off channel=0 note=38 velocity=64 time=380.19304204
note_on channel=0 note=36 velocity=13 time=380.958914042
note_off channel=0 note=36 velocity=64 time=381.229645967
note_on channel=0 note=43 velocity=32 time=381.49199295
note_on channel=0 note=43 velocity=23 time=381.620855093
note_off channel=0 note=43 velocity=64 time=381.695414066
note_off channel=0 note=43 velocity=64 time=381.695703983
note_on channel=0 note=43 velocity=41 time=381.791512012
note_off channel=0 note=43 velocity=64 time=381.887276173
note_on channel=0 note=40 velocity=33 time=382.147475958
note_on channel=0 note=38 velocity=63 time=382.307111025
note_off channel=0 note=40 velocity=64 time=382.320459127
note_on channel=0 note=36 velocity=49 time=382.579118967
note_off channel=0 note=38 velocity=64 time=382.584257126
note_off channel=0 note=36 velocity=64 time=382.650083065
note_on channel=0 note=36 velocity=74 time=382.867603064
note_off channel=0 note=36 velocity=64 time=382.942492962
note_on channel=0 note=36 velocity=47 time=383.051898003
note_off channel=0 note=36 velocity=64 time=383.116440058
note_on channel=0 note=36 velocity=70 time=383.204384089
note_off channel=0 note=36 velocity=64 time=383.29737401
note_on channel=0 note=38 velocity=72 time=384.525385141
note_off channel=0 note=38 velocity=64 time=385.05547595
note_on channel=0 note=38 velocity=11 time=387.210416079
note_off channel=0 note=38 velocity=64 time=398.486730099
note_on channel=0 note=36 velocity=79 time=399.355270147
note_off channel=0 note=36 velocity=64 time=400.19451499
note_on channel=0 note=36 velocity=41 time=400.336155176
note_off channel=0 note=36 velocity=64 time=400.448642015
note_on channel=0 note=36 velocity=78 time=400.552258015
note_off channel=0 note=36 velocity=64 time=402.882006168
note_on channel=0 note=36 velocity=73 time=403.231237173
note_off channel=0 note=36 velocity=64 time=403.346104145
note_on channel=0 note=36 velocity=34 time=403.570939064
note_off channel=0 note=36 velocity=64 time=403.713647127
note_on channel=0 note=36 velocity=53 time=403.903692961
note_off channel=0 note=36 velocity=64 time=413.919425011
note_on channel=0 note=21 velocity=43 time=414.847701073
note_on channel=0 note=23 velocity=62 time=414.869544983
note_off channel=0 note=23 velocity=64 time=414.922633171
note_off channel=0 note=21 velocity=64 time=415.527170181
note_on channel=0 note=21 velocity=60 time=415.639448166
note_off channel=0 note=21 velocity=64 time=416.133689165
note_on channel=0 note=21 velocity=74 time=416.232603073
note_off channel=0 note=21 velocity=64 time=422.260488033
note_on channel=0 note=21 velocity=38 time=423.563230038
note_off channel=0 note=21 velocity=64 time=430.23409915
note_on channel=0 note=22 velocity=75 time=431.706348181
note_off channel=0 note=22 velocity=64 time=437.960215092
note_on channel=0 note=22 velocity=35 time=438.958449125
note_off channel=0 note=22 velocity=64 time=439.669453144
note_on channel=0 note=22 velocity=59 time=439.765887022
note_off channel=0 note=22 velocity=64 time=439.909105062
note_on channel=0 note=22 velocity=43 time=439.991170168
note_off channel=0 note=22 velocity=64 time=440.223478079
note_on channel=0 note=22 velocity=41 time=440.298737049
note_off channel=0 note=22 velocity=64 time=442.00306201
note_on channel=0 note=37 velocity=75 time=445.647901058
note_off channel=0 note=37 velocity=64 time=446.290177107
note_on channel=0 note=37 velocity=51 time=446.404788017
note_off channel=0 note=37 velocity=64 time=446.54853797
note_on channel=0 note=37 velocity=33 time=446.764870167
note_off channel=0 note=37 velocity=64 time=446.840001106
note_on channel=0 note=37 velocity=50 time=447.075006008
note_off channel=0 note=37 velocity=64 time=451.298053026
note_on channel=0 note=36 velocity=88 time=452.061122179
note_off channel=0 note=36 velocity=64 time=454.849724054
note_on channel=0 note=37 velocity=81 time=456.419167995
note_off channel=0 note=37 velocity=64 time=457.267821074
note_on channel=0 note=38 velocity=86 time=458.969655037
note_off channel=0 note=38 velocity=64 time=460.610703945
note_on channel=0 note=39 velocity=86 time=461.202756166
note_off channel=0 note=39 velocity=64 time=462.604310036
note_on channel=0 note=40 velocity=73 time=463.233857155
note_off channel=0 note=40 velocity=64 time=466.50327301
note_on channel=0 note=41 velocity=91 time=467.034974098
note_off channel=0 note=41 velocity=64 time=469.614639997
note_on channel=0 note=42 velocity=77 time=470.637765169
note_off channel=0 note=42 velocity=64 time=475.005145073
note_on channel=0 note=43 velocity=90 time=475.510751009
note_off channel=0 note=43 velocity=64 time=478.801069021
note_on channel=0 note=44 velocity=89 time=479.850415945
note_off channel=0 note=44 velocity=64 time=484.327254057
note_on channel=0 note=45 velocity=82 time=485.07159996
note_off channel=0 note=45 velocity=64 time=489.888669968
note_on channel=0 note=45 velocity=75 time=490.427540064
note_off channel=0 note=45 velocity=64 time=493.054656982
note_on channel=0 note=46 velocity=81 time=494.066115141
note_off channel=0 note=46 velocity=64 time=497.453890085
note_on channel=0 note=47 velocity=84 time=498.090491056
note_off channel=0 note=47 velocity=64 time=499.791355133
note_on channel=0 note=48 velocity=56 time=500.049572945
note_off channel=0 note=48 velocity=64 time=501.276313066
note_on channel=0 note=49 velocity=83 time=502.270081997
note_off channel=0 note=49 velocity=64 time=505.007374048
note_on channel=0 note=50 velocity=79 time=505.447287083
note_off channel=0 note=50 velocity=64 time=509.669578075
note_on channel=0 note=51 velocity=75 time=510.503546
note_off channel=0 note=51 velocity=64 time=513.544203997
note_on channel=0 note=52 velocity=93 time=514.001084089
note_off channel=0 note=52 velocity=64 time=517.150650978
note_on channel=0 note=53 velocity=82 time=518.186969042
note_off channel=0 note=53 velocity=64 time=523.118409157
note_on channel=0 note=52 velocity=84 time=523.706709146
note_off channel=0 note=52 velocity=64 time=528.386731148
note_on channel=0 note=53 velocity=87 time=529.231485128
note_off channel=0 note=53 velocity=64 time=530.127151966
note_on channel=0 note=52 velocity=64 time=530.631538153
note_off channel=0 note=52 velocity=64 time=531.394755125
note_on channel=0 note=52 velocity=63 time=531.51852107
note_off channel=0 note=52 velocity=64 time=531.635430098
note_on channel=0 note=52 velocity=53 time=531.758409023
note_off channel=0 note=52 velocity=64 time=531.883481026
note_on channel=0 note=52 velocity=50 time=532.023030996
note_off channel=0 note=52 velocity=64 time=532.137114048
note_on channel=0 note=52 velocity=47 time=532.355991125
note_off channel=0 note=52 velocity=64 time=532.411139965
note_on channel=0 note=52 velocity=80 time=532.626655102
note_off channel=0 note=52 velocity=64 time=532.736467123
note_on channel=0 note=52 velocity=59 time=532.95908308
note_off channel=0 note=52 velocity=64 time=533.024680138
note_on channel=0 note=52 velocity=56 time=533.256184101
note_off channel=0 note=52 velocity=64 time=533.327187061
note_on channel=0 note=52 velocity=78 time=533.527590036
note_off channel=0 note=52 velocity=64 time=533.89308095
note_on channel=0 note=52 velocity=68 time=534.192731142
note_off channel=0 note=52 velocity=64 time=534.592017174
note_on channel=0 note=52 velocity=70 time=534.96747303
note_off channel=0 note=52 velocity=64 time=538.692845106
note_on channel=0 note=53 velocity=93 time=539.376934052
note_off channel=0 note=53 velocity=64 time=540.666465044
note_on channel=0 note=51 velocity=1 time=627.581091166
note_off channel=0 note=51 velocity=64 time=627.905524015
note_on channel=0 note=51 velocity=22 time=636.067826986
note_off channel=0 note=51 velocity=64 time=636.989861012
note_on channel=0 note=51 velocity=19 time=638.019500017
note_off channel=0 note=51 velocity=64 time=638.333506107
note_on channel=0 note=52 velocity=16 time=638.700958967
note_off channel=0 note=52 velocity=64 time=639.038958073
note_on channel=0 note=52 velocity=76 time=647.125204086
note_off channel=0 note=52 velocity=64 time=649.738806963
note_on channel=0 note=53 velocity=87 time=650.24341917
note_off channel=0 note=53 velocity=64 time=651.661437035
note_on channel=0 note=53 velocity=89 time=654.400763035
note_off channel=0 note=53 velocity=64 time=654.824799061
note_on channel=0 note=54 velocity=72 time=655.838644028
note_off channel=0 note=54 velocity=64 time=657.828588009
note_on channel=0 note=53 velocity=72 time=657.995475054
note_off channel=0 note=53 velocity=64 time=659.866584063
note_on channel=0 note=54 velocity=71 time=660.733422041
note_off channel=0 note=54 velocity=64 time=662.253699064
note_on channel=0 note=55 velocity=82 time=662.664072037
note_off channel=0 note=55 velocity=64 time=665.075751066
note_on channel=0 note=56 velocity=73 time=665.544553995
note_off channel=0 note=56 velocity=64 time=667.556904078
note_on channel=0 note=57 velocity=84 time=668.179774046
note_off channel=0 note=57 velocity=64 time=670.450973988
note_on channel=0 note=58 velocity=85 time=670.917749166
note_off channel=0 note=58 velocity=64 time=672.938723087
note_on channel=0 note=59 velocity=81 time=673.459357023
note_off channel=0 note=59 velocity=64 time=677.302986145
note_on channel=0 note=60 velocity=94 time=677.814469099
note_off channel=0 note=60 velocity=64 time=680.493865967
note_on channel=0 note=61 velocity=87 time=681.400083065
note_off channel=0 note=61 velocity=64 time=682.968322992
note_on channel=0 note=62 velocity=89 time=683.272842169
note_off channel=0 note=62 velocity=64 time=685.698130131
note_on channel=0 note=63 velocity=77 time=686.260143995
note_off channel=0 note=63 velocity=64 time=689.440646172
note_on channel=0 note=64 velocity=80 time=689.872267008
note_off channel=0 note=64 velocity=64 time=692.356235027
note_on channel=0 note=65 velocity=79 time=692.623563051
note_off channel=0 note=65 velocity=64 time=701.138448954
note_on channel=0 note=66 velocity=85 time=702.135331154
note_off channel=0 note=66 velocity=64 time=705.591052055
note_on channel=0 note=67 velocity=85 time=709.431903124
note_off channel=0 note=67 velocity=64 time=709.925544977
note_on channel=0 note=65 velocity=84 time=710.121193171
note_off channel=0 note=65 velocity=64 time=710.437044144
note_on channel=0 note=66 velocity=38 time=710.635210991
note_off channel=0 note=66 velocity=64 time=710.868500948
note_on channel=0 note=66 velocity=75 time=710.940943003
note_off channel=0 note=66 velocity=64 time=711.050546169
note_on channel=0 note=66 velocity=82 time=711.141633987
note_off channel=0 note=66 velocity=64 time=711.251691103
note_on channel=0 note=66 velocity=64 time=711.366094112
note_on channel=0 note=67 velocity=80 time=711.453235149
note_off channel=0 note=66 velocity=64 time=711.457010984
note_off channel=0 note=67 velocity=64 time=711.568254948
note_on channel=0 note=66 velocity=81 time=712.063181162
note_off channel=0 note=66 velocity=64 time=714.63934207
note_on channel=0 note=65 velocity=76 time=715.157730103
note_off channel=0 note=65 velocity=64 time=716.178853989
note_on channel=0 note=66 velocity=84 time=716.868407011
note_off channel=0 note=66 velocity=64 time=718.335289001
note_on channel=0 note=67 velocity=88 time=718.747725964
note_off channel=0 note=67 velocity=64 time=720.354280949
note_on channel=0 note=68 velocity=83 time=720.79934001
note_off channel=0 note=68 velocity=64 time=722.914626122
note_on channel=0 note=69 velocity=92 time=723.477605104
note_off channel=0 note=69 velocity=64 time=726.876187086
note_on channel=0 note=70 velocity=74 time=727.366542101
note_off channel=0 note=70 velocity=64 time=728.336805105
note_on channel=0 note=71 velocity=57 time=728.765123129
note_off channel=0 note=71 velocity=64 time=729.944188118
note_on channel=0 note=72 velocity=87 time=730.224187136
note_off channel=0 note=72 velocity=64 time=731.682826996
note_on channel=0 note=73 velocity=85 time=732.267088175
note_off channel=0 note=73 velocity=64 time=733.521581173
note_on channel=0 note=74 velocity=94 time=733.869446039
note_off channel=0 note=74 velocity=64 time=735.407618046
note_on channel=0 note=75 velocity=85 time=735.977031946
note_off channel=0 note=75 velocity=64 time=737.572088003
note_on channel=0 note=76 velocity=89 time=738.272819042
note_off channel=0 note=76 velocity=64 time=740.203982115
note_on channel=0 note=78 velocity=80 time=749.282185078
note_off channel=0 note=78 velocity=64 time=749.700142145
note_on channel=0 note=77 velocity=53 time=749.892564058
note_on channel=0 note=76 velocity=29 time=749.909826994
note_off channel=0 note=76 velocity=64 time=750.037561178
note_off channel=0 note=77 velocity=64 time=750.057070971
note_on channel=0 note=77 velocity=67 time=750.16301012
note_off channel=0 note=77 velocity=64 time=750.303743124
note_on channel=0 note=76 velocity=40 time=750.495320082
note_on channel=0 note=74 velocity=27 time=750.547321081
note_off channel=0 note=74 velocity=64 time=750.610829115
note_off channel=0 note=76 velocity=64 time=750.663532972
note_on channel=0 note=76 velocity=82 time=750.75821805
note_off channel=0 note=76 velocity=64 time=750.93322897
note_on channel=0 note=76 velocity=85 time=751.023794174
note_off channel=0 note=76 velocity=64 time=757.146708965
note_on channel=0 note=76 velocity=30 time=758.481767178
note_on channel=0 note=74 velocity=24 time=758.505799055
note_off channel=0 note=74 velocity=64 time=758.590505123
note_off channel=0 note=76 velocity=64 time=758.743667126
note_on channel=0 note=76 velocity=82 time=758.852192163
note_off channel=0 note=76 velocity=64 time=760.127346992
note_on channel=0 note=75 velocity=71 time=760.553214073
note_off channel=0 note=75 velocity=64 time=761.014292955
note_on channel=0 note=76 velocity=79 time=761.789088011
note_on channel=0 note=77 velocity=81 time=761.789319038
note_off channel=0 note=77 velocity=64 time=762.104110956
note_off channel=0 note=76 velocity=64 time=762.11047411
note_on channel=0 note=77 velocity=62 time=762.224624157
note_off channel=0 note=77 velocity=64 time=762.677145004
note_on channel=0 note=76 velocity=73 time=763.738929033
note_on channel=0 note=77 velocity=75 time=763.745144129
note_off channel=0 note=77 velocity=64 time=763.808231115
note_off channel=0 note=76 velocity=64 time=764.261198044
note_on channel=0 note=77 velocity=94 time=764.722762108
note_off channel=0 note=77 velocity=64 time=765.354809999
note_on channel=0 note=78 velocity=74 time=765.6357131
note_off channel=0 note=78 velocity=64 time=767.365661144
note_on channel=0 note=76 velocity=82 time=768.730584145
note_off channel=0 note=76 velocity=64 time=769.111607075
note_on channel=0 note=76 velocity=79 time=769.200907946
note_off channel=0 note=76 velocity=64 time=769.339743137
note_on channel=0 note=76 velocity=64 time=769.397897959
note_off channel=0 note=76 velocity=64 time=769.534664154
note_on channel=0 note=76 velocity=51 time=769.580342054
note_off channel=0 note=76 velocity=64 time=772.446949959
note_on channel=0 note=77 velocity=89 time=772.839526176
note_off channel=0 note=77 velocity=64 time=776.234532118
note_on channel=0 note=78 velocity=85 time=776.731716156
note_off channel=0 note=78 velocity=64 time=779.91694212
note_on channel=0 note=79 velocity=86 time=780.862959146
note_off channel=0 note=79 velocity=64 time=794.500962973
note_on channel=0 note=80 velocity=48 time=796.11254406
note_off channel=0 note=80 velocity=64 time=797.493996143
note_on channel=0 note=81 velocity=34 time=797.827754021
note_off channel=0 note=81 velocity=64 time=798.380953074
note_on channel=0 note=81 velocity=68 time=798.479320049
note_off channel=0 note=81 velocity=64 time=800.375013113
note_on channel=0 note=82 velocity=85 time=800.986763
note_off channel=0 note=82 velocity=64 time=801.115175962
note_on channel=0 note=82 velocity=81 time=801.569863081
note_off channel=0 note=82 velocity=64 time=803.695855141
note_on channel=0 note=83 velocity=73 time=804.323039055
note_off channel=0 note=83 velocity=64 time=805.700405121
note_on channel=0 note=84 velocity=89 time=806.335165024
note_off channel=0 note=84 velocity=64 time=807.870738983
note_on channel=0 note=85 velocity=81 time=808.919834137
note_off channel=0 note=85 velocity=64 time=815.939844131
note_on channel=0 note=85 velocity=39 time=816.643249989
note_off channel=0 note=85 velocity=64 time=816.749294043
note_on channel=0 note=85 velocity=85 time=816.825719118
note_off channel=0 note=85 velocity=64 time=816.938831091
note_on channel=0 note=85 velocity=81 time=817.018926144
note_off channel=0 note=85 velocity=64 time=817.075780153
note_on channel=0 note=85 velocity=76 time=817.186983109
note_off channel=0 note=85 velocity=64 time=817.268428087
note_on channel=0 note=85 velocity=93 time=817.355798006
note_off channel=0 note=85 velocity=64 time=822.288490057
note_on channel=0 note=85 velocity=94 time=822.556025028
note_off channel=0 note=85 velocity=64 time=822.733132124
note_on channel=0 note=85 velocity=79 time=822.860197067
note_off channel=0 note=85 velocity=64 time=823.014544964
note_on channel=0 note=85 velocity=73 time=823.146224976
note_off channel=0 note=85 velocity=64 time=823.308362007
note_on channel=0 note=85 velocity=81 time=823.443537951
note_off channel=0 note=85 velocity=64 time=823.615540028
note_on channel=0 note=85 velocity=81 time=823.731727123
note_off channel=0 note=85 velocity=64 time=825.608947992
note_on channel=0 note=85 velocity=68 time=825.859364033
note_off channel=0 note=85 velocity=64 time=825.985105991
note_on channel=0 note=85 velocity=79 time=826.077789068
note_off channel=0 note=85 velocity=64 time=826.209303141
note_on channel=0 note=85 velocity=75 time=826.307038069
note_off channel=0 note=85 velocity=64 time=833.103814125
note_on channel=0 note=85 velocity=89 time=853.764156103
note_off channel=0 note=85 velocity=64 time=859.964903116
note_on channel=0 note=84 velocity=76 time=860.490580082
note_on channel=0 note=83 velocity=68 time=860.497414112
note_off channel=0 note=83 velocity=64 time=860.54628706
note_off channel=0 note=84 velocity=64 time=860.983770132
note_on channel=0 note=84 velocity=73 time=861.094125986
note_off channel=0 note=84 velocity=64 time=864.838870049
note_on channel=0 note=85 velocity=93 time=865.327397108
note_off channel=0 note=85 velocity=64 time=868.376057148
note_on channel=0 note=86 velocity=97 time=868.859364033
note_off channel=0 note=86 velocity=64 time=871.273933172
note_on channel=0 note=89 velocity=78 time=879.221477985
note_off channel=0 note=89 velocity=64 time=881.535072088
note_on channel=0 note=90 velocity=81 time=888.391888142
note_off channel=0 note=90 velocity=64 time=889.330110073
note_on channel=0 note=90 velocity=36 time=889.465537071
note_off channel=0 note=90 velocity=64 time=889.619637012
note_on channel=0 note=90 velocity=34 time=889.750911951
note_off channel=0 note=90 velocity=64 time=889.807486057
note_on channel=0 note=90 velocity=60 time=889.923434019
note_off channel=0 note=90 velocity=64 time=890.06185317
note_on channel=0 note=90 velocity=71 time=890.156020164
note_off channel=0 note=90 velocity=64 time=890.557177067
note_on channel=0 note=90 velocity=60 time=891.183068991
note_off channel=0 note=90 velocity=64 time=891.483117104
note_on channel=0 note=90 velocity=72 time=891.914522171
note_off channel=0 note=90 velocity=64 time=893.779426098
note_on channel=0 note=91 velocity=67 time=894.676344156
note_on channel=0 note=93 velocity=33 time=894.709038019
note_off channel=0 note=93 velocity=64 time=894.769164085
note_off channel=0 note=91 velocity=64 time=895.213024139
note_on channel=0 note=91 velocity=75 time=895.285546064
note_off channel=0 note=91 velocity=64 time=895.395210981
note_on channel=0 note=91 velocity=60 time=895.465839148
note_on channel=0 note=91 velocity=44 time=895.653186083
note_off channel=0 note=91 velocity=64 time=898.792899132
note_off channel=0 note=91 velocity=64 time=898.793329954
note_on channel=0 note=91 velocity=73 time=899.638290167
note_off channel=0 note=91 velocity=64 time=900.856924057
note_on channel=0 note=92 velocity=82 time=901.494012117
note_off channel=0 note=92 velocity=64 time=905.239842176
note_on channel=0 note=93 velocity=93 time=907.236539125
note_off channel=0 note=93 velocity=64 time=911.396303177
note_on channel=0 note=94 velocity=49 time=912.44669199
note_off channel=0 note=94 velocity=64 time=912.499819994
note_on channel=0 note=95 velocity=26 time=912.509552002
note_off channel=0 note=95 velocity=64 time=912.561733007
note_on channel=0 note=94 velocity=59 time=913.124895096
note_off channel=0 note=94 velocity=64 time=913.747140169
note_on channel=0 note=94 velocity=62 time=913.845194101
note_off channel=0 note=94 velocity=64 time=913.940463066
note_on channel=0 note=94 velocity=66 time=914.033694983
note_off channel=0 note=94 velocity=64 time=914.13113308
note_on channel=0 note=94 velocity=74 time=914.241175175
note_off channel=0 note=94 velocity=64 time=915.506235123
note_on channel=0 note=95 velocity=89 time=916.58069706
note_off channel=0 note=95 velocity=64 time=920.064130068
note_on channel=0 note=96 velocity=97 time=920.909887075
note_off channel=0 note=96 velocity=64 time=923.00951004
note_on channel=0 note=97 velocity=89 time=924.01970005
note_off channel=0 note=97 velocity=64 time=926.269168139
note_on channel=0 note=98 velocity=99 time=927.08665204
note_off channel=0 note=98 velocity=64 time=930.078840017
note_on channel=0 note=99 velocity=95 time=930.822844028
note_off channel=0 note=99 velocity=64 time=931.653614044
note_on channel=0 note=99 velocity=89 time=932.428653955
note_on channel=0 note=99 velocity=28 time=933.439524174
note_off channel=0 note=99 velocity=64 time=933.556967974
note_off channel=0 note=99 velocity=64 time=933.557214975
note_on channel=0 note=99 velocity=50 time=933.610481977
note_off channel=0 note=99 velocity=64 time=933.730085135
note_on channel=0 note=99 velocity=46 time=933.781736135
note_off channel=0 note=99 velocity=64 time=933.889465094
note_on channel=0 note=99 velocity=46 time=933.947973013
note_off channel=0 note=99 velocity=64 time=934.057918072
note_on channel=0 note=99 velocity=77 time=934.140827179
note_off channel=0 note=99 velocity=64 time=934.377693176
note_on channel=0 note=99 velocity=73 time=934.524391174
note_off channel=0 note=99 velocity=64 time=934.715037107
note_on channel=0 note=99 velocity=73 time=934.816202164
note_off channel=0 note=99 velocity=64 time=934.983118057
note_on channel=0 note=99 velocity=79 time=935.095289946
note_off channel=0 note=99 velocity=64 time=936.163222075
note_on channel=0 note=100 velocity=98 time=937.14270997
note_off channel=0 note=100 velocity=64 time=938.071916103
note_on channel=0 note=100 velocity=91 time=940.580157042
note_off channel=0 note=100 velocity=64 time=940.699867964
note_on channel=0 note=100 velocity=80 time=940.80274415
note_off channel=0 note=100 velocity=64 time=940.918874979
note_on channel=0 note=100 velocity=85 time=941.031794071
note_off channel=0 note=100 velocity=64 time=941.146593094
note_on channel=0 note=100 velocity=80 time=941.265542984
note_off channel=0 note=100 velocity=64 time=941.374914169
note_on channel=0 note=100 velocity=79 time=941.491043091
note_off channel=0 note=100 velocity=64 time=941.587890148
note_on channel=0 note=100 velocity=87 time=941.722954035
note_off channel=0 note=100 velocity=64 time=941.828816175
note_on channel=0 note=100 velocity=95 time=941.955677032
note_off channel=0 note=100 velocity=64 time=942.059417963
