note_on channel=0 note=48 velocity=88 time=17.2662730217
note_on channel=0 note=50 velocity=92 time=17.2682080269
note_off channel=0 note=50 velocity=64 time=17.5313458443
note_off channel=0 note=48 velocity=64 time=17.5497148037
note_on channel=0 note=48 velocity=81 time=17.802410841
note_on channel=0 note=52 velocity=89 time=17.8149778843
note_off channel=0 note=52 velocity=64 time=18.077960968
note_off channel=0 note=48 velocity=64 time=18.1262788773
note_on channel=0 note=48 velocity=74 time=18.3592619896
note_on channel=0 note=53 velocity=91 time=18.3660438061
note_off channel=0 note=53 velocity=64 time=18.6909379959
note_off channel=0 note=48 velocity=64 time=18.7346749306
note_on channel=0 note=48 velocity=79 time=18.9471039772
note_on channel=0 note=55 velocity=91 time=18.9473838806
note_off channel=0 note=55 velocity=64 time=19.2644610405
note_off channel=0 note=48 velocity=64 time=19.3066678047
note_on channel=0 note=48 velocity=76 time=19.53023386
note_on channel=0 note=50 velocity=88 time=19.5427918434
note_off channel=0 note=50 velocity=64 time=19.805562973
note_off channel=0 note=48 velocity=64 time=19.8423118591
note_on channel=0 note=48 velocity=70 time=20.0886428356
note_on channel=0 note=52 velocity=87 time=20.1005139351
note_off channel=0 note=52 velocity=64 time=20.3852069378
note_off channel=0 note=48 velocity=64 time=20.4478099346
note_on channel=0 note=48 velocity=62 time=20.6398530006
note_on channel=0 note=53 velocity=86 time=20.6566069126
note_off channel=0 note=53 velocity=64 time=20.955480814
note_off channel=0 note=48 velocity=64 time=21.0061888695
note_on channel=0 note=48 velocity=62 time=21.2357888222
note_on channel=0 note=55 velocity=87 time=21.2554039955
note_off channel=0 note=55 velocity=64 time=21.5293929577
note_off channel=0 note=48 velocity=64 time=21.5649278164
note_on channel=0 note=48 velocity=82 time=21.7910399437
note_on channel=0 note=50 velocity=79 time=21.8118259907
note_off channel=0 note=50 velocity=64 time=22.0595149994
note_off channel=0 note=48 velocity=64 time=22.1009318829
note_on channel=0 note=48 velocity=82 time=22.3585970402
note_on channel=0 note=52 velocity=83 time=22.37763381
note_off channel=0 note=52 velocity=64 time=22.6352729797
note_off channel=0 note=48 velocity=64 time=22.7023189068
note_on channel=0 note=48 velocity=76 time=22.9211938381
note_on channel=0 note=53 velocity=88 time=22.9414699078
note_off channel=0 note=53 velocity=64 time=23.1693019867
note_off channel=0 note=48 velocity=64 time=23.204821825
note_on channel=0 note=55 velocity=82 time=23.5120868683
note_on channel=0 note=48 velocity=73 time=23.5123460293
note_off channel=0 note=55 velocity=64 time=23.7644000053
note_off channel=0 note=48 velocity=64 time=23.805770874
note_on channel=0 note=48 velocity=63 time=24.060366869
note_on channel=0 note=50 velocity=75 time=24.0845229626
note_off channel=0 note=50 velocity=64 time=24.3182609081
note_off channel=0 note=48 velocity=64 time=24.3479800224
note_on channel=0 note=48 velocity=65 time=24.6412198544
note_on channel=0 note=50 velocity=75 time=24.6412858963
note_off channel=0 note=50 velocity=64 time=24.904873848
note_off channel=0 note=48 velocity=64 time=24.915571928
note_on channel=0 note=48 velocity=73 time=25.1870319843
note_on channel=0 note=50 velocity=76 time=25.193625927
note_off channel=0 note=50 velocity=64 time=25.4554300308
note_off channel=0 note=48 velocity=64 time=25.464838028
note_on channel=0 note=48 velocity=79 time=25.7434220314
note_on channel=0 note=50 velocity=80 time=25.7435419559
note_off channel=0 note=50 velocity=64 time=26.0085399151
note_off channel=0 note=48 velocity=64 time=26.02105093
note_on channel=0 note=48 velocity=89 time=26.3023049831
note_on channel=0 note=50 velocity=88 time=26.3087158203
note_off channel=0 note=50 velocity=64 time=26.5610249043
note_off channel=0 note=48 velocity=64 time=26.5677719116
note_on channel=0 note=48 velocity=87 time=26.8596229553
note_on channel=0 note=52 velocity=84 time=26.8847129345
note_off channel=0 note=52 velocity=64 time=27.1513400078
note_off channel=0 note=48 velocity=64 time=27.1995379925
note_on channel=0 note=48 velocity=80 time=27.4199090004
note_on channel=0 note=53 velocity=91 time=27.4425868988
note_off channel=0 note=53 velocity=64 time=27.6825709343
note_off channel=0 note=48 velocity=64 time=27.7032580376
note_on channel=0 note=48 velocity=83 time=27.9906589985
note_on channel=0 note=55 velocity=88 time=28.0038239956
note_off channel=0 note=55 velocity=64 time=28.2849190235
note_off channel=0 note=48 velocity=64 time=28.2975108624
note_on channel=0 note=48 velocity=88 time=28.5673589706
note_on channel=0 note=50 velocity=85 time=28.5797920227
note_off channel=0 note=50 velocity=64 time=28.8013739586
note_off channel=0 note=48 velocity=64 time=28.8337228298
note_on channel=0 note=48 velocity=91 time=29.1197078228
note_on channel=0 note=52 velocity=86 time=29.1391649246
note_off channel=0 note=52 velocity=64 time=29.3589448929
note_off channel=0 note=48 velocity=64 time=29.4041519165
note_on channel=0 note=48 velocity=84 time=29.6837940216
note_on channel=0 note=53 velocity=85 time=29.7097828388
note_off channel=0 note=53 velocity=64 time=29.9644210339
note_off channel=0 note=48 velocity=64 time=29.9770128727
note_on channel=0 note=48 velocity=84 time=30.2628529072
note_on channel=0 note=55 velocity=91 time=30.2687268257
note_off channel=0 note=55 velocity=64 time=30.5322229862
note_off channel=0 note=48 velocity=64 time=30.5594828129
note_on channel=0 note=48 velocity=89 time=30.8321998119
note_on channel=0 note=50 velocity=91 time=30.8468239307
note_off channel=0 note=50 velocity=64 time=31.0512199402
note_off channel=0 note=48 velocity=64 time=31.0992128849
note_on channel=0 note=48 velocity=87 time=31.4085788727
note_on channel=0 note=52 velocity=84 time=31.437016964
note_off channel=0 note=52 velocity=64 time=31.6483008862
note_off channel=0 note=48 velocity=64 time=31.714471817
note_on channel=0 note=48 velocity=84 time=31.9815728664
note_on channel=0 note=53 velocity=88 time=31.999655962
note_off channel=0 note=53 velocity=64 time=32.2271168232
note_off channel=0 note=48 velocity=64 time=32.2745988369
note_on channel=0 note=55 velocity=88 time=32.5665898323
note_on channel=0 note=48 velocity=76 time=32.5667459965
note_off channel=0 note=55 velocity=64 time=32.833509922
note_off channel=0 note=48 velocity=64 time=32.8645508289
note_on channel=0 note=48 velocity=83 time=33.1369998455
note_on channel=0 note=50 velocity=84 time=33.1502459049
note_off channel=0 note=50 velocity=64 time=33.3816328049
note_off channel=0 note=48 velocity=64 time=33.3949129581
note_on channel=0 note=48 velocity=87 time=33.7212309837
note_on channel=0 note=50 velocity=87 time=33.7216370106
note_off channel=0 note=50 velocity=64 time=33.9553949833
note_off channel=0 note=48 velocity=64 time=33.9670510292
note_on channel=0 note=48 velocity=85 time=34.2712500095
note_on channel=0 note=50 velocity=88 time=34.2715530396
note_off channel=0 note=50 velocity=64 time=34.4870779514
note_off channel=0 note=48 velocity=64 time=34.5018918514
note_on channel=0 note=48 velocity=89 time=34.8475298882
note_on channel=0 note=50 velocity=89 time=34.8476188183
note_off channel=0 note=50 velocity=64 time=35.0638108253
note_off channel=0 note=48 velocity=64 time=35.0763399601
note_on channel=0 note=50 velocity=94 time=35.421653986
note_on channel=0 note=48 velocity=93 time=35.4217288494
note_off channel=0 note=50 velocity=64 time=35.6294870377
note_off channel=0 note=48 velocity=64 time=35.6450939178
note_on channel=0 note=48 velocity=91 time=35.9504950047
note_on channel=0 note=52 velocity=88 time=35.9745798111
note_off channel=0 note=52 velocity=64 time=36.1658349037
note_off channel=0 note=48 velocity=64 time=36.2180979252
note_on channel=0 note=48 velocity=89 time=36.5031449795
note_on channel=0 note=53 velocity=86 time=36.5271170139
note_off channel=0 note=53 velocity=64 time=36.7610960007
note_off channel=0 note=48 velocity=64 time=36.7730870247
note_on channel=0 note=48 velocity=89 time=37.0827138424
note_on channel=0 note=55 velocity=97 time=37.090462923
note_off channel=0 note=55 velocity=64 time=37.3127839565
note_off channel=0 note=48 velocity=64 time=37.3283708096
note_on channel=0 note=48 velocity=91 time=37.6452260017
note_on channel=0 note=50 velocity=93 time=37.652230978
note_off channel=0 note=50 velocity=64 time=37.8730888367
note_off channel=0 note=48 velocity=64 time=37.8849928379
note_on channel=0 note=48 velocity=93 time=38.198666811
note_on channel=0 note=52 velocity=90 time=38.2102768421
note_off channel=0 note=52 velocity=64 time=38.4081778526
note_off channel=0 note=48 velocity=64 time=38.4540159702
note_on channel=0 note=48 velocity=92 time=38.7599878311
note_on channel=0 note=53 velocity=93 time=38.7734270096
note_off channel=0 note=53 velocity=64 time=38.988011837
note_off channel=0 note=48 velocity=64 time=39.0106630325
note_on channel=0 note=48 velocity=91 time=39.3085749149
note_on channel=0 note=55 velocity=95 time=39.3202688694
note_off channel=0 note=55 velocity=64 time=39.5660979748
note_off channel=0 note=48 velocity=64 time=39.5803828239
note_on channel=0 note=48 velocity=88 time=39.8738088608
note_on channel=0 note=50 velocity=91 time=39.8784608841
note_off channel=0 note=50 velocity=64 time=40.0968978405
note_off channel=0 note=48 velocity=64 time=40.1097998619
note_on channel=0 note=48 velocity=91 time=40.4212679863
note_on channel=0 note=52 velocity=84 time=40.439909935
note_off channel=0 note=52 velocity=64 time=40.644081831
note_off channel=0 note=48 velocity=64 time=40.6920728683
note_on channel=0 note=48 velocity=84 time=40.9753549099
note_on channel=0 note=53 velocity=88 time=40.9842259884
note_off channel=0 note=53 velocity=64 time=41.1947879791
note_off channel=0 note=48 velocity=64 time=41.2399339676
note_on channel=0 note=55 velocity=85 time=41.5496180058
note_on channel=0 note=48 velocity=79 time=41.5497579575
note_off channel=0 note=55 velocity=64 time=41.798897028
note_off channel=0 note=48 velocity=64 time=41.8171489239
note_on channel=0 note=48 velocity=82 time=42.0984070301
note_on channel=0 note=50 velocity=78 time=42.110615015
note_off channel=0 note=50 velocity=64 time=42.3625478745
note_off channel=0 note=48 velocity=64 time=42.3779280186
note_on channel=0 note=50 velocity=83 time=42.6411378384
note_on channel=0 note=48 velocity=83 time=42.6480219364
note_off channel=0 note=50 velocity=64 time=42.8929259777
note_off channel=0 note=48 velocity=64 time=42.89863801
note_on channel=0 note=48 velocity=87 time=43.2397649288
note_on channel=0 note=50 velocity=88 time=43.2398388386
note_off channel=0 note=50 velocity=64 time=43.4940588474
note_off channel=0 note=48 velocity=64 time=43.4963920116
note_on channel=0 note=50 velocity=90 time=43.7846000195
note_on channel=0 note=48 velocity=87 time=43.7846648693
note_off channel=0 note=50 velocity=64 time=44.0611178875
note_off channel=0 note=48 velocity=64 time=44.0635819435
note_on channel=0 note=48 velocity=98 time=44.3273489475
note_on channel=0 note=50 velocity=84 time=44.5887098312
note_off channel=0 note=48 velocity=64 time=44.6722579002
note_on channel=0 note=52 velocity=88 time=44.9101109505
note_off channel=0 note=50 velocity=64 time=44.9411129951
note_on channel=0 note=53 velocity=94 time=45.1671910286
note_off channel=0 note=52 velocity=64 time=45.3594279289
note_off channel=0 note=53 velocity=64 time=45.4675350189
note_on channel=0 note=55 velocity=93 time=45.4676318169
note_on channel=0 note=53 velocity=84 time=45.7404198647
note_off channel=0 note=55 velocity=64 time=45.8010308743
note_on channel=0 note=52 velocity=87 time=46.02856493
note_off channel=0 note=53 velocity=64 time=46.0626349449
note_on channel=0 note=50 velocity=90 time=46.3024139404
note_off channel=0 note=52 velocity=64 time=46.3137888908
note_on channel=0 note=48 velocity=87 time=46.5938649178
note_off channel=0 note=50 velocity=64 time=46.6010978222
note_on channel=0 note=50 velocity=84 time=46.8662259579
note_off channel=0 note=48 velocity=64 time=46.9088900089
note_on channel=0 note=52 velocity=73 time=47.1544518471
note_off channel=0 note=50 velocity=64 time=47.1924769878
note_on channel=0 note=53 velocity=79 time=47.4237678051
note_off channel=0 note=52 velocity=64 time=47.5117168427
note_on channel=0 note=55 velocity=87 time=47.7046430111
note_off channel=0 note=53 velocity=64 time=47.7181279659
note_on channel=0 note=53 velocity=82 time=47.9692168236
note_off channel=0 note=55 velocity=64 time=48.0199069977
note_on channel=0 note=52 velocity=81 time=48.2545919418
note_off channel=0 note=53 velocity=64 time=48.2810878754
note_on channel=0 note=50 velocity=66 time=48.5174939632
note_off channel=0 note=52 velocity=64 time=48.5408329964
note_on channel=0 note=48 velocity=81 time=48.8126718998
note_off channel=0 note=50 velocity=64 time=48.8188660145
note_on channel=0 note=50 velocity=72 time=49.0914378166
note_off channel=0 note=48 velocity=64 time=49.1450660229
note_on channel=0 note=52 velocity=81 time=49.3980448246
note_off channel=0 note=50 velocity=64 time=49.4077239037
note_on channel=0 note=53 velocity=79 time=49.6682608128
note_off channel=0 note=52 velocity=64 time=49.7618288994
note_on channel=0 note=55 velocity=85 time=49.9456989765
note_off channel=0 note=53 velocity=64 time=49.9501328468
note_on channel=0 note=53 velocity=85 time=50.1947689056
note_off channel=0 note=55 velocity=64 time=50.2281749249
note_on channel=0 note=52 velocity=87 time=50.4873638153
note_off channel=0 note=53 velocity=64 time=50.5051460266
note_on channel=0 note=50 velocity=76 time=50.7565200329
note_off channel=0 note=52 velocity=64 time=50.7625999451
note_on channel=0 note=48 velocity=89 time=51.0453658104
note_off channel=0 note=50 velocity=64 time=51.0575459003
note_off channel=0 note=48 velocity=64 time=53.0344698429
note_on channel=0 note=48 velocity=94 time=53.2952458858
note_on channel=0 note=50 velocity=83 time=53.5500528812
note_off channel=0 note=48 velocity=64 time=53.6376829147
note_on channel=0 note=52 velocity=85 time=53.872592926
note_off channel=0 note=50 velocity=64 time=53.8984749317
note_on channel=0 note=53 velocity=91 time=54.1094968319
note_off channel=0 note=52 velocity=64 time=54.1894309521
note_on channel=0 note=55 velocity=93 time=54.3870298862
note_off channel=0 note=53 velocity=64 time=54.3932728767
note_on channel=0 note=53 velocity=87 time=54.64605093
note_off channel=0 note=55 velocity=64 time=54.6726279259
note_on channel=0 note=52 velocity=87 time=54.9397280216
note_off channel=0 note=53 velocity=64 time=54.9525430202
note_on channel=0 note=50 velocity=73 time=55.1995608807
note_off channel=0 note=52 velocity=64 time=55.1999218464
note_on channel=0 note=48 velocity=84 time=55.4873278141
note_off channel=0 note=50 velocity=64 time=55.4910979271
note_on channel=0 note=50 velocity=70 time=55.7687299252
note_off channel=0 note=48 velocity=64 time=55.8149960041
note_on channel=0 note=52 velocity=80 time=56.0392248631
note_off channel=0 note=50 velocity=64 time=56.0717220306
note_on channel=0 note=53 velocity=73 time=56.3252530098
note_off channel=0 note=52 velocity=64 time=56.4312498569
note_on channel=0 note=55 velocity=87 time=56.579654932
note_off channel=0 note=53 velocity=64 time=56.5798668861
note_on channel=0 note=53 velocity=83 time=56.8381528854
note_off channel=0 note=55 velocity=64 time=56.8707139492
note_on channel=0 note=52 velocity=81 time=57.1232078075
note_off channel=0 note=53 velocity=64 time=57.1569199562
note_on channel=0 note=50 velocity=74 time=57.4013299942
note_off channel=0 note=52 velocity=64 time=57.4268808365
note_on channel=0 note=48 velocity=87 time=57.6885039806
note_off channel=0 note=50 velocity=64 time=57.6887609959
note_on channel=0 note=50 velocity=76 time=57.9669249058
note_off channel=0 note=48 velocity=64 time=58.0063610077
note_on channel=0 note=52 velocity=77 time=58.25177598
note_off channel=0 note=50 velocity=64 time=58.2786710262
note_on channel=0 note=53 velocity=70 time=58.5006489754
note_off channel=0 note=52 velocity=64 time=58.5833609104
note_on channel=0 note=55 velocity=87 time=58.8032329082
note_off channel=0 note=53 velocity=64 time=58.8057768345
note_on channel=0 note=53 velocity=75 time=59.0554409027
note_off channel=0 note=55 velocity=64 time=59.1219389439
note_on channel=0 note=52 velocity=82 time=59.3501358032
note_off channel=0 note=53 velocity=64 time=59.3782789707
note_on channel=0 note=50 velocity=72 time=59.616232872
note_off channel=0 note=52 velocity=64 time=59.6528258324
note_on channel=0 note=48 velocity=86 time=59.9083998203
note_off channel=0 note=50 velocity=64 time=59.9084830284
note_off channel=0 note=48 velocity=64 time=61.9063868523
note_on channel=0 note=48 velocity=91 time=62.23939991
note_on channel=0 note=50 velocity=74 time=62.496327877
note_off channel=0 note=48 velocity=64 time=62.5658409595
note_on channel=0 note=52 velocity=80 time=62.7852778435
note_off channel=0 note=50 velocity=64 time=62.8043279648
note_on channel=0 note=53 velocity=84 time=63.0587790012
note_off channel=0 note=52 velocity=64 time=63.1440358162
note_off channel=0 note=53 velocity=64 time=63.3430709839
note_on channel=0 note=55 velocity=92 time=63.3512840271
note_on channel=0 note=53 velocity=85 time=63.5914828777
note_off channel=0 note=55 velocity=64 time=63.6304788589
note_on channel=0 note=52 velocity=86 time=63.9078409672
note_off channel=0 note=53 velocity=64 time=63.9314780235
note_on channel=0 note=50 velocity=73 time=64.1866018772
note_off channel=0 note=52 velocity=64 time=64.2082569599
note_off channel=0 note=50 velocity=64 time=64.4359309673
note_on channel=0 note=48 velocity=84 time=64.4477808475
note_on channel=0 note=50 velocity=73 time=64.7231049538
note_off channel=0 note=48 velocity=64 time=64.7601959705
note_on channel=0 note=52 velocity=82 time=65.0026938915
note_off channel=0 note=50 velocity=64 time=65.0211648941
note_on channel=0 note=53 velocity=86 time=65.2846069336
note_off channel=0 note=52 velocity=64 time=65.3642640114
note_on channel=0 note=55 velocity=91 time=65.5521500111
note_off channel=0 note=53 velocity=64 time=65.5533969402
note_on channel=0 note=53 velocity=81 time=65.805467844
note_off channel=0 note=55 velocity=64 time=65.8518910408
note_on channel=0 note=52 velocity=85 time=66.0967929363
note_off channel=0 note=53 velocity=64 time=66.1280679703
note_on channel=0 note=50 velocity=79 time=66.3532469273
note_off channel=0 note=52 velocity=64 time=66.3853678703
note_on channel=0 note=48 velocity=81 time=66.604339838
note_off channel=0 note=50 velocity=64 time=66.6093888283
note_on channel=0 note=50 velocity=81 time=66.8840298653
note_off channel=0 note=48 velocity=64 time=66.9125788212
note_on channel=0 note=52 velocity=89 time=67.1802399158
note_off channel=0 note=50 velocity=64 time=67.2023179531
note_on channel=0 note=53 velocity=85 time=67.4406328201
note_off channel=0 note=52 velocity=64 time=67.5195829868
note_off channel=0 note=53 velocity=64 time=67.737913847
note_on channel=0 note=55 velocity=88 time=67.74452281
note_on channel=0 note=53 velocity=84 time=67.9965219498
note_off channel=0 note=55 velocity=64 time=68.0263710022
note_on channel=0 note=52 velocity=87 time=68.2810750008
note_off channel=0 note=53 velocity=64 time=68.3100919724
note_on channel=0 note=50 velocity=82 time=68.5606949329
note_off channel=0 note=52 velocity=64 time=68.6123049259
note_on channel=0 note=48 velocity=92 time=68.8661518097
note_off channel=0 note=50 velocity=64 time=68.8756380081
note_off channel=0 note=48 velocity=64 time=70.6606228352
note_on channel=0 note=48 velocity=86 time=71.0301179886
note_on channel=0 note=50 velocity=66 time=71.1721968651
note_off channel=0 note=48 velocity=64 time=71.2628159523
note_on channel=0 note=52 velocity=75 time=71.2849218845
note_off channel=0 note=50 velocity=64 time=71.3719818592
note_on channel=0 note=53 velocity=56 time=71.4198930264
note_off channel=0 note=53 velocity=64 time=71.4884428978
note_on channel=0 note=55 velocity=93 time=71.5044238567
note_off channel=0 note=52 velocity=64 time=71.5068519115
note_on channel=0 note=53 velocity=89 time=71.6050729752
note_off channel=0 note=55 velocity=64 time=71.6378970146
note_on channel=0 note=52 velocity=100 time=71.6999378204
note_off channel=0 note=53 velocity=64 time=71.7505269051
note_on channel=0 note=50 velocity=85 time=71.7950868607
note_off channel=0 note=52 velocity=64 time=71.8490638733
note_on channel=0 note=48 velocity=104 time=71.9206569195
note_off channel=0 note=50 velocity=64 time=71.9362039566
note_off channel=0 note=48 velocity=64 time=72.224162817
