note_on channel=0 note=60 velocity=70 time=14.6930670738
note_off channel=0 note=60 velocity=64 time=17.348331213
note_on channel=0 note=57 velocity=63 time=39.7939200401
note_off channel=0 note=57 velocity=64 time=40.1397960186
note_on channel=0 note=59 velocity=61 time=40.5013980865
note_off channel=0 note=59 velocity=64 time=40.7487289906
note_on channel=0 note=60 velocity=87 time=41.1120610237
note_on channel=0 note=62 velocity=80 time=41.3832712173
note_off channel=0 note=60 velocity=64 time=41.4411861897
note_on channel=0 note=64 velocity=67 time=41.6471660137
note_off channel=0 note=62 velocity=64 time=41.6919372082
note_on channel=0 note=65 velocity=76 time=41.9007952213
note_off channel=0 note=64 velocity=64 time=42.1149480343
note_on channel=0 note=67 velocity=87 time=42.1781949997
note_off channel=0 note=65 velocity=64 time=42.1978290081
note_on channel=0 note=65 velocity=87 time=42.4145541191
note_off channel=0 note=67 velocity=64 time=42.4827101231
note_on channel=0 note=64 velocity=83 time=42.7155890465
note_off channel=0 note=65 velocity=64 time=42.7269940376
note_on channel=0 note=62 velocity=76 time=42.9702801704
note_off channel=0 note=64 velocity=64 time=42.987716198
note_off channel=0 note=62 velocity=64 time=43.2270731926
note_on channel=0 note=60 velocity=84 time=43.2334170341
note_on channel=0 note=62 velocity=62 time=43.4969451427
note_off channel=0 note=60 velocity=64 time=43.7214210033
note_on channel=0 note=64 velocity=84 time=43.7614982128
note_off channel=0 note=62 velocity=64 time=43.7950780392
note_on channel=0 note=65 velocity=88 time=44.0246372223
note_off channel=0 note=64 velocity=64 time=44.0650060177
note_off channel=0 note=65 velocity=64 time=44.2846851349
note_on channel=0 note=67 velocity=87 time=44.2896740437
note_on channel=0 note=65 velocity=81 time=44.4893431664
note_off channel=0 note=67 velocity=64 time=44.545361042
note_off channel=0 note=65 velocity=64 time=44.7935590744
note_on channel=0 note=64 velocity=88 time=44.8000671864
note_on channel=0 note=62 velocity=84 time=45.0491271019
note_off channel=0 note=64 velocity=64 time=45.0601651669
note_off channel=0 note=62 velocity=64 time=45.3151550293
note_on channel=0 note=60 velocity=84 time=45.3332791328
note_off channel=0 note=60 velocity=64 time=45.4587161541
note_on channel=0 note=62 velocity=71 time=45.6073520184
note_on channel=0 note=64 velocity=75 time=45.8374152184
note_off channel=0 note=62 velocity=64 time=45.8493330479
note_off channel=0 note=64 velocity=64 time=46.0842339993
note_on channel=0 note=65 velocity=76 time=46.0935401917
note_on channel=0 note=67 velocity=81 time=46.3462500572
note_off channel=0 note=65 velocity=64 time=46.3491849899
note_on channel=0 note=65 velocity=71 time=46.572065115
note_off channel=0 note=67 velocity=64 time=46.6477890015
note_on channel=0 note=64 velocity=84 time=46.8735370636
note_off channel=0 note=65 velocity=64 time=46.912115097
note_on channel=0 note=62 velocity=73 time=47.1032381058
note_off channel=0 note=64 velocity=64 time=47.1156680584
note_off channel=0 note=62 velocity=64 time=47.3745970726
note_on channel=0 note=60 velocity=85 time=47.3881599903
note_off channel=0 note=60 velocity=64 time=48.0381031036
note_on channel=0 note=60 velocity=63 time=49.4110441208
note_on channel=0 note=62 velocity=66 time=49.6507780552
note_on channel=0 note=64 velocity=65 time=49.9025480747
note_off channel=0 note=60 velocity=64 time=50.1155200005
note_on channel=0 note=65 velocity=79 time=50.1433670521
note_off channel=0 note=62 velocity=64 time=50.2078511715
note_off channel=0 note=64 velocity=64 time=50.3847391605
note_on channel=0 note=67 velocity=86 time=50.3852441311
note_off channel=0 note=65 velocity=64 time=50.4187810421
note_on channel=0 note=65 velocity=47 time=50.6222271919
note_off channel=0 note=67 velocity=64 time=50.7081210613
note_on channel=0 note=64 velocity=65 time=50.9158639908
note_off channel=0 note=65 velocity=64 time=51.097700119
note_on channel=0 note=62 velocity=44 time=51.1173131466
note_off channel=0 note=64 velocity=64 time=51.2258901596
note_on channel=0 note=60 velocity=65 time=51.3596351147
note_off channel=0 note=62 velocity=64 time=51.3860311508
note_on channel=0 note=62 velocity=56 time=51.6024169922
note_on channel=0 note=64 velocity=63 time=51.8732521534
note_off channel=0 note=60 velocity=64 time=51.8877530098
note_on channel=0 note=65 velocity=73 time=52.0938880444
note_off channel=0 note=62 velocity=64 time=52.1048672199
note_off channel=0 note=64 velocity=64 time=52.2761151791
note_on channel=0 note=67 velocity=86 time=52.3458909988
note_off channel=0 note=65 velocity=64 time=52.3782629967
note_on channel=0 note=65 velocity=75 time=52.5775151253
note_off channel=0 note=67 velocity=64 time=52.6731870174
note_on channel=0 note=64 velocity=66 time=52.8439869881
note_off channel=0 note=65 velocity=64 time=53.0121691227
note_on channel=0 note=62 velocity=69 time=53.0741891861
note_off channel=0 note=64 velocity=64 time=53.1134250164
note_on channel=0 note=60 velocity=76 time=53.3151221275
note_off channel=0 note=62 velocity=64 time=53.3212800026
note_on channel=0 note=62 velocity=52 time=53.5742180347
note_off channel=0 note=60 velocity=64 time=53.6827931404
note_on channel=0 note=64 velocity=63 time=53.8108952045
note_off channel=0 note=62 velocity=64 time=53.8965351582
note_on channel=0 note=65 velocity=80 time=54.0406861305
note_off channel=0 note=64 velocity=64 time=54.1315381527
note_on channel=0 note=67 velocity=94 time=54.2844672203
note_off channel=0 note=65 velocity=64 time=54.326059103
note_on channel=0 note=65 velocity=70 time=54.5004220009
note_off channel=0 note=67 velocity=64 time=54.5473949909
note_on channel=0 note=64 velocity=81 time=54.7711801529
note_off channel=0 note=65 velocity=64 time=54.8477921486
note_on channel=0 note=62 velocity=68 time=55.0062930584
note_off channel=0 note=64 velocity=64 time=55.0635511875
note_on channel=0 note=60 velocity=87 time=55.2524831295
note_off channel=0 note=62 velocity=64 time=55.2732150555
note_off channel=0 note=60 velocity=64 time=56.3556602001
