note_on channel=0 note=41 velocity=96 time=9.16071605682
note_on channel=0 note=43 velocity=96 time=9.16102004051
note_off channel=0 note=43 velocity=64 time=9.43111491203
note_off channel=0 note=41 velocity=64 time=9.45591402054
note_on channel=0 note=50 velocity=102 time=12.4796500206
note_on channel=0 note=48 velocity=100 time=12.4798600674
note_off channel=0 note=50 velocity=64 time=12.6815359592
note_off channel=0 note=48 velocity=64 time=12.6982700825
note_on channel=0 note=48 velocity=87 time=12.9772219658
note_on channel=0 note=52 velocity=79 time=12.9921939373
note_on channel=0 note=50 velocity=75 time=13.009344101
note_off channel=0 note=50 velocity=64 time=13.0585699081
note_off channel=0 note=52 velocity=64 time=13.1897649765
note_off channel=0 note=48 velocity=64 time=13.2600588799
note_on channel=0 note=48 velocity=93 time=13.478689909
note_on channel=0 note=53 velocity=96 time=13.4926679134
note_off channel=0 note=53 velocity=64 time=13.7167069912
note_off channel=0 note=48 velocity=64 time=13.7451889515
note_on channel=0 note=48 velocity=91 time=14.0009589195
note_on channel=0 note=55 velocity=88 time=14.0127849579
note_on channel=0 note=53 velocity=41 time=14.0451090336
note_off channel=0 note=53 velocity=64 time=14.1103980541
note_off channel=0 note=55 velocity=64 time=14.2521150112
note_off channel=0 note=48 velocity=64 time=14.3160579205
note_on channel=0 note=48 velocity=100 time=14.5405209064
note_on channel=0 note=50 velocity=100 time=14.5483429432
note_off channel=0 note=50 velocity=64 time=14.7683689594
note_off channel=0 note=48 velocity=64 time=14.7866408825
note_on channel=0 note=48 velocity=91 time=15.0369670391
note_on channel=0 note=52 velocity=101 time=15.0447039604
note_off channel=0 note=52 velocity=64 time=15.2666299343
note_off channel=0 note=48 velocity=64 time=15.3332960606
note_on channel=0 note=48 velocity=83 time=15.5608708858
note_on channel=0 note=53 velocity=98 time=15.578635931
note_off channel=0 note=53 velocity=64 time=15.7891290188
note_off channel=0 note=48 velocity=64 time=15.8541610241
note_on channel=0 note=55 velocity=97 time=16.0987598896
note_on channel=0 note=48 velocity=90 time=16.0988550186
note_off channel=0 note=55 velocity=64 time=16.3069019318
note_off channel=0 note=48 velocity=64 time=16.3859939575
note_on channel=0 note=48 velocity=86 time=16.5867640972
note_on channel=0 note=50 velocity=97 time=16.5994699001
note_off channel=0 note=50 velocity=64 time=16.7851130962
note_off channel=0 note=48 velocity=64 time=16.8229169846
note_on channel=0 note=48 velocity=87 time=17.1028699875
note_on channel=0 note=52 velocity=93 time=17.1148688793
note_off channel=0 note=52 velocity=64 time=17.2893400192
note_off channel=0 note=48 velocity=64 time=17.4829969406
note_on channel=0 note=48 velocity=86 time=17.621762991
note_on channel=0 note=53 velocity=96 time=17.6404929161
note_off channel=0 note=53 velocity=64 time=17.7865269184
note_off channel=0 note=48 velocity=64 time=17.8584768772
note_on channel=0 note=48 velocity=85 time=18.1246650219
note_on channel=0 note=55 velocity=94 time=18.1252779961
note_off channel=0 note=55 velocity=64 time=18.355880022
note_off channel=0 note=48 velocity=64 time=18.4070460796
note_on channel=0 note=48 velocity=88 time=18.6087789536
note_on channel=0 note=50 velocity=95 time=18.6247138977
note_off channel=0 note=50 velocity=64 time=18.8401288986
note_off channel=0 note=48 velocity=64 time=18.8701629639
note_on channel=0 note=52 velocity=97 time=19.1621670723
note_on channel=0 note=48 velocity=84 time=19.1624081135
note_off channel=0 note=52 velocity=64 time=19.3376228809
note_off channel=0 note=48 velocity=64 time=19.4045810699
note_on channel=0 note=48 velocity=91 time=19.6655650139
note_on channel=0 note=53 velocity=94 time=19.6794269085
note_off channel=0 note=53 velocity=64 time=19.8868670464
note_off channel=0 note=48 velocity=64 time=19.931497097
note_on channel=0 note=48 velocity=82 time=20.185792923
note_on channel=0 note=55 velocity=99 time=20.1858870983
note_off channel=0 note=55 velocity=64 time=20.363296032
note_off channel=0 note=48 velocity=64 time=20.4508059025
note_on channel=0 note=48 velocity=91 time=20.6888639927
note_on channel=0 note=50 velocity=94 time=20.6986250877
note_off channel=0 note=50 velocity=64 time=20.9108459949
note_off channel=0 note=48 velocity=64 time=20.9590969086
note_on channel=0 note=48 velocity=84 time=21.2227480412
note_on channel=0 note=52 velocity=97 time=21.2301850319
note_off channel=0 note=52 velocity=64 time=21.433273077
note_off channel=0 note=48 velocity=64 time=21.5041069984
note_on channel=0 note=48 velocity=86 time=21.7644050121
note_on channel=0 note=53 velocity=94 time=21.7822799683
note_off channel=0 note=53 velocity=64 time=21.9864850044
note_off channel=0 note=48 velocity=64 time=21.9898600578
note_on channel=0 note=48 velocity=93 time=22.3223440647
note_on channel=0 note=55 velocity=101 time=22.3224220276
note_off channel=0 note=55 velocity=64 time=22.5477979183
note_off channel=0 note=48 velocity=64 time=22.5573689938
note_on channel=0 note=48 velocity=98 time=22.9238839149
note_on channel=0 note=50 velocity=104 time=22.924022913
note_off channel=0 note=48 velocity=64 time=24.9403219223
note_off channel=0 note=50 velocity=64 time=24.9510719776
