note_on channel=0 note=50 velocity=89 time=10.2887709141
note_on channel=0 note=48 velocity=87 time=10.2889969349
note_off channel=0 note=50 velocity=64 time=10.5065379143
note_off channel=0 note=48 velocity=64 time=10.5413360596
note_on channel=0 note=48 velocity=91 time=10.9998979568
note_on channel=0 note=52 velocity=93 time=11.0085790157
note_off channel=0 note=52 velocity=64 time=11.2382009029
note_off channel=0 note=48 velocity=64 time=11.275810957
note_on channel=0 note=53 velocity=96 time=11.8069529533
note_on channel=0 note=48 velocity=89 time=11.8071410656
note_off channel=0 note=48 velocity=64 time=12.0639750957
note_off channel=0 note=53 velocity=64 time=12.0923979282
note_on channel=0 note=55 velocity=103 time=12.7525789738
note_on channel=0 note=48 velocity=100 time=12.7531440258
note_off channel=0 note=48 velocity=64 time=13.0802378654
note_off channel=0 note=55 velocity=64 time=13.0937359333
note_on channel=0 note=48 velocity=99 time=13.6486098766
note_on channel=0 note=50 velocity=104 time=13.6487178802
note_off channel=0 note=50 velocity=64 time=13.8831479549
note_off channel=0 note=48 velocity=64 time=13.8906869888
note_on channel=0 note=48 velocity=96 time=14.4482998848
note_on channel=0 note=52 velocity=103 time=14.4549880028
note_off channel=0 note=52 velocity=64 time=14.6979820728
note_off channel=0 note=48 velocity=64 time=14.7180609703
note_on channel=0 note=48 velocity=92 time=15.2687199116
note_on channel=0 note=53 velocity=99 time=15.2688169479
note_off channel=0 note=53 velocity=64 time=15.5349140167
note_off channel=0 note=48 velocity=64 time=15.5498859882
note_on channel=0 note=55 velocity=102 time=16.1047768593
note_on channel=0 note=48 velocity=95 time=16.1049208641
note_off channel=0 note=55 velocity=64 time=16.3725888729
note_off channel=0 note=48 velocity=64 time=16.3919119835
note_on channel=0 note=50 velocity=100 time=16.9428620338
note_on channel=0 note=48 velocity=92 time=16.9438500404
note_off channel=0 note=50 velocity=64 time=17.1297700405
note_off channel=0 note=48 velocity=64 time=17.1463620663
note_on channel=0 note=48 velocity=94 time=17.6950480938
note_on channel=0 note=52 velocity=99 time=17.7044479847
note_off channel=0 note=52 velocity=64 time=17.9047989845
note_off channel=0 note=48 velocity=64 time=17.926897049
note_on channel=0 note=48 velocity=94 time=18.7178349495
note_on channel=0 note=53 velocity=100 time=18.718061924
note_off channel=0 note=53 velocity=64 time=18.9665570259
note_off channel=0 note=48 velocity=64 time=18.9889540672
note_on channel=0 note=55 velocity=102 time=19.5787079334
note_on channel=0 note=48 velocity=98 time=19.5787580013
note_off channel=0 note=55 velocity=64 time=19.8641610146
note_off channel=0 note=48 velocity=64 time=19.8654298782
note_on channel=0 note=48 velocity=106 time=20.4908969402
note_on channel=0 note=50 velocity=112 time=20.4998579025
note_off channel=0 note=50 velocity=64 time=23.4198849201
note_off channel=0 note=48 velocity=64 time=23.4286499023
