note_on channel=0 note=60 velocity=84 time=12.3072831631
note_on channel=0 note=62 velocity=90 time=12.308822155
note_off channel=0 note=62 velocity=64 time=12.4962751865
note_off channel=0 note=60 velocity=64 time=12.5617780685
note_on channel=0 note=60 velocity=86 time=12.9588730335
note_on channel=0 note=64 velocity=90 time=12.9592161179
note_off channel=0 note=64 velocity=64 time=13.1450819969
note_off channel=0 note=60 velocity=64 time=13.2282760143
note_on channel=0 note=60 velocity=86 time=13.5590720177
note_on channel=0 note=65 velocity=100 time=13.5766451359
note_off channel=0 note=65 velocity=64 time=13.7596561909
note_off channel=0 note=60 velocity=64 time=13.8128261566
note_on channel=0 note=60 velocity=91 time=14.2353000641
note_on channel=0 note=67 velocity=102 time=14.2355751991
note_off channel=0 note=67 velocity=64 time=14.4429349899
note_off channel=0 note=60 velocity=64 time=14.5033540726
note_on channel=0 note=60 velocity=91 time=14.8452501297
note_on channel=0 note=62 velocity=97 time=14.8529880047
note_off channel=0 note=62 velocity=64 time=14.9950060844
note_off channel=0 note=60 velocity=64 time=15.0647330284
note_on channel=0 note=60 velocity=82 time=15.4693830013
note_on channel=0 note=64 velocity=88 time=15.4788711071
note_off channel=0 note=64 velocity=64 time=15.6087560654
note_off channel=0 note=60 velocity=64 time=15.6675810814
note_on channel=0 note=60 velocity=39 time=16.0681941509
note_on channel=0 note=65 velocity=97 time=16.0877201557
note_off channel=0 note=60 velocity=64 time=16.2318561077
note_off channel=0 note=65 velocity=64 time=16.2587749958
note_on channel=0 note=67 velocity=100 time=16.7149610519
note_on channel=0 note=60 velocity=88 time=16.7150230408
note_off channel=0 note=67 velocity=64 time=16.880136013
note_off channel=0 note=60 velocity=64 time=16.884868145
note_on channel=0 note=60 velocity=91 time=17.3091750145
note_on channel=0 note=62 velocity=98 time=17.320772171
note_off channel=0 note=62 velocity=64 time=17.4761199951
note_off channel=0 note=60 velocity=64 time=17.4916601181
note_on channel=0 note=64 velocity=97 time=17.9336540699
note_on channel=0 note=60 velocity=86 time=17.9412171841
note_off channel=0 note=64 velocity=64 time=18.079282999
note_off channel=0 note=60 velocity=64 time=18.1394290924
note_on channel=0 note=60 velocity=65 time=18.548058033
note_on channel=0 note=65 velocity=98 time=18.5558390617
note_off channel=0 note=65 velocity=64 time=18.7103421688
note_off channel=0 note=60 velocity=64 time=18.7375299931
note_on channel=0 note=67 velocity=99 time=19.1865510941
note_on channel=0 note=60 velocity=87 time=19.202958107
note_off channel=0 note=67 velocity=64 time=19.3487391472
note_off channel=0 note=60 velocity=64 time=19.3732612133
note_on channel=0 note=60 velocity=89 time=19.8275420666
note_on channel=0 note=62 velocity=98 time=19.8280301094
note_off channel=0 note=62 velocity=64 time=19.964744091
note_off channel=0 note=60 velocity=64 time=19.9852981567
note_on channel=0 note=60 velocity=81 time=20.4085659981
note_on channel=0 note=62 velocity=92 time=20.4088652134
note_off channel=0 note=62 velocity=64 time=20.5882160664
note_off channel=0 note=60 velocity=64 time=20.6056821346
note_on channel=0 note=60 velocity=82 time=20.9988369942
note_on channel=0 note=62 velocity=89 time=20.9994242191
note_off channel=0 note=62 velocity=64 time=21.2003040314
note_off channel=0 note=60 velocity=64 time=21.2242460251
note_on channel=0 note=60 velocity=70 time=21.5906560421
note_on channel=0 note=62 velocity=86 time=21.5914511681
note_off channel=0 note=62 velocity=64 time=21.8037810326
note_off channel=0 note=60 velocity=64 time=21.8084959984
note_on channel=0 note=60 velocity=87 time=22.2018601894
note_on channel=0 note=62 velocity=87 time=22.2118370533
note_off channel=0 note=62 velocity=64 time=22.3486011028
note_off channel=0 note=60 velocity=64 time=22.3888781071
note_on channel=0 note=60 velocity=86 time=22.7815041542
note_on channel=0 note=64 velocity=87 time=22.7922050953
note_off channel=0 note=64 velocity=64 time=22.9464321136
note_off channel=0 note=60 velocity=64 time=22.9817750454
note_on channel=0 note=60 velocity=80 time=23.3488190174
note_on channel=0 note=65 velocity=94 time=23.3588709831
note_off channel=0 note=65 velocity=64 time=23.5383751392
note_off channel=0 note=60 velocity=64 time=23.5554289818
note_on channel=0 note=67 velocity=92 time=23.9488761425
note_on channel=0 note=60 velocity=72 time=23.9586951733
note_off channel=0 note=67 velocity=64 time=24.1443161964
note_off channel=0 note=60 velocity=64 time=24.169506073
note_on channel=0 note=60 velocity=81 time=24.5305981636
note_on channel=0 note=62 velocity=86 time=24.5436580181
note_off channel=0 note=62 velocity=64 time=24.7042222023
note_off channel=0 note=60 velocity=64 time=24.7199501991
note_on channel=0 note=60 velocity=82 time=25.1153790951
note_on channel=0 note=64 velocity=87 time=25.1154592037
note_off channel=0 note=64 velocity=64 time=25.2714722157
note_off channel=0 note=60 velocity=64 time=25.3024630547
note_on channel=0 note=65 velocity=94 time=25.6758241653
note_on channel=0 note=60 velocity=82 time=25.6824500561
note_off channel=0 note=65 velocity=64 time=25.8379151821
note_off channel=0 note=60 velocity=64 time=25.8649411201
note_on channel=0 note=67 velocity=97 time=26.2942252159
note_on channel=0 note=60 velocity=86 time=26.3095760345
note_off channel=0 note=60 velocity=64 time=26.4669451714
note_off channel=0 note=67 velocity=64 time=26.4986670017
note_on channel=0 note=60 velocity=85 time=26.8695650101
note_on channel=0 note=62 velocity=88 time=26.8799521923
note_off channel=0 note=62 velocity=64 time=27.0195140839
note_off channel=0 note=60 velocity=64 time=27.0371620655
note_on channel=0 note=64 velocity=91 time=27.4383230209
note_on channel=0 note=60 velocity=74 time=27.438544035
note_off channel=0 note=64 velocity=64 time=27.5650141239
note_off channel=0 note=60 velocity=64 time=27.592674017
note_on channel=0 note=65 velocity=97 time=28.0357131958
note_on channel=0 note=60 velocity=55 time=28.0481441021
note_off channel=0 note=60 velocity=64 time=28.1060211658
note_off channel=0 note=65 velocity=64 time=28.1934862137
note_on channel=0 note=67 velocity=99 time=28.6735420227
note_on channel=0 note=60 velocity=86 time=28.6837100983
note_off channel=0 note=67 velocity=64 time=28.817898035
note_off channel=0 note=60 velocity=64 time=28.8267400265
note_on channel=0 note=62 velocity=89 time=29.2416861057
note_on channel=0 note=60 velocity=76 time=29.2421422005
note_off channel=0 note=62 velocity=64 time=29.3784601688
note_off channel=0 note=60 velocity=64 time=29.4021420479
note_on channel=0 note=62 velocity=82 time=29.8377900124
note_on channel=0 note=60 velocity=71 time=29.8382291794
note_off channel=0 note=62 velocity=64 time=29.9865322113
note_off channel=0 note=60 velocity=64 time=29.9883491993
note_on channel=0 note=62 velocity=77 time=30.4060330391
note_on channel=0 note=60 velocity=65 time=30.4113800526
note_off channel=0 note=62 velocity=64 time=30.56727314
note_off channel=0 note=60 velocity=64 time=30.578854084
note_on channel=0 note=62 velocity=78 time=31.002281189
note_on channel=0 note=60 velocity=68 time=31.0024001598
note_off channel=0 note=62 velocity=64 time=31.1376881599
note_off channel=0 note=60 velocity=64 time=31.1422600746
note_on channel=0 note=60 velocity=84 time=31.589785099
note_on channel=0 note=62 velocity=87 time=31.5899960995
note_off channel=0 note=62 velocity=64 time=31.7153191566
note_off channel=0 note=60 velocity=64 time=31.721529007
note_on channel=0 note=60 velocity=86 time=32.1669371128
note_on channel=0 note=64 velocity=88 time=32.1784172058
note_off channel=0 note=64 velocity=64 time=32.3043560982
note_off channel=0 note=60 velocity=64 time=32.3274681568
note_on channel=0 note=60 velocity=89 time=32.7524590492
note_on channel=0 note=65 velocity=90 time=32.7672300339
note_off channel=0 note=65 velocity=64 time=32.901237011
note_off channel=0 note=60 velocity=64 time=32.914178133
note_on channel=0 note=60 velocity=86 time=33.3382542133
note_on channel=0 note=67 velocity=89 time=33.3459072113
note_off channel=0 note=60 velocity=64 time=33.4922630787
note_off channel=0 note=67 velocity=64 time=33.4949641228
note_on channel=0 note=60 velocity=80 time=33.9278080463
note_on channel=0 note=62 velocity=82 time=33.9278900623
note_off channel=0 note=62 velocity=64 time=34.0643591881
note_off channel=0 note=60 velocity=64 time=34.0742571354
note_on channel=0 note=60 velocity=74 time=34.4964661598
note_on channel=0 note=64 velocity=84 time=34.4967460632
note_off channel=0 note=64 velocity=64 time=34.6689422131
note_off channel=0 note=60 velocity=64 time=34.6938331127
note_on channel=0 note=60 velocity=86 time=35.079182148
note_on channel=0 note=65 velocity=92 time=35.0793941021
note_off channel=0 note=65 velocity=64 time=35.222671032
note_off channel=0 note=60 velocity=64 time=35.2446541786
note_on channel=0 note=60 velocity=78 time=35.6676762104
note_on channel=0 note=67 velocity=93 time=35.6682720184
note_off channel=0 note=67 velocity=64 time=35.8407871723
note_off channel=0 note=60 velocity=64 time=35.844451189
note_on channel=0 note=60 velocity=82 time=36.2441880703
note_on channel=0 note=62 velocity=81 time=36.2575960159
note_off channel=0 note=62 velocity=64 time=36.4017350674
note_off channel=0 note=60 velocity=64 time=36.4263391495
note_on channel=0 note=60 velocity=86 time=36.8253371716
note_on channel=0 note=64 velocity=88 time=36.832280159
note_off channel=0 note=64 velocity=64 time=36.9699590206
note_off channel=0 note=60 velocity=64 time=36.986877203
note_on channel=0 note=60 velocity=87 time=37.4099671841
note_on channel=0 note=65 velocity=98 time=37.4162909985
note_off channel=0 note=65 velocity=64 time=37.5489389896
note_off channel=0 note=60 velocity=64 time=37.5874249935
note_on channel=0 note=60 velocity=84 time=37.9912559986
note_on channel=0 note=67 velocity=94 time=37.9913170338
note_off channel=0 note=60 velocity=64 time=38.1541881561
note_off channel=0 note=67 velocity=64 time=38.1743471622
note_on channel=0 note=60 velocity=83 time=38.5835340023
note_on channel=0 note=62 velocity=84 time=38.5902721882
note_off channel=0 note=62 velocity=64 time=38.7359120846
note_off channel=0 note=60 velocity=64 time=38.7565441132
note_on channel=0 note=60 velocity=72 time=39.183822155
note_on channel=0 note=62 velocity=78 time=39.1840500832
note_off channel=0 note=62 velocity=64 time=39.3259620667
note_off channel=0 note=60 velocity=64 time=39.3429892063
note_on channel=0 note=60 velocity=75 time=39.7714421749
note_on channel=0 note=62 velocity=81 time=39.7718670368
note_off channel=0 note=62 velocity=64 time=39.9252691269
note_off channel=0 note=60 velocity=64 time=39.9405021667
note_on channel=0 note=60 velocity=80 time=40.3476991653
note_on channel=0 note=62 velocity=79 time=40.3545320034
note_off channel=0 note=62 velocity=64 time=40.4831140041
note_off channel=0 note=60 velocity=64 time=40.4917709827
note_on channel=0 note=60 velocity=88 time=40.9541671276
note_on channel=0 note=62 velocity=90 time=40.9543910027
note_off channel=0 note=62 velocity=64 time=41.0774490833
note_off channel=0 note=60 velocity=64 time=41.0912051201
note_on channel=0 note=60 velocity=89 time=41.5356030464
note_on channel=0 note=64 velocity=89 time=41.5510590076
note_off channel=0 note=64 velocity=64 time=41.6804070473
note_off channel=0 note=60 velocity=64 time=41.6839761734
note_on channel=0 note=60 velocity=94 time=42.111353159
note_on channel=0 note=65 velocity=91 time=42.1304001808
note_off channel=0 note=65 velocity=64 time=42.2507901192
note_off channel=0 note=60 velocity=64 time=42.2599630356
note_on channel=0 note=60 velocity=86 time=42.676014185
note_on channel=0 note=67 velocity=86 time=42.7088541985
note_off channel=0 note=60 velocity=64 time=42.8252961636
note_off channel=0 note=67 velocity=64 time=42.846419096
note_on channel=0 note=60 velocity=75 time=43.2816951275
note_on channel=0 note=62 velocity=84 time=43.2819759846
note_off channel=0 note=62 velocity=64 time=43.4026930332
note_off channel=0 note=60 velocity=64 time=43.4105319977
note_on channel=0 note=60 velocity=88 time=43.8403000832
note_on channel=0 note=64 velocity=82 time=43.854516983
note_off channel=0 note=64 velocity=64 time=43.9814870358
note_off channel=0 note=60 velocity=64 time=44.0039820671
note_on channel=0 note=60 velocity=92 time=44.423853159
note_on channel=0 note=65 velocity=93 time=44.4404370785
note_off channel=0 note=65 velocity=64 time=44.5719749928
note_off channel=0 note=60 velocity=64 time=44.6012761593
note_on channel=0 note=60 velocity=89 time=45.010627985
note_on channel=0 note=67 velocity=99 time=45.0107181072
note_off channel=0 note=60 velocity=64 time=45.1476290226
note_off channel=0 note=67 velocity=64 time=45.1544539928
note_on channel=0 note=60 velocity=88 time=45.60663414
note_on channel=0 note=62 velocity=88 time=45.618103981
note_off channel=0 note=62 velocity=64 time=45.7461440563
note_off channel=0 note=60 velocity=64 time=45.7687330246
note_on channel=0 note=60 velocity=88 time=46.1948661804
note_on channel=0 note=64 velocity=92 time=46.2026801109
note_off channel=0 note=64 velocity=64 time=46.3161511421
note_off channel=0 note=60 velocity=64 time=46.3234450817
note_on channel=0 note=60 velocity=92 time=46.7671861649
note_on channel=0 note=65 velocity=93 time=46.7809112072
note_off channel=0 note=65 velocity=64 time=46.9011499882
note_off channel=0 note=60 velocity=64 time=46.9368782043
note_on channel=0 note=67 velocity=95 time=47.3505961895
note_on channel=0 note=60 velocity=81 time=47.3508970737
note_off channel=0 note=60 velocity=64 time=47.4942221642
note_off channel=0 note=67 velocity=64 time=47.4986381531
note_on channel=0 note=60 velocity=89 time=47.9568769932
note_on channel=0 note=62 velocity=88 time=47.9650371075
note_off channel=0 note=62 velocity=64 time=48.0848560333
note_off channel=0 note=60 velocity=64 time=48.0982601643
note_on channel=0 note=60 velocity=82 time=48.5544991493
note_on channel=0 note=62 velocity=89 time=48.554831028
note_off channel=0 note=62 velocity=64 time=48.6661829948
note_off channel=0 note=60 velocity=64 time=48.6759130955
note_on channel=0 note=60 velocity=84 time=49.1198852062
note_on channel=0 note=62 velocity=86 time=49.1250619888
note_off channel=0 note=62 velocity=64 time=49.2281150818
note_off channel=0 note=60 velocity=64 time=49.2376480103
note_on channel=0 note=60 velocity=82 time=49.7150080204
note_on channel=0 note=62 velocity=84 time=49.7150599957
note_off channel=0 note=62 velocity=64 time=49.7963540554
note_off channel=0 note=60 velocity=64 time=49.8063690662
