control_change channel=0 control=64 value=127 time=0.111048936844
control_change channel=1 control=64 value=127 time=0.111814022064
control_change channel=2 control=64 value=127 time=0.112337827682
note_off channel=0 note=60 velocity=64 time=1.96052289009
note_on channel=0 note=64 velocity=89 time=2.3627948761
note_off channel=0 note=64 velocity=64 time=2.41500997543
control_change channel=0 control=64 value=0 time=3.47954392433
control_change channel=1 control=64 value=0 time=3.47974991798
control_change channel=2 control=64 value=0 time=3.47999501228
control_change channel=0 control=64 value=127 time=3.6474609375
control_change channel=1 control=64 value=127 time=3.6485209465
control_change channel=2 control=64 value=127 time=3.6494269371
note_on channel=0 note=59 velocity=91 time=4.10936498642
note_off channel=0 note=59 velocity=64 time=4.14221000671
note_on channel=0 note=57 velocity=70 time=6.60035085678
note_off channel=0 note=57 velocity=64 time=6.73436594009
note_on channel=0 note=52 velocity=31 time=8.03542304039
note_off channel=0 note=52 velocity=64 time=8.10904598236
note_on channel=0 note=52 velocity=87 time=8.83548283577
note_off channel=0 note=52 velocity=64 time=8.97716093063
control_change channel=0 control=64 value=0 time=9.1921889782
control_change channel=1 control=64 value=0 time=9.1924200058
control_change channel=2 control=64 value=0 time=9.19394683838
note_on channel=0 note=60 velocity=105 time=9.20589804649
control_change channel=0 control=64 value=127 time=9.28438401222
control_change channel=1 control=64 value=127 time=9.2847058773
control_change channel=2 control=64 value=127 time=9.28491902351
note_off channel=0 note=60 velocity=64 time=10.5814950466
note_on channel=0 note=64 velocity=100 time=10.715585947
note_off channel=0 note=64 velocity=64 time=10.8040118217
control_change channel=0 control=64 value=0 time=11.4264659882
control_change channel=1 control=64 value=0 time=11.4267828465
control_change channel=2 control=64 value=0 time=11.4275939465
control_change channel=0 control=64 value=127 time=14.527217865
control_change channel=1 control=64 value=127 time=14.5276298523
control_change channel=2 control=64 value=127 time=14.5279409885
note_on channel=0 note=66 velocity=11 time=36.8048069477
note_off channel=0 note=66 velocity=64 time=37.7854759693
note_on channel=0 note=67 velocity=39 time=38.6525018215
note_off channel=0 note=67 velocity=64 time=39.0106010437
note_on channel=0 note=53 velocity=54 time=40.5394439697
note_off channel=0 note=53 velocity=64 time=40.6452498436
control_change channel=0 control=64 value=0 time=40.8597738743
control_change channel=1 control=64 value=0 time=40.8601078987
control_change channel=2 control=64 value=0 time=40.8603758812
note_on channel=0 note=57 velocity=88 time=41.1220350266
note_on channel=0 note=60 velocity=76 time=41.1282720566
note_off channel=0 note=57 velocity=64 time=41.1620399952
note_off channel=0 note=60 velocity=64 time=41.1732809544
note_on channel=0 note=57 velocity=80 time=41.6078009605
note_on channel=0 note=60 velocity=57 time=41.6386098862
note_off channel=0 note=57 velocity=64 time=41.6844139099
note_off channel=0 note=60 velocity=64 time=41.6862778664
note_on channel=0 note=48 velocity=75 time=42.2453448772
note_on channel=0 note=57 velocity=32 time=42.8516168594
note_off channel=0 note=57 velocity=64 time=42.9608139992
note_on channel=0 note=57 velocity=86 time=43.3976819515
note_on channel=0 note=60 velocity=65 time=43.4006450176
note_off channel=0 note=48 velocity=64 time=43.4711289406
note_off channel=0 note=60 velocity=64 time=43.4990680218
note_off channel=0 note=57 velocity=64 time=43.5151188374
note_on channel=0 note=50 velocity=78 time=43.9326469898
note_on channel=0 note=57 velocity=93 time=44.43937397
note_on channel=0 note=60 velocity=65 time=44.4630608559
note_off channel=0 note=60 velocity=64 time=44.516726017
note_off channel=0 note=57 velocity=64 time=44.5544269085
note_on channel=0 note=57 velocity=84 time=44.9509868622
note_on channel=0 note=60 velocity=79 time=44.9516658783
note_off channel=0 note=50 velocity=64 time=45.0295269489
note_off channel=0 note=60 velocity=64 time=45.0534820557
note_off channel=0 note=57 velocity=64 time=45.053524971
note_on channel=0 note=48 velocity=75 time=45.4751799107
note_on channel=0 note=50 velocity=37 time=45.9805128574
note_on channel=0 note=77 velocity=65 time=46.2196989059
note_off channel=0 note=77 velocity=64 time=46.4233729839
note_on channel=0 note=52 velocity=66 time=46.4526889324
note_on channel=0 note=81 velocity=78 time=46.4675819874
note_off channel=0 note=50 velocity=64 time=46.5020940304
note_off channel=0 note=48 velocity=64 time=46.5387749672
note_on channel=0 note=77 velocity=80 time=46.7091770172
note_off channel=0 note=52 velocity=64 time=46.737539053
note_off channel=0 note=81 velocity=64 time=46.7673988342
note_on channel=0 note=76 velocity=75 time=47.5331208706
note_on channel=0 note=53 velocity=71 time=47.5340678692
note_off channel=0 note=77 velocity=64 time=47.6103308201
note_on channel=0 note=57 velocity=57 time=48.0372788906
note_on channel=0 note=60 velocity=82 time=48.046143055
note_off channel=0 note=60 velocity=64 time=48.0992238522
note_off channel=0 note=57 velocity=64 time=48.2303600311
note_on channel=0 note=60 velocity=82 time=48.4946918488
note_on channel=0 note=57 velocity=85 time=48.4949409962
note_off channel=0 note=53 velocity=64 time=48.5534238815
note_off channel=0 note=57 velocity=64 time=48.596613884
note_off channel=0 note=60 velocity=64 time=48.6316318512
note_on channel=0 note=48 velocity=71 time=48.9612519741
note_on channel=0 note=60 velocity=75 time=49.4180388451
note_on channel=0 note=57 velocity=41 time=49.4289398193
note_off channel=0 note=60 velocity=64 time=49.586992979
note_off channel=0 note=57 velocity=64 time=49.6089668274
note_on channel=0 note=77 velocity=79 time=49.6501100063
note_off channel=0 note=76 velocity=64 time=49.7118089199
note_on channel=0 note=57 velocity=84 time=49.8567419052
note_off channel=0 note=77 velocity=64 time=49.8671789169
note_on channel=0 note=81 velocity=79 time=49.880934
note_on channel=0 note=60 velocity=48 time=49.8810989857
note_off channel=0 note=48 velocity=64 time=49.9616248608
note_on channel=0 note=77 velocity=76 time=50.0797300339
note_off channel=0 note=60 velocity=64 time=50.1242728233
note_off channel=0 note=81 velocity=64 time=50.1601889133
note_off channel=0 note=57 velocity=64 time=50.1697199345
note_on channel=0 note=74 velocity=75 time=50.2961280346
note_on channel=0 note=50 velocity=76 time=50.3045568466
note_off channel=0 note=77 velocity=64 time=50.3099148273
note_off channel=0 note=74 velocity=64 time=50.7145309448
note_on channel=0 note=57 velocity=80 time=50.7330608368
note_on channel=0 note=60 velocity=63 time=50.7332749367
note_off channel=0 note=60 velocity=64 time=50.874614954
note_off channel=0 note=57 velocity=64 time=50.8855798244
note_on channel=0 note=74 velocity=68 time=50.9101579189
note_off channel=0 note=74 velocity=64 time=51.1158149242
note_on channel=0 note=60 velocity=51 time=51.1230499744
note_on channel=0 note=57 velocity=85 time=51.1332938671
note_on channel=0 note=77 velocity=80 time=51.1626119614
note_off channel=0 note=50 velocity=64 time=51.1683068275
note_off channel=0 note=57 velocity=64 time=51.2100448608
note_off channel=0 note=60 velocity=64 time=51.2158529758
note_on channel=0 note=74 velocity=78 time=51.3478009701
note_off channel=0 note=77 velocity=64 time=51.3929319382
note_off channel=0 note=74 velocity=64 time=51.4681689739
note_on channel=0 note=48 velocity=75 time=51.5618548393
note_on channel=0 note=72 velocity=88 time=51.5863859653
note_on channel=0 note=57 velocity=71 time=51.985052824
note_on channel=0 note=60 velocity=89 time=52.0020990372
note_off channel=0 note=57 velocity=64 time=52.1593649387
note_off channel=0 note=60 velocity=64 time=52.1735980511
note_off channel=0 note=72 velocity=64 time=52.2310688496
note_on channel=0 note=57 velocity=87 time=52.4038908482
note_on channel=0 note=60 velocity=75 time=52.4193520546
note_off channel=0 note=48 velocity=64 time=52.5308468342
note_on channel=0 note=74 velocity=62 time=52.6421909332
note_off channel=0 note=60 velocity=64 time=52.6686239243
note_off channel=0 note=57 velocity=64 time=52.7643129826
note_off channel=0 note=74 velocity=64 time=52.8235199451
note_on channel=0 note=50 velocity=75 time=52.8343548775
note_on channel=0 note=81 velocity=78 time=52.8629410267
note_off channel=0 note=81 velocity=64 time=53.429669857
note_off channel=0 note=50 velocity=64 time=53.4895839691
note_on channel=0 note=74 velocity=40 time=53.7235579491
note_on channel=0 note=52 velocity=85 time=54.2697529793
note_on channel=0 note=81 velocity=87 time=54.2826750278
note_off channel=0 note=74 velocity=64 time=54.2827570438
note_off channel=0 note=52 velocity=64 time=54.59988904
note_off channel=0 note=81 velocity=64 time=54.7686870098
note_on channel=0 note=74 velocity=80 time=54.9304919243
note_off channel=0 note=74 velocity=64 time=55.0907590389
note_on channel=0 note=47 velocity=92 time=55.1204969883
note_on channel=0 note=81 velocity=95 time=55.1208758354
note_off channel=0 note=81 velocity=64 time=55.5340199471
note_on channel=0 note=53 velocity=89 time=55.55981493
note_on channel=0 note=79 velocity=95 time=55.5600709915
note_on channel=0 note=55 velocity=82 time=55.5602369308
note_on channel=0 note=50 velocity=73 time=55.5604109764
note_off channel=0 note=47 velocity=64 time=55.6020848751
note_off channel=0 note=55 velocity=64 time=55.6412968636
note_off channel=0 note=50 velocity=64 time=55.6521408558
note_off channel=0 note=53 velocity=64 time=55.6707599163
note_on channel=0 note=55 velocity=56 time=55.9875769615
note_on channel=0 note=53 velocity=80 time=55.9876480103
note_on channel=0 note=50 velocity=36 time=56.0088469982
note_off channel=0 note=55 velocity=64 time=56.0418069363
note_off channel=0 note=53 velocity=64 time=56.0572538376
note_off channel=0 note=50 velocity=64 time=56.0773048401
note_off channel=0 note=79 velocity=64 time=56.1749539375
note_on channel=0 note=74 velocity=73 time=56.2282159328
note_off channel=0 note=74 velocity=64 time=56.3579089642
note_on channel=0 note=81 velocity=93 time=56.406069994
note_on channel=0 note=47 velocity=92 time=56.4068858624
note_off channel=0 note=47 velocity=64 time=56.7932128906
note_off channel=0 note=81 velocity=64 time=56.8044509888
note_on channel=0 note=79 velocity=86 time=56.8122489452
note_on channel=0 note=53 velocity=53 time=56.8395018578
note_on channel=0 note=50 velocity=35 time=56.839550972
note_off channel=0 note=79 velocity=64 time=56.8444209099
note_off channel=0 note=53 velocity=64 time=56.8868248463
note_off channel=0 note=50 velocity=64 time=56.9055490494
note_on channel=0 note=62 velocity=13 time=147.289114952
note_off channel=0 note=62 velocity=64 time=148.481189013
note_on channel=0 note=62 velocity=28 time=150.576354027
note_off channel=0 note=62 velocity=64 time=150.733412027
note_on channel=0 note=21 velocity=1 time=262.49703598
note_off channel=0 note=21 velocity=64 time=272.257911921
note_on channel=0 note=22 velocity=35 time=273.260686874
note_off channel=0 note=22 velocity=64 time=279.779964924
note_on channel=0 note=23 velocity=27 time=282.011204958
note_off channel=0 note=23 velocity=64 time=294.745537043
note_on channel=0 note=24 velocity=55 time=295.148886919
note_on channel=0 note=26 velocity=56 time=295.163682938
note_off channel=0 note=26 velocity=64 time=295.504420042
note_off channel=0 note=24 velocity=64 time=297.283722878
note_on channel=0 note=25 velocity=77 time=297.709600925
note_off channel=0 note=25 velocity=64 time=299.684154034
note_on channel=0 note=26 velocity=87 time=300.067078829
note_off channel=0 note=26 velocity=64 time=301.616762877
note_on channel=0 note=27 velocity=91 time=302.029604912
note_off channel=0 note=27 velocity=64 time=303.284654856
note_on channel=0 note=28 velocity=77 time=303.77300787
note_off channel=0 note=28 velocity=64 time=304.763383865
note_on channel=0 note=29 velocity=82 time=305.246832848
note_off channel=0 note=29 velocity=64 time=306.946313858
note_on channel=0 note=29 velocity=102 time=307.523021936
note_off channel=0 note=29 velocity=64 time=309.178066015
note_on channel=0 note=30 velocity=83 time=309.623626947
note_off channel=0 note=30 velocity=64 time=310.873435974
note_on channel=0 note=31 velocity=93 time=311.317297935
note_off channel=0 note=31 velocity=64 time=312.670068979
note_on channel=0 note=32 velocity=85 time=313.216549873
note_off channel=0 note=32 velocity=64 time=314.428341866
note_on channel=0 note=33 velocity=95 time=314.943354845
note_off channel=0 note=33 velocity=64 time=316.321135044
note_on channel=0 note=34 velocity=88 time=316.69174695
note_off channel=0 note=34 velocity=64 time=318.011646032
note_on channel=0 note=35 velocity=77 time=318.509143829
note_off channel=0 note=35 velocity=64 time=319.763721943
note_on channel=0 note=36 velocity=93 time=320.160186052
note_off channel=0 note=36 velocity=64 time=321.49750185
note_on channel=0 note=37 velocity=88 time=321.975193977
note_off channel=0 note=37 velocity=64 time=323.230303049
note_on channel=0 note=38 velocity=95 time=323.705648899
note_off channel=0 note=38 velocity=64 time=324.9942379
note_on channel=0 note=39 velocity=93 time=325.431526899
note_off channel=0 note=39 velocity=64 time=326.510812044
note_on channel=0 note=40 velocity=91 time=326.935245037
note_off channel=0 note=40 velocity=64 time=328.113090992
note_on channel=0 note=41 velocity=84 time=328.567296028
note_off channel=0 note=41 velocity=64 time=329.817620993
note_on channel=0 note=42 velocity=87 time=330.165488958
note_off channel=0 note=42 velocity=64 time=331.327011824
note_on channel=0 note=43 velocity=79 time=331.704902887
note_off channel=0 note=43 velocity=64 time=332.806259871
note_on channel=0 note=44 velocity=85 time=333.294766903
note_off channel=0 note=44 velocity=64 time=334.478920937
note_on channel=0 note=45 velocity=90 time=334.948091984
note_off channel=0 note=45 velocity=64 time=336.328445911
note_on channel=0 note=45 velocity=96 time=336.831711054
note_off channel=0 note=45 velocity=64 time=338.442554951
note_on channel=0 note=44 velocity=97 time=338.693248987
note_off channel=0 note=44 velocity=64 time=340.395169973
note_on channel=0 note=45 velocity=92 time=340.695580959
note_on channel=0 note=43 velocity=80 time=340.713899851
note_off channel=0 note=43 velocity=64 time=340.959182978
note_off channel=0 note=45 velocity=64 time=341.964644909
note_on channel=0 note=45 velocity=94 time=342.37803483
note_off channel=0 note=45 velocity=64 time=347.291277885
note_on channel=0 note=46 velocity=71 time=347.675252914
note_off channel=0 note=46 velocity=64 time=348.817968845
note_on channel=0 note=47 velocity=84 time=349.049684048
note_off channel=0 note=47 velocity=64 time=350.035552025
note_on channel=0 note=48 velocity=91 time=350.252215862
note_off channel=0 note=48 velocity=64 time=351.326674938
note_on channel=0 note=49 velocity=93 time=351.53856492
note_off channel=0 note=49 velocity=64 time=352.399339914
note_on channel=0 note=50 velocity=91 time=352.634621859
note_off channel=0 note=50 velocity=64 time=353.715546846
note_on channel=0 note=51 velocity=93 time=353.951602936
note_off channel=0 note=51 velocity=64 time=356.231895924
note_on channel=0 note=51 velocity=80 time=356.517921925
note_off channel=0 note=51 velocity=64 time=357.58454895
note_on channel=0 note=52 velocity=83 time=357.955186844
note_off channel=0 note=52 velocity=64 time=359.032456875
note_on channel=0 note=53 velocity=86 time=359.264792919
note_off channel=0 note=53 velocity=64 time=360.304584026
note_on channel=0 note=54 velocity=69 time=360.607141972
note_off channel=0 note=54 velocity=64 time=362.414100885
note_on channel=0 note=55 velocity=76 time=362.734371901
note_off channel=0 note=55 velocity=64 time=363.755622864
note_on channel=0 note=56 velocity=81 time=364.062810898
note_off channel=0 note=56 velocity=64 time=364.939380884
note_on channel=0 note=57 velocity=87 time=365.277292013
note_off channel=0 note=57 velocity=64 time=366.288627863
note_on channel=0 note=58 velocity=87 time=366.556888819
note_off channel=0 note=58 velocity=64 time=367.395145893
note_on channel=0 note=59 velocity=87 time=367.759488821
note_off channel=0 note=59 velocity=64 time=368.74814105
note_on channel=0 note=60 velocity=62 time=368.94310689
note_on channel=0 note=59 velocity=68 time=368.961894989
note_off channel=0 note=59 velocity=64 time=369.037027836
note_off channel=0 note=60 velocity=64 time=371.134110928
note_on channel=0 note=61 velocity=77 time=371.506536961
note_off channel=0 note=61 velocity=64 time=372.72982192
note_on channel=0 note=62 velocity=74 time=372.952415943
note_off channel=0 note=62 velocity=64 time=373.914861917
note_on channel=0 note=63 velocity=83 time=374.158859968
note_off channel=0 note=63 velocity=64 time=375.073343039
note_on channel=0 note=64 velocity=78 time=375.299211025
note_off channel=0 note=64 velocity=64 time=376.066318989
note_on channel=0 note=65 velocity=75 time=376.240110874
note_off channel=0 note=65 velocity=64 time=376.924288034
note_on channel=0 note=66 velocity=85 time=377.098096848
note_off channel=0 note=66 velocity=64 time=377.722386837
note_on channel=0 note=67 velocity=84 time=378.013320923
note_off channel=0 note=67 velocity=64 time=378.661877871
note_on channel=0 note=68 velocity=89 time=378.928824902
note_off channel=0 note=68 velocity=64 time=379.562294006
note_on channel=0 note=69 velocity=76 time=379.793974876
note_on channel=0 note=67 velocity=35 time=379.841117859
note_off channel=0 note=67 velocity=64 time=379.902191877
note_off channel=0 note=69 velocity=64 time=380.482331991
note_on channel=0 note=70 velocity=75 time=380.669078827
note_off channel=0 note=70 velocity=64 time=381.270916939
note_on channel=0 note=71 velocity=57 time=381.584853888
note_off channel=0 note=71 velocity=64 time=382.186053991
note_on channel=0 note=72 velocity=68 time=382.408915997
note_off channel=0 note=72 velocity=64 time=383.083487988
note_on channel=0 note=73 velocity=43 time=383.391453981
note_off channel=0 note=73 velocity=64 time=383.933068037
note_on channel=0 note=74 velocity=60 time=384.15275383
note_off channel=0 note=74 velocity=64 time=384.714555979
note_on channel=0 note=75 velocity=45 time=384.990357876
note_off channel=0 note=75 velocity=64 time=385.424185991
note_on channel=0 note=76 velocity=10 time=385.765920877
note_off channel=0 note=76 velocity=64 time=386.210502863
note_on channel=0 note=77 velocity=57 time=386.624459982
note_off channel=0 note=77 velocity=64 time=387.029578924
note_on channel=0 note=78 velocity=28 time=387.443800926
note_off channel=0 note=78 velocity=64 time=393.467973948
note_on channel=0 note=77 velocity=79 time=393.972182035
note_off channel=0 note=77 velocity=64 time=396.77360487
note_on channel=0 note=77 velocity=60 time=396.934109926
note_off channel=0 note=77 velocity=64 time=399.369087934
note_on channel=0 note=78 velocity=60 time=399.990645885
note_off channel=0 note=78 velocity=64 time=401.938213825
note_on channel=0 note=79 velocity=62 time=402.496239901
note_off channel=0 note=79 velocity=64 time=404.046684027
note_on channel=0 note=80 velocity=43 time=404.556814909
note_off channel=0 note=80 velocity=64 time=405.726366997
note_on channel=0 note=81 velocity=38 time=406.497822046
note_off channel=0 note=81 velocity=64 time=408.039619923
note_on channel=0 note=82 velocity=55 time=408.489537954
note_off channel=0 note=82 velocity=64 time=409.767938852
note_on channel=0 note=83 velocity=42 time=410.359907866
note_off channel=0 note=83 velocity=64 time=411.866125822
note_on channel=0 note=84 velocity=82 time=412.345892906
note_off channel=0 note=84 velocity=64 time=413.711223841
note_on channel=0 note=85 velocity=50 time=414.266162872
note_off channel=0 note=85 velocity=64 time=417.029069901
note_on channel=0 note=84 velocity=32 time=417.640488863
note_off channel=0 note=84 velocity=64 time=419.00920701
note_on channel=0 note=84 velocity=32 time=419.181774855
note_off channel=0 note=84 velocity=64 time=419.268231869
note_on channel=0 note=84 velocity=25 time=419.418444872
note_off channel=0 note=84 velocity=64 time=419.524551868
note_on channel=0 note=84 velocity=21 time=419.660856962
note_off channel=0 note=84 velocity=64 time=419.759659052
note_on channel=0 note=84 velocity=17 time=420.707862854
note_off channel=0 note=84 velocity=64 time=420.775270939
note_on channel=0 note=85 velocity=25 time=421.757019043
note_off channel=0 note=85 velocity=64 time=423.335353851
note_on channel=0 note=85 velocity=23 time=423.945171833
note_off channel=0 note=85 velocity=64 time=425.396813869
note_on channel=0 note=85 velocity=55 time=425.823917866
note_off channel=0 note=85 velocity=64 time=428.787433863
note_on channel=0 note=84 velocity=80 time=429.82446599
note_off channel=0 note=84 velocity=64 time=432.501792908
note_on channel=0 note=85 velocity=87 time=433.223309994
note_off channel=0 note=85 velocity=64 time=435.802220821
note_on channel=0 note=85 velocity=92 time=436.413326979
note_off channel=0 note=85 velocity=64 time=438.588496923
note_on channel=0 note=78 velocity=42 time=458.390038013
note_off channel=0 note=78 velocity=64 time=458.449306965
note_on channel=0 note=78 velocity=69 time=458.58572793
note_off channel=0 note=78 velocity=64 time=458.711825848
note_on channel=0 note=85 velocity=79 time=459.397476912
note_off channel=0 note=85 velocity=64 time=460.102501869
note_on channel=0 note=85 velocity=53 time=460.150087833
note_off channel=0 note=85 velocity=64 time=460.242555857
note_on channel=0 note=85 velocity=79 time=460.313956022
note_off channel=0 note=85 velocity=64 time=460.403765917
note_on channel=0 note=85 velocity=77 time=460.456466913
note_off channel=0 note=85 velocity=64 time=460.565453053
note_on channel=0 note=82 velocity=69 time=547.174536943
note_off channel=0 note=82 velocity=64 time=549.139372826
note_on channel=0 note=82 velocity=55 time=549.774668932
note_off channel=0 note=82 velocity=64 time=550.306577921
note_on channel=0 note=83 velocity=34 time=550.854667902
note_on channel=0 note=84 velocity=28 time=550.870573997
note_off channel=0 note=84 velocity=64 time=551.094933033
note_off channel=0 note=83 velocity=64 time=551.515884876
note_on channel=0 note=83 velocity=73 time=552.310299873
note_off channel=0 note=83 velocity=64 time=553.590525866
note_on channel=0 note=84 velocity=83 time=554.290556908
note_off channel=0 note=84 velocity=64 time=555.23675704
note_on channel=0 note=85 velocity=69 time=556.042877913
note_off channel=0 note=85 velocity=64 time=557.130203009
note_on channel=0 note=86 velocity=56 time=557.741457939
note_off channel=0 note=86 velocity=64 time=558.806325912
note_on channel=0 note=87 velocity=73 time=559.39169693
note_off channel=0 note=87 velocity=64 time=560.107229948
note_on channel=0 note=88 velocity=72 time=560.555415869
note_off channel=0 note=88 velocity=64 time=561.442977905
note_on channel=0 note=89 velocity=79 time=561.825399876
note_off channel=0 note=89 velocity=64 time=562.637132883
note_on channel=0 note=90 velocity=49 time=563.192173958
note_off channel=0 note=90 velocity=64 time=564.01599884
note_on channel=0 note=91 velocity=79 time=564.517686844
note_off channel=0 note=91 velocity=64 time=565.358796835
note_on channel=0 note=92 velocity=58 time=565.876703978
note_off channel=0 note=92 velocity=64 time=566.766284943
note_on channel=0 note=93 velocity=86 time=567.385273933
note_off channel=0 note=93 velocity=64 time=568.398255825
note_on channel=0 note=95 velocity=73 time=572.433235884
note_off channel=0 note=95 velocity=64 time=573.510910034
note_on channel=0 note=96 velocity=73 time=574.018445969
note_off channel=0 note=96 velocity=64 time=575.400468826
note_on channel=0 note=97 velocity=46 time=577.175063848
note_off channel=0 note=97 velocity=64 time=577.481776953
note_on channel=0 note=98 velocity=75 time=578.091938019
note_off channel=0 note=98 velocity=64 time=579.492832899
note_on channel=0 note=99 velocity=77 time=580.155923843
note_off channel=0 note=99 velocity=64 time=581.259765863
note_on channel=0 note=100 velocity=93 time=582.045444965
note_off channel=0 note=100 velocity=64 time=587.230052948
note_on channel=0 note=100 velocity=60 time=595.602679014
note_off channel=0 note=100 velocity=64 time=595.714659929
note_on channel=0 note=100 velocity=81 time=595.794137001
note_off channel=0 note=100 velocity=64 time=595.887375832
note_on channel=0 note=100 velocity=84 time=595.961447954
note_off channel=0 note=100 velocity=64 time=596.064858913
note_on channel=0 note=100 velocity=32 time=596.231557846
note_on channel=0 note=101 velocity=42 time=596.236614943
note_off channel=0 note=100 velocity=64 time=596.293552876
note_on channel=0 note=103 velocity=48 time=596.370689869
note_off channel=0 note=101 velocity=64 time=596.372823
note_off channel=0 note=103 velocity=64 time=596.423058987
note_on channel=0 note=105 velocity=58 time=596.439149857
note_on channel=0 note=107 velocity=76 time=596.488901854
note_off channel=0 note=105 velocity=64 time=596.489761829
note_off channel=0 note=107 velocity=64 time=596.53172493
note_on channel=0 note=108 velocity=59 time=596.549904823
note_off channel=0 note=108 velocity=64 time=596.627475023
