control_change channel=0 control=64 value=127 time=0.456780910492
control_change channel=1 control=64 value=127 time=0.45692896843
control_change channel=2 control=64 value=127 time=0.456971883774
control_change channel=0 control=64 value=0 time=1.12248802185
control_change channel=1 control=64 value=0 time=1.12289786339
control_change channel=2 control=64 value=0 time=1.12334394455
control_change channel=0 control=64 value=127 time=2.11699390411
control_change channel=1 control=64 value=127 time=2.11757302284
control_change channel=2 control=64 value=127 time=2.11853885651
control_change channel=0 control=64 value=0 time=2.51508498192
control_change channel=1 control=64 value=0 time=2.51519703865
control_change channel=2 control=64 value=0 time=2.51523804665
control_change channel=0 control=64 value=127 time=2.65506291389
control_change channel=1 control=64 value=127 time=2.65529894829
control_change channel=2 control=64 value=127 time=2.65594387054
note_on channel=0 note=77 velocity=78 time=2.98344397545
note_off channel=0 note=77 velocity=64 time=3.12470293045
note_on channel=0 note=81 velocity=84 time=3.13728094101
note_on channel=0 note=77 velocity=65 time=3.27566504478
note_off channel=0 note=81 velocity=64 time=3.34180092812
note_on channel=0 note=76 velocity=93 time=3.45964503288
note_off channel=0 note=77 velocity=64 time=3.46976590157
note_off channel=0 note=76 velocity=64 time=4.49639606476
note_on channel=0 note=77 velocity=84 time=4.73435306549
note_off channel=0 note=77 velocity=64 time=4.87159109116
note_on channel=0 note=81 velocity=89 time=4.89345288277
note_on channel=0 note=77 velocity=88 time=5.05505990982
note_off channel=0 note=81 velocity=64 time=5.1173760891
note_on channel=0 note=74 velocity=94 time=5.22275686264
note_off channel=0 note=77 velocity=64 time=5.24040102959
note_off channel=0 note=74 velocity=64 time=5.45297002792
note_on channel=0 note=74 velocity=86 time=5.68819999695
note_on channel=0 note=77 velocity=86 time=5.84454607964
note_off channel=0 note=74 velocity=64 time=5.86208987236
note_on channel=0 note=74 velocity=81 time=5.99688792229
note_off channel=0 note=77 velocity=64 time=6.0356259346
note_off channel=0 note=74 velocity=64 time=6.09224104881
note_on channel=0 note=72 velocity=91 time=6.19685292244
note_off channel=0 note=72 velocity=64 time=6.36436891556
note_on channel=0 note=74 velocity=85 time=6.90572786331
note_on channel=0 note=81 velocity=97 time=7.06471395493
note_off channel=0 note=74 velocity=64 time=7.07305598259
note_off channel=0 note=81 velocity=64 time=7.28840303421
note_on channel=0 note=79 velocity=91 time=7.3911280632
note_off channel=0 note=79 velocity=64 time=7.75481891632
note_on channel=0 note=74 velocity=85 time=7.96937894821
note_on channel=0 note=81 velocity=87 time=8.09504985809
note_off channel=0 note=74 velocity=64 time=8.14513087273
note_off channel=0 note=81 velocity=64 time=8.34886193275
note_on channel=0 note=79 velocity=92 time=8.44190907478
note_off channel=0 note=79 velocity=64 time=8.68473792076
note_on channel=0 note=77 velocity=86 time=8.74886488914
note_off channel=0 note=77 velocity=64 time=9.04207086563
note_on channel=0 note=74 velocity=88 time=9.06691288948
note_off channel=0 note=74 velocity=64 time=10.1409020424
control_change channel=0 control=64 value=0 time=10.4777500629
control_change channel=1 control=64 value=0 time=10.4778389931
control_change channel=2 control=64 value=0 time=10.4785320759
