note_on channel=0 note=72 velocity=70 time=1.45988607407
note_on channel=0 note=74 velocity=67 time=1.71091389656
note_off channel=0 note=72 velocity=64 time=1.76433086395
note_on channel=0 note=76 velocity=82 time=1.96037197113
note_off channel=0 note=74 velocity=64 time=1.98906087875
note_on channel=0 note=77 velocity=80 time=2.18039703369
note_off channel=0 note=76 velocity=64 time=2.25817298889
note_on channel=0 note=79 velocity=81 time=2.45322990417
note_off channel=0 note=77 velocity=64 time=2.4620039463
note_on channel=0 note=81 velocity=79 time=2.69874787331
note_off channel=0 note=79 velocity=64 time=2.73567700386
note_on channel=0 note=83 velocity=73 time=2.93879008293
note_off channel=0 note=81 velocity=64 time=2.95137000084
note_on channel=0 note=84 velocity=85 time=3.15550589561
note_off channel=0 note=83 velocity=64 time=3.17104697227
note_on channel=0 note=86 velocity=80 time=3.43686103821
note_off channel=0 note=84 velocity=64 time=3.4517159462
note_on channel=0 note=88 velocity=78 time=3.68098592758
note_off channel=0 note=86 velocity=64 time=3.71785998344
note_on channel=0 note=89 velocity=72 time=3.90706396103
note_off channel=0 note=88 velocity=64 time=3.90906691551
note_on channel=0 note=91 velocity=80 time=4.16941690445
note_off channel=0 note=89 velocity=64 time=4.18464899063
note_on channel=0 note=93 velocity=91 time=4.39462184906
note_off channel=0 note=91 velocity=64 time=4.41172003746
note_on channel=0 note=95 velocity=79 time=4.63706207275
note_off channel=0 note=93 velocity=64 time=4.65515208244
note_on channel=0 note=96 velocity=91 time=4.87126207352
note_off channel=0 note=95 velocity=64 time=4.87147688866
note_on channel=0 note=95 velocity=76 time=5.08862090111
note_off channel=0 note=96 velocity=64 time=5.12251996994
note_on channel=0 note=93 velocity=81 time=5.34344696999
note_off channel=0 note=95 velocity=64 time=5.38459300995
note_on channel=0 note=91 velocity=85 time=5.61830091476
note_off channel=0 note=93 velocity=64 time=5.66750192642
note_on channel=0 note=89 velocity=80 time=5.8404750824
note_off channel=0 note=91 velocity=64 time=5.87789607048
note_on channel=0 note=88 velocity=87 time=6.08601403236
note_off channel=0 note=89 velocity=64 time=6.10148787498
note_on channel=0 note=86 velocity=79 time=6.32475590706
note_off channel=0 note=88 velocity=64 time=6.36673498154
note_on channel=0 note=84 velocity=82 time=6.55646705627
note_off channel=0 note=86 velocity=64 time=6.57233500481
note_on channel=0 note=83 velocity=91 time=6.80664896965
note_off channel=0 note=84 velocity=64 time=6.82370901108
note_on channel=0 note=81 velocity=84 time=7.03938794136
note_off channel=0 note=83 velocity=64 time=7.04637503624
note_on channel=0 note=79 velocity=75 time=7.27815103531
note_off channel=0 note=81 velocity=64 time=7.3240749836
note_on channel=0 note=77 velocity=79 time=7.49181890488
note_off channel=0 note=79 velocity=64 time=7.49186992645
note_on channel=0 note=76 velocity=76 time=7.74084091187
note_off channel=0 note=77 velocity=64 time=7.75194406509
note_on channel=0 note=74 velocity=81 time=7.98278594017
note_off channel=0 note=76 velocity=64 time=8.02437186241
note_on channel=0 note=72 velocity=78 time=8.24978590012
note_off channel=0 note=74 velocity=64 time=8.27320790291
note_off channel=0 note=72 velocity=64 time=9.23336601257
