note_on channel=0 note=60 velocity=73 time=9.38172793388
note_on channel=0 note=62 velocity=77 time=9.75164890289
note_on channel=0 note=64 velocity=76 time=10.0546529293
note_off channel=0 note=60 velocity=64 time=10.0668869019
note_off channel=0 note=62 velocity=64 time=10.1196088791
note_on channel=0 note=65 velocity=91 time=10.3244760036
note_off channel=0 note=64 velocity=64 time=10.5706858635
note_on channel=0 note=67 velocity=94 time=10.6221299171
note_off channel=0 note=67 velocity=64 time=10.9668200016
note_on channel=0 note=64 velocity=88 time=11.245418787
note_off channel=0 note=65 velocity=64 time=11.2455518246
note_on channel=0 note=62 velocity=79 time=11.5329799652
note_off channel=0 note=64 velocity=64 time=11.5399677753
note_off channel=0 note=62 velocity=64 time=11.7919738293
note_on channel=0 note=60 velocity=90 time=11.8092508316
note_on channel=0 note=62 velocity=45 time=12.1149327755
note_off channel=0 note=60 velocity=64 time=12.2565858364
note_on channel=0 note=64 velocity=87 time=12.3800799847
note_off channel=0 note=62 velocity=64 time=12.4160969257
note_on channel=0 note=65 velocity=87 time=12.6282129288
note_off channel=0 note=64 velocity=64 time=12.7012457848
note_on channel=0 note=67 velocity=93 time=12.9207417965
note_off channel=0 note=65 velocity=64 time=12.9285838604
note_on channel=0 note=65 velocity=87 time=13.1692137718
note_off channel=0 note=67 velocity=64 time=13.2119438648
note_on channel=0 note=64 velocity=87 time=13.4622378349
note_off channel=0 note=65 velocity=64 time=13.4888617992
note_on channel=0 note=62 velocity=75 time=13.7539908886
note_off channel=0 note=64 velocity=64 time=13.7569208145
note_on channel=0 note=60 velocity=80 time=14.0299937725
note_off channel=0 note=62 velocity=64 time=14.0309898853
note_on channel=0 note=62 velocity=51 time=14.3150248528
note_off channel=0 note=60 velocity=64 time=14.3838298321
note_on channel=0 note=64 velocity=86 time=14.6123437881
note_off channel=0 note=62 velocity=64 time=14.6317038536
note_on channel=0 note=65 velocity=70 time=14.8744888306
note_off channel=0 note=64 velocity=64 time=14.9538009167
note_on channel=0 note=67 velocity=91 time=15.1695768833
note_off channel=0 note=65 velocity=64 time=15.1724569798
note_on channel=0 note=65 velocity=91 time=15.43759799
note_off channel=0 note=67 velocity=64 time=15.4732079506
note_on channel=0 note=64 velocity=84 time=15.7365279198
note_off channel=0 note=65 velocity=64 time=15.7608048916
note_on channel=0 note=62 velocity=79 time=16.0220987797
note_off channel=0 note=64 velocity=64 time=16.0244159698
note_off channel=0 note=62 velocity=64 time=16.3128039837
note_on channel=0 note=60 velocity=91 time=16.3208940029
note_off channel=0 note=60 velocity=64 time=17.9258508682
note_on channel=0 note=60 velocity=88 time=18.5298008919
note_on channel=0 note=62 velocity=57 time=18.8088359833
note_off channel=0 note=60 velocity=64 time=19.0847408772
note_on channel=0 note=64 velocity=85 time=19.1266489029
note_off channel=0 note=62 velocity=64 time=19.1497228146
note_on channel=0 note=65 velocity=89 time=19.3942799568
note_off channel=0 note=64 velocity=64 time=19.4640269279
note_on channel=0 note=67 velocity=99 time=19.6763048172
note_off channel=0 note=65 velocity=64 time=19.6984977722
note_on channel=0 note=65 velocity=96 time=19.9043169022
note_off channel=0 note=67 velocity=64 time=19.9332289696
note_on channel=0 note=64 velocity=90 time=20.1892399788
note_off channel=0 note=65 velocity=64 time=20.2099378109
note_on channel=0 note=62 velocity=82 time=20.457461834
note_off channel=0 note=64 velocity=64 time=20.4744968414
note_off channel=0 note=62 velocity=64 time=20.7082679272
note_on channel=0 note=60 velocity=86 time=20.724118948
note_on channel=0 note=62 velocity=77 time=21.0177648067
note_off channel=0 note=60 velocity=64 time=21.1074399948
note_on channel=0 note=64 velocity=87 time=21.2772598267
note_off channel=0 note=62 velocity=64 time=21.2928488255
note_on channel=0 note=65 velocity=92 time=21.5306649208
note_off channel=0 note=64 velocity=64 time=21.5880308151
note_on channel=0 note=67 velocity=96 time=21.8086137772
note_off channel=0 note=65 velocity=64 time=21.8219838142
note_on channel=0 note=65 velocity=94 time=22.0308248997
note_off channel=0 note=67 velocity=64 time=22.0737659931
note_on channel=0 note=64 velocity=88 time=22.3307938576
note_off channel=0 note=65 velocity=64 time=22.3624219894
note_on channel=0 note=62 velocity=79 time=22.599023819
note_off channel=0 note=64 velocity=64 time=22.6343319416
note_on channel=0 note=60 velocity=85 time=22.858812809
note_off channel=0 note=62 velocity=64 time=22.8590300083
note_on channel=0 note=62 velocity=71 time=23.1123099327
note_off channel=0 note=60 velocity=64 time=23.3301558495
note_on channel=0 note=64 velocity=88 time=23.4166529179
note_off channel=0 note=62 velocity=64 time=23.4234240055
note_on channel=0 note=65 velocity=91 time=23.6411209106
note_off channel=0 note=64 velocity=64 time=23.7171289921
note_on channel=0 note=67 velocity=96 time=23.9315969944
note_off channel=0 note=65 velocity=64 time=23.9389009476
note_on channel=0 note=65 velocity=93 time=24.1924748421
note_off channel=0 note=67 velocity=64 time=24.2322049141
note_on channel=0 note=64 velocity=89 time=24.4940369129
note_off channel=0 note=65 velocity=64 time=24.5182638168
note_off channel=0 note=64 velocity=64 time=24.7618918419
note_on channel=0 note=62 velocity=81 time=24.771835804
note_off channel=0 note=62 velocity=64 time=25.0513949394
note_on channel=0 note=60 velocity=89 time=25.0597679615
note_off channel=0 note=60 velocity=64 time=26.8522999287
note_on channel=0 note=60 velocity=94 time=27.0631859303
note_on channel=0 note=62 velocity=75 time=27.3263418674
note_off channel=0 note=60 velocity=64 time=27.4142839909
note_on channel=0 note=64 velocity=87 time=27.596821785
note_off channel=0 note=62 velocity=64 time=27.6031699181
note_on channel=0 note=65 velocity=86 time=27.8468790054
note_off channel=0 note=64 velocity=64 time=27.9295549393
note_on channel=0 note=67 velocity=98 time=28.1346240044
note_off channel=0 note=65 velocity=64 time=28.1517009735
note_on channel=0 note=65 velocity=91 time=28.3915319443
note_off channel=0 note=67 velocity=64 time=28.4593780041
note_on channel=0 note=64 velocity=88 time=28.6742508411
note_off channel=0 note=65 velocity=64 time=28.7312510014
note_on channel=0 note=62 velocity=81 time=28.9411377907
note_off channel=0 note=64 velocity=64 time=28.9931359291
note_on channel=0 note=60 velocity=86 time=29.1840469837
note_off channel=0 note=62 velocity=64 time=29.2076308727
note_on channel=0 note=62 velocity=70 time=29.4446799755
note_off channel=0 note=60 velocity=64 time=29.5133647919
note_on channel=0 note=64 velocity=88 time=29.696171999
note_off channel=0 note=62 velocity=64 time=29.7215778828
note_on channel=0 note=65 velocity=89 time=29.9295129776
note_off channel=0 note=64 velocity=64 time=30.0190808773
note_on channel=0 note=67 velocity=92 time=30.2106688023
note_off channel=0 note=65 velocity=64 time=30.2371659279
note_on channel=0 note=65 velocity=86 time=30.4618659019
note_off channel=0 note=67 velocity=64 time=30.5315020084
note_on channel=0 note=64 velocity=82 time=30.7686479092
note_off channel=0 note=65 velocity=64 time=30.804530859
note_on channel=0 note=62 velocity=73 time=31.0349669456
note_off channel=0 note=64 velocity=64 time=31.0744249821
note_on channel=0 note=60 velocity=84 time=31.300164938
note_off channel=0 note=62 velocity=64 time=31.3143467903
note_on channel=0 note=62 velocity=65 time=31.5746188164
note_off channel=0 note=60 velocity=64 time=31.6503019333
note_on channel=0 note=64 velocity=86 time=31.8357608318
note_off channel=0 note=62 velocity=64 time=31.845058918
note_on channel=0 note=65 velocity=92 time=32.0840089321
note_off channel=0 note=64 velocity=64 time=32.1380169392
note_on channel=0 note=67 velocity=92 time=32.3643789291
note_off channel=0 note=65 velocity=64 time=32.3834347725
note_on channel=0 note=65 velocity=93 time=32.6344468594
note_off channel=0 note=67 velocity=64 time=32.6708757877
note_on channel=0 note=64 velocity=86 time=32.9340059757
note_off channel=0 note=65 velocity=64 time=32.9500758648
note_on channel=0 note=62 velocity=86 time=33.2045228481
note_off channel=0 note=64 velocity=64 time=33.2291388512
note_on channel=0 note=60 velocity=94 time=33.4656329155
note_off channel=0 note=62 velocity=64 time=33.4837458134
note_off channel=0 note=60 velocity=64 time=35.2791509628
note_on channel=0 note=60 velocity=92 time=35.7359638214
note_on channel=0 note=62 velocity=73 time=35.8778469563
note_off channel=0 note=60 velocity=64 time=35.9730079174
note_on channel=0 note=64 velocity=87 time=36.0011239052
note_off channel=0 note=62 velocity=64 time=36.0454909801
note_on channel=0 note=67 velocity=97 time=36.1567759514
note_off channel=0 note=64 velocity=64 time=36.1767849922
note_on channel=0 note=65 velocity=100 time=36.2728688717
note_off channel=0 note=67 velocity=64 time=36.3121848106
note_on channel=0 note=64 velocity=87 time=36.3945038319
note_off channel=0 note=65 velocity=64 time=36.4387478828
note_on channel=0 note=62 velocity=84 time=36.5038228035
note_off channel=0 note=64 velocity=64 time=36.5528039932
note_on channel=0 note=60 velocity=93 time=36.5963368416
note_off channel=0 note=62 velocity=64 time=36.6183748245
note_on channel=0 note=62 velocity=66 time=36.7421438694
note_on channel=0 note=64 velocity=91 time=36.8657360077
note_off channel=0 note=60 velocity=64 time=36.9227068424
note_off channel=0 note=62 velocity=64 time=36.9399778843
note_on channel=0 note=65 velocity=79 time=36.9790158272
note_on channel=0 note=67 velocity=107 time=37.0534470081
note_off channel=0 note=65 velocity=64 time=37.0814960003
note_off channel=0 note=64 velocity=64 time=37.0815758705
note_on channel=0 note=65 velocity=88 time=37.1605038643
note_off channel=0 note=67 velocity=64 time=37.2089259624
note_on channel=0 note=64 velocity=93 time=37.2636899948
note_off channel=0 note=65 velocity=64 time=37.3477888107
note_on channel=0 note=62 velocity=89 time=37.3689479828
note_off channel=0 note=64 velocity=64 time=37.4127469063
note_on channel=0 note=60 velocity=92 time=37.4589438438
note_off channel=0 note=62 velocity=64 time=37.4852209091
note_on channel=0 note=62 velocity=81 time=37.5762839317
note_on channel=0 note=64 velocity=89 time=37.650290966
note_off channel=0 note=60 velocity=64 time=37.7110359669
note_off channel=0 note=62 velocity=64 time=37.7344489098
note_on channel=0 note=65 velocity=76 time=37.8403098583
note_on channel=0 note=67 velocity=108 time=37.8474938869
note_off channel=0 note=65 velocity=64 time=37.8894867897
note_off channel=0 note=64 velocity=64 time=37.8896868229
note_on channel=0 note=65 velocity=87 time=37.9512939453
note_off channel=0 note=67 velocity=64 time=38.0030357838
note_on channel=0 note=64 velocity=88 time=38.0396227837
note_off channel=0 note=65 velocity=64 time=38.0943489075
note_on channel=0 note=62 velocity=90 time=38.1484439373
note_on channel=0 note=60 velocity=104 time=38.2171258926
note_off channel=0 note=64 velocity=64 time=38.217345953
note_off channel=0 note=62 velocity=64 time=38.2517578602
note_off channel=0 note=60 velocity=64 time=38.3979558945
