note_on channel=0 note=60 velocity=80 time=12.7697310448
note_on channel=0 note=62 velocity=81 time=13.018269062
note_off channel=0 note=60 velocity=64 time=13.1361961365
note_on channel=0 note=64 velocity=84 time=13.2311270237
note_off channel=0 note=62 velocity=64 time=13.2672131062
note_on channel=0 note=65 velocity=80 time=13.3969881535
note_off channel=0 note=64 velocity=64 time=13.5526530743
note_on channel=0 note=67 velocity=98 time=13.6168980598
note_off channel=0 note=65 velocity=64 time=13.6537251472
note_on channel=0 note=65 velocity=86 time=13.783411026
note_off channel=0 note=67 velocity=64 time=13.8139719963
note_on channel=0 note=64 velocity=91 time=14.0301320553
note_off channel=0 note=65 velocity=64 time=14.0719079971
note_on channel=0 note=62 velocity=79 time=14.2310240269
note_off channel=0 note=64 velocity=64 time=14.2690930367
note_off channel=0 note=62 velocity=64 time=14.4161090851
note_on channel=0 note=60 velocity=89 time=14.416200161
note_off channel=0 note=60 velocity=64 time=15.8362390995
note_on channel=0 note=60 velocity=89 time=16.6676831245
note_on channel=0 note=62 velocity=79 time=16.8886480331
note_off channel=0 note=60 velocity=64 time=16.9704830647
note_on channel=0 note=64 velocity=73 time=17.1116549969
note_off channel=0 note=62 velocity=64 time=17.1806371212
note_on channel=0 note=65 velocity=80 time=17.3030641079
note_off channel=0 note=64 velocity=64 time=17.4855720997
note_on channel=0 note=67 velocity=89 time=17.5049262047
note_off channel=0 note=65 velocity=64 time=17.5145111084
note_on channel=0 note=65 velocity=100 time=17.6962230206
note_off channel=0 note=67 velocity=64 time=17.7245311737
note_on channel=0 note=64 velocity=82 time=17.9045960903
note_off channel=0 note=65 velocity=64 time=17.972563982
note_on channel=0 note=62 velocity=84 time=18.119259119
note_off channel=0 note=64 velocity=64 time=18.1808559895
note_on channel=0 note=60 velocity=94 time=18.3294620514
note_off channel=0 note=62 velocity=64 time=18.3296060562
note_off channel=0 note=60 velocity=64 time=19.2872290611
note_on channel=0 note=60 velocity=89 time=20.0008029938
note_on channel=0 note=62 velocity=68 time=20.2170779705
note_off channel=0 note=60 velocity=64 time=20.3205440044
note_on channel=0 note=64 velocity=62 time=20.4566111565
note_off channel=0 note=62 velocity=64 time=20.5499351025
note_on channel=0 note=65 velocity=81 time=20.6724209785
note_off channel=0 note=64 velocity=64 time=20.8183670044
note_on channel=0 note=67 velocity=95 time=20.8658411503
note_off channel=0 note=65 velocity=64 time=20.8758850098
note_on channel=0 note=65 velocity=89 time=21.0374159813
note_off channel=0 note=67 velocity=64 time=21.0690050125
note_on channel=0 note=64 velocity=88 time=21.2799611092
note_off channel=0 note=65 velocity=64 time=21.3349330425
note_on channel=0 note=62 velocity=78 time=21.495265007
note_off channel=0 note=64 velocity=64 time=21.5447261333
note_off channel=0 note=62 velocity=64 time=21.7049071789
note_on channel=0 note=60 velocity=89 time=21.7116880417
note_off channel=0 note=60 velocity=64 time=23.1960790157
note_on channel=0 note=60 velocity=92 time=23.8024671078
note_on channel=0 note=62 velocity=73 time=24.0155441761
note_off channel=0 note=60 velocity=64 time=24.0885431767
note_on channel=0 note=64 velocity=87 time=24.2288320065
note_off channel=0 note=62 velocity=64 time=24.3264741898
note_on channel=0 note=65 velocity=90 time=24.4114279747
note_off channel=0 note=64 velocity=64 time=24.5911421776
note_on channel=0 note=67 velocity=88 time=24.6335930824
note_off channel=0 note=65 velocity=64 time=24.6627790928
note_on channel=0 note=65 velocity=80 time=24.8124961853
note_off channel=0 note=67 velocity=64 time=24.8904571533
note_on channel=0 note=64 velocity=88 time=25.0738530159
note_off channel=0 note=65 velocity=64 time=25.1389210224
note_on channel=0 note=62 velocity=83 time=25.3005311489
note_off channel=0 note=64 velocity=64 time=25.3590421677
note_on channel=0 note=60 velocity=95 time=25.5205760002
note_off channel=0 note=62 velocity=64 time=25.5303010941
note_off channel=0 note=60 velocity=64 time=27.067553997
note_on channel=0 note=60 velocity=73 time=28.3406910896
note_on channel=0 note=62 velocity=81 time=28.5919780731
note_on channel=0 note=64 velocity=78 time=28.8568940163
note_off channel=0 note=60 velocity=64 time=28.8736011982
note_on channel=0 note=65 velocity=86 time=29.0717711449
note_off channel=0 note=62 velocity=64 time=29.1274471283
note_off channel=0 note=64 velocity=64 time=29.2860569954
note_on channel=0 note=67 velocity=93 time=29.3196120262
note_off channel=0 note=65 velocity=64 time=29.3737490177
note_on channel=0 note=65 velocity=32 time=29.5421071053
note_on channel=0 note=64 velocity=40 time=29.7574920654
note_off channel=0 note=67 velocity=64 time=29.7732071877
note_off channel=0 note=65 velocity=64 time=29.8773040771
note_on channel=0 note=62 velocity=71 time=30.009925127
note_off channel=0 note=64 velocity=64 time=30.1925520897
note_on channel=0 note=60 velocity=90 time=30.2220830917
note_off channel=0 note=62 velocity=64 time=30.2275881767
note_off channel=0 note=60 velocity=64 time=31.6794891357
note_on channel=0 note=60 velocity=86 time=32.1105639935
note_on channel=0 note=62 velocity=71 time=32.3747081757
note_on channel=0 note=64 velocity=72 time=32.6118140221
note_off channel=0 note=60 velocity=64 time=32.6637890339
note_on channel=0 note=65 velocity=90 time=32.8385109901
note_off channel=0 note=62 velocity=64 time=32.9441301823
note_off channel=0 note=64 velocity=64 time=33.0453519821
note_on channel=0 note=67 velocity=100 time=33.065623045
note_off channel=0 note=65 velocity=64 time=33.1259100437
note_on channel=0 note=65 velocity=68 time=33.2443861961
note_off channel=0 note=67 velocity=64 time=33.4505841732
note_on channel=0 note=64 velocity=65 time=33.4991290569
note_off channel=0 note=65 velocity=64 time=33.7222020626
note_on channel=0 note=62 velocity=80 time=33.7387640476
note_off channel=0 note=64 velocity=64 time=33.8111581802
note_on channel=0 note=60 velocity=84 time=33.9848370552
note_off channel=0 note=62 velocity=64 time=34.0513250828
note_off channel=0 note=60 velocity=64 time=35.2385671139
note_on channel=0 note=60 velocity=89 time=35.771146059
note_on channel=0 note=62 velocity=78 time=35.9978430271
note_on channel=0 note=64 velocity=75 time=36.2210371494
note_off channel=0 note=60 velocity=64 time=36.2702560425
note_on channel=0 note=65 velocity=42 time=36.4583489895
note_off channel=0 note=62 velocity=64 time=36.5101490021
note_off channel=0 note=65 velocity=64 time=36.6564311981
note_on channel=0 note=67 velocity=91 time=36.6667501926
note_off channel=0 note=64 velocity=64 time=36.6695351601
note_on channel=0 note=65 velocity=84 time=36.9095020294
note_off channel=0 note=67 velocity=64 time=37.1015481949
note_on channel=0 note=64 velocity=85 time=37.1448791027
note_off channel=0 note=65 velocity=64 time=37.2110722065
note_on channel=0 note=62 velocity=88 time=37.365830183
note_off channel=0 note=64 velocity=64 time=37.4369921684
note_on channel=0 note=60 velocity=92 time=37.6024801731
note_off channel=0 note=62 velocity=64 time=37.6085422039
note_off channel=0 note=60 velocity=64 time=39.481306076
