note_on channel=0 note=41 velocity=91 time=8.26077985764
note_on channel=0 note=43 velocity=91 time=8.26086378098
note_off channel=0 note=41 velocity=64 time=8.36285090446
note_off channel=0 note=43 velocity=64 time=8.36523294449
note_on channel=0 note=41 velocity=86 time=8.71463394165
note_on channel=0 note=45 velocity=85 time=8.72187399864
note_off channel=0 note=45 velocity=64 time=8.82678389549
note_off channel=0 note=41 velocity=64 time=8.82934999466
note_on channel=0 note=41 velocity=92 time=9.13124895096
note_on channel=0 note=47 velocity=83 time=9.15741682053
note_off channel=0 note=47 velocity=64 time=9.27248477936
note_off channel=0 note=41 velocity=64 time=9.30380296707
note_on channel=0 note=41 velocity=94 time=9.57356095314
note_on channel=0 note=48 velocity=81 time=9.61546778679
note_on channel=0 note=47 velocity=73 time=9.6158759594
note_off channel=0 note=48 velocity=64 time=9.69975996017
note_off channel=0 note=47 velocity=64 time=9.70501995087
note_off channel=0 note=41 velocity=64 time=9.73617291451
note_on channel=0 note=41 velocity=91 time=10.0156497955
note_on channel=0 note=50 velocity=84 time=10.0370528698
note_on channel=0 note=48 velocity=89 time=10.0371129513
note_off channel=0 note=50 velocity=64 time=10.1767008305
note_off channel=0 note=48 velocity=64 time=10.1803498268
note_off channel=0 note=41 velocity=64 time=10.2100069523
note_on channel=0 note=41 velocity=83 time=10.452780962
note_on channel=0 note=47 velocity=92 time=10.4529287815
note_off channel=0 note=47 velocity=64 time=10.6288559437
note_off channel=0 note=41 velocity=64 time=10.6338119507
note_on channel=0 note=41 velocity=94 time=10.9082558155
note_on channel=0 note=45 velocity=100 time=10.9195389748
note_off channel=0 note=45 velocity=64 time=11.0534408092
note_off channel=0 note=41 velocity=64 time=11.0778567791
note_on channel=0 note=43 velocity=92 time=11.365049839
note_on channel=0 note=41 velocity=84 time=11.3657989502
note_off channel=0 note=43 velocity=64 time=11.491563797
note_off channel=0 note=41 velocity=64 time=11.5087509155
note_on channel=0 note=43 velocity=98 time=11.8287539482
note_on channel=0 note=41 velocity=93 time=11.8288547993
note_off channel=0 note=43 velocity=64 time=11.9286518097
note_off channel=0 note=41 velocity=64 time=11.9375388622
note_on channel=0 note=41 velocity=99 time=12.2054798603
note_on channel=0 note=45 velocity=94 time=12.2208487988
note_off channel=0 note=45 velocity=64 time=12.3401608467
note_off channel=0 note=41 velocity=64 time=12.3623259068
note_on channel=0 note=41 velocity=100 time=12.6211938858
note_on channel=0 note=47 velocity=92 time=12.6344900131
note_off channel=0 note=47 velocity=64 time=12.7599639893
note_off channel=0 note=41 velocity=64 time=12.7852230072
note_on channel=0 note=41 velocity=86 time=13.00157094
note_on channel=0 note=47 velocity=90 time=13.0163798332
note_on channel=0 note=48 velocity=81 time=13.0483989716
note_off channel=0 note=47 velocity=64 time=13.1324908733
note_off channel=0 note=41 velocity=64 time=13.1939868927
note_off channel=0 note=48 velocity=64 time=13.1991128922
note_on channel=0 note=50 velocity=100 time=13.4494609833
note_on channel=0 note=41 velocity=66 time=13.4750289917
note_on channel=0 note=43 velocity=69 time=13.4759829044
note_off channel=0 note=43 velocity=64 time=13.6006288528
note_off channel=0 note=41 velocity=64 time=13.6254498959
note_off channel=0 note=50 velocity=64 time=13.668738842
