note_on channel=0 note=72 velocity=71 time=4.02709317207
note_off channel=0 note=72 velocity=64 time=9.35440397263
note_on channel=0 note=72 velocity=76 time=11.8597540855
note_off channel=0 note=72 velocity=64 time=55.2912840843
note_on channel=0 note=72 velocity=82 time=75.8867211342
note_off channel=0 note=72 velocity=64 time=77.992923975
note_on channel=0 note=72 velocity=89 time=78.6013021469
note_off channel=0 note=72 velocity=64 time=93.1687350273
note_on channel=0 note=74 velocity=97 time=94.8367440701
note_off channel=0 note=74 velocity=64 time=116.438807011
note_on channel=0 note=76 velocity=80 time=117.268754005
note_off channel=0 note=76 velocity=64 time=123.880556107
note_on channel=0 note=77 velocity=93 time=125.322051048
note_off channel=0 note=77 velocity=64 time=134.137593031
note_on channel=0 note=77 velocity=82 time=134.446738958
note_off channel=0 note=77 velocity=64 time=151.902532101
note_on channel=0 note=74 velocity=82 time=152.754223108
note_off channel=0 note=74 velocity=64 time=167.201193094
note_on channel=0 note=72 velocity=95 time=167.478433132
note_off channel=0 note=72 velocity=64 time=177.020172119
note_on channel=0 note=72 velocity=94 time=177.297297955
note_off channel=0 note=72 velocity=64 time=185.249371052
note_on channel=0 note=72 velocity=97 time=186.409719944
note_off channel=0 note=72 velocity=64 time=195.161534071
