control_change channel=0 control=64 value=127 time=1.12691402435
control_change channel=1 control=64 value=127 time=1.12762403488
control_change channel=2 control=64 value=127 time=1.12778711319
control_change channel=0 control=64 value=0 time=1.50649905205
control_change channel=1 control=64 value=0 time=1.50732898712
control_change channel=2 control=64 value=0 time=1.50741815567
note_on channel=0 note=77 velocity=78 time=2.03436493874
note_on channel=0 note=81 velocity=85 time=2.20116496086
note_off channel=0 note=77 velocity=64 time=2.20373702049
control_change channel=0 control=64 value=127 time=2.35380196571
control_change channel=1 control=64 value=127 time=2.35390615463
control_change channel=2 control=64 value=127 time=2.35399603844
note_on channel=0 note=77 velocity=78 time=2.37743115425
note_off channel=0 note=81 velocity=64 time=2.45809412003
note_on channel=0 note=74 velocity=89 time=2.55575108528
note_off channel=0 note=77 velocity=64 time=2.5755341053
note_off channel=0 note=74 velocity=64 time=2.97833514214
control_change channel=0 control=64 value=0 time=3.12444996834
control_change channel=1 control=64 value=0 time=3.12453198433
control_change channel=2 control=64 value=0 time=3.12459015846
control_change channel=0 control=64 value=127 time=3.62458205223
control_change channel=1 control=64 value=127 time=3.62531113625
control_change channel=2 control=64 value=127 time=3.62589001656
note_on channel=0 note=77 velocity=82 time=4.25532197952
note_off channel=0 note=77 velocity=64 time=4.39989900589
note_on channel=0 note=81 velocity=86 time=4.40592193604
note_on channel=0 note=77 velocity=65 time=4.62420105934
note_off channel=0 note=81 velocity=64 time=4.63680005074
note_off channel=0 note=77 velocity=64 time=4.80852413177
note_on channel=0 note=76 velocity=92 time=5.62533116341
note_off channel=0 note=76 velocity=64 time=6.64342308044
note_on channel=0 note=77 velocity=84 time=6.76759696007
note_off channel=0 note=77 velocity=64 time=6.97420215607
note_on channel=0 note=81 velocity=90 time=6.98357605934
note_on channel=0 note=77 velocity=88 time=7.16414809227
note_off channel=0 note=81 velocity=64 time=7.21382594109
note_on channel=0 note=74 velocity=87 time=7.35233902931
note_off channel=0 note=77 velocity=64 time=7.38564395905
note_off channel=0 note=74 velocity=64 time=7.52721595764
note_on channel=0 note=74 velocity=83 time=7.83695697784
note_on channel=0 note=77 velocity=87 time=8.0212161541
note_off channel=0 note=74 velocity=64 time=8.03621697426
note_on channel=0 note=74 velocity=70 time=8.17848801613
note_off channel=0 note=74 velocity=64 time=8.24586009979
note_off channel=0 note=77 velocity=64 time=8.29993700981
note_on channel=0 note=72 velocity=85 time=8.37853193283
note_off channel=0 note=72 velocity=64 time=8.79228305817
note_on channel=0 note=74 velocity=86 time=9.27727413177
note_on channel=0 note=81 velocity=92 time=9.46731209755
note_off channel=0 note=74 velocity=64 time=9.47695612907
note_off channel=0 note=81 velocity=64 time=9.68684101105
note_on channel=0 note=79 velocity=88 time=9.8248231411
note_off channel=0 note=79 velocity=64 time=10.0377919674
note_on channel=0 note=74 velocity=88 time=10.4658510685
note_off channel=0 note=74 velocity=64 time=10.6039140224
note_on channel=0 note=81 velocity=92 time=10.6070511341
note_off channel=0 note=81 velocity=64 time=10.8504011631
note_on channel=0 note=79 velocity=87 time=10.9826359749
note_off channel=0 note=79 velocity=64 time=11.1759271622
note_on channel=0 note=77 velocity=94 time=11.3425180912
note_off channel=0 note=77 velocity=64 time=11.603951931
note_on channel=0 note=74 velocity=100 time=11.6881101131
note_off channel=0 note=74 velocity=64 time=11.8228571415
note_on channel=0 note=77 velocity=84 time=13.295979023
note_on channel=0 note=79 velocity=88 time=13.4567480087
note_off channel=0 note=77 velocity=64 time=13.4724440575
note_on channel=0 note=77 velocity=81 time=13.6230821609
note_off channel=0 note=79 velocity=64 time=13.6563379765
note_on channel=0 note=74 velocity=89 time=13.8263599873
note_off channel=0 note=77 velocity=64 time=13.8330409527
note_off channel=0 note=74 velocity=64 time=14.049973011
note_on channel=0 note=77 velocity=88 time=14.6710150242
note_off channel=0 note=77 velocity=64 time=14.8012030125
note_on channel=0 note=79 velocity=86 time=14.8225619793
note_on channel=0 note=77 velocity=88 time=14.9918079376
note_off channel=0 note=79 velocity=64 time=15.0477130413
note_on channel=0 note=76 velocity=89 time=15.1621899605
note_off channel=0 note=77 velocity=64 time=15.1832411289
note_off channel=0 note=76 velocity=64 time=15.8468489647
note_on channel=0 note=74 velocity=88 time=16.1304371357
note_off channel=0 note=74 velocity=64 time=16.4141881466
note_on channel=0 note=76 velocity=84 time=16.7462000847
note_off channel=0 note=76 velocity=64 time=16.9216401577
note_on channel=0 note=79 velocity=84 time=16.9337460995
note_on channel=0 note=76 velocity=81 time=17.0884850025
note_off channel=0 note=79 velocity=64 time=17.1623649597
note_on channel=0 note=72 velocity=91 time=17.2867259979
note_off channel=0 note=76 velocity=64 time=17.3250279427
note_off channel=0 note=72 velocity=64 time=17.4335680008
note_on channel=0 note=72 velocity=86 time=17.7487330437
note_on channel=0 note=76 velocity=88 time=17.9233119488
note_off channel=0 note=72 velocity=64 time=17.9392471313
note_on channel=0 note=72 velocity=76 time=18.0852079391
note_off channel=0 note=72 velocity=64 time=18.1890571117
note_off channel=0 note=76 velocity=64 time=18.2432601452
note_on channel=0 note=70 velocity=85 time=18.4469749928
note_off channel=0 note=70 velocity=64 time=18.5635590553
note_on channel=0 note=69 velocity=89 time=19.4347679615
note_off channel=0 note=69 velocity=64 time=19.6315870285
note_on channel=0 note=70 velocity=81 time=19.7262971401
note_off channel=0 note=70 velocity=64 time=19.8621921539
note_on channel=0 note=72 velocity=91 time=20.054156065
note_off channel=0 note=72 velocity=64 time=20.1215510368
note_on channel=0 note=76 velocity=84 time=21.1012620926
note_off channel=0 note=76 velocity=64 time=21.2406561375
note_on channel=0 note=77 velocity=87 time=21.2562010288
note_off channel=0 note=77 velocity=64 time=21.3637609482
note_on channel=0 note=74 velocity=94 time=21.8309080601
note_off channel=0 note=74 velocity=64 time=21.8791890144
note_on channel=0 note=76 velocity=97 time=21.9866240025
note_off channel=0 note=76 velocity=64 time=22.0226750374
note_on channel=0 note=72 velocity=86 time=22.8427481651
note_off channel=0 note=72 velocity=64 time=22.9954340458
note_on channel=0 note=74 velocity=82 time=23.157804966
note_off channel=0 note=74 velocity=64 time=23.2954990864
note_on channel=0 note=76 velocity=91 time=23.4718570709
note_off channel=0 note=76 velocity=64 time=23.6462891102
note_on channel=0 note=77 velocity=79 time=24.0486090183
note_on channel=0 note=76 velocity=85 time=24.2115390301
note_off channel=0 note=77 velocity=64 time=24.2416419983
note_off channel=0 note=76 velocity=64 time=24.396420002
note_on channel=0 note=76 velocity=68 time=25.0248670578
note_off channel=0 note=76 velocity=64 time=25.1340119839
note_on channel=0 note=77 velocity=25 time=25.1793329716
note_off channel=0 note=77 velocity=64 time=25.2517430782
note_on channel=0 note=77 velocity=84 time=25.3342280388
note_off channel=0 note=77 velocity=64 time=25.4171669483
note_on channel=0 note=79 velocity=70 time=25.5879161358
note_on channel=0 note=81 velocity=71 time=25.5880651474
note_off channel=0 note=81 velocity=64 time=25.6264059544
note_off channel=0 note=79 velocity=64 time=25.6275570393
note_on channel=0 note=79 velocity=100 time=25.9722371101
note_off channel=0 note=79 velocity=64 time=26.0110630989
note_on channel=0 note=77 velocity=58 time=27.1750831604
note_on channel=0 note=81 velocity=79 time=27.3783459663
note_off channel=0 note=77 velocity=64 time=27.3789801598
note_on channel=0 note=77 velocity=86 time=27.5550150871
note_off channel=0 note=81 velocity=64 time=27.5867960453
note_off channel=0 note=77 velocity=64 time=27.8557741642
note_on channel=0 note=76 velocity=88 time=28.1154589653
note_off channel=0 note=76 velocity=64 time=28.2620689869
