note_on channel=0 note=60 velocity=55 time=1.22820901871
note_off channel=0 note=60 velocity=64 time=1.47987604141
note_on channel=0 note=62 velocity=52 time=1.51489019394
note_off channel=0 note=62 velocity=64 time=1.86328411102
note_on channel=0 note=64 velocity=61 time=1.87823319435
note_off channel=0 note=64 velocity=64 time=2.25394511223
note_on channel=0 note=65 velocity=71 time=2.263048172
note_off channel=0 note=65 velocity=64 time=2.59273719788
note_on channel=0 note=67 velocity=68 time=2.61008501053
note_on channel=0 note=69 velocity=65 time=2.95768117905
note_off channel=0 note=67 velocity=64 time=2.96798610687
note_on channel=0 note=71 velocity=76 time=3.37904810905
note_off channel=0 note=69 velocity=64 time=3.38293600082
note_on channel=0 note=72 velocity=77 time=3.85288500786
note_off channel=0 note=71 velocity=64 time=3.86855816841
note_on channel=0 note=71 velocity=62 time=4.56408500671
note_off channel=0 note=72 velocity=64 time=4.58997416496
note_on channel=0 note=69 velocity=80 time=4.77770209312
note_off channel=0 note=71 velocity=64 time=4.77921199799
note_off channel=0 note=69 velocity=64 time=5.00380921364
note_on channel=0 note=67 velocity=76 time=5.00404310226
note_off channel=0 note=67 velocity=64 time=5.21687507629
note_on channel=0 note=65 velocity=86 time=5.22430515289
note_on channel=0 note=64 velocity=78 time=5.47378206253
note_off channel=0 note=65 velocity=64 time=5.47930812836
note_off channel=0 note=64 velocity=64 time=5.69672203064
note_on channel=0 note=62 velocity=77 time=5.72810220718
note_off channel=0 note=62 velocity=64 time=6.00893712044
note_on channel=0 note=60 velocity=84 time=6.02486801147
note_off channel=0 note=60 velocity=64 time=6.57211899757
note_on channel=0 note=60 velocity=51 time=9.42206907272
note_off channel=0 note=60 velocity=64 time=9.65160107613
note_on channel=0 note=62 velocity=58 time=9.66861510277
note_on channel=0 note=64 velocity=65 time=9.91896104813
note_off channel=0 note=62 velocity=64 time=9.91909813881
note_off channel=0 note=64 velocity=64 time=10.0951430798
note_on channel=0 note=65 velocity=70 time=10.1240160465
note_off channel=0 note=65 velocity=64 time=10.3358120918
note_on channel=0 note=67 velocity=71 time=10.3601109982
note_on channel=0 note=69 velocity=63 time=10.5544390678
note_off channel=0 note=67 velocity=64 time=10.5614290237
note_off channel=0 note=69 velocity=64 time=10.7559001446
note_on channel=0 note=71 velocity=68 time=10.7636711597
note_off channel=0 note=71 velocity=64 time=10.9385781288
note_on channel=0 note=72 velocity=79 time=10.9618132114
note_off channel=0 note=72 velocity=64 time=11.1332521439
note_on channel=0 note=71 velocity=75 time=11.1434841156
note_off channel=0 note=71 velocity=64 time=11.3195090294
note_on channel=0 note=69 velocity=79 time=11.3319470882
note_off channel=0 note=69 velocity=64 time=11.5376942158
note_on channel=0 note=67 velocity=70 time=11.5477161407
note_on channel=0 note=65 velocity=73 time=11.7427840233
note_off channel=0 note=67 velocity=64 time=11.7428841591
note_off channel=0 note=65 velocity=64 time=11.9606540203
note_on channel=0 note=64 velocity=73 time=11.9804611206
note_off channel=0 note=64 velocity=64 time=12.1797389984
note_on channel=0 note=62 velocity=66 time=12.1864790916
note_off channel=0 note=62 velocity=64 time=12.4345781803
note_on channel=0 note=60 velocity=68 time=12.4461190701
note_off channel=0 note=60 velocity=64 time=12.8649091721
note_on channel=0 note=60 velocity=73 time=13.1271431446
note_off channel=0 note=60 velocity=64 time=13.3578221798
note_on channel=0 note=62 velocity=70 time=13.3705201149
note_on channel=0 note=64 velocity=73 time=13.6796851158
note_off channel=0 note=62 velocity=64 time=13.6797981262
note_on channel=0 note=65 velocity=81 time=13.9968671799
note_off channel=0 note=64 velocity=64 time=13.9994750023
note_off channel=0 note=65 velocity=64 time=14.3792049885
note_on channel=0 note=67 velocity=71 time=14.402641058
note_on channel=0 note=69 velocity=77 time=14.6629271507
note_off channel=0 note=67 velocity=64 time=14.6805260181
note_on channel=0 note=71 velocity=75 time=14.8826889992
note_off channel=0 note=69 velocity=64 time=14.896086216
note_off channel=0 note=71 velocity=64 time=15.0505001545
note_on channel=0 note=72 velocity=80 time=15.0596051216
note_on channel=0 note=71 velocity=79 time=15.2517921925
note_off channel=0 note=72 velocity=64 time=15.2518761158
note_off channel=0 note=71 velocity=64 time=15.4307961464
note_on channel=0 note=69 velocity=75 time=15.4581851959
note_off channel=0 note=69 velocity=64 time=15.6654992104
note_on channel=0 note=67 velocity=69 time=15.6849629879
note_off channel=0 note=67 velocity=64 time=15.8847482204
note_on channel=0 note=65 velocity=78 time=15.9238171577
note_off channel=0 note=65 velocity=64 time=16.2200410366
note_on channel=0 note=64 velocity=76 time=16.22687006
note_off channel=0 note=64 velocity=64 time=16.4934060574
note_on channel=0 note=62 velocity=68 time=16.5116109848
note_off channel=0 note=62 velocity=64 time=16.8220000267
note_on channel=0 note=60 velocity=73 time=16.8599309921
note_off channel=0 note=60 velocity=64 time=17.4527730942
