note_on channel=0 note=72 velocity=80 time=1.44399881363
note_on channel=0 note=74 velocity=90 time=2.02508497238
note_off channel=0 note=72 velocity=64 time=2.02657294273
note_on channel=0 note=76 velocity=91 time=2.56452584267
note_off channel=0 note=74 velocity=64 time=2.56458187103
note_off channel=0 note=76 velocity=64 time=3.06514692307
note_on channel=0 note=77 velocity=90 time=3.07691788673
note_on channel=0 note=79 velocity=87 time=3.57577776909
note_off channel=0 note=77 velocity=64 time=3.59391379356
note_on channel=0 note=81 velocity=86 time=4.10871386528
note_off channel=0 note=79 velocity=64 time=4.11144089699
note_on channel=0 note=83 velocity=88 time=4.56184577942
note_off channel=0 note=81 velocity=64 time=4.56191182137
note_on channel=0 note=84 velocity=95 time=5.00181388855
note_off channel=0 note=83 velocity=64 time=5.01350593567
note_on channel=0 note=83 velocity=87 time=5.43364787102
note_off channel=0 note=84 velocity=64 time=5.47046685219
note_on channel=0 note=81 velocity=93 time=5.84142398834
note_off channel=0 note=83 velocity=64 time=5.86711478233
note_on channel=0 note=79 velocity=90 time=6.22729086876
note_off channel=0 note=81 velocity=64 time=6.23228192329
note_on channel=0 note=77 velocity=90 time=6.6442668438
note_off channel=0 note=79 velocity=64 time=6.64449596405
note_on channel=0 note=76 velocity=86 time=7.06283783913
note_off channel=0 note=77 velocity=64 time=7.08406877518
note_off channel=0 note=76 velocity=64 time=7.46838378906
note_on channel=0 note=74 velocity=87 time=7.48040699959
note_on channel=0 note=72 velocity=98 time=7.92583489418
note_off channel=0 note=74 velocity=64 time=7.92952179909
note_off channel=0 note=72 velocity=64 time=8.48620486259
