note_on channel=0 note=60 velocity=53 time=3.05734181404
note_off channel=0 note=60 velocity=64 time=3.25719189644
note_on channel=0 note=62 velocity=49 time=3.27964282036
note_off channel=0 note=62 velocity=64 time=3.50158500671
note_on channel=0 note=64 velocity=67 time=3.50442790985
note_off channel=0 note=64 velocity=64 time=3.69126987457
note_on channel=0 note=65 velocity=68 time=3.7255988121
note_off channel=0 note=65 velocity=64 time=3.92473602295
note_on channel=0 note=67 velocity=73 time=3.94509196281
note_on channel=0 note=69 velocity=69 time=4.15838599205
note_off channel=0 note=67 velocity=64 time=4.18036699295
note_off channel=0 note=69 velocity=64 time=4.35326194763
note_on channel=0 note=71 velocity=69 time=4.3633248806
note_off channel=0 note=71 velocity=64 time=4.52801799774
note_on channel=0 note=72 velocity=76 time=4.54215288162
note_off channel=0 note=72 velocity=64 time=4.72583889961
note_on channel=0 note=71 velocity=70 time=4.73155784607
note_off channel=0 note=71 velocity=64 time=4.90391182899
note_on channel=0 note=69 velocity=64 time=4.9180958271
note_off channel=0 note=69 velocity=64 time=5.09072089195
note_on channel=0 note=67 velocity=66 time=5.12701296806
note_off channel=0 note=67 velocity=64 time=5.31441187859
note_on channel=0 note=65 velocity=78 time=5.33613085747
note_off channel=0 note=65 velocity=64 time=5.55600500107
note_on channel=0 note=64 velocity=68 time=5.56740689278
note_off channel=0 note=64 velocity=64 time=5.74409198761
note_on channel=0 note=62 velocity=66 time=5.77344799042
note_off channel=0 note=62 velocity=64 time=6.0020840168
note_on channel=0 note=60 velocity=71 time=6.02224183083
note_off channel=0 note=60 velocity=64 time=6.20509696007
note_on channel=0 note=62 velocity=63 time=6.22702002525
note_on channel=0 note=64 velocity=63 time=6.43721103668
note_off channel=0 note=62 velocity=64 time=6.44103884697
note_off channel=0 note=64 velocity=64 time=6.59069895744
note_on channel=0 note=65 velocity=73 time=6.62498497963
note_off channel=0 note=65 velocity=64 time=6.82249593735
note_on channel=0 note=67 velocity=75 time=6.84288787842
note_on channel=0 note=69 velocity=70 time=7.02517580986
note_off channel=0 note=67 velocity=64 time=7.02569389343
note_on channel=0 note=71 velocity=66 time=7.21201992035
note_off channel=0 note=69 velocity=64 time=7.21229290962
note_off channel=0 note=71 velocity=64 time=7.36452794075
note_on channel=0 note=72 velocity=73 time=7.37777590752
note_off channel=0 note=72 velocity=64 time=7.57006382942
note_on channel=0 note=71 velocity=70 time=7.58219981194
note_off channel=0 note=71 velocity=64 time=7.71142101288
note_on channel=0 note=69 velocity=71 time=7.71826696396
note_off channel=0 note=69 velocity=64 time=7.88776803017
note_on channel=0 note=67 velocity=71 time=7.89643788338
note_off channel=0 note=67 velocity=64 time=8.05027389526
note_on channel=0 note=65 velocity=81 time=8.06552481651
note_off channel=0 note=65 velocity=64 time=8.20724487305
note_on channel=0 note=64 velocity=64 time=8.24768090248
note_off channel=0 note=64 velocity=64 time=8.40416502953
note_on channel=0 note=62 velocity=75 time=8.4245429039
note_off channel=0 note=62 velocity=64 time=8.56357288361
note_on channel=0 note=60 velocity=80 time=8.59681391716
note_off channel=0 note=60 velocity=64 time=8.71788692474
note_on channel=0 note=62 velocity=70 time=8.74180483818
note_on channel=0 note=64 velocity=77 time=8.90699291229
note_off channel=0 note=62 velocity=64 time=8.90731191635
note_off channel=0 note=64 velocity=64 time=8.97329592705
note_on channel=0 note=65 velocity=81 time=9.03125500679
note_off channel=0 note=65 velocity=64 time=9.16941595078
note_on channel=0 note=67 velocity=79 time=9.18924283981
note_on channel=0 note=69 velocity=63 time=9.29973697662
note_off channel=0 note=67 velocity=64 time=9.31534790993
note_on channel=0 note=71 velocity=70 time=9.40592694283
note_off channel=0 note=69 velocity=64 time=9.45956802368
note_off channel=0 note=71 velocity=64 time=9.50242781639
note_on channel=0 note=72 velocity=76 time=9.51417803764
note_on channel=0 note=71 velocity=58 time=9.60574388504
note_off channel=0 note=72 velocity=64 time=9.64015483856
note_on channel=0 note=69 velocity=71 time=9.73526096344
note_off channel=0 note=71 velocity=64 time=9.75923895836
note_on channel=0 note=67 velocity=66 time=9.85658884048
note_off channel=0 note=69 velocity=64 time=9.88492584229
note_off channel=0 note=67 velocity=64 time=9.9464969635
note_on channel=0 note=65 velocity=79 time=9.95214700699
note_off channel=0 note=65 velocity=64 time=10.0724549294
note_on channel=0 note=64 velocity=68 time=10.0938768387
note_off channel=0 note=64 velocity=64 time=10.200594902
note_on channel=0 note=62 velocity=67 time=10.2075128555
note_off channel=0 note=62 velocity=64 time=10.2743098736
note_on channel=0 note=60 velocity=73 time=10.3253660202
note_off channel=0 note=60 velocity=64 time=10.3961348534
note_on channel=0 note=62 velocity=54 time=10.4290959835
note_off channel=0 note=62 velocity=64 time=10.5303509235
note_on channel=0 note=64 velocity=73 time=10.53845191
note_off channel=0 note=64 velocity=64 time=10.5829529762
note_on channel=0 note=65 velocity=87 time=10.6412830353
note_on channel=0 note=67 velocity=84 time=10.7627420425
note_off channel=0 note=65 velocity=64 time=10.7630310059
note_on channel=0 note=69 velocity=56 time=10.8646018505
note_off channel=0 note=67 velocity=64 time=10.8899838924
note_on channel=0 note=71 velocity=68 time=10.9367699623
note_off channel=0 note=69 velocity=64 time=10.952796936
note_off channel=0 note=71 velocity=64 time=11.045924902
note_on channel=0 note=72 velocity=81 time=11.0565438271
note_on channel=0 note=71 velocity=68 time=11.1443870068
note_off channel=0 note=72 velocity=64 time=11.1737108231
note_on channel=0 note=69 velocity=76 time=11.2560348511
note_off channel=0 note=71 velocity=64 time=11.2750530243
note_on channel=0 note=67 velocity=74 time=11.3620769978
note_off channel=0 note=69 velocity=64 time=11.3917410374
note_off channel=0 note=67 velocity=64 time=11.4425199032
note_on channel=0 note=65 velocity=87 time=11.4643399715
note_off channel=0 note=65 velocity=64 time=11.5773608685
note_on channel=0 note=64 velocity=75 time=11.5884239674
note_off channel=0 note=64 velocity=64 time=11.6937818527
note_on channel=0 note=62 velocity=82 time=11.7152860165
note_off channel=0 note=62 velocity=64 time=11.7774059772
note_on channel=0 note=60 velocity=81 time=11.8264830112
note_off channel=0 note=60 velocity=64 time=11.9232490063
note_on channel=0 note=62 velocity=59 time=11.9527108669
note_off channel=0 note=62 velocity=64 time=12.0112578869
note_on channel=0 note=64 velocity=65 time=12.0446820259
note_off channel=0 note=64 velocity=64 time=12.1142380238
note_on channel=0 note=65 velocity=84 time=12.1504049301
note_on channel=0 note=67 velocity=81 time=12.2767109871
note_off channel=0 note=65 velocity=64 time=12.2768189907
note_on channel=0 note=69 velocity=59 time=12.3794798851
note_off channel=0 note=67 velocity=64 time=12.4276249409
note_on channel=0 note=71 velocity=68 time=12.4779529572
note_off channel=0 note=69 velocity=64 time=12.527602911
note_off channel=0 note=71 velocity=64 time=12.5517339706
note_on channel=0 note=72 velocity=77 time=12.5716228485
note_on channel=0 note=71 velocity=57 time=12.6635320187
note_off channel=0 note=72 velocity=64 time=12.699887991
note_on channel=0 note=69 velocity=70 time=12.7867410183
note_off channel=0 note=71 velocity=64 time=12.8035268784
note_on channel=0 note=67 velocity=76 time=12.8898599148
note_off channel=0 note=69 velocity=64 time=12.9170649052
note_off channel=0 note=67 velocity=64 time=12.9810268879
note_on channel=0 note=65 velocity=81 time=12.9931788445
note_off channel=0 note=65 velocity=64 time=13.0999510288
note_on channel=0 note=64 velocity=79 time=13.1146860123
note_off channel=0 note=64 velocity=64 time=13.225673914
note_on channel=0 note=62 velocity=76 time=13.2405028343
note_off channel=0 note=62 velocity=64 time=13.2975418568
note_on channel=0 note=60 velocity=76 time=13.3555259705
note_off channel=0 note=60 velocity=64 time=13.4283800125
note_on channel=0 note=62 velocity=54 time=13.453761816
note_off channel=0 note=62 velocity=64 time=13.5298469067
note_on channel=0 note=64 velocity=65 time=13.5541629791
note_off channel=0 note=64 velocity=64 time=13.6088888645
note_on channel=0 note=65 velocity=86 time=13.6651818752
note_on channel=0 note=67 velocity=84 time=13.7796359062
note_off channel=0 note=65 velocity=64 time=13.7816059589
note_on channel=0 note=69 velocity=61 time=13.8946008682
note_off channel=0 note=67 velocity=64 time=13.9309539795
note_on channel=0 note=71 velocity=67 time=13.9759190083
note_off channel=0 note=69 velocity=64 time=14.0239999294
note_off channel=0 note=71 velocity=64 time=14.0639848709
note_on channel=0 note=72 velocity=75 time=14.0801119804
note_on channel=0 note=71 velocity=65 time=14.174382925
note_off channel=0 note=72 velocity=64 time=14.2039978504
note_on channel=0 note=69 velocity=78 time=14.2990489006
note_off channel=0 note=71 velocity=64 time=14.3087608814
note_on channel=0 note=67 velocity=75 time=14.394974947
note_off channel=0 note=69 velocity=64 time=14.4170958996
note_off channel=0 note=67 velocity=64 time=14.4684948921
note_on channel=0 note=65 velocity=85 time=14.491920948
note_off channel=0 note=65 velocity=64 time=14.6159520149
note_on channel=0 note=64 velocity=84 time=14.6217420101
note_off channel=0 note=64 velocity=64 time=14.7403998375
note_on channel=0 note=62 velocity=80 time=14.7499229908
note_off channel=0 note=62 velocity=64 time=14.8531880379
note_on channel=0 note=60 velocity=89 time=14.8750178814
note_off channel=0 note=60 velocity=64 time=15.1745219231
