note_on channel=0 note=60 velocity=61 time=1.12417387962
note_off channel=0 note=60 velocity=64 time=1.32195401192
note_on channel=0 note=62 velocity=68 time=1.34041190147
note_off channel=0 note=62 velocity=64 time=1.55519294739
note_on channel=0 note=64 velocity=62 time=1.55908894539
note_on channel=0 note=65 velocity=69 time=1.75145101547
note_off channel=0 note=64 velocity=64 time=1.75335288048
note_off channel=0 note=65 velocity=64 time=1.90740895271
note_on channel=0 note=67 velocity=73 time=1.94010901451
note_off channel=0 note=67 velocity=64 time=2.1102809906
note_on channel=0 note=65 velocity=66 time=2.11240696907
note_off channel=0 note=65 velocity=64 time=2.2705309391
note_on channel=0 note=64 velocity=57 time=2.28789591789
note_off channel=0 note=64 velocity=64 time=2.44007897377
note_on channel=0 note=62 velocity=69 time=2.45376396179
note_off channel=0 note=62 velocity=64 time=2.60830402374
note_on channel=0 note=60 velocity=72 time=2.63289284706
note_off channel=0 note=60 velocity=64 time=2.78359293938
note_on channel=0 note=62 velocity=60 time=2.80578398705
note_off channel=0 note=62 velocity=64 time=2.95332884789
note_on channel=0 note=64 velocity=56 time=2.96091580391
note_on channel=0 note=65 velocity=73 time=3.09557580948
note_off channel=0 note=64 velocity=64 time=3.11017203331
note_off channel=0 note=65 velocity=64 time=3.2086558342
note_on channel=0 note=67 velocity=68 time=3.2382838726
note_on channel=0 note=65 velocity=50 time=3.35025787354
note_off channel=0 note=67 velocity=64 time=3.38507199287
note_off channel=0 note=65 velocity=64 time=3.47404193878
note_on channel=0 note=64 velocity=60 time=3.47632193565
note_off channel=0 note=64 velocity=64 time=3.59561681747
note_on channel=0 note=62 velocity=64 time=3.60967302322
note_off channel=0 note=62 velocity=64 time=3.69770097733
note_on channel=0 note=60 velocity=79 time=3.75650691986
note_on channel=0 note=62 velocity=60 time=3.85996580124
note_off channel=0 note=60 velocity=64 time=3.86071586609
note_on channel=0 note=64 velocity=60 time=3.98722982407
note_off channel=0 note=62 velocity=64 time=3.99538588524
note_on channel=0 note=65 velocity=75 time=4.08870100975
note_off channel=0 note=64 velocity=64 time=4.10737586021
note_off channel=0 note=65 velocity=64 time=4.16858792305
note_on channel=0 note=67 velocity=75 time=4.19904088974
note_on channel=0 note=65 velocity=50 time=4.27964401245
note_off channel=0 note=67 velocity=64 time=4.31130290031
note_on channel=0 note=64 velocity=60 time=4.40828585625
note_off channel=0 note=65 velocity=64 time=4.4100959301
note_off channel=0 note=64 velocity=64 time=4.48554396629
note_on channel=0 note=62 velocity=65 time=4.50855302811
note_off channel=0 note=62 velocity=64 time=4.56907701492
note_on channel=0 note=60 velocity=70 time=4.60477590561
note_on channel=0 note=62 velocity=45 time=4.69766998291
note_off channel=0 note=60 velocity=64 time=4.70082688332
note_on channel=0 note=64 velocity=49 time=4.82016801834
note_off channel=0 note=62 velocity=64 time=4.82878184319
note_on channel=0 note=65 velocity=58 time=4.89235687256
note_off channel=0 note=64 velocity=64 time=4.89549183846
note_off channel=0 note=65 velocity=64 time=4.96358180046
note_on channel=0 note=67 velocity=67 time=5.00219583511
note_on channel=0 note=65 velocity=40 time=5.07568502426
note_off channel=0 note=67 velocity=64 time=5.10611701012
note_on channel=0 note=64 velocity=46 time=5.18372797966
note_off channel=0 note=65 velocity=64 time=5.18810892105
note_off channel=0 note=64 velocity=64 time=5.28779196739
note_on channel=0 note=62 velocity=53 time=5.28811192513
note_off channel=0 note=62 velocity=64 time=5.33955097198
note_on channel=0 note=60 velocity=73 time=5.3638048172
note_on channel=0 note=62 velocity=41 time=5.46047401428
note_off channel=0 note=60 velocity=64 time=5.47046494484
note_on channel=0 note=64 velocity=41 time=5.57338500023
note_off channel=0 note=62 velocity=64 time=5.57521080971
note_on channel=0 note=65 velocity=56 time=5.64516091347
note_off channel=0 note=64 velocity=64 time=5.64874601364
note_off channel=0 note=65 velocity=64 time=5.71375989914
note_on channel=0 note=67 velocity=72 time=5.74305987358
note_on channel=0 note=65 velocity=38 time=5.83467292786
note_off channel=0 note=67 velocity=64 time=5.86230993271
note_on channel=0 note=64 velocity=51 time=5.90602588654
note_off channel=0 note=65 velocity=64 time=5.9061088562
note_off channel=0 note=64 velocity=64 time=5.99369192123
note_on channel=0 note=62 velocity=51 time=6.01025485992
note_off channel=0 note=62 velocity=64 time=6.06017303467
note_on channel=0 note=60 velocity=68 time=6.07538795471
note_off channel=0 note=60 velocity=64 time=6.15717697144
note_on channel=0 note=62 velocity=56 time=6.16566586494
note_on channel=0 note=64 velocity=45 time=6.24892497063
note_off channel=0 note=62 velocity=64 time=6.26382088661
note_on channel=0 note=65 velocity=54 time=6.33899688721
note_off channel=0 note=64 velocity=64 time=6.34202885628
note_off channel=0 note=65 velocity=64 time=6.39922499657
note_on channel=0 note=67 velocity=72 time=6.42089390755
note_off channel=0 note=67 velocity=64 time=6.48998594284
note_on channel=0 note=65 velocity=53 time=6.49927997589
note_on channel=0 note=64 velocity=46 time=6.56475496292
note_off channel=0 note=65 velocity=64 time=6.57346200943
note_on channel=0 note=62 velocity=60 time=6.65482187271
note_off channel=0 note=64 velocity=64 time=6.66027879715
note_off channel=0 note=62 velocity=64 time=6.71679997444
note_on channel=0 note=60 velocity=73 time=6.74729394913
note_on channel=0 note=62 velocity=44 time=6.831127882
note_off channel=0 note=60 velocity=64 time=6.85836195946
note_on channel=0 note=64 velocity=44 time=6.92495679855
note_off channel=0 note=62 velocity=64 time=6.93176388741
note_on channel=0 note=65 velocity=67 time=6.97184896469
note_off channel=0 note=64 velocity=64 time=6.99616384506
note_off channel=0 note=65 velocity=64 time=7.04197883606
note_on channel=0 note=67 velocity=78 time=7.07429099083
note_off channel=0 note=67 velocity=64 time=7.14073181152
note_on channel=0 note=65 velocity=56 time=7.15938091278
note_on channel=0 note=64 velocity=42 time=7.22396683693
note_off channel=0 note=65 velocity=64 time=7.23527503014
note_on channel=0 note=62 velocity=51 time=7.30213189125
note_off channel=0 note=64 velocity=64 time=7.30261182785
note_off channel=0 note=62 velocity=64 time=7.3505988121
note_on channel=0 note=60 velocity=74 time=7.37579298019
note_on channel=0 note=62 velocity=43 time=7.4435210228
note_off channel=0 note=60 velocity=64 time=7.44899082184
note_on channel=0 note=64 velocity=48 time=7.53598594666
note_off channel=0 note=62 velocity=64 time=7.56882381439
note_on channel=0 note=65 velocity=62 time=7.61170482635
note_off channel=0 note=64 velocity=64 time=7.64097595215
note_off channel=0 note=65 velocity=64 time=7.68010091782
note_on channel=0 note=67 velocity=70 time=7.70724201202
note_off channel=0 note=67 velocity=64 time=7.75822687149
note_on channel=0 note=65 velocity=66 time=7.77481985092
note_off channel=0 note=65 velocity=64 time=7.83602285385
note_on channel=0 note=64 velocity=64 time=7.84964299202
note_off channel=0 note=64 velocity=64 time=7.92550802231
note_on channel=0 note=62 velocity=49 time=7.94585990906
note_off channel=0 note=62 velocity=64 time=7.99202394485
note_on channel=0 note=60 velocity=79 time=8.00127100945
note_off channel=0 note=60 velocity=64 time=8.08484196663
note_on channel=0 note=62 velocity=53 time=8.08496689796
note_on channel=0 note=64 velocity=53 time=8.17290186882
note_off channel=0 note=62 velocity=64 time=8.21064782143
note_on channel=0 note=65 velocity=51 time=8.24052786827
note_off channel=0 note=64 velocity=64 time=8.25343489647
note_off channel=0 note=65 velocity=64 time=8.30549001694
note_on channel=0 note=67 velocity=75 time=8.31549096107
note_off channel=0 note=67 velocity=64 time=8.36753892899
note_on channel=0 note=65 velocity=79 time=8.39361190796
note_on channel=0 note=64 velocity=58 time=8.4600520134
note_off channel=0 note=65 velocity=64 time=8.46019387245
note_on channel=0 note=62 velocity=63 time=8.53930687904
note_off channel=0 note=64 velocity=64 time=8.540776968
note_off channel=0 note=62 velocity=64 time=8.59221482277
note_on channel=0 note=60 velocity=76 time=8.62048888206
note_on channel=0 note=62 velocity=45 time=8.6963160038
note_off channel=0 note=60 velocity=64 time=8.69640398026
note_on channel=0 note=64 velocity=53 time=8.77597379684
note_off channel=0 note=62 velocity=64 time=8.81395697594
note_on channel=0 note=65 velocity=49 time=8.84893894196
note_off channel=0 note=64 velocity=64 time=8.84902596474
note_on channel=0 note=67 velocity=75 time=8.90547680855
note_off channel=0 note=65 velocity=64 time=8.90578103065
note_off channel=0 note=67 velocity=64 time=8.95824980736
note_on channel=0 note=65 velocity=71 time=8.97623801231
note_on channel=0 note=64 velocity=73 time=9.06126689911
note_off channel=0 note=65 velocity=64 time=9.0620059967
note_on channel=0 note=62 velocity=76 time=9.13792681694
note_off channel=0 note=64 velocity=64 time=9.15556788445
note_on channel=0 note=60 velocity=93 time=9.20372581482
note_off channel=0 note=62 velocity=64 time=9.20793890953
note_off channel=0 note=60 velocity=64 time=9.30383491516
