note_on channel=0 note=60 velocity=67 time=14.1074590683
note_off channel=0 note=60 velocity=64 time=14.2424080372
note_on channel=0 note=62 velocity=82 time=19.4119420052
note_off channel=0 note=62 velocity=64 time=19.4708709717
note_on channel=0 note=64 velocity=71 time=19.6743988991
note_off channel=0 note=64 velocity=64 time=19.7565960884
note_on channel=0 note=65 velocity=58 time=19.941546917
note_off channel=0 note=65 velocity=64 time=20.0276310444
note_on channel=0 note=67 velocity=82 time=20.3190178871
note_off channel=0 note=67 velocity=64 time=20.4034268856
note_on channel=0 note=60 velocity=65 time=22.8729178905
note_on channel=0 note=62 velocity=64 time=22.8798370361
note_off channel=0 note=62 velocity=64 time=23.0200810432
note_off channel=0 note=60 velocity=64 time=23.0520820618
note_on channel=0 note=60 velocity=56 time=23.3048429489
note_on channel=0 note=64 velocity=73 time=23.3117899895
note_off channel=0 note=64 velocity=64 time=23.4877049923
note_off channel=0 note=60 velocity=64 time=23.5276110172
note_on channel=0 note=60 velocity=53 time=23.7032909393
note_on channel=0 note=65 velocity=84 time=23.7182769775
note_off channel=0 note=65 velocity=64 time=23.8773560524
note_off channel=0 note=60 velocity=64 time=23.9271578789
note_on channel=0 note=60 velocity=57 time=24.1061429977
note_on channel=0 note=67 velocity=81 time=24.1065630913
note_off channel=0 note=67 velocity=64 time=24.2711229324
note_off channel=0 note=60 velocity=64 time=24.3266649246
note_on channel=0 note=60 velocity=57 time=24.4540739059
note_on channel=0 note=62 velocity=88 time=24.4658908844
note_off channel=0 note=62 velocity=64 time=24.6075658798
note_off channel=0 note=60 velocity=64 time=24.642539978
note_on channel=0 note=60 velocity=57 time=24.8391299248
note_on channel=0 note=64 velocity=76 time=24.8525218964
note_off channel=0 note=64 velocity=64 time=24.9877538681
note_off channel=0 note=60 velocity=64 time=25.0689229965
note_on channel=0 note=60 velocity=25 time=25.1989080906
note_on channel=0 note=65 velocity=65 time=25.2137999535
note_off channel=0 note=65 velocity=64 time=25.3554399014
note_off channel=0 note=60 velocity=64 time=25.4070460796
note_on channel=0 note=60 velocity=53 time=25.5735509396
note_on channel=0 note=67 velocity=83 time=25.5866179466
note_off channel=0 note=67 velocity=64 time=25.7159340382
note_off channel=0 note=60 velocity=64 time=25.7595529556
note_on channel=0 note=60 velocity=56 time=25.93582201
note_on channel=0 note=62 velocity=84 time=25.9471280575
note_off channel=0 note=62 velocity=64 time=26.0761859417
note_off channel=0 note=60 velocity=64 time=26.1141619682
note_on channel=0 note=60 velocity=59 time=26.3107280731
note_on channel=0 note=64 velocity=80 time=26.3173930645
note_off channel=0 note=64 velocity=64 time=26.4497859478
note_off channel=0 note=60 velocity=64 time=26.4762179852
note_on channel=0 note=60 velocity=59 time=26.6559739113
note_on channel=0 note=65 velocity=66 time=26.6691379547
note_off channel=0 note=65 velocity=64 time=26.8019859791
note_off channel=0 note=60 velocity=64 time=26.8660318851
note_on channel=0 note=60 velocity=39 time=27.0170769691
note_on channel=0 note=67 velocity=79 time=27.022603035
note_off channel=0 note=67 velocity=64 time=27.1805269718
note_off channel=0 note=60 velocity=64 time=27.2047760487
note_on channel=0 note=60 velocity=69 time=27.3995990753
note_on channel=0 note=62 velocity=79 time=27.40071702
note_off channel=0 note=62 velocity=64 time=27.5259718895
note_off channel=0 note=60 velocity=64 time=27.5561389923
note_on channel=0 note=60 velocity=67 time=27.7637250423
note_on channel=0 note=64 velocity=71 time=27.7717609406
note_on channel=0 note=62 velocity=32 time=27.8140108585
note_off channel=0 note=62 velocity=64 time=27.8783218861
note_off channel=0 note=64 velocity=64 time=27.902354002
note_off channel=0 note=60 velocity=64 time=27.9170348644
note_on channel=0 note=60 velocity=44 time=28.1050140858
note_on channel=0 note=65 velocity=75 time=28.1059579849
note_off channel=0 note=65 velocity=64 time=28.2343959808
note_off channel=0 note=60 velocity=64 time=28.2785689831
note_on channel=0 note=67 velocity=82 time=28.4644708633
note_on channel=0 note=60 velocity=52 time=28.4647200108
note_off channel=0 note=67 velocity=64 time=28.5966870785
note_off channel=0 note=60 velocity=64 time=28.6332130432
note_on channel=0 note=60 velocity=81 time=28.8348960876
note_on channel=0 note=62 velocity=76 time=28.8433570862
note_on channel=0 note=64 velocity=39 time=28.8793449402
note_off channel=0 note=64 velocity=64 time=28.9485280514
note_off channel=0 note=62 velocity=64 time=28.9846758842
note_off channel=0 note=60 velocity=64 time=29.0029449463
note_on channel=0 note=60 velocity=74 time=29.2079689503
note_on channel=0 note=64 velocity=50 time=29.2519629002
note_on channel=0 note=62 velocity=30 time=29.2630028725
note_off channel=0 note=62 velocity=64 time=29.3315820694
note_off channel=0 note=64 velocity=64 time=29.3474149704
note_off channel=0 note=60 velocity=64 time=29.3875179291
note_on channel=0 note=60 velocity=82 time=29.5918729305
note_on channel=0 note=65 velocity=80 time=29.5996360779
note_off channel=0 note=65 velocity=64 time=29.7231500149
note_off channel=0 note=60 velocity=64 time=29.7752928734
note_on channel=0 note=60 velocity=54 time=29.9272110462
note_on channel=0 note=67 velocity=84 time=29.9434719086
note_off channel=0 note=67 velocity=64 time=30.0775279999
note_off channel=0 note=60 velocity=64 time=30.1117210388
note_on channel=0 note=60 velocity=69 time=30.3116869926
note_on channel=0 note=62 velocity=71 time=30.3230750561
note_off channel=0 note=62 velocity=64 time=30.4509079456
note_off channel=0 note=60 velocity=64 time=30.4582130909
note_on channel=0 note=60 velocity=65 time=30.6649520397
note_on channel=0 note=64 velocity=82 time=30.6779580116
note_off channel=0 note=64 velocity=64 time=30.8036420345
note_off channel=0 note=60 velocity=64 time=30.8246209621
note_on channel=0 note=60 velocity=49 time=31.0458130836
note_on channel=0 note=65 velocity=66 time=31.0522940159
note_off channel=0 note=65 velocity=64 time=31.1777899265
note_off channel=0 note=60 velocity=64 time=31.2050130367
note_on channel=0 note=60 velocity=66 time=31.4117059708
note_on channel=0 note=67 velocity=86 time=31.4182739258
note_off channel=0 note=67 velocity=64 time=31.5467019081
note_off channel=0 note=60 velocity=64 time=31.5611538887
note_on channel=0 note=60 velocity=69 time=31.7761640549
note_on channel=0 note=62 velocity=87 time=31.7848250866
note_off channel=0 note=62 velocity=64 time=31.9063150883
note_off channel=0 note=60 velocity=64 time=31.9332499504
note_on channel=0 note=60 velocity=68 time=32.1589400768
note_on channel=0 note=64 velocity=67 time=32.1799430847
note_off channel=0 note=64 velocity=64 time=32.3100159168
note_off channel=0 note=60 velocity=64 time=32.3293418884
note_on channel=0 note=60 velocity=73 time=32.5431630611
note_on channel=0 note=65 velocity=88 time=32.5588479042
note_off channel=0 note=65 velocity=64 time=32.6805820465
note_off channel=0 note=60 velocity=64 time=32.7169289589
note_on channel=0 note=67 velocity=84 time=32.915225029
note_on channel=0 note=60 velocity=74 time=32.9153540134
note_off channel=0 note=67 velocity=64 time=33.0413298607
note_off channel=0 note=60 velocity=64 time=33.0712690353
note_on channel=0 note=60 velocity=75 time=33.2752659321
note_on channel=0 note=62 velocity=78 time=33.2868130207
note_off channel=0 note=62 velocity=64 time=33.400851965
note_off channel=0 note=60 velocity=64 time=33.4404780865
note_on channel=0 note=60 velocity=80 time=33.6375398636
note_on channel=0 note=64 velocity=83 time=33.6595048904
note_off channel=0 note=64 velocity=64 time=33.7915849686
note_off channel=0 note=60 velocity=64 time=33.8238580227
note_on channel=0 note=60 velocity=76 time=34.0223100185
note_on channel=0 note=65 velocity=85 time=34.0230360031
note_off channel=0 note=65 velocity=64 time=34.1562299728
note_off channel=0 note=60 velocity=64 time=34.193459034
note_on channel=0 note=60 velocity=66 time=34.3758349419
note_on channel=0 note=67 velocity=86 time=34.382019043
note_off channel=0 note=67 velocity=64 time=34.5968110561
note_off channel=0 note=60 velocity=64 time=34.6101870537
note_on channel=0 note=60 velocity=75 time=35.0831749439
note_on channel=0 note=62 velocity=39 time=35.243571043
note_on channel=0 note=64 velocity=55 time=35.3364670277
note_off channel=0 note=60 velocity=64 time=35.3635430336
note_off channel=0 note=62 velocity=64 time=35.4960370064
note_on channel=0 note=65 velocity=49 time=35.5462539196
note_on channel=0 note=67 velocity=92 time=35.6668949127
note_off channel=0 note=65 velocity=64 time=35.6878919601
note_off channel=0 note=64 velocity=64 time=35.6956310272
note_on channel=0 note=65 velocity=75 time=35.7878279686
note_off channel=0 note=67 velocity=64 time=35.8298158646
note_on channel=0 note=64 velocity=76 time=35.8802969456
note_off channel=0 note=65 velocity=64 time=35.9905810356
note_on channel=0 note=62 velocity=39 time=36.026417017
note_off channel=0 note=64 velocity=64 time=36.1084868908
note_off channel=0 note=62 velocity=64 time=36.1394579411
note_on channel=0 note=60 velocity=83 time=36.1493449211
note_on channel=0 note=72 velocity=82 time=37.5094258785
note_off channel=0 note=60 velocity=64 time=37.5416250229
note_off channel=0 note=72 velocity=64 time=38.8898899555
note_on channel=0 note=60 velocity=65 time=38.9039189816
note_off channel=0 note=60 velocity=64 time=40.7347118855
note_on channel=0 note=60 velocity=84 time=41.412872076
note_on channel=0 note=62 velocity=52 time=41.6851410866
note_off channel=0 note=60 velocity=64 time=41.7811219692
note_on channel=0 note=64 velocity=81 time=42.0096130371
note_off channel=0 note=62 velocity=64 time=42.035654068
note_on channel=0 note=65 velocity=84 time=42.3065998554
note_off channel=0 note=64 velocity=64 time=42.5762710571
note_off channel=0 note=65 velocity=64 time=42.6234560013
note_on channel=0 note=67 velocity=86 time=42.6308288574
note_on channel=0 note=65 velocity=79 time=42.9361619949
note_off channel=0 note=67 velocity=64 time=43.0185670853
note_on channel=0 note=64 velocity=85 time=43.2189879417
note_off channel=0 note=65 velocity=64 time=43.2237079144
note_on channel=0 note=62 velocity=57 time=43.5220370293
note_off channel=0 note=64 velocity=64 time=43.5599119663
note_off channel=0 note=62 velocity=64 time=43.794095993
note_on channel=0 note=60 velocity=77 time=43.8025300503
note_on channel=0 note=71 velocity=87 time=44.610419035
note_off channel=0 note=60 velocity=64 time=44.649586916
note_on channel=0 note=72 velocity=76 time=45.6939659119
note_off channel=0 note=71 velocity=64 time=45.717443943
note_off channel=0 note=72 velocity=64 time=47.6400420666
note_on channel=0 note=60 velocity=74 time=49.63595891
note_on channel=0 note=62 velocity=54 time=49.7747108936
note_on channel=0 note=64 velocity=47 time=49.9238920212
note_off channel=0 note=60 velocity=64 time=49.9351320267
note_off channel=0 note=62 velocity=64 time=50.067991972
note_on channel=0 note=67 velocity=86 time=50.1771728992
note_on channel=0 note=65 velocity=44 time=50.2006149292
note_off channel=0 note=64 velocity=64 time=50.2008109093
note_off channel=0 note=67 velocity=64 time=50.4640049934
note_on channel=0 note=64 velocity=86 time=50.52146101
note_off channel=0 note=65 velocity=64 time=50.586566925
note_on channel=0 note=62 velocity=62 time=50.6266520023
note_off channel=0 note=64 velocity=64 time=50.7039310932
note_on channel=0 note=60 velocity=88 time=50.7279570103
note_off channel=0 note=62 velocity=64 time=50.7614979744
note_off channel=0 note=60 velocity=64 time=50.9090309143
note_on channel=0 note=60 velocity=82 time=60.0641200542
note_off channel=0 note=60 velocity=64 time=60.1824810505
note_on channel=0 note=60 velocity=44 time=60.2969670296
note_off channel=0 note=60 velocity=64 time=60.4035038948
note_on channel=0 note=60 velocity=60 time=60.4918999672
note_off channel=0 note=60 velocity=64 time=60.633015871
note_on channel=0 note=62 velocity=81 time=60.7077178955
note_off channel=0 note=62 velocity=64 time=60.7883009911
note_on channel=0 note=62 velocity=52 time=60.9088358879
note_off channel=0 note=62 velocity=64 time=60.9776768684
note_on channel=0 note=62 velocity=49 time=61.0970568657
note_off channel=0 note=62 velocity=64 time=61.1681389809
note_on channel=0 note=64 velocity=63 time=61.2988379002
note_off channel=0 note=64 velocity=64 time=61.3584530354
note_on channel=0 note=64 velocity=65 time=61.4875760078
note_off channel=0 note=64 velocity=64 time=61.5635669231
note_on channel=0 note=64 velocity=63 time=61.6747140884
note_off channel=0 note=64 velocity=64 time=61.7567179203
note_on channel=0 note=65 velocity=65 time=61.8777558804
note_off channel=0 note=65 velocity=64 time=61.9460890293
note_on channel=0 note=65 velocity=66 time=62.0672409534
note_off channel=0 note=65 velocity=64 time=62.148029089
note_on channel=0 note=65 velocity=75 time=62.2732739449
note_off channel=0 note=65 velocity=64 time=62.4191958904
note_on channel=0 note=67 velocity=59 time=62.4659068584
note_off channel=0 note=67 velocity=64 time=62.5590748787
note_on channel=0 note=67 velocity=59 time=62.6879498959
note_off channel=0 note=67 velocity=64 time=62.7530150414
note_on channel=0 note=67 velocity=50 time=62.8804440498
note_off channel=0 note=67 velocity=64 time=62.9600019455
note_on channel=0 note=65 velocity=77 time=63.0561759472
note_off channel=0 note=65 velocity=64 time=63.1260678768
note_on channel=0 note=65 velocity=73 time=63.2506809235
note_off channel=0 note=65 velocity=64 time=63.3149030209
note_on channel=0 note=65 velocity=63 time=63.4471039772
note_off channel=0 note=65 velocity=64 time=63.5394399166
note_on channel=0 note=64 velocity=67 time=63.6371519566
note_off channel=0 note=64 velocity=64 time=63.6894059181
note_on channel=0 note=64 velocity=48 time=63.8297810555
note_off channel=0 note=64 velocity=64 time=63.8882238865
note_on channel=0 note=64 velocity=46 time=64.0215220451
note_off channel=0 note=64 velocity=64 time=64.0945899487
note_on channel=0 note=62 velocity=38 time=64.2512969971
note_off channel=0 note=62 velocity=64 time=64.3110280037
note_on channel=0 note=62 velocity=38 time=64.4197158813
note_off channel=0 note=62 velocity=64 time=64.4876489639
note_on channel=0 note=62 velocity=41 time=64.6240780354
note_off channel=0 note=62 velocity=64 time=64.7331929207
note_on channel=0 note=60 velocity=45 time=64.8563759327
note_off channel=0 note=60 velocity=64 time=66.5238919258
note_on channel=0 note=67 velocity=66 time=67.3344318867
note_on channel=0 note=64 velocity=73 time=67.3632900715
note_on channel=0 note=60 velocity=33 time=67.3634729385
note_off channel=0 note=64 velocity=64 time=68.493885994
note_off channel=0 note=67 velocity=64 time=69.7892460823
note_off channel=0 note=60 velocity=64 time=69.8590650558
