note_on channel=0 note=60 velocity=62 time=3.4729039669
note_on channel=0 note=62 velocity=82 time=3.8801279068
note_off channel=0 note=60 velocity=64 time=3.89142394066
note_on channel=0 note=64 velocity=86 time=4.1925098896
note_off channel=0 note=62 velocity=64 time=4.19263887405
note_off channel=0 note=64 velocity=64 time=4.44606184959
note_on channel=0 note=65 velocity=88 time=4.46695590019
note_on channel=0 note=67 velocity=86 time=4.70803189278
note_off channel=0 note=65 velocity=64 time=4.70829105377
note_on channel=0 note=69 velocity=81 time=4.91688203812
note_off channel=0 note=67 velocity=64 time=4.9277279377
note_on channel=0 note=71 velocity=78 time=5.1287009716
note_off channel=0 note=69 velocity=64 time=5.12900304794
note_off channel=0 note=71 velocity=64 time=5.28669786453
note_on channel=0 note=72 velocity=85 time=5.33713698387
note_off channel=0 note=72 velocity=64 time=5.53826999664
note_on channel=0 note=74 velocity=71 time=5.54928708076
note_on channel=0 note=76 velocity=84 time=5.74418902397
note_off channel=0 note=74 velocity=64 time=5.76200485229
note_off channel=0 note=76 velocity=64 time=5.90159392357
note_on channel=0 note=77 velocity=84 time=5.94415187836
note_on channel=0 note=79 velocity=79 time=6.12965798378
note_off channel=0 note=77 velocity=64 time=6.12983989716
note_on channel=0 note=81 velocity=71 time=6.31318593025
note_off channel=0 note=79 velocity=64 time=6.31329107285
note_on channel=0 note=83 velocity=71 time=6.47831296921
note_off channel=0 note=81 velocity=64 time=6.48501992226
note_on channel=0 note=84 velocity=79 time=6.66103291512
note_off channel=0 note=83 velocity=64 time=6.66744685173
note_on channel=0 note=83 velocity=66 time=6.8208489418
note_off channel=0 note=84 velocity=64 time=6.84673786163
note_on channel=0 note=81 velocity=77 time=6.97781586647
note_off channel=0 note=83 velocity=64 time=6.9946000576
note_on channel=0 note=79 velocity=79 time=7.14057302475
note_off channel=0 note=81 velocity=64 time=7.140625
note_off channel=0 note=79 velocity=64 time=7.28802704811
note_on channel=0 note=77 velocity=80 time=7.30046987534
note_off channel=0 note=77 velocity=64 time=7.44458889961
note_on channel=0 note=76 velocity=81 time=7.46013593674
note_on channel=0 note=74 velocity=80 time=7.64387607574
note_off channel=0 note=76 velocity=64 time=7.64392995834
note_off channel=0 note=74 velocity=64 time=7.79011106491
note_on channel=0 note=72 velocity=69 time=7.82204294205
note_on channel=0 note=71 velocity=75 time=8.03661108017
note_off channel=0 note=72 velocity=64 time=8.03771305084
note_on channel=0 note=69 velocity=79 time=8.25687003136
note_off channel=0 note=71 velocity=64 time=8.27100896835
note_on channel=0 note=67 velocity=81 time=8.47096300125
note_off channel=0 note=69 velocity=64 time=8.47547197342
note_on channel=0 note=65 velocity=87 time=8.68273305893
note_off channel=0 note=67 velocity=64 time=8.68278408051
note_on channel=0 note=64 velocity=73 time=8.93412399292
note_off channel=0 note=65 velocity=64 time=8.93418598175
note_on channel=0 note=62 velocity=76 time=9.16654396057
note_off channel=0 note=64 velocity=64 time=9.1696999073
note_on channel=0 note=60 velocity=89 time=9.48109292984
note_off channel=0 note=62 velocity=64 time=9.48146891594
note_off channel=0 note=60 velocity=64 time=10.1844749451
note_on channel=0 note=60 velocity=68 time=11.7791428566
note_on channel=0 note=62 velocity=69 time=11.9930250645
note_off channel=0 note=60 velocity=64 time=12.0012278557
note_on channel=0 note=64 velocity=79 time=12.2156429291
note_off channel=0 note=62 velocity=64 time=12.2157309055
note_off channel=0 note=64 velocity=64 time=12.373898983
note_on channel=0 note=65 velocity=79 time=12.3913328648
note_off channel=0 note=65 velocity=64 time=12.5754208565
note_on channel=0 note=67 velocity=77 time=12.579944849
note_on channel=0 note=69 velocity=74 time=12.7497260571
note_off channel=0 note=67 velocity=64 time=12.7568049431
note_on channel=0 note=71 velocity=75 time=12.9083528519
note_off channel=0 note=69 velocity=64 time=12.9201669693
note_off channel=0 note=71 velocity=64 time=13.0337529182
note_on channel=0 note=72 velocity=75 time=13.0937628746
note_off channel=0 note=72 velocity=64 time=13.2733030319
note_on channel=0 note=74 velocity=73 time=13.2833600044
note_on channel=0 note=76 velocity=81 time=13.4574160576
note_off channel=0 note=74 velocity=64 time=13.4622590542
note_off channel=0 note=76 velocity=64 time=13.5800728798
note_on channel=0 note=77 velocity=83 time=13.6297159195
note_on channel=0 note=79 velocity=81 time=13.8089308739
note_off channel=0 note=77 velocity=64 time=13.8138549328
note_on channel=0 note=81 velocity=81 time=13.9960298538
note_off channel=0 note=79 velocity=64 time=13.9962408543
note_on channel=0 note=83 velocity=74 time=14.1649210453
note_off channel=0 note=81 velocity=64 time=14.1676819324
note_off channel=0 note=83 velocity=64 time=14.3438429832
note_on channel=0 note=84 velocity=84 time=14.3438899517
note_on channel=0 note=83 velocity=73 time=14.5276169777
note_off channel=0 note=84 velocity=64 time=14.5305528641
note_on channel=0 note=81 velocity=78 time=14.6930749416
note_off channel=0 note=83 velocity=64 time=14.6931290627
note_on channel=0 note=79 velocity=82 time=14.8563740253
note_off channel=0 note=81 velocity=64 time=14.8574800491
note_off channel=0 note=79 velocity=64 time=15.0266699791
note_on channel=0 note=77 velocity=80 time=15.0275139809
note_off channel=0 note=77 velocity=64 time=15.173568964
note_on channel=0 note=76 velocity=84 time=15.188076973
note_on channel=0 note=74 velocity=78 time=15.3478598595
note_off channel=0 note=76 velocity=64 time=15.34790802
note_off channel=0 note=74 velocity=64 time=15.5026750565
note_on channel=0 note=72 velocity=82 time=15.5336818695
note_on channel=0 note=71 velocity=91 time=15.706209898
note_off channel=0 note=72 velocity=64 time=15.7089920044
note_on channel=0 note=69 velocity=82 time=15.8960459232
note_off channel=0 note=71 velocity=64 time=15.8961038589
note_on channel=0 note=67 velocity=84 time=16.0534229279
note_off channel=0 note=69 velocity=64 time=16.0546350479
note_on channel=0 note=65 velocity=86 time=16.2207849026
note_off channel=0 note=67 velocity=64 time=16.2252650261
note_on channel=0 note=64 velocity=81 time=16.4232330322
note_off channel=0 note=65 velocity=64 time=16.439399004
note_on channel=0 note=62 velocity=81 time=16.6056749821
note_off channel=0 note=64 velocity=64 time=16.6057338715
note_off channel=0 note=62 velocity=64 time=16.8436169624
note_on channel=0 note=60 velocity=84 time=16.8438549042
note_off channel=0 note=60 velocity=64 time=17.5824699402
note_on channel=0 note=60 velocity=76 time=20.5895199776
note_off channel=0 note=60 velocity=64 time=20.7653059959
note_on channel=0 note=62 velocity=66 time=20.7805559635
note_on channel=0 note=64 velocity=78 time=20.9538009167
note_off channel=0 note=62 velocity=64 time=20.9598078728
note_off channel=0 note=64 velocity=64 time=21.0790200233
note_on channel=0 note=65 velocity=83 time=21.1075558662
note_off channel=0 note=65 velocity=64 time=21.2761158943
note_on channel=0 note=67 velocity=80 time=21.2819640636
note_off channel=0 note=67 velocity=64 time=21.4433009624
note_on channel=0 note=69 velocity=75 time=21.443351984
note_on channel=0 note=71 velocity=76 time=21.5968298912
note_off channel=0 note=69 velocity=64 time=21.6048848629
note_off channel=0 note=71 velocity=64 time=21.7211508751
note_on channel=0 note=72 velocity=80 time=21.774064064
note_off channel=0 note=72 velocity=64 time=21.946146965
note_on channel=0 note=74 velocity=78 time=21.9527990818
note_on channel=0 note=76 velocity=84 time=22.1125688553
note_off channel=0 note=74 velocity=64 time=22.1236679554
note_off channel=0 note=76 velocity=64 time=22.23913908
note_on channel=0 note=77 velocity=83 time=22.2767009735
note_on channel=0 note=79 velocity=75 time=22.449985981
note_off channel=0 note=77 velocity=64 time=22.4502649307
note_off channel=0 note=79 velocity=64 time=22.6240558624
note_on channel=0 note=81 velocity=73 time=22.6241509914
note_on channel=0 note=83 velocity=69 time=22.7729079723
note_off channel=0 note=81 velocity=64 time=22.7745540142
note_on channel=0 note=84 velocity=84 time=22.9539048672
note_off channel=0 note=83 velocity=64 time=22.9569048882
note_on channel=0 note=83 velocity=71 time=23.124309063
note_off channel=0 note=84 velocity=64 time=23.1303739548
note_on channel=0 note=81 velocity=80 time=23.2750959396
note_off channel=0 note=83 velocity=64 time=23.280479908
note_on channel=0 note=79 velocity=82 time=23.4324700832
note_off channel=0 note=81 velocity=64 time=23.4330439568
note_off channel=0 note=79 velocity=64 time=23.5674550533
note_on channel=0 note=77 velocity=76 time=23.5930440426
note_off channel=0 note=77 velocity=64 time=23.731482029
note_on channel=0 note=76 velocity=81 time=23.7491919994
note_on channel=0 note=74 velocity=78 time=23.9212720394
note_off channel=0 note=76 velocity=64 time=23.9216189384
note_off channel=0 note=74 velocity=64 time=24.0787520409
note_on channel=0 note=72 velocity=78 time=24.1083278656
note_on channel=0 note=71 velocity=84 time=24.2871398926
note_off channel=0 note=72 velocity=64 time=24.2872178555
note_on channel=0 note=69 velocity=73 time=24.4792258739
note_off channel=0 note=71 velocity=64 time=24.4795339108
note_on channel=0 note=67 velocity=81 time=24.6452980042
note_off channel=0 note=69 velocity=64 time=24.6539368629
note_off channel=0 note=67 velocity=64 time=24.8326869011
note_on channel=0 note=65 velocity=91 time=24.840775013
note_off channel=0 note=65 velocity=64 time=25.0534360409
note_on channel=0 note=64 velocity=72 time=25.053632021
note_on channel=0 note=62 velocity=81 time=25.2588570118
note_off channel=0 note=64 velocity=64 time=25.2622599602
note_off channel=0 note=62 velocity=64 time=25.5004889965
note_on channel=0 note=60 velocity=93 time=25.5093388557
note_off channel=0 note=60 velocity=64 time=26.3606250286
note_on channel=0 note=60 velocity=75 time=31.2043960094
note_on channel=0 note=62 velocity=75 time=31.5796949863
note_off channel=0 note=60 velocity=64 time=31.5806460381
note_on channel=0 note=64 velocity=79 time=31.9339840412
note_off channel=0 note=62 velocity=64 time=31.9370548725
note_on channel=0 note=65 velocity=86 time=32.5861580372
note_off channel=0 note=64 velocity=64 time=32.5862109661
note_on channel=0 note=67 velocity=85 time=33.0005068779
note_off channel=0 note=65 velocity=64 time=33.0006580353
note_on channel=0 note=69 velocity=82 time=33.3021409512
note_off channel=0 note=67 velocity=64 time=33.3080708981
note_on channel=0 note=71 velocity=84 time=33.5893189907
note_off channel=0 note=69 velocity=64 time=33.5903179646
note_off channel=0 note=71 velocity=64 time=33.8783168793
note_on channel=0 note=72 velocity=88 time=33.9151549339
note_on channel=0 note=74 velocity=81 time=34.2094509602
note_off channel=0 note=72 velocity=64 time=34.2095038891
note_on channel=0 note=76 velocity=81 time=34.5074970722
note_off channel=0 note=74 velocity=64 time=34.5197410583
note_off channel=0 note=76 velocity=64 time=34.88199687
note_on channel=0 note=77 velocity=85 time=34.9146540165
note_off channel=0 note=77 velocity=64 time=35.2085969448
note_on channel=0 note=79 velocity=84 time=35.2157309055
note_on channel=0 note=81 velocity=78 time=35.4975950718
note_off channel=0 note=79 velocity=64 time=35.5012509823
note_on channel=0 note=83 velocity=79 time=35.7197959423
note_off channel=0 note=81 velocity=64 time=35.7306890488
note_on channel=0 note=84 velocity=85 time=35.9505970478
note_off channel=0 note=83 velocity=64 time=35.9565110207
note_on channel=0 note=83 velocity=76 time=36.14980793
note_off channel=0 note=84 velocity=64 time=36.1872599125
note_on channel=0 note=81 velocity=79 time=36.345651865
note_off channel=0 note=83 velocity=64 time=36.3457820415
note_on channel=0 note=79 velocity=84 time=36.5325820446
note_off channel=0 note=81 velocity=64 time=36.5349938869
note_off channel=0 note=79 velocity=64 time=36.7485430241
note_on channel=0 note=77 velocity=80 time=36.760559082
note_on channel=0 note=76 velocity=82 time=36.9608368874
note_off channel=0 note=77 velocity=64 time=36.9644210339
note_on channel=0 note=74 velocity=78 time=37.1763970852
note_off channel=0 note=76 velocity=64 time=37.1764490604
note_off channel=0 note=74 velocity=64 time=37.4146609306
note_on channel=0 note=72 velocity=84 time=37.4212110043
note_on channel=0 note=71 velocity=86 time=37.6655008793
note_off channel=0 note=72 velocity=64 time=37.6804530621
note_on channel=0 note=69 velocity=85 time=37.923263073
note_off channel=0 note=71 velocity=64 time=37.9515140057
note_on channel=0 note=67 velocity=85 time=38.2049679756
note_off channel=0 note=69 velocity=64 time=38.2121999264
note_on channel=0 note=65 velocity=86 time=38.5177710056
note_off channel=0 note=67 velocity=64 time=38.5179729462
note_on channel=0 note=64 velocity=87 time=38.8674819469
note_off channel=0 note=65 velocity=64 time=38.8780889511
note_on channel=0 note=62 velocity=86 time=39.1932799816
note_off channel=0 note=64 velocity=64 time=39.1986560822
note_on channel=0 note=60 velocity=92 time=39.5659399033
note_off channel=0 note=62 velocity=64 time=39.5660078526
note_off channel=0 note=60 velocity=64 time=40.2713739872
