note_on channel=0 note=71 velocity=50 time=2.14218091965
note_off channel=0 note=71 velocity=64 time=2.29675602913
note_on channel=0 note=63 velocity=77 time=44.766012907
note_on channel=0 note=65 velocity=40 time=45.7072319984
note_off channel=0 note=65 velocity=64 time=45.7797899246
note_off channel=0 note=63 velocity=64 time=46.0745220184
note_on channel=0 note=48 velocity=77 time=47.892665863
note_on channel=0 note=51 velocity=74 time=47.9037928581
note_off channel=0 note=51 velocity=64 time=48.1446359158
note_on channel=0 note=50 velocity=60 time=48.1613218784
note_off channel=0 note=48 velocity=64 time=48.1740579605
note_on channel=0 note=53 velocity=54 time=48.1864628792
note_on channel=0 note=51 velocity=58 time=48.4486160278
note_on channel=0 note=55 velocity=75 time=48.4710199833
note_off channel=0 note=53 velocity=64 time=48.4827780724
note_off channel=0 note=50 velocity=64 time=48.5186178684
note_on channel=0 note=56 velocity=66 time=48.6893920898
note_off channel=0 note=55 velocity=64 time=48.7120158672
note_on channel=0 note=53 velocity=59 time=48.7316019535
note_off channel=0 note=51 velocity=64 time=48.7803189754
note_on channel=0 note=55 velocity=78 time=49.5604119301
note_off channel=0 note=56 velocity=64 time=49.5835590363
note_off channel=0 note=53 velocity=64 time=49.5931949615
note_on channel=0 note=59 velocity=79 time=49.5933699608
note_on channel=0 note=56 velocity=73 time=49.9410228729
note_on channel=0 note=60 velocity=72 time=49.9528179169
note_off channel=0 note=59 velocity=64 time=49.9532699585
note_off channel=0 note=55 velocity=64 time=49.9765250683
note_on channel=0 note=62 velocity=76 time=50.2212529182
note_on channel=0 note=59 velocity=43 time=50.235918045
note_off channel=0 note=60 velocity=64 time=50.2439639568
note_off channel=0 note=56 velocity=64 time=50.2744860649
note_on channel=0 note=60 velocity=85 time=50.4883298874
note_off channel=0 note=62 velocity=64 time=50.498636961
note_on channel=0 note=63 velocity=71 time=50.5120999813
note_off channel=0 note=59 velocity=64 time=50.5177910328
note_on channel=0 note=59 velocity=81 time=51.0613780022
note_on channel=0 note=62 velocity=73 time=51.0614719391
note_off channel=0 note=63 velocity=64 time=51.0615270138
note_off channel=0 note=60 velocity=64 time=51.0874590874
note_on channel=0 note=56 velocity=67 time=51.2584860325
note_on channel=0 note=60 velocity=57 time=51.2815899849
note_off channel=0 note=59 velocity=64 time=51.2945599556
note_off channel=0 note=62 velocity=64 time=51.2958688736
note_off channel=0 note=56 velocity=64 time=51.4573729038
note_off channel=0 note=60 velocity=64 time=51.4674329758
note_on channel=0 note=59 velocity=68 time=51.4863839149
note_on channel=0 note=57 velocity=36 time=51.5255110264
note_on channel=0 note=55 velocity=25 time=51.5325770378
note_off channel=0 note=57 velocity=64 time=51.6572570801
note_off channel=0 note=59 velocity=64 time=52.235599041
note_off channel=0 note=55 velocity=64 time=52.2564570904
note_on channel=0 note=57 velocity=86 time=52.4404768944
note_on channel=0 note=53 velocity=76 time=52.4528799057
note_off channel=0 note=57 velocity=64 time=52.5158848763
note_off channel=0 note=53 velocity=64 time=52.5266590118
note_on channel=0 note=51 velocity=56 time=53.0017969608
note_on channel=0 note=55 velocity=82 time=53.0070960522
note_off channel=0 note=51 velocity=64 time=53.0704388618
note_off channel=0 note=55 velocity=64 time=53.1593408585
note_on channel=0 note=50 velocity=42 time=53.3970279694
note_off channel=0 note=50 velocity=64 time=53.4752569199
note_on channel=0 note=48 velocity=82 time=53.7695839405
note_on channel=0 note=51 velocity=71 time=53.8133089542
note_off channel=0 note=51 velocity=64 time=54.7476868629
note_off channel=0 note=48 velocity=64 time=54.7580809593
note_on channel=0 note=48 velocity=87 time=55.0491189957
note_on channel=0 note=52 velocity=73 time=55.0869629383
note_on channel=0 note=50 velocity=86 time=55.6507608891
note_off channel=0 note=52 velocity=64 time=55.6574959755
note_off channel=0 note=48 velocity=64 time=55.673197031
note_on channel=0 note=53 velocity=47 time=55.681032896
note_on channel=0 note=52 velocity=73 time=55.8767318726
note_on channel=0 note=55 velocity=57 time=55.9211828709
note_off channel=0 note=50 velocity=64 time=55.9312870502
note_off channel=0 note=53 velocity=64 time=55.944535017
note_on channel=0 note=53 velocity=47 time=56.1176419258
note_on channel=0 note=57 velocity=73 time=56.1457810402
note_off channel=0 note=52 velocity=64 time=56.1575980186
note_off channel=0 note=55 velocity=64 time=56.2594249249
note_on channel=0 note=59 velocity=72 time=56.3613729477
note_off channel=0 note=57 velocity=64 time=56.3752830029
note_on channel=0 note=55 velocity=71 time=56.3896000385
note_off channel=0 note=53 velocity=64 time=56.4515709877
note_off channel=0 note=59 velocity=64 time=56.6082570553
note_on channel=0 note=60 velocity=28 time=56.6548669338
note_on channel=0 note=57 velocity=33 time=56.7753939629
note_off channel=0 note=55 velocity=64 time=56.8714540005
note_on channel=0 note=62 velocity=86 time=57.0448079109
note_on channel=0 note=59 velocity=88 time=57.0453679562
note_off channel=0 note=60 velocity=64 time=57.0454518795
note_off channel=0 note=57 velocity=64 time=57.0468769073
note_on channel=0 note=60 velocity=62 time=57.2886910439
note_on channel=0 note=64 velocity=86 time=57.3166348934
note_off channel=0 note=62 velocity=64 time=57.3167049885
note_off channel=0 note=59 velocity=64 time=57.3207409382
note_on channel=0 note=59 velocity=79 time=57.7463979721
note_off channel=0 note=60 velocity=64 time=57.7673420906
note_on channel=0 note=62 velocity=91 time=57.7765479088
note_off channel=0 note=64 velocity=64 time=57.7921628952
note_on channel=0 note=57 velocity=62 time=57.9557609558
note_on channel=0 note=60 velocity=73 time=57.9790349007
note_off channel=0 note=62 velocity=64 time=58.0063259602
note_off channel=0 note=59 velocity=64 time=58.0305249691
note_off channel=0 note=57 velocity=64 time=58.1449489594
note_on channel=0 note=55 velocity=76 time=58.1660220623
note_on channel=0 note=59 velocity=22 time=58.3657438755
note_off channel=0 note=60 velocity=64 time=58.3991260529
note_on channel=0 note=57 velocity=84 time=58.8314669132
note_on channel=0 note=53 velocity=76 time=58.842897892
note_off channel=0 note=59 velocity=64 time=58.8566169739
note_off channel=0 note=55 velocity=64 time=58.8633580208
note_on channel=0 note=52 velocity=70 time=59.1033039093
note_off channel=0 note=53 velocity=64 time=59.1075649261
note_on channel=0 note=55 velocity=81 time=59.1338839531
note_off channel=0 note=57 velocity=64 time=59.1478278637
note_on channel=0 note=50 velocity=57 time=59.3402240276
note_off channel=0 note=52 velocity=64 time=59.3533349037
note_on channel=0 note=53 velocity=27 time=59.3670248985
note_off channel=0 note=55 velocity=64 time=59.3891620636
note_on channel=0 note=52 velocity=76 time=59.720649004
note_off channel=0 note=50 velocity=64 time=59.7399439812
note_on channel=0 note=48 velocity=87 time=59.7445259094
note_off channel=0 note=53 velocity=64 time=59.7930738926
note_off channel=0 note=48 velocity=64 time=60.7272620201
note_off channel=0 note=52 velocity=64 time=60.7552509308
note_on channel=0 note=63 velocity=31 time=121.168964863
note_on channel=0 note=60 velocity=26 time=121.230674028
note_on channel=0 note=62 velocity=19 time=121.257320881
note_off channel=0 note=62 velocity=64 time=121.329233885
note_off channel=0 note=60 velocity=64 time=121.643038034
note_off channel=0 note=63 velocity=64 time=121.666429996
note_on channel=0 note=60 velocity=68 time=122.406385899
note_on channel=0 note=63 velocity=51 time=122.467097998
note_off channel=0 note=63 velocity=64 time=123.700099945
note_off channel=0 note=60 velocity=64 time=123.736983061
note_on channel=0 note=60 velocity=73 time=124.231955051
note_on channel=0 note=63 velocity=22 time=124.266792059
note_on channel=0 note=62 velocity=75 time=124.930387974
note_off channel=0 note=60 velocity=64 time=124.930949926
note_off channel=0 note=63 velocity=64 time=124.94203496
note_on channel=0 note=65 velocity=45 time=124.970654011
note_on channel=0 note=63 velocity=71 time=125.415507078
note_on channel=0 note=67 velocity=75 time=125.424491882
note_off channel=0 note=65 velocity=64 time=125.442400932
note_off channel=0 note=62 velocity=64 time=125.452226877
note_off channel=0 note=67 velocity=64 time=126.990118027
note_off channel=0 note=63 velocity=64 time=127.006772995
note_on channel=0 note=60 velocity=82 time=127.378783941
note_on channel=0 note=63 velocity=60 time=127.42463994
note_off channel=0 note=63 velocity=64 time=127.597928047
note_on channel=0 note=65 velocity=72 time=127.616182089
note_off channel=0 note=60 velocity=64 time=127.61627388
note_on channel=0 note=62 velocity=63 time=127.622657061
note_on channel=0 note=63 velocity=67 time=127.845290899
note_on channel=0 note=67 velocity=78 time=127.85985899
note_off channel=0 note=65 velocity=64 time=127.87964797
note_off channel=0 note=62 velocity=64 time=127.891315937
note_on channel=0 note=68 velocity=83 time=128.085834026
note_on channel=0 note=65 velocity=82 time=128.089283943
note_off channel=0 note=67 velocity=64 time=128.101158857
note_off channel=0 note=63 velocity=64 time=128.104264975
note_on channel=0 note=71 velocity=75 time=128.764101028
note_on channel=0 note=67 velocity=85 time=128.764312983
note_off channel=0 note=68 velocity=64 time=128.764684916
note_off channel=0 note=65 velocity=64 time=128.769128084
note_on channel=0 note=68 velocity=45 time=129.020750046
note_on channel=0 note=72 velocity=86 time=129.028294086
note_off channel=0 note=67 velocity=64 time=129.06731391
note_off channel=0 note=71 velocity=64 time=129.067494869
note_on channel=0 note=71 velocity=48 time=129.270614862
note_on channel=0 note=74 velocity=78 time=129.286072969
note_off channel=0 note=68 velocity=64 time=129.304234982
note_off channel=0 note=72 velocity=64 time=129.326314926
note_on channel=0 note=75 velocity=76 time=129.535404921
note_off channel=0 note=74 velocity=64 time=129.542088032
note_on channel=0 note=72 velocity=88 time=129.55162406
note_off channel=0 note=71 velocity=64 time=129.575959921
note_on channel=0 note=71 velocity=88 time=130.00808692
note_on channel=0 note=74 velocity=87 time=130.00820899
note_off channel=0 note=75 velocity=64 time=130.013889074
note_off channel=0 note=72 velocity=64 time=130.038461924
note_on channel=0 note=68 velocity=75 time=130.168174028
note_off channel=0 note=71 velocity=64 time=130.194284916
note_on channel=0 note=72 velocity=70 time=130.19949007
note_off channel=0 note=74 velocity=64 time=130.244034052
note_off channel=0 note=68 velocity=64 time=130.348043919
note_on channel=0 note=67 velocity=87 time=130.385962009
note_on channel=0 note=71 velocity=78 time=130.38614893
note_off channel=0 note=72 velocity=64 time=130.386209965
note_on channel=0 note=69 velocity=81 time=130.919816017
note_on channel=0 note=65 velocity=87 time=130.95977807
note_off channel=0 note=71 velocity=64 time=130.964447975
note_off channel=0 note=67 velocity=64 time=130.974874973
note_off channel=0 note=65 velocity=64 time=131.385948896
note_on channel=0 note=65 velocity=44 time=131.499703884
note_on channel=0 note=68 velocity=80 time=131.687488079
note_on channel=0 note=63 velocity=60 time=131.741458893
note_off channel=0 note=65 velocity=64 time=131.76184392
note_off channel=0 note=69 velocity=64 time=131.765982866
note_off channel=0 note=68 velocity=64 time=131.925529957
note_on channel=0 note=69 velocity=33 time=132.032026052
note_off channel=0 note=63 velocity=64 time=132.149576902
note_off channel=0 note=69 velocity=64 time=132.196313858
note_on channel=0 note=63 velocity=87 time=132.336935997
note_on channel=0 note=67 velocity=84 time=132.337166071
note_off channel=0 note=63 velocity=64 time=132.466353893
note_on channel=0 note=63 velocity=38 time=132.595885992
note_on channel=0 note=65 velocity=68 time=132.678766966
note_off channel=0 note=67 velocity=64 time=132.708162069
note_on channel=0 note=62 velocity=46 time=132.748720884
note_off channel=0 note=63 velocity=64 time=132.768698931
note_off channel=0 note=65 velocity=64 time=132.942981958
note_off channel=0 note=62 velocity=64 time=133.195487976
note_on channel=0 note=63 velocity=69 time=133.222132921
note_on channel=0 note=60 velocity=66 time=133.243835926
note_off channel=0 note=60 velocity=64 time=136.0500319
note_off channel=0 note=63 velocity=64 time=136.087920904
note_on channel=0 note=72 velocity=70 time=141.176464081
note_on channel=0 note=69 velocity=33 time=141.200615883
note_off channel=0 note=72 velocity=64 time=146.080060959
note_off channel=0 note=69 velocity=64 time=146.082561016
note_on channel=0 note=69 velocity=61 time=146.695998907
note_on channel=0 note=72 velocity=52 time=146.710645914
