note_on channel=0 note=72 velocity=82 time=1.65709590912
note_on channel=0 note=74 velocity=94 time=2.20778393745
note_off channel=0 note=72 velocity=64 time=2.22575187683
note_on channel=0 note=76 velocity=94 time=2.80893492699
note_off channel=0 note=74 velocity=64 time=2.8276219368
note_on channel=0 note=77 velocity=94 time=3.50989699364
note_off channel=0 note=76 velocity=64 time=3.51309299469
note_on channel=0 note=79 velocity=88 time=4.22081494331
note_off channel=0 note=77 velocity=64 time=4.24409794807
note_on channel=0 note=81 velocity=86 time=4.88261079788
note_off channel=0 note=79 velocity=64 time=4.89276790619
note_on channel=0 note=83 velocity=86 time=5.57438993454
note_off channel=0 note=81 velocity=64 time=5.60811281204
note_on channel=0 note=84 velocity=88 time=6.61986279488
note_off channel=0 note=83 velocity=64 time=6.64762687683
note_off channel=0 note=84 velocity=64 time=7.64885377884
note_on channel=0 note=72 velocity=63 time=9.9969599247
note_on channel=0 note=74 velocity=79 time=10.3031599522
note_off channel=0 note=72 velocity=64 time=10.312694788
note_on channel=0 note=76 velocity=82 time=10.5945169926
note_off channel=0 note=74 velocity=64 time=10.6051018238
note_off channel=0 note=76 velocity=64 time=10.8459718227
note_on channel=0 note=77 velocity=82 time=10.885286808
note_on channel=0 note=79 velocity=86 time=11.1819658279
note_off channel=0 note=77 velocity=64 time=11.1911849976
note_on channel=0 note=81 velocity=86 time=11.4753799438
note_off channel=0 note=79 velocity=64 time=11.484390974
note_off channel=0 note=81 velocity=64 time=11.7311589718
note_on channel=0 note=83 velocity=79 time=11.7429389954
note_on channel=0 note=84 velocity=85 time=12.0214109421
note_off channel=0 note=83 velocity=64 time=12.0458638668
note_off channel=0 note=84 velocity=64 time=13.2467119694
note_on channel=0 note=72 velocity=80 time=13.9081277847
note_on channel=0 note=74 velocity=77 time=14.0715148449
note_off channel=0 note=72 velocity=64 time=14.0832848549
note_on channel=0 note=76 velocity=80 time=14.2515938282
note_off channel=0 note=74 velocity=64 time=14.2654547691
note_off channel=0 note=76 velocity=64 time=14.3557407856
note_on channel=0 note=77 velocity=82 time=14.411233902
note_on channel=0 note=79 velocity=84 time=14.5811069012
note_off channel=0 note=77 velocity=64 time=14.5814168453
note_on channel=0 note=81 velocity=82 time=14.7382519245
note_off channel=0 note=79 velocity=64 time=14.7493028641
note_on channel=0 note=83 velocity=75 time=14.8706507683
note_off channel=0 note=81 velocity=64 time=14.8818678856
note_on channel=0 note=84 velocity=88 time=15.0177698135
note_off channel=0 note=83 velocity=64 time=15.043492794
note_off channel=0 note=84 velocity=64 time=15.2773168087
note_on channel=0 note=72 velocity=76 time=15.6153049469
note_on channel=0 note=74 velocity=79 time=15.7277219296
note_off channel=0 note=72 velocity=64 time=15.7327868938
note_on channel=0 note=76 velocity=83 time=15.8782618046
note_off channel=0 note=74 velocity=64 time=15.8859608173
note_off channel=0 note=76 velocity=64 time=15.9807298183
note_on channel=0 note=77 velocity=80 time=16.030384779
note_on channel=0 note=79 velocity=86 time=16.1749219894
note_off channel=0 note=77 velocity=64 time=16.1749727726
note_on channel=0 note=81 velocity=76 time=16.3085608482
note_off channel=0 note=79 velocity=64 time=16.3226537704
note_on channel=0 note=83 velocity=79 time=16.4099907875
note_off channel=0 note=81 velocity=64 time=16.4433209896
note_on channel=0 note=84 velocity=83 time=16.5448279381
note_off channel=0 note=83 velocity=64 time=16.5641508102
note_off channel=0 note=84 velocity=64 time=16.5989179611
note_on channel=0 note=72 velocity=75 time=16.8866508007
note_on channel=0 note=74 velocity=82 time=16.9948067665
note_off channel=0 note=72 velocity=64 time=17.0060839653
note_on channel=0 note=76 velocity=85 time=17.1018819809
note_off channel=0 note=74 velocity=64 time=17.1100749969
note_off channel=0 note=76 velocity=64 time=17.171943903
note_on channel=0 note=77 velocity=84 time=17.2525889874
note_off channel=0 note=77 velocity=64 time=17.3687338829
note_on channel=0 note=79 velocity=86 time=17.375595808
note_on channel=0 note=81 velocity=73 time=17.4838187695
note_off channel=0 note=79 velocity=64 time=17.4991288185
note_on channel=0 note=83 velocity=79 time=17.5818018913
note_off channel=0 note=81 velocity=64 time=17.6095108986
note_on channel=0 note=84 velocity=101 time=17.6894929409
note_off channel=0 note=83 velocity=64 time=17.7287287712
note_off channel=0 note=84 velocity=64 time=17.7749319077
