note_on channel=0 note=60 velocity=56 time=1.27047109604
note_off channel=0 note=60 velocity=64 time=1.6008849144
note_on channel=0 note=62 velocity=60 time=1.62363386154
note_off channel=0 note=62 velocity=64 time=1.90017294884
note_on channel=0 note=64 velocity=54 time=1.92291307449
note_off channel=0 note=64 velocity=64 time=2.1813120842
note_on channel=0 note=65 velocity=76 time=2.18924999237
note_off channel=0 note=65 velocity=64 time=2.46651697159
note_on channel=0 note=67 velocity=81 time=2.4666159153
note_on channel=0 note=65 velocity=75 time=2.75353288651
note_off channel=0 note=67 velocity=64 time=2.76470589638
note_off channel=0 note=65 velocity=64 time=3.06005096436
note_on channel=0 note=64 velocity=70 time=3.0754570961
note_off channel=0 note=64 velocity=64 time=3.36089205742
note_on channel=0 note=62 velocity=64 time=3.37396001816
note_off channel=0 note=62 velocity=64 time=3.65297102928
note_on channel=0 note=60 velocity=70 time=3.66883206367
note_off channel=0 note=60 velocity=64 time=3.94668388367
note_on channel=0 note=62 velocity=57 time=3.95485806465
note_off channel=0 note=62 velocity=64 time=4.24249005318
note_on channel=0 note=64 velocity=50 time=4.258425951
note_off channel=0 note=64 velocity=64 time=4.5140440464
note_on channel=0 note=65 velocity=71 time=4.52388501167
note_off channel=0 note=65 velocity=64 time=4.81110906601
note_on channel=0 note=67 velocity=77 time=4.82243394852
note_on channel=0 note=65 velocity=71 time=5.10495686531
note_off channel=0 note=67 velocity=64 time=5.11698794365
note_off channel=0 note=65 velocity=64 time=5.3931210041
note_on channel=0 note=64 velocity=58 time=5.42210698128
note_off channel=0 note=64 velocity=64 time=5.68960189819
note_on channel=0 note=62 velocity=65 time=5.6954638958
note_on channel=0 note=60 velocity=71 time=5.9736559391
note_off channel=0 note=62 velocity=64 time=5.97807407379
note_off channel=0 note=60 velocity=64 time=6.24817800522
note_on channel=0 note=62 velocity=48 time=6.24823904037
note_off channel=0 note=62 velocity=64 time=6.48961091042
note_on channel=0 note=64 velocity=52 time=6.51324796677
note_off channel=0 note=64 velocity=64 time=6.71623086929
note_on channel=0 note=65 velocity=58 time=6.74153900146
note_off channel=0 note=65 velocity=64 time=6.95455288887
note_on channel=0 note=67 velocity=68 time=6.97245407104
note_on channel=0 note=65 velocity=67 time=7.17304301262
note_off channel=0 note=67 velocity=64 time=7.19592690468
note_off channel=0 note=65 velocity=64 time=7.36625790596
note_on channel=0 note=64 velocity=63 time=7.38935208321
note_off channel=0 note=64 velocity=64 time=7.56426692009
note_on channel=0 note=62 velocity=57 time=7.58060693741
note_off channel=0 note=62 velocity=64 time=7.75177693367
note_on channel=0 note=60 velocity=56 time=7.76932787895
note_off channel=0 note=60 velocity=64 time=7.92562389374
note_on channel=0 note=62 velocity=50 time=7.96089291573
note_off channel=0 note=62 velocity=64 time=8.11863303185
note_on channel=0 note=64 velocity=53 time=8.12603902817
note_on channel=0 note=65 velocity=66 time=8.27563691139
note_off channel=0 note=64 velocity=64 time=8.29625606537
note_off channel=0 note=65 velocity=64 time=8.43750095367
note_on channel=0 note=67 velocity=75 time=8.45827507973
note_on channel=0 note=65 velocity=45 time=8.59964990616
note_off channel=0 note=67 velocity=64 time=8.61800003052
note_off channel=0 note=65 velocity=64 time=8.74580788612
note_on channel=0 note=64 velocity=48 time=8.75420689583
note_off channel=0 note=64 velocity=64 time=8.90916204453
note_on channel=0 note=62 velocity=60 time=8.91538906097
note_off channel=0 note=62 velocity=64 time=9.07836794853
note_on channel=0 note=60 velocity=61 time=9.09832596779
note_on channel=0 note=62 velocity=28 time=9.22585201263
note_off channel=0 note=60 velocity=64 time=9.22973489761
note_on channel=0 note=64 velocity=62 time=9.40404009819
note_off channel=0 note=62 velocity=64 time=9.41320490837
note_on channel=0 note=65 velocity=66 time=9.55790305138
note_off channel=0 note=64 velocity=64 time=9.56556487083
note_off channel=0 note=65 velocity=64 time=9.68962097168
note_on channel=0 note=67 velocity=57 time=9.70985794067
note_on channel=0 note=65 velocity=41 time=9.81430697441
note_off channel=0 note=67 velocity=64 time=9.8248770237
note_off channel=0 note=65 velocity=64 time=9.9580218792
note_on channel=0 note=64 velocity=54 time=9.96003890038
note_off channel=0 note=64 velocity=64 time=10.097413063
note_on channel=0 note=62 velocity=50 time=10.111866951
note_off channel=0 note=62 velocity=64 time=10.2335050106
note_on channel=0 note=60 velocity=68 time=10.2483658791
note_off channel=0 note=60 velocity=64 time=10.3629589081
note_on channel=0 note=62 velocity=45 time=10.3737869263
note_on channel=0 note=64 velocity=53 time=10.5272090435
note_off channel=0 note=62 velocity=64 time=10.5394470692
note_on channel=0 note=65 velocity=72 time=10.6213779449
note_off channel=0 note=64 velocity=64 time=10.6221768856
note_off channel=0 note=65 velocity=64 time=10.7264020443
note_on channel=0 note=67 velocity=67 time=10.7569820881
note_on channel=0 note=65 velocity=63 time=10.8339879513
note_off channel=0 note=67 velocity=64 time=10.8349199295
note_on channel=0 note=64 velocity=61 time=10.9885289669
note_off channel=0 note=65 velocity=64 time=10.9887270927
note_off channel=0 note=64 velocity=64 time=11.0689060688
note_on channel=0 note=62 velocity=62 time=11.0911450386
note_off channel=0 note=62 velocity=64 time=11.1619970798
note_on channel=0 note=60 velocity=88 time=11.1895079613
note_off channel=0 note=60 velocity=64 time=11.5716700554
