note_on channel=0 note=79 velocity=24 time=7.53568696976
note_off channel=0 note=79 velocity=64 time=7.59760403633
note_on channel=0 note=79 velocity=15 time=8.17069101334
note_off channel=0 note=79 velocity=64 time=8.27306199074
note_on channel=0 note=79 velocity=2 time=9.09304618835
note_on channel=0 note=79 velocity=7 time=9.66434812546
note_on channel=0 note=79 velocity=26 time=10.2151930332
note_off channel=0 note=79 velocity=64 time=10.3203020096
note_off channel=0 note=79 velocity=64 time=10.3207390308
note_off channel=0 note=79 velocity=64 time=10.3209371567
note_on channel=0 note=79 velocity=31 time=10.3903820515
note_off channel=0 note=79 velocity=64 time=10.463312149
note_on channel=0 note=79 velocity=39 time=10.5781681538
note_off channel=0 note=79 velocity=64 time=10.6522920132
note_on channel=0 note=79 velocity=30 time=10.7656371593
note_off channel=0 note=79 velocity=64 time=10.8263630867
note_on channel=0 note=79 velocity=62 time=10.9148919582
note_off channel=0 note=79 velocity=64 time=10.9755301476
note_on channel=0 note=79 velocity=28 time=11.1298701763
note_off channel=0 note=79 velocity=64 time=11.1982121468
note_on channel=0 note=79 velocity=23 time=11.4175691605
note_off channel=0 note=79 velocity=64 time=11.5718200207
note_on channel=0 note=79 velocity=13 time=11.7619011402
note_on channel=0 note=79 velocity=6 time=12.1391210556
note_off channel=0 note=79 velocity=64 time=12.9135100842
note_off channel=0 note=79 velocity=64 time=12.9145419598
note_on channel=0 note=95 velocity=2 time=39.3936271667
note_off channel=0 note=95 velocity=64 time=39.9460370541
note_on channel=0 note=95 velocity=19 time=40.5799970627
note_off channel=0 note=95 velocity=64 time=40.8383100033
note_on channel=0 note=94 velocity=9 time=41.2867319584
note_off channel=0 note=94 velocity=64 time=41.5743181705
