note_on channel=0 note=62 velocity=71 time=1.39381098747
note_on channel=0 note=64 velocity=87 time=1.93385601044
note_off channel=0 note=62 velocity=64 time=1.94562602043
note_on channel=0 note=66 velocity=85 time=2.41946101189
note_off channel=0 note=64 velocity=64 time=2.43807697296
note_off channel=0 note=66 velocity=64 time=2.87927103043
note_on channel=0 note=67 velocity=84 time=2.89397406578
note_on channel=0 note=69 velocity=86 time=3.35358214378
note_off channel=0 note=67 velocity=64 time=3.36426901817
note_on channel=0 note=71 velocity=82 time=3.81240105629
note_off channel=0 note=69 velocity=64 time=3.82553815842
note_on channel=0 note=73 velocity=81 time=4.24571299553
note_off channel=0 note=71 velocity=64 time=4.25166201591
note_on channel=0 note=74 velocity=86 time=4.69409799576
note_off channel=0 note=73 velocity=64 time=4.71643996239
note_on channel=0 note=73 velocity=79 time=5.11513209343
note_off channel=0 note=74 velocity=64 time=5.14172196388
note_on channel=0 note=71 velocity=79 time=5.34676599503
note_off channel=0 note=73 velocity=64 time=5.36339402199
note_on channel=0 note=69 velocity=84 time=5.56784796715
note_off channel=0 note=71 velocity=64 time=5.57451796532
note_on channel=0 note=67 velocity=88 time=5.78946399689
note_off channel=0 note=69 velocity=64 time=5.7895181179
note_on channel=0 note=66 velocity=85 time=6.04773497581
note_off channel=0 note=67 velocity=64 time=6.06562995911
note_off channel=0 note=66 velocity=64 time=6.26813793182
note_on channel=0 note=64 velocity=83 time=6.29422092438
note_off channel=0 note=64 velocity=64 time=6.59023213387
note_on channel=0 note=62 velocity=82 time=6.59873509407
note_off channel=0 note=62 velocity=64 time=7.19886112213
