note_on channel=0 note=60 velocity=66 time=2.47471809387
note_off channel=0 note=60 velocity=64 time=2.77016592026
note_on channel=0 note=62 velocity=65 time=2.79832792282
note_off channel=0 note=62 velocity=64 time=3.02233290672
note_on channel=0 note=64 velocity=72 time=3.03794789314
note_off channel=0 note=64 velocity=64 time=3.24167394638
note_on channel=0 note=65 velocity=81 time=3.28662109375
note_off channel=0 note=65 velocity=64 time=3.52346801758
note_on channel=0 note=67 velocity=79 time=3.54169893265
note_on channel=0 note=69 velocity=69 time=3.7482509613
note_off channel=0 note=67 velocity=64 time=3.75945186615
note_off channel=0 note=69 velocity=64 time=3.92854905128
note_on channel=0 note=71 velocity=68 time=3.93625092506
note_on channel=0 note=72 velocity=80 time=4.12312793732
note_off channel=0 note=71 velocity=64 time=4.12324404716
note_on channel=0 note=71 velocity=70 time=4.31399893761
note_off channel=0 note=72 velocity=64 time=4.31472301483
note_off channel=0 note=71 velocity=64 time=4.46301102638
note_on channel=0 note=69 velocity=70 time=4.48013997078
note_off channel=0 note=69 velocity=64 time=4.64919805527
note_on channel=0 note=67 velocity=70 time=4.6668510437
note_on channel=0 note=65 velocity=77 time=4.85326695442
note_off channel=0 note=67 velocity=64 time=4.85337305069
note_on channel=0 note=64 velocity=39 time=5.08738207817
note_off channel=0 note=65 velocity=64 time=5.09635686874
note_off channel=0 note=64 velocity=64 time=5.28703403473
note_on channel=0 note=62 velocity=70 time=5.30747008324
note_on channel=0 note=60 velocity=76 time=5.57235789299
note_off channel=0 note=62 velocity=64 time=5.57248592377
note_off channel=0 note=60 velocity=64 time=5.92561507225
