note_on channel=0 note=84 velocity=79 time=2.36751699448
note_on channel=0 note=86 velocity=87 time=2.73969888687
note_off channel=0 note=84 velocity=64 time=2.75160098076
note_on channel=0 note=88 velocity=93 time=3.12612080574
note_off channel=0 note=86 velocity=64 time=3.14072084427
note_off channel=0 note=88 velocity=64 time=3.4983689785
note_on channel=0 note=89 velocity=91 time=3.52219295502
note_on channel=0 note=91 velocity=90 time=3.88553380966
note_off channel=0 note=89 velocity=64 time=3.89725399017
note_on channel=0 note=93 velocity=91 time=4.23689198494
note_off channel=0 note=91 velocity=64 time=4.2590379715
note_on channel=0 note=95 velocity=93 time=4.56605792046
note_off channel=0 note=93 velocity=64 time=4.56611084938
note_on channel=0 note=96 velocity=94 time=4.90436291695
note_off channel=0 note=95 velocity=64 time=4.9380698204
note_on channel=0 note=95 velocity=92 time=5.27797985077
note_off channel=0 note=96 velocity=64 time=5.29149484634
note_on channel=0 note=93 velocity=91 time=5.63179683685
note_off channel=0 note=95 velocity=64 time=5.65268993378
note_on channel=0 note=91 velocity=88 time=5.98497200012
note_off channel=0 note=93 velocity=64 time=5.99903392792
note_on channel=0 note=89 velocity=86 time=6.35635185242
note_off channel=0 note=91 velocity=64 time=6.35640287399
note_on channel=0 note=88 velocity=88 time=6.72359895706
note_off channel=0 note=89 velocity=64 time=6.74321079254
note_on channel=0 note=86 velocity=84 time=7.08775281906
note_off channel=0 note=88 velocity=64 time=7.1040790081
note_on channel=0 note=84 velocity=93 time=7.46747899055
note_off channel=0 note=86 velocity=64 time=7.48297977448
note_off channel=0 note=84 velocity=64 time=8.32009983063
note_on channel=0 note=84 velocity=88 time=9.23025989532
note_on channel=0 note=86 velocity=82 time=9.44368100166
note_off channel=0 note=84 velocity=64 time=9.45891785622
note_on channel=0 note=88 velocity=86 time=9.63365697861
note_off channel=0 note=86 velocity=64 time=9.6555109024
note_off channel=0 note=88 velocity=64 time=9.78079891205
note_on channel=0 note=89 velocity=84 time=9.82896590233
note_on channel=0 note=91 velocity=83 time=10.029545784
note_off channel=0 note=89 velocity=64 time=10.0385057926
note_on channel=0 note=93 velocity=81 time=10.2132499218
note_off channel=0 note=91 velocity=64 time=10.223307848
note_on channel=0 note=95 velocity=79 time=10.3749008179
note_off channel=0 note=93 velocity=64 time=10.3749887943
note_on channel=0 note=96 velocity=88 time=10.5394618511
note_off channel=0 note=95 velocity=64 time=10.5425589085
note_on channel=0 note=95 velocity=81 time=10.7191929817
note_off channel=0 note=96 velocity=64 time=10.719285965
note_on channel=0 note=93 velocity=81 time=10.8665449619
note_off channel=0 note=95 velocity=64 time=10.8771488667
note_off channel=0 note=93 velocity=64 time=11.0312798023
note_on channel=0 note=91 velocity=77 time=11.0384278297
note_on channel=0 note=89 velocity=79 time=11.2233297825
note_off channel=0 note=91 velocity=64 time=11.2234168053
note_off channel=0 note=89 velocity=64 time=11.369989872
note_on channel=0 note=88 velocity=86 time=11.3848428726
note_on channel=0 note=86 velocity=84 time=11.5445108414
note_off channel=0 note=88 velocity=64 time=11.5581898689
note_on channel=0 note=84 velocity=89 time=11.7296178341
note_off channel=0 note=86 velocity=64 time=11.7296769619
note_off channel=0 note=84 velocity=64 time=12.0939397812
note_on channel=0 note=84 velocity=72 time=12.751283884
note_off channel=0 note=84 velocity=64 time=12.9253339767
note_on channel=0 note=86 velocity=80 time=12.9399077892
note_on channel=0 note=88 velocity=84 time=13.1145358086
note_off channel=0 note=86 velocity=64 time=13.1344130039
note_off channel=0 note=88 velocity=64 time=13.2566227913
note_on channel=0 note=89 velocity=86 time=13.3004009724
note_on channel=0 note=91 velocity=78 time=13.4828238487
note_off channel=0 note=89 velocity=64 time=13.4834628105
note_on channel=0 note=93 velocity=81 time=13.6445147991
note_off channel=0 note=91 velocity=64 time=13.6542317867
note_on channel=0 note=95 velocity=62 time=13.8232398033
note_off channel=0 note=93 velocity=64 time=13.856844902
note_off channel=0 note=95 velocity=64 time=13.9907419682
note_on channel=0 note=96 velocity=77 time=13.9942188263
note_on channel=0 note=95 velocity=82 time=14.1794188023
note_off channel=0 note=96 velocity=64 time=14.1797719002
note_on channel=0 note=93 velocity=84 time=14.3326029778
note_off channel=0 note=95 velocity=64 time=14.3415188789
note_on channel=0 note=91 velocity=81 time=14.5094399452
note_off channel=0 note=93 velocity=64 time=14.509488821
note_on channel=0 note=89 velocity=82 time=14.6895349026
note_off channel=0 note=91 velocity=64 time=14.6948969364
note_on channel=0 note=88 velocity=84 time=14.8759829998
note_off channel=0 note=89 velocity=64 time=14.8765778542
note_on channel=0 note=86 velocity=82 time=15.0378317833
note_off channel=0 note=88 velocity=64 time=15.0487148762
note_off channel=0 note=86 velocity=64 time=15.2257869244
note_on channel=0 note=84 velocity=89 time=15.2264578342
note_off channel=0 note=84 velocity=64 time=15.6563138962
note_on channel=0 note=84 velocity=84 time=16.0634329319
note_on channel=0 note=86 velocity=73 time=16.2701997757
note_off channel=0 note=84 velocity=64 time=16.2703959942
note_on channel=0 note=88 velocity=79 time=16.4559497833
note_off channel=0 note=86 velocity=64 time=16.456001997
note_off channel=0 note=88 velocity=64 time=16.5948529243
note_on channel=0 note=89 velocity=80 time=16.6565139294
note_on channel=0 note=91 velocity=81 time=16.8685648441
note_off channel=0 note=89 velocity=64 time=16.8727519512
note_on channel=0 note=93 velocity=87 time=17.0877418518
note_off channel=0 note=91 velocity=64 time=17.1067409515
note_off channel=0 note=93 velocity=64 time=17.2834429741
note_on channel=0 note=95 velocity=82 time=17.3105368614
note_off channel=0 note=95 velocity=64 time=17.5244479179
note_on channel=0 note=96 velocity=68 time=17.5399367809
note_on channel=0 note=95 velocity=79 time=17.7777779102
note_off channel=0 note=96 velocity=64 time=17.779681921
note_on channel=0 note=93 velocity=82 time=18.0013740063
note_off channel=0 note=95 velocity=64 time=18.0070028305
note_on channel=0 note=91 velocity=81 time=18.2244479656
note_off channel=0 note=93 velocity=64 time=18.2284119129
note_off channel=0 note=91 velocity=64 time=18.4500188828
note_on channel=0 note=89 velocity=79 time=18.4551179409
note_on channel=0 note=88 velocity=84 time=18.7016158104
note_off channel=0 note=89 velocity=64 time=18.7248017788
note_on channel=0 note=86 velocity=83 time=18.9784219265
note_off channel=0 note=88 velocity=64 time=18.9797019958
note_on channel=0 note=84 velocity=93 time=19.2786338329
note_off channel=0 note=86 velocity=64 time=19.288422823
note_off channel=0 note=84 velocity=64 time=19.8887507915
