note_on channel=0 note=60 velocity=67 time=4.52601695061
note_off channel=0 note=60 velocity=64 time=4.74915909767
note_on channel=0 note=62 velocity=59 time=4.76692414284
note_on channel=0 note=64 velocity=79 time=4.98325896263
note_off channel=0 note=62 velocity=64 time=4.98990416527
note_off channel=0 note=64 velocity=64 time=5.14156913757
note_on channel=0 note=65 velocity=80 time=5.19114017487
note_on channel=0 note=67 velocity=86 time=5.41789913177
note_off channel=0 note=65 velocity=64 time=5.41804695129
note_on channel=0 note=69 velocity=79 time=5.61889815331
note_off channel=0 note=67 velocity=64 time=5.64019703865
note_on channel=0 note=71 velocity=84 time=5.82438516617
note_off channel=0 note=69 velocity=64 time=5.83627700806
note_off channel=0 note=71 velocity=64 time=5.99305796623
note_on channel=0 note=72 velocity=84 time=6.03904700279
note_on channel=0 note=74 velocity=80 time=6.25942802429
note_off channel=0 note=72 velocity=64 time=6.26092910767
note_on channel=0 note=76 velocity=84 time=6.44136404991
note_off channel=0 note=74 velocity=64 time=6.44406914711
note_off channel=0 note=76 velocity=64 time=6.5744740963
note_on channel=0 note=77 velocity=83 time=6.62143111229
note_on channel=0 note=79 velocity=77 time=6.81137895584
note_off channel=0 note=77 velocity=64 time=6.81148004532
note_on channel=0 note=81 velocity=79 time=6.99950003624
note_off channel=0 note=79 velocity=64 time=6.99960899353
note_on channel=0 note=83 velocity=77 time=7.17021393776
note_off channel=0 note=81 velocity=64 time=7.17027211189
note_off channel=0 note=83 velocity=64 time=7.32581496239
note_on channel=0 note=84 velocity=82 time=7.33612513542
note_on channel=0 note=83 velocity=66 time=7.504748106
note_off channel=0 note=84 velocity=64 time=7.51133394241
note_on channel=0 note=81 velocity=79 time=7.64964294434
note_off channel=0 note=83 velocity=64 time=7.65673017502
note_on channel=0 note=79 velocity=81 time=7.80899500847
note_off channel=0 note=81 velocity=64 time=7.81141614914
note_off channel=0 note=79 velocity=64 time=7.93743610382
note_on channel=0 note=77 velocity=82 time=7.95933198929
note_off channel=0 note=77 velocity=64 time=8.10073208809
note_on channel=0 note=76 velocity=84 time=8.10478210449
note_on channel=0 note=74 velocity=76 time=8.25790095329
note_off channel=0 note=76 velocity=64 time=8.25819706917
note_off channel=0 note=74 velocity=64 time=8.39539694786
note_on channel=0 note=72 velocity=87 time=8.42486095428
note_off channel=0 note=72 velocity=64 time=8.55462002754
note_on channel=0 note=71 velocity=89 time=8.57099294662
note_on channel=0 note=69 velocity=77 time=8.71256613731
note_off channel=0 note=71 velocity=64 time=8.71882295609
note_on channel=0 note=67 velocity=84 time=8.87354898453
note_off channel=0 note=69 velocity=64 time=8.87363815308
note_off channel=0 note=67 velocity=64 time=9.00740504265
note_on channel=0 note=65 velocity=84 time=9.02475404739
note_on channel=0 note=64 velocity=79 time=9.17971110344
note_off channel=0 note=65 velocity=64 time=9.19125199318
note_off channel=0 note=64 velocity=64 time=9.33047199249
note_on channel=0 note=62 velocity=82 time=9.34012913704
note_off channel=0 note=62 velocity=64 time=9.52206611633
note_on channel=0 note=60 velocity=87 time=9.53711009026
note_off channel=0 note=60 velocity=64 time=10.4183781147
