note_on channel=0 note=52 velocity=82 time=3.11147999763
note_on channel=0 note=48 velocity=63 time=3.11245822906
note_on channel=0 note=50 velocity=87 time=5.07736611366
note_on channel=0 note=53 velocity=84 time=5.08703422546
note_off channel=0 note=52 velocity=64 time=5.09662103653
note_off channel=0 note=48 velocity=64 time=5.12291717529
note_on channel=0 note=52 velocity=76 time=5.31249809265
note_on channel=0 note=55 velocity=83 time=5.3599550724
note_off channel=0 note=50 velocity=64 time=5.36005520821
note_off channel=0 note=53 velocity=64 time=5.39554619789
note_on channel=0 note=53 velocity=56 time=5.48629903793
note_off channel=0 note=52 velocity=64 time=5.53546309471
note_on channel=0 note=57 velocity=60 time=5.55310606956
note_off channel=0 note=55 velocity=64 time=5.64461922646
note_on channel=0 note=59 velocity=68 time=5.7632021904
note_on channel=0 note=55 velocity=73 time=5.76329922676
note_off channel=0 note=57 velocity=64 time=5.78330802917
note_off channel=0 note=53 velocity=64 time=5.812718153
note_off channel=0 note=59 velocity=64 time=5.97261619568
note_on channel=0 note=60 velocity=73 time=5.97275900841
note_on channel=0 note=57 velocity=65 time=6.07958722115
note_off channel=0 note=55 velocity=64 time=6.13892102242
note_on channel=0 note=62 velocity=82 time=6.23744511604
note_on channel=0 note=59 velocity=63 time=6.23752903938
note_off channel=0 note=60 velocity=64 time=6.24340820312
note_off channel=0 note=57 velocity=64 time=6.28109502792
note_on channel=0 note=60 velocity=80 time=6.45623517036
note_on channel=0 note=64 velocity=73 time=6.46550607681
note_off channel=0 note=59 velocity=64 time=6.46558308601
note_off channel=0 note=62 velocity=64 time=6.4695482254
note_on channel=0 note=59 velocity=82 time=6.81681418419
note_on channel=0 note=62 velocity=89 time=6.8229470253
note_off channel=0 note=64 velocity=64 time=6.83893704414
note_off channel=0 note=60 velocity=64 time=6.85925507545
note_on channel=0 note=60 velocity=62 time=7.0030272007
note_off channel=0 note=62 velocity=64 time=7.01500320435
note_on channel=0 note=57 velocity=56 time=7.03773403168
note_off channel=0 note=59 velocity=64 time=7.09711503983
note_off channel=0 note=57 velocity=64 time=7.16768622398
note_on channel=0 note=55 velocity=79 time=7.19963216782
note_on channel=0 note=59 velocity=60 time=7.28225111961
note_off channel=0 note=60 velocity=64 time=7.34975504875
note_on channel=0 note=53 velocity=80 time=7.46336913109
note_on channel=0 note=57 velocity=81 time=7.47729802132
note_off channel=0 note=55 velocity=64 time=7.50432419777
note_off channel=0 note=59 velocity=64 time=7.54832220078
note_on channel=0 note=52 velocity=74 time=7.67890715599
note_on channel=0 note=55 velocity=82 time=7.67946100235
note_off channel=0 note=53 velocity=64 time=7.71168422699
note_off channel=0 note=57 velocity=64 time=7.72338819504
note_on channel=0 note=50 velocity=75 time=7.83698320389
note_off channel=0 note=52 velocity=64 time=7.8464550972
note_on channel=0 note=53 velocity=46 time=7.88945412636
note_off channel=0 note=55 velocity=64 time=7.88955712318
note_off channel=0 note=50 velocity=64 time=8.05489516258
note_on channel=0 note=48 velocity=43 time=8.08229613304
note_on channel=0 note=52 velocity=73 time=8.13318109512
note_off channel=0 note=53 velocity=64 time=8.19485211372
note_off channel=0 note=52 velocity=64 time=8.79141116142
note_off channel=0 note=48 velocity=64 time=8.85578608513
