note_on channel=0 note=62 velocity=66 time=11.1510159969
note_on channel=0 note=60 velocity=48 time=11.1689460278
note_off channel=0 note=62 velocity=64 time=11.27637887
note_off channel=0 note=60 velocity=64 time=11.2938380241
note_on channel=0 note=60 velocity=39 time=11.6627709866
note_on channel=0 note=64 velocity=63 time=11.671875
note_off channel=0 note=64 velocity=64 time=11.7472648621
note_off channel=0 note=60 velocity=64 time=11.7773318291
note_on channel=0 note=60 velocity=39 time=12.1372308731
note_on channel=0 note=65 velocity=75 time=12.1466708183
note_off channel=0 note=65 velocity=64 time=12.2639949322
note_off channel=0 note=60 velocity=64 time=12.3106989861
note_on channel=0 note=67 velocity=86 time=12.6559560299
note_on channel=0 note=60 velocity=45 time=12.6560428143
note_off channel=0 note=67 velocity=64 time=12.7756969929
note_off channel=0 note=60 velocity=64 time=12.7954139709
note_on channel=0 note=60 velocity=41 time=13.1471488476
note_on channel=0 note=62 velocity=65 time=13.147258997
note_off channel=0 note=62 velocity=64 time=13.2310760021
note_off channel=0 note=60 velocity=64 time=13.2647948265
note_on channel=0 note=60 velocity=39 time=13.6404659748
note_on channel=0 note=64 velocity=64 time=13.6405549049
note_off channel=0 note=64 velocity=64 time=13.7132499218
note_off channel=0 note=60 velocity=64 time=13.7435958385
note_on channel=0 note=60 velocity=32 time=14.0993609428
note_on channel=0 note=65 velocity=73 time=14.1158180237
note_off channel=0 note=65 velocity=64 time=14.2086269855
note_off channel=0 note=60 velocity=64 time=14.2443289757
note_on channel=0 note=60 velocity=37 time=14.5889430046
note_on channel=0 note=67 velocity=66 time=14.602421999
note_off channel=0 note=67 velocity=64 time=14.701308012
note_off channel=0 note=60 velocity=64 time=14.747823
note_on channel=0 note=60 velocity=57 time=15.0674169064
note_on channel=0 note=62 velocity=79 time=15.0765359402
note_off channel=0 note=62 velocity=64 time=15.1680779457
note_off channel=0 note=60 velocity=64 time=15.1978058815
note_on channel=0 note=60 velocity=37 time=15.5284118652
note_on channel=0 note=64 velocity=84 time=15.5357189178
note_off channel=0 note=64 velocity=64 time=15.6168608665
note_off channel=0 note=60 velocity=64 time=15.6794829369
note_on channel=0 note=60 velocity=35 time=16.0128450394
note_on channel=0 note=65 velocity=84 time=16.0357270241
note_off channel=0 note=65 velocity=64 time=16.132819891
note_off channel=0 note=60 velocity=64 time=16.1842498779
note_on channel=0 note=67 velocity=86 time=16.4991328716
note_on channel=0 note=60 velocity=73 time=16.499270916
note_off channel=0 note=67 velocity=64 time=16.6166520119
note_off channel=0 note=60 velocity=64 time=16.6482729912
note_on channel=0 note=60 velocity=74 time=17.0007040501
note_on channel=0 note=62 velocity=84 time=17.0131368637
note_off channel=0 note=62 velocity=64 time=17.1258180141
note_off channel=0 note=60 velocity=64 time=17.151640892
note_on channel=0 note=64 velocity=79 time=17.4832220078
note_on channel=0 note=60 velocity=37 time=17.4992318153
note_off channel=0 note=64 velocity=64 time=17.5885958672
note_off channel=0 note=60 velocity=64 time=17.6160709858
note_on channel=0 note=65 velocity=86 time=17.9540069103
note_on channel=0 note=60 velocity=34 time=17.97199893
note_off channel=0 note=65 velocity=64 time=18.0725369453
note_off channel=0 note=60 velocity=64 time=18.1380889416
note_on channel=0 note=67 velocity=84 time=18.4571928978
note_on channel=0 note=60 velocity=63 time=18.4661698341
note_off channel=0 note=60 velocity=64 time=18.5385489464
note_off channel=0 note=67 velocity=64 time=18.5629429817
note_on channel=0 note=62 velocity=88 time=18.9412689209
note_on channel=0 note=60 velocity=70 time=18.9413728714
note_off channel=0 note=62 velocity=64 time=19.0526590347
note_off channel=0 note=60 velocity=64 time=19.0602369308
note_on channel=0 note=60 velocity=62 time=19.3998799324
note_on channel=0 note=64 velocity=73 time=19.4143719673
note_off channel=0 note=64 velocity=64 time=19.5387430191
note_off channel=0 note=60 velocity=64 time=19.5441639423
note_on channel=0 note=60 velocity=56 time=19.8886790276
note_on channel=0 note=65 velocity=75 time=19.891217947
note_off channel=0 note=65 velocity=64 time=20.0048780441
note_off channel=0 note=60 velocity=64 time=20.0183959007
note_on channel=0 note=67 velocity=78 time=20.3583860397
note_on channel=0 note=60 velocity=56 time=20.368366003
note_off channel=0 note=67 velocity=64 time=20.4817018509
note_off channel=0 note=60 velocity=64 time=20.5031208992
note_on channel=0 note=60 velocity=62 time=20.8102698326
note_on channel=0 note=62 velocity=80 time=20.8312549591
note_off channel=0 note=62 velocity=64 time=20.9345729351
note_off channel=0 note=60 velocity=64 time=20.9632339478
note_on channel=0 note=64 velocity=70 time=21.3290979862
note_on channel=0 note=60 velocity=52 time=21.3292498589
note_off channel=0 note=64 velocity=64 time=21.3855159283
note_off channel=0 note=60 velocity=64 time=21.4162559509
note_on channel=0 note=65 velocity=84 time=21.7813529968
note_on channel=0 note=60 velocity=37 time=21.7864899635
note_off channel=0 note=65 velocity=64 time=21.9092128277
note_off channel=0 note=60 velocity=64 time=21.9158239365
note_on channel=0 note=67 velocity=80 time=22.2265570164
note_on channel=0 note=60 velocity=60 time=22.2384669781
note_off channel=0 note=67 velocity=64 time=22.3464930058
note_off channel=0 note=60 velocity=64 time=22.4145929813
note_on channel=0 note=60 velocity=70 time=22.6824760437
note_on channel=0 note=62 velocity=81 time=22.706720829
note_off channel=0 note=62 velocity=64 time=22.8021519184
note_off channel=0 note=60 velocity=64 time=22.8271758556
note_on channel=0 note=60 velocity=54 time=23.1569678783
note_on channel=0 note=64 velocity=68 time=23.1650350094
note_off channel=0 note=64 velocity=64 time=23.2572808266
note_off channel=0 note=60 velocity=64 time=23.3033828735
note_on channel=0 note=60 velocity=39 time=23.6250989437
note_on channel=0 note=65 velocity=73 time=23.6251888275
note_off channel=0 note=65 velocity=64 time=23.739125967
note_off channel=0 note=60 velocity=64 time=23.7688798904
note_on channel=0 note=60 velocity=53 time=24.0727119446
note_on channel=0 note=67 velocity=60 time=24.0979959965
note_on channel=0 note=69 velocity=52 time=24.1055388451
note_off channel=0 note=69 velocity=64 time=24.1644630432
note_off channel=0 note=67 velocity=64 time=24.181427002
note_off channel=0 note=60 velocity=64 time=24.2454919815
note_on channel=0 note=60 velocity=68 time=24.8073170185
note_on channel=0 note=62 velocity=79 time=24.8171110153
note_off channel=0 note=62 velocity=64 time=24.9282398224
note_off channel=0 note=60 velocity=64 time=24.9798789024
note_on channel=0 note=60 velocity=64 time=25.2755520344
note_on channel=0 note=64 velocity=81 time=25.2792489529
note_off channel=0 note=64 velocity=64 time=25.3922820091
note_off channel=0 note=60 velocity=64 time=25.629652977
note_on channel=0 note=60 velocity=45 time=25.736675024
note_on channel=0 note=65 velocity=73 time=25.7554368973
note_off channel=0 note=65 velocity=64 time=25.8835008144
note_off channel=0 note=60 velocity=64 time=25.9225628376
note_on channel=0 note=67 velocity=86 time=26.2088258266
note_on channel=0 note=60 velocity=31 time=26.2264308929
note_off channel=0 note=67 velocity=64 time=26.347730875
note_off channel=0 note=60 velocity=64 time=26.3680028915
note_on channel=0 note=60 velocity=68 time=26.7135939598
note_on channel=0 note=62 velocity=65 time=26.7272160053
note_off channel=0 note=62 velocity=64 time=26.8106708527
note_off channel=0 note=60 velocity=64 time=26.8319408894
note_on channel=0 note=62 velocity=57 time=27.1739528179
note_on channel=0 note=60 velocity=48 time=27.1756598949
note_off channel=0 note=62 velocity=64 time=27.2630298138
note_off channel=0 note=60 velocity=64 time=27.2694149017
note_on channel=0 note=60 velocity=42 time=27.6272149086
note_on channel=0 note=62 velocity=37 time=27.6321499348
note_off channel=0 note=62 velocity=64 time=27.7037959099
note_off channel=0 note=60 velocity=64 time=27.7099540234
note_on channel=0 note=62 velocity=50 time=28.0850579739
note_on channel=0 note=60 velocity=48 time=28.0852749348
note_off channel=0 note=62 velocity=64 time=28.1606018543
note_off channel=0 note=60 velocity=64 time=28.1904740334
note_on channel=0 note=60 velocity=54 time=28.5517070293
note_on channel=0 note=64 velocity=45 time=28.5636639595
note_off channel=0 note=64 velocity=64 time=28.6606578827
note_off channel=0 note=60 velocity=64 time=28.6802389622
note_on channel=0 note=60 velocity=41 time=29.0094978809
note_on channel=0 note=64 velocity=41 time=29.0396819115
note_off channel=0 note=64 velocity=64 time=29.1264379025
note_off channel=0 note=60 velocity=64 time=29.1355688572
note_on channel=0 note=60 velocity=42 time=29.4562129974
note_on channel=0 note=64 velocity=43 time=29.4785020351
note_off channel=0 note=64 velocity=64 time=29.5526089668
note_off channel=0 note=60 velocity=64 time=29.5870130062
note_on channel=0 note=60 velocity=42 time=29.9046268463
note_on channel=0 note=64 velocity=43 time=29.9320030212
note_off channel=0 note=64 velocity=64 time=29.9992878437
note_off channel=0 note=60 velocity=64 time=30.0326828957
note_on channel=0 note=60 velocity=46 time=30.3401269913
note_on channel=0 note=65 velocity=61 time=30.367787838
note_off channel=0 note=65 velocity=64 time=30.4771709442
note_off channel=0 note=60 velocity=64 time=30.5107629299
note_on channel=0 note=60 velocity=39 time=30.7983839512
note_on channel=0 note=65 velocity=53 time=30.8116748333
note_off channel=0 note=65 velocity=64 time=30.9246039391
note_off channel=0 note=60 velocity=64 time=30.9452199936
note_on channel=0 note=60 velocity=41 time=31.2270979881
note_on channel=0 note=65 velocity=44 time=31.2511358261
note_off channel=0 note=65 velocity=64 time=31.3605308533
note_off channel=0 note=60 velocity=64 time=31.3823828697
note_on channel=0 note=60 velocity=26 time=31.6939418316
note_on channel=0 note=65 velocity=46 time=31.7359018326
note_off channel=0 note=65 velocity=64 time=31.8488428593
note_off channel=0 note=60 velocity=64 time=31.8507838249
note_on channel=0 note=60 velocity=45 time=32.1670808792
note_on channel=0 note=67 velocity=58 time=32.1829268932
note_off channel=0 note=67 velocity=64 time=32.3343858719
note_off channel=0 note=60 velocity=64 time=32.3511629105
note_on channel=0 note=60 velocity=42 time=32.6107299328
note_on channel=0 note=67 velocity=44 time=32.6130819321
note_off channel=0 note=67 velocity=64 time=32.7715640068
note_off channel=0 note=60 velocity=64 time=32.7793090343
note_on channel=0 note=60 velocity=41 time=33.0842018127
note_on channel=0 note=67 velocity=48 time=33.0844259262
note_off channel=0 note=67 velocity=64 time=33.220979929
note_off channel=0 note=60 velocity=64 time=33.2262749672
note_on channel=0 note=60 velocity=38 time=33.5304188728
note_on channel=0 note=67 velocity=34 time=33.546849966
note_off channel=0 note=67 velocity=64 time=33.64939785
note_off channel=0 note=60 velocity=64 time=33.6901710033
note_on channel=0 note=69 velocity=57 time=34.0107119083
note_on channel=0 note=60 velocity=45 time=34.016728878
note_off channel=0 note=69 velocity=64 time=34.1682150364
note_off channel=0 note=60 velocity=64 time=34.1758229733
note_on channel=0 note=60 velocity=35 time=34.4534628391
note_on channel=0 note=69 velocity=34 time=34.4535269737
note_off channel=0 note=69 velocity=64 time=34.6082308292
note_off channel=0 note=60 velocity=64 time=34.6359188557
note_on channel=0 note=60 velocity=31 time=34.8991389275
note_on channel=0 note=69 velocity=33 time=34.9029998779
note_off channel=0 note=69 velocity=64 time=35.0414118767
note_off channel=0 note=60 velocity=64 time=35.0562958717
note_on channel=0 note=60 velocity=36 time=35.3145940304
note_on channel=0 note=69 velocity=36 time=35.3294849396
note_off channel=0 note=69 velocity=64 time=35.46459198
note_off channel=0 note=60 velocity=64 time=35.4858410358
note_on channel=0 note=71 velocity=34 time=35.7797000408
note_on channel=0 note=60 velocity=30 time=35.7942178249
note_off channel=0 note=71 velocity=64 time=35.9265229702
note_off channel=0 note=60 velocity=64 time=35.9266929626
note_on channel=0 note=71 velocity=40 time=36.2119069099
note_on channel=0 note=60 velocity=35 time=36.2386949062
note_off channel=0 note=71 velocity=64 time=36.3612070084
note_off channel=0 note=60 velocity=64 time=36.375535965
note_on channel=0 note=60 velocity=35 time=36.6436858177
note_on channel=0 note=71 velocity=43 time=36.6508479118
note_off channel=0 note=71 velocity=64 time=36.7875008583
note_off channel=0 note=60 velocity=64 time=36.7902169228
note_on channel=0 note=60 velocity=36 time=37.1120820045
note_on channel=0 note=71 velocity=38 time=37.119964838
note_off channel=0 note=71 velocity=64 time=37.216575861
note_off channel=0 note=60 velocity=64 time=37.2244849205
note_on channel=0 note=60 velocity=25 time=37.5835618973
note_on channel=0 note=72 velocity=35 time=37.5874910355
note_off channel=0 note=72 velocity=64 time=37.7257390022
note_off channel=0 note=60 velocity=64 time=37.729820013
note_on channel=0 note=60 velocity=30 time=37.9994218349
note_on channel=0 note=72 velocity=41 time=38.0097329617
note_off channel=0 note=72 velocity=64 time=38.1842260361
note_off channel=0 note=60 velocity=64 time=38.1844599247
note_on channel=0 note=72 velocity=42 time=38.4336259365
note_on channel=0 note=60 velocity=26 time=38.4350759983
note_off channel=0 note=60 velocity=64 time=38.6249928474
note_off channel=0 note=72 velocity=64 time=38.6277730465
note_on channel=0 note=60 velocity=26 time=38.8902099133
note_on channel=0 note=72 velocity=36 time=38.8902978897
note_off channel=0 note=60 velocity=64 time=39.080229044
note_off channel=0 note=72 velocity=64 time=39.0863280296
note_on channel=0 note=60 velocity=31 time=39.3546719551
note_on channel=0 note=72 velocity=40 time=39.3598849773
note_off channel=0 note=72 velocity=64 time=40.5927119255
note_off channel=0 note=60 velocity=64 time=40.6011679173
note_on channel=0 note=60 velocity=66 time=41.3715059757
note_on channel=0 note=62 velocity=62 time=41.6041829586
note_off channel=0 note=60 velocity=64 time=41.8125858307
note_on channel=0 note=64 velocity=60 time=41.84836483
note_off channel=0 note=62 velocity=64 time=41.9649879932
note_on channel=0 note=65 velocity=87 time=42.0760109425
note_off channel=0 note=64 velocity=64 time=42.2891018391
note_off channel=0 note=65 velocity=64 time=42.3004748821
note_on channel=0 note=67 velocity=94 time=42.301429987
note_on channel=0 note=65 velocity=89 time=42.537858963
note_off channel=0 note=67 velocity=64 time=42.5836799145
note_on channel=0 note=64 velocity=73 time=42.7818589211
note_off channel=0 note=65 velocity=64 time=42.8381099701
note_on channel=0 note=62 velocity=62 time=43.0192708969
note_off channel=0 note=64 velocity=64 time=43.0993039608
note_on channel=0 note=60 velocity=73 time=43.253911972
note_off channel=0 note=62 velocity=64 time=43.2599358559
note_on channel=0 note=62 velocity=66 time=43.4696609974
note_off channel=0 note=60 velocity=64 time=43.540817976
note_on channel=0 note=64 velocity=70 time=43.7441790104
note_off channel=0 note=62 velocity=64 time=43.7998199463
note_on channel=0 note=65 velocity=77 time=43.9623229504
note_off channel=0 note=64 velocity=64 time=44.0999138355
note_off channel=0 note=65 velocity=64 time=44.2004170418
note_on channel=0 note=67 velocity=92 time=44.2074449062
note_on channel=0 note=65 velocity=87 time=44.4081368446
note_off channel=0 note=67 velocity=64 time=44.4666068554
note_on channel=0 note=64 velocity=79 time=44.7105150223
note_off channel=0 note=65 velocity=64 time=44.7288990021
note_on channel=0 note=62 velocity=72 time=44.9598679543
note_off channel=0 note=64 velocity=64 time=44.9701669216
note_on channel=0 note=60 velocity=81 time=45.1916379929
note_off channel=0 note=62 velocity=64 time=45.1922810078
note_on channel=0 note=62 velocity=65 time=45.4328260422
note_off channel=0 note=60 velocity=64 time=45.6492760181
note_on channel=0 note=64 velocity=77 time=45.7089860439
note_off channel=0 note=62 velocity=64 time=45.7198150158
note_on channel=0 note=65 velocity=83 time=45.9419839382
note_off channel=0 note=64 velocity=64 time=45.9999969006
note_off channel=0 note=65 velocity=64 time=46.2253248692
note_on channel=0 note=67 velocity=87 time=46.225481987
note_on channel=0 note=65 velocity=88 time=46.4194190502
note_off channel=0 note=67 velocity=64 time=46.4581320286
note_on channel=0 note=64 velocity=81 time=46.6906838417
note_off channel=0 note=65 velocity=64 time=46.7027449608
note_on channel=0 note=62 velocity=68 time=46.9344968796
note_off channel=0 note=64 velocity=64 time=46.9629619122
note_off channel=0 note=62 velocity=64 time=47.1888298988
note_on channel=0 note=60 velocity=84 time=47.201777935
note_off channel=0 note=60 velocity=64 time=48.7912628651
note_on channel=0 note=60 velocity=86 time=49.2983088493
note_on channel=0 note=62 velocity=65 time=49.547180891
note_off channel=0 note=60 velocity=64 time=49.6179609299
note_on channel=0 note=64 velocity=56 time=49.7908599377
note_off channel=0 note=62 velocity=64 time=49.8906009197
note_on channel=0 note=65 velocity=83 time=50.0351538658
note_off channel=0 note=64 velocity=64 time=50.1546289921
note_on channel=0 note=67 velocity=92 time=50.3120748997
note_off channel=0 note=65 velocity=64 time=50.3206429482
note_on channel=0 note=65 velocity=86 time=50.538864851
note_off channel=0 note=67 velocity=64 time=50.576089859
note_on channel=0 note=64 velocity=79 time=50.8291089535
note_off channel=0 note=65 velocity=64 time=50.8523368835
note_on channel=0 note=62 velocity=70 time=51.0700359344
note_off channel=0 note=64 velocity=64 time=51.0987269878
note_on channel=0 note=60 velocity=82 time=51.3072109222
note_off channel=0 note=62 velocity=64 time=51.3073840141
note_on channel=0 note=62 velocity=54 time=51.5935800076
note_off channel=0 note=60 velocity=64 time=51.705026865
note_on channel=0 note=64 velocity=70 time=51.8576068878
note_off channel=0 note=62 velocity=64 time=51.9005038738
note_on channel=0 note=65 velocity=84 time=52.1226398945
note_off channel=0 note=64 velocity=64 time=52.1791770458
note_on channel=0 note=67 velocity=86 time=52.3871810436
note_off channel=0 note=65 velocity=64 time=52.3924880028
note_on channel=0 note=65 velocity=91 time=52.5853190422
note_off channel=0 note=67 velocity=64 time=52.6170618534
note_on channel=0 note=64 velocity=80 time=52.8674118519
note_off channel=0 note=65 velocity=64 time=52.8892199993
note_on channel=0 note=62 velocity=70 time=53.1205158234
note_off channel=0 note=64 velocity=64 time=53.1328058243
note_off channel=0 note=62 velocity=64 time=53.3674299717
note_on channel=0 note=60 velocity=84 time=53.3751549721
note_on channel=0 note=62 velocity=52 time=53.6059980392
note_off channel=0 note=60 velocity=64 time=53.8244030476
note_on channel=0 note=64 velocity=71 time=53.8882629871
note_off channel=0 note=62 velocity=64 time=53.8974938393
note_on channel=0 note=65 velocity=87 time=54.1519608498
note_off channel=0 note=64 velocity=64 time=54.1541099548
note_on channel=0 note=67 velocity=88 time=54.4091219902
note_off channel=0 note=65 velocity=64 time=54.4164600372
note_on channel=0 note=65 velocity=87 time=54.6285579205
note_off channel=0 note=67 velocity=64 time=54.6684648991
note_on channel=0 note=64 velocity=86 time=54.9174518585
note_off channel=0 note=65 velocity=64 time=54.917596817
note_off channel=0 note=64 velocity=64 time=55.1579809189
note_on channel=0 note=62 velocity=79 time=55.1663320065
note_off channel=0 note=62 velocity=64 time=55.419713974
note_on channel=0 note=60 velocity=77 time=55.4630599022
note_off channel=0 note=60 velocity=64 time=57.0953509808
note_on channel=0 note=60 velocity=86 time=57.6433758736
note_on channel=0 note=62 velocity=79 time=57.9009640217
note_off channel=0 note=60 velocity=64 time=57.9520318508
note_on channel=0 note=64 velocity=76 time=58.1585059166
note_off channel=0 note=62 velocity=64 time=58.2068178654
note_on channel=0 note=65 velocity=81 time=58.4043588638
note_off channel=0 note=64 velocity=64 time=58.4763469696
note_on channel=0 note=67 velocity=84 time=58.6692140102
note_off channel=0 note=65 velocity=64 time=58.6694209576
note_on channel=0 note=65 velocity=66 time=58.9284918308
note_off channel=0 note=67 velocity=64 time=58.9909570217
note_on channel=0 note=64 velocity=75 time=59.1802909374
note_off channel=0 note=65 velocity=64 time=59.2289199829
note_on channel=0 note=62 velocity=70 time=59.4384100437
note_off channel=0 note=64 velocity=64 time=59.4823279381
note_on channel=0 note=60 velocity=85 time=59.6747210026
note_off channel=0 note=62 velocity=64 time=59.6765139103
note_on channel=0 note=62 velocity=68 time=59.9423139095
note_off channel=0 note=60 velocity=64 time=60.0424740314
note_on channel=0 note=64 velocity=62 time=60.1980159283
note_off channel=0 note=62 velocity=64 time=60.253428936
note_on channel=0 note=65 velocity=75 time=60.5021548271
note_off channel=0 note=64 velocity=64 time=60.5676269531
note_on channel=0 note=67 velocity=86 time=60.7642738819
note_off channel=0 note=65 velocity=64 time=60.7807488441
note_on channel=0 note=65 velocity=84 time=60.9803290367
note_off channel=0 note=67 velocity=64 time=61.0251629353
note_on channel=0 note=64 velocity=84 time=61.2584199905
note_off channel=0 note=65 velocity=64 time=61.2956399918
note_on channel=0 note=62 velocity=64 time=61.4955708981
note_off channel=0 note=64 velocity=64 time=61.5966188908
note_off channel=0 note=62 velocity=64 time=61.7242398262
note_on channel=0 note=60 velocity=77 time=61.7294979095
note_on channel=0 note=62 velocity=70 time=61.9882340431
note_off channel=0 note=60 velocity=64 time=62.1144599915
note_on channel=0 note=64 velocity=80 time=62.2599480152
note_off channel=0 note=62 velocity=64 time=62.2788739204
note_on channel=0 note=65 velocity=79 time=62.5072178841
note_off channel=0 note=64 velocity=64 time=62.6030528545
note_on channel=0 note=67 velocity=86 time=62.7563560009
note_off channel=0 note=65 velocity=64 time=62.792634964
note_on channel=0 note=65 velocity=74 time=63.0118470192
note_off channel=0 note=67 velocity=64 time=63.0910229683
note_on channel=0 note=64 velocity=73 time=63.3044159412
note_off channel=0 note=65 velocity=64 time=63.3553988934
note_on channel=0 note=62 velocity=71 time=63.5534548759
note_off channel=0 note=64 velocity=64 time=63.5951828957
note_on channel=0 note=60 velocity=89 time=63.8082079887
note_off channel=0 note=62 velocity=64 time=63.8140509129
note_off channel=0 note=60 velocity=64 time=65.4549210072
note_on channel=0 note=60 velocity=88 time=65.9652750492
note_on channel=0 note=62 velocity=64 time=66.2013578415
note_off channel=0 note=60 velocity=64 time=66.2868440151
note_on channel=0 note=64 velocity=75 time=66.4711089134
note_off channel=0 note=62 velocity=64 time=66.4976568222
note_on channel=0 note=65 velocity=84 time=66.7192509174
note_off channel=0 note=64 velocity=64 time=66.8429868221
note_on channel=0 note=67 velocity=88 time=66.9846320152
note_off channel=0 note=65 velocity=64 time=66.9861438274
note_on channel=0 note=65 velocity=70 time=67.2501788139
note_off channel=0 note=67 velocity=64 time=67.3391389847
note_on channel=0 note=64 velocity=80 time=67.5288920403
note_off channel=0 note=65 velocity=64 time=67.5647540092
note_on channel=0 note=62 velocity=62 time=67.7737579346
note_off channel=0 note=64 velocity=64 time=67.8103919029
note_on channel=0 note=60 velocity=81 time=68.0174410343
note_off channel=0 note=62 velocity=64 time=68.0215008259
note_on channel=0 note=62 velocity=75 time=68.2854418755
note_off channel=0 note=60 velocity=64 time=68.3685338497
note_on channel=0 note=64 velocity=79 time=68.5527939796
note_off channel=0 note=62 velocity=64 time=68.5935339928
note_on channel=0 note=65 velocity=86 time=68.8175809383
note_off channel=0 note=64 velocity=64 time=68.8995819092
note_on channel=0 note=67 velocity=93 time=69.0630090237
note_off channel=0 note=65 velocity=64 time=69.0766489506
note_on channel=0 note=65 velocity=80 time=69.3028440475
note_off channel=0 note=67 velocity=64 time=69.3567669392
note_on channel=0 note=64 velocity=88 time=69.5907418728
note_off channel=0 note=65 velocity=64 time=69.614372015
note_on channel=0 note=62 velocity=83 time=69.8519518375
note_off channel=0 note=64 velocity=64 time=69.8837299347
note_off channel=0 note=62 velocity=64 time=70.0942559242
note_on channel=0 note=60 velocity=82 time=70.1025538445
note_on channel=0 note=62 velocity=71 time=70.384636879
note_off channel=0 note=60 velocity=64 time=70.4829950333
note_on channel=0 note=64 velocity=81 time=70.6530120373
note_off channel=0 note=62 velocity=64 time=70.682874918
note_on channel=0 note=65 velocity=85 time=70.9454729557
note_off channel=0 note=64 velocity=64 time=71.0415189266
note_on channel=0 note=67 velocity=92 time=71.1956980228
note_off channel=0 note=65 velocity=64 time=71.2049160004
note_on channel=0 note=65 velocity=78 time=71.4482159615
note_off channel=0 note=67 velocity=64 time=71.5390388966
note_on channel=0 note=64 velocity=82 time=71.7422499657
note_off channel=0 note=65 velocity=64 time=71.7629308701
note_on channel=0 note=62 velocity=80 time=72.0434980392
note_off channel=0 note=64 velocity=64 time=72.0724239349
note_off channel=0 note=62 velocity=64 time=72.3075489998
note_on channel=0 note=60 velocity=84 time=72.3162930012
note_off channel=0 note=60 velocity=64 time=73.9735159874
note_on channel=0 note=60 velocity=71 time=74.5201778412
note_on channel=0 note=62 velocity=89 time=74.5202560425
note_off channel=0 note=60 velocity=64 time=74.6546158791
note_off channel=0 note=62 velocity=64 time=74.6884009838
note_on channel=0 note=64 velocity=74 time=75.0412180424
note_on channel=0 note=60 velocity=44 time=75.0415329933
note_on channel=0 note=62 velocity=41 time=75.0482449532
note_off channel=0 note=62 velocity=64 time=75.1102468967
note_off channel=0 note=64 velocity=64 time=75.1738870144
note_off channel=0 note=60 velocity=64 time=75.2214310169
note_on channel=0 note=60 velocity=75 time=75.5347929001
note_on channel=0 note=65 velocity=86 time=75.543694973
note_off channel=0 note=65 velocity=64 time=75.7166368961
note_off channel=0 note=60 velocity=64 time=75.7167999744
note_on channel=0 note=67 velocity=82 time=76.0717208385
note_on channel=0 note=60 velocity=56 time=76.0760450363
note_off channel=0 note=67 velocity=64 time=76.206348896
note_off channel=0 note=60 velocity=64 time=76.2303438187
note_on channel=0 note=60 velocity=81 time=76.5809509754
note_on channel=0 note=62 velocity=82 time=76.5966389179
note_off channel=0 note=62 velocity=64 time=76.7354109287
note_off channel=0 note=60 velocity=64 time=76.7676818371
note_on channel=0 note=60 velocity=60 time=77.0958669186
note_on channel=0 note=64 velocity=81 time=77.0985188484
note_off channel=0 note=64 velocity=64 time=77.2188248634
note_off channel=0 note=60 velocity=64 time=77.2566668987
note_on channel=0 note=65 velocity=82 time=77.5913798809
note_on channel=0 note=60 velocity=66 time=77.5915780067
note_off channel=0 note=65 velocity=64 time=77.737336874
note_off channel=0 note=60 velocity=64 time=77.7610938549
note_on channel=0 note=67 velocity=86 time=78.0978589058
note_on channel=0 note=60 velocity=72 time=78.1062970161
note_off channel=0 note=67 velocity=64 time=78.2412219048
note_off channel=0 note=60 velocity=64 time=78.2888200283
note_on channel=0 note=60 velocity=81 time=78.5889928341
note_on channel=0 note=62 velocity=84 time=78.605383873
note_off channel=0 note=62 velocity=64 time=78.7148139477
note_off channel=0 note=60 velocity=64 time=78.755163908
note_on channel=0 note=64 velocity=75 time=79.1317520142
note_on channel=0 note=60 velocity=62 time=79.1319568157
note_off channel=0 note=64 velocity=64 time=79.2597649097
note_off channel=0 note=60 velocity=64 time=79.2923989296
note_on channel=0 note=65 velocity=92 time=79.6148169041
note_on channel=0 note=60 velocity=38 time=79.6306300163
note_off channel=0 note=65 velocity=64 time=79.78510499
note_off channel=0 note=60 velocity=64 time=79.8071298599
note_on channel=0 note=67 velocity=84 time=80.1275048256
note_on channel=0 note=60 velocity=71 time=80.1531839371
note_off channel=0 note=67 velocity=64 time=80.2848670483
note_off channel=0 note=60 velocity=64 time=80.3305380344
note_on channel=0 note=60 velocity=82 time=80.6391448975
note_on channel=0 note=62 velocity=83 time=80.6518809795
note_off channel=0 note=62 velocity=64 time=80.7520179749
note_off channel=0 note=60 velocity=64 time=80.7925679684
note_on channel=0 note=60 velocity=79 time=81.1576490402
note_on channel=0 note=62 velocity=77 time=81.1661849022
note_off channel=0 note=62 velocity=64 time=81.2781028748
note_off channel=0 note=60 velocity=64 time=81.3039979935
note_on channel=0 note=60 velocity=78 time=81.6779339314
note_on channel=0 note=62 velocity=82 time=81.6795020103
note_off channel=0 note=62 velocity=64 time=81.7855508327
note_off channel=0 note=60 velocity=64 time=81.8042309284
note_on channel=0 note=60 velocity=79 time=82.1585829258
note_on channel=0 note=62 velocity=80 time=82.1587359905
note_off channel=0 note=62 velocity=64 time=82.2669978142
note_off channel=0 note=60 velocity=64 time=82.2854008675
note_on channel=0 note=60 velocity=92 time=82.6689779758
note_on channel=0 note=62 velocity=96 time=82.6690590382
note_off channel=0 note=62 velocity=64 time=82.7860648632
note_off channel=0 note=60 velocity=64 time=82.8071699142
note_on channel=0 note=60 velocity=60 time=83.1667850018
note_on channel=0 note=64 velocity=71 time=83.1852209568
note_off channel=0 note=64 velocity=64 time=83.2726209164
note_off channel=0 note=60 velocity=64 time=83.3130190372
note_on channel=0 note=60 velocity=50 time=83.6528699398
note_on channel=0 note=65 velocity=70 time=83.6590139866
note_off channel=0 note=65 velocity=64 time=83.7944400311
note_off channel=0 note=60 velocity=64 time=83.8085398674
note_on channel=0 note=67 velocity=81 time=84.1514928341
note_on channel=0 note=60 velocity=52 time=84.1515719891
note_off channel=0 note=67 velocity=64 time=84.277493
note_off channel=0 note=60 velocity=64 time=84.2965509892
note_on channel=0 note=60 velocity=70 time=84.6377458572
note_on channel=0 note=62 velocity=68 time=84.6542170048
note_off channel=0 note=62 velocity=64 time=84.7722358704
note_off channel=0 note=60 velocity=64 time=84.8033828735
note_on channel=0 note=64 velocity=68 time=85.1379308701
note_on channel=0 note=60 velocity=48 time=85.1396448612
note_off channel=0 note=64 velocity=64 time=85.2453458309
note_off channel=0 note=60 velocity=64 time=85.2821569443
note_on channel=0 note=65 velocity=79 time=85.5994729996
note_on channel=0 note=60 velocity=62 time=85.6008088589
note_off channel=0 note=65 velocity=64 time=85.7285048962
note_off channel=0 note=60 velocity=64 time=85.7447199821
note_on channel=0 note=67 velocity=82 time=86.0743639469
note_on channel=0 note=60 velocity=56 time=86.0981318951
note_off channel=0 note=67 velocity=64 time=86.2042789459
note_off channel=0 note=60 velocity=64 time=86.2397539616
note_on channel=0 note=62 velocity=77 time=86.6160218716
note_on channel=0 note=60 velocity=60 time=86.6162638664
note_off channel=0 note=62 velocity=64 time=86.6982328892
note_off channel=0 note=60 velocity=64 time=86.7099068165
note_on channel=0 note=60 velocity=63 time=87.091575861
note_on channel=0 note=64 velocity=57 time=87.1045370102
note_off channel=0 note=64 velocity=64 time=87.1914319992
note_off channel=0 note=60 velocity=64 time=87.229998827
note_on channel=0 note=60 velocity=62 time=87.5922720432
note_on channel=0 note=65 velocity=60 time=87.5924258232
note_off channel=0 note=65 velocity=64 time=87.7039840221
note_off channel=0 note=60 velocity=64 time=87.7420899868
note_on channel=0 note=60 velocity=46 time=88.0944898129
note_on channel=0 note=67 velocity=83 time=88.0947518349
note_off channel=0 note=67 velocity=64 time=88.2397048473
note_off channel=0 note=60 velocity=64 time=88.2670710087
note_on channel=0 note=60 velocity=86 time=88.6037750244
note_on channel=0 note=62 velocity=86 time=88.6128189564
note_off channel=0 note=62 velocity=64 time=88.7297258377
note_off channel=0 note=60 velocity=64 time=88.7357149124
note_on channel=0 note=62 velocity=81 time=89.1005909443
note_on channel=0 note=60 velocity=66 time=89.1039459705
note_off channel=0 note=60 velocity=64 time=89.1844339371
note_off channel=0 note=62 velocity=64 time=89.1862459183
note_on channel=0 note=60 velocity=63 time=89.6031908989
note_on channel=0 note=62 velocity=73 time=89.6032848358
note_off channel=0 note=62 velocity=64 time=89.6748590469
note_off channel=0 note=60 velocity=64 time=89.7012038231
note_on channel=0 note=60 velocity=57 time=90.0953400135
note_on channel=0 note=62 velocity=62 time=90.0954198837
note_off channel=0 note=62 velocity=64 time=90.1542098522
note_off channel=0 note=60 velocity=64 time=90.1644580364
note_on channel=0 note=60 velocity=75 time=90.6228148937
note_on channel=0 note=62 velocity=82 time=90.6234848499
note_off channel=0 note=62 velocity=64 time=90.6981630325
note_off channel=0 note=60 velocity=64 time=90.7137138844
note_on channel=0 note=60 velocity=42 time=91.0745060444
note_on channel=0 note=64 velocity=42 time=91.1012368202
note_off channel=0 note=64 velocity=64 time=91.1797149181
note_off channel=0 note=60 velocity=64 time=91.2250788212
note_on channel=0 note=60 velocity=28 time=91.5644059181
note_on channel=0 note=65 velocity=49 time=91.5644829273
note_off channel=0 note=65 velocity=64 time=91.7007408142
note_off channel=0 note=60 velocity=64 time=91.7319228649
note_on channel=0 note=60 velocity=36 time=92.055524826
note_on channel=0 note=67 velocity=64 time=92.0598540306
note_off channel=0 note=67 velocity=64 time=92.2058470249
note_off channel=0 note=60 velocity=64 time=92.2232019901
note_on channel=0 note=60 velocity=73 time=92.5310668945
note_on channel=0 note=62 velocity=77 time=92.5584669113
note_off channel=0 note=62 velocity=64 time=92.6702449322
note_off channel=0 note=60 velocity=64 time=92.7039630413
note_on channel=0 note=60 velocity=57 time=93.0207128525
note_on channel=0 note=64 velocity=65 time=93.0298418999
note_off channel=0 note=64 velocity=64 time=93.1686248779
note_off channel=0 note=60 velocity=64 time=93.1883599758
note_on channel=0 note=60 velocity=53 time=93.4948730469
note_on channel=0 note=65 velocity=70 time=93.5032169819
note_off channel=0 note=65 velocity=64 time=93.623898983
note_off channel=0 note=60 velocity=64 time=93.6455988884
note_on channel=0 note=67 velocity=86 time=93.9876320362
note_on channel=0 note=60 velocity=60 time=93.9878189564
note_off channel=0 note=67 velocity=64 time=94.1091120243
note_off channel=0 note=60 velocity=64 time=94.1320810318
note_on channel=0 note=60 velocity=70 time=94.4606020451
note_on channel=0 note=62 velocity=63 time=94.4817750454
note_off channel=0 note=62 velocity=64 time=94.569838047
note_off channel=0 note=60 velocity=64 time=94.6160860062
note_on channel=0 note=60 velocity=57 time=94.961648941
note_on channel=0 note=64 velocity=73 time=94.9748148918
note_off channel=0 note=64 velocity=64 time=95.0789990425
note_off channel=0 note=60 velocity=64 time=95.0846979618
note_on channel=0 note=60 velocity=50 time=95.4414310455
note_on channel=0 note=65 velocity=79 time=95.4517450333
note_off channel=0 note=65 velocity=64 time=95.584307909
note_off channel=0 note=60 velocity=64 time=95.5954918861
note_on channel=0 note=67 velocity=79 time=95.96535182
note_on channel=0 note=60 velocity=52 time=95.9880568981
note_off channel=0 note=67 velocity=64 time=96.0947878361
note_off channel=0 note=60 velocity=64 time=96.1266319752
note_on channel=0 note=60 velocity=68 time=96.4884309769
note_on channel=0 note=62 velocity=73 time=96.4886388779
note_off channel=0 note=62 velocity=64 time=96.5790529251
note_off channel=0 note=60 velocity=64 time=96.6097798347
note_on channel=0 note=60 velocity=58 time=96.9553349018
note_on channel=0 note=62 velocity=68 time=96.955425024
note_off channel=0 note=62 velocity=64 time=97.0316238403
note_off channel=0 note=60 velocity=64 time=97.0392608643
note_on channel=0 note=60 velocity=53 time=97.4209418297
note_on channel=0 note=62 velocity=61 time=97.421186924
note_off channel=0 note=62 velocity=64 time=97.484210968
note_off channel=0 note=60 velocity=64 time=97.489207983
note_on channel=0 note=60 velocity=44 time=97.9526069164
note_on channel=0 note=62 velocity=48 time=97.952742815
note_off channel=0 note=62 velocity=64 time=97.9933190346
note_off channel=0 note=60 velocity=64 time=97.9947860241
