note_on channel=0 note=60 velocity=54 time=46.5163810253
note_off channel=0 note=60 velocity=64 time=47.2032949924
note_on channel=0 note=62 velocity=60 time=47.2190570831
note_on channel=0 note=64 velocity=70 time=47.9532790184
note_off channel=0 note=62 velocity=64 time=47.953368187
note_on channel=0 note=65 velocity=75 time=50.1005601883
note_off channel=0 note=64 velocity=64 time=50.100659132
note_on channel=0 note=67 velocity=74 time=50.9730792046
note_off channel=0 note=65 velocity=64 time=51.0112202168
note_on channel=0 note=69 velocity=63 time=51.790304184
note_off channel=0 note=67 velocity=64 time=51.7961730957
note_on channel=0 note=71 velocity=75 time=52.5637750626
note_off channel=0 note=69 velocity=64 time=52.5849561691
note_on channel=0 note=72 velocity=81 time=53.4496431351
note_off channel=0 note=71 velocity=64 time=53.4808931351
note_off channel=0 note=72 velocity=64 time=54.1792821884
note_on channel=0 note=60 velocity=60 time=164.543362141
note_off channel=0 note=60 velocity=64 time=165.009665012
note_on channel=0 note=62 velocity=54 time=165.025310993
note_off channel=0 note=62 velocity=64 time=165.501626015
note_on channel=0 note=64 velocity=63 time=165.512294054
note_off channel=0 note=64 velocity=64 time=166.849633217
note_on channel=0 note=65 velocity=62 time=166.861996174
note_on channel=0 note=67 velocity=72 time=167.142644167
note_off channel=0 note=65 velocity=64 time=167.14270401
note_on channel=0 note=65 velocity=70 time=168.041490078
note_off channel=0 note=67 velocity=64 time=168.066542149
note_off channel=0 note=65 velocity=64 time=168.241470098
note_on channel=0 note=64 velocity=67 time=168.258738995
note_off channel=0 note=64 velocity=64 time=168.447382212
note_on channel=0 note=62 velocity=64 time=168.45559907
note_off channel=0 note=62 velocity=64 time=168.614808083
note_on channel=0 note=60 velocity=81 time=168.635737181
note_off channel=0 note=60 velocity=64 time=169.008777142
