note_on channel=0 note=60 velocity=80 time=8.30851101875
note_on channel=0 note=62 velocity=65 time=8.53075909615
note_off channel=0 note=60 velocity=64 time=8.68139815331
note_on channel=0 note=64 velocity=62 time=8.76554107666
note_off channel=0 note=62 velocity=64 time=8.93347811699
note_on channel=0 note=65 velocity=84 time=8.94840216637
note_off channel=0 note=64 velocity=64 time=9.11454510689
note_on channel=0 note=67 velocity=94 time=9.16540408134
note_off channel=0 note=65 velocity=64 time=9.16684007645
note_on channel=0 note=65 velocity=86 time=9.33001804352
note_off channel=0 note=67 velocity=64 time=9.34386014938
note_on channel=0 note=64 velocity=80 time=9.54004311562
note_off channel=0 note=65 velocity=64 time=9.58190798759
note_on channel=0 note=62 velocity=68 time=9.73987007141
note_off channel=0 note=64 velocity=64 time=9.74512815475
note_on channel=0 note=60 velocity=86 time=9.93856620789
note_off channel=0 note=62 velocity=64 time=9.95371413231
note_on channel=0 note=62 velocity=63 time=10.1478891373
note_off channel=0 note=60 velocity=64 time=10.2297592163
note_on channel=0 note=64 velocity=76 time=10.3643682003
note_off channel=0 note=62 velocity=64 time=10.4181251526
note_on channel=0 note=65 velocity=75 time=10.5780370235
note_off channel=0 note=64 velocity=64 time=10.7259531021
note_off channel=0 note=65 velocity=64 time=10.781193018
note_on channel=0 note=67 velocity=87 time=10.7965991497
note_on channel=0 note=65 velocity=93 time=10.9674100876
note_off channel=0 note=67 velocity=64 time=10.9742631912
note_on channel=0 note=64 velocity=82 time=11.1724331379
note_off channel=0 note=65 velocity=64 time=11.2075901031
note_on channel=0 note=62 velocity=60 time=11.3877241611
note_off channel=0 note=64 velocity=64 time=11.3938469887
note_off channel=0 note=62 velocity=64 time=11.5501852036
note_on channel=0 note=60 velocity=78 time=11.5632100105
note_on channel=0 note=62 velocity=73 time=11.7691311836
note_off channel=0 note=60 velocity=64 time=11.8373031616
note_on channel=0 note=64 velocity=73 time=11.9664101601
note_off channel=0 note=62 velocity=64 time=12.0842239857
note_on channel=0 note=65 velocity=87 time=12.1676220894
note_off channel=0 note=64 velocity=64 time=12.2747850418
note_off channel=0 note=65 velocity=64 time=12.3690161705
note_on channel=0 note=67 velocity=92 time=12.3809230328
note_on channel=0 note=65 velocity=91 time=12.5557720661
note_off channel=0 note=67 velocity=64 time=12.5788030624
note_on channel=0 note=64 velocity=88 time=12.7657680511
note_off channel=0 note=65 velocity=64 time=12.8047800064
note_on channel=0 note=62 velocity=60 time=12.9358901978
note_off channel=0 note=64 velocity=64 time=12.9781661034
note_off channel=0 note=62 velocity=64 time=13.1634972095
note_on channel=0 note=60 velocity=87 time=13.1701910496
note_off channel=0 note=60 velocity=64 time=14.4315919876
note_on channel=0 note=60 velocity=82 time=14.8772351742
note_on channel=0 note=62 velocity=67 time=15.0112020969
note_off channel=0 note=60 velocity=64 time=15.1012680531
note_on channel=0 note=64 velocity=68 time=15.143404007
note_off channel=0 note=62 velocity=64 time=15.237776041
note_on channel=0 note=65 velocity=44 time=15.2905499935
note_off channel=0 note=65 velocity=64 time=15.3797650337
note_on channel=0 note=67 velocity=93 time=15.390111208
note_off channel=0 note=64 velocity=64 time=15.3902211189
note_on channel=0 note=65 velocity=82 time=15.4768261909
note_off channel=0 note=67 velocity=64 time=15.5012001991
note_on channel=0 note=64 velocity=86 time=15.6000850201
note_off channel=0 note=65 velocity=64 time=15.6364660263
note_on channel=0 note=62 velocity=56 time=15.7081370354
note_off channel=0 note=64 velocity=64 time=15.7406840324
note_off channel=0 note=62 velocity=64 time=15.7949039936
note_on channel=0 note=60 velocity=82 time=15.813295126
note_on channel=0 note=62 velocity=66 time=15.9207260609
note_on channel=0 note=64 velocity=81 time=16.0271320343
note_off channel=0 note=60 velocity=64 time=16.0274112225
note_off channel=0 note=62 velocity=64 time=16.1186270714
note_on channel=0 note=65 velocity=88 time=16.152215004
note_off channel=0 note=64 velocity=64 time=16.271064043
note_on channel=0 note=67 velocity=92 time=16.2867031097
note_off channel=0 note=67 velocity=64 time=16.3741071224
note_on channel=0 note=64 velocity=91 time=16.4726362228
note_off channel=0 note=65 velocity=64 time=16.5141181946
note_on channel=0 note=62 velocity=73 time=16.5988180637
note_off channel=0 note=64 velocity=64 time=16.6515760422
note_on channel=0 note=60 velocity=83 time=16.7120881081
note_off channel=0 note=62 velocity=64 time=16.7211802006
note_on channel=0 note=62 velocity=72 time=16.8123362064
note_off channel=0 note=60 velocity=64 time=16.8928341866
note_on channel=0 note=64 velocity=88 time=16.9043672085
note_off channel=0 note=62 velocity=64 time=16.9674081802
note_on channel=0 note=65 velocity=90 time=17.0340600014
note_off channel=0 note=64 velocity=64 time=17.1439800262
note_on channel=0 note=67 velocity=97 time=17.1719481945
note_off channel=0 note=65 velocity=64 time=17.192248106
note_on channel=0 note=65 velocity=88 time=17.2654361725
note_off channel=0 note=67 velocity=64 time=17.2828791142
note_on channel=0 note=64 velocity=86 time=17.3805990219
note_off channel=0 note=65 velocity=64 time=17.4154140949
note_on channel=0 note=62 velocity=80 time=17.5051031113
note_off channel=0 note=64 velocity=64 time=17.5386312008
note_on channel=0 note=60 velocity=89 time=17.6128001213
note_off channel=0 note=62 velocity=64 time=17.6247580051
note_off channel=0 note=60 velocity=64 time=18.5128240585
note_on channel=0 note=60 velocity=89 time=19.396720171
note_on channel=0 note=62 velocity=82 time=19.4906871319
note_off channel=0 note=60 velocity=64 time=19.5754780769
note_on channel=0 note=64 velocity=87 time=19.5964891911
note_off channel=0 note=62 velocity=64 time=19.6860470772
note_on channel=0 note=65 velocity=91 time=19.7068459988
note_on channel=0 note=67 velocity=98 time=19.8131980896
note_off channel=0 note=64 velocity=64 time=19.8183131218
note_off channel=0 note=67 velocity=64 time=19.926954031
note_on channel=0 note=64 velocity=81 time=19.9621419907
note_off channel=0 note=65 velocity=64 time=20.00517416
note_on channel=0 note=62 velocity=65 time=20.052973032
note_off channel=0 note=64 velocity=64 time=20.1091680527
note_on channel=0 note=60 velocity=83 time=20.1594791412
note_off channel=0 note=62 velocity=64 time=20.1771621704
note_on channel=0 note=62 velocity=61 time=20.2813880444
note_on channel=0 note=64 velocity=87 time=20.3846101761
note_off channel=0 note=60 velocity=64 time=20.3847091198
note_off channel=0 note=62 velocity=64 time=20.4461841583
note_on channel=0 note=65 velocity=66 time=20.5053989887
note_on channel=0 note=67 velocity=98 time=20.5960152149
note_off channel=0 note=64 velocity=64 time=20.6313591003
note_off channel=0 note=67 velocity=64 time=20.7156310081
note_on channel=0 note=64 velocity=75 time=20.7608120441
note_off channel=0 note=65 velocity=64 time=20.8112912178
note_on channel=0 note=62 velocity=69 time=20.8783040047
note_off channel=0 note=64 velocity=64 time=20.9218962193
note_on channel=0 note=60 velocity=80 time=20.974337101
note_off channel=0 note=62 velocity=64 time=20.9755990505
note_on channel=0 note=62 velocity=79 time=21.0996479988
note_on channel=0 note=64 velocity=88 time=21.1807150841
note_off channel=0 note=60 velocity=64 time=21.1953132153
note_off channel=0 note=62 velocity=64 time=21.25477314
note_on channel=0 note=65 velocity=87 time=21.2962481976
note_on channel=0 note=67 velocity=94 time=21.4076251984
note_off channel=0 note=64 velocity=64 time=21.4140071869
note_off channel=0 note=67 velocity=64 time=21.5041840076
note_on channel=0 note=64 velocity=87 time=21.5560600758
note_off channel=0 note=65 velocity=64 time=21.6050021648
note_on channel=0 note=62 velocity=82 time=21.6613490582
note_off channel=0 note=64 velocity=64 time=21.7231230736
note_on channel=0 note=60 velocity=88 time=21.7685801983
note_off channel=0 note=62 velocity=64 time=21.7965590954
note_off channel=0 note=60 velocity=64 time=22.9760901928
note_on channel=0 note=60 velocity=91 time=23.5357010365
note_on channel=0 note=62 velocity=87 time=23.617098093
note_on channel=0 note=64 velocity=87 time=23.7269911766
note_off channel=0 note=60 velocity=64 time=23.7270891666
note_off channel=0 note=62 velocity=64 time=23.802847147
note_on channel=0 note=65 velocity=88 time=23.8445231915
note_on channel=0 note=67 velocity=91 time=23.9788601398
note_off channel=0 note=64 velocity=64 time=23.9910202026
note_off channel=0 note=67 velocity=64 time=24.0723412037
note_on channel=0 note=64 velocity=85 time=24.1443781853
note_off channel=0 note=65 velocity=64 time=24.2009031773
note_on channel=0 note=62 velocity=57 time=24.2709610462
note_off channel=0 note=64 velocity=64 time=24.3383290768
note_on channel=0 note=60 velocity=54 time=24.3912601471
note_off channel=0 note=62 velocity=64 time=24.4058630466
note_on channel=0 note=62 velocity=60 time=24.5261511803
note_off channel=0 note=60 velocity=64 time=24.6148691177
note_on channel=0 note=64 velocity=88 time=24.6275551319
note_off channel=0 note=62 velocity=64 time=24.6872611046
note_on channel=0 note=65 velocity=90 time=24.7363631725
note_on channel=0 note=67 velocity=93 time=24.8783881664
note_off channel=0 note=64 velocity=64 time=24.8785710335
note_off channel=0 note=67 velocity=64 time=24.9948141575
note_on channel=0 note=64 velocity=94 time=25.0713741779
note_off channel=0 note=65 velocity=64 time=25.1383361816
note_on channel=0 note=62 velocity=84 time=25.1848800182
note_off channel=0 note=64 velocity=64 time=25.2485940456
note_on channel=0 note=60 velocity=83 time=25.3187711239
note_off channel=0 note=62 velocity=64 time=25.3416721821
note_on channel=0 note=62 velocity=56 time=25.4602530003
note_on channel=0 note=64 velocity=92 time=25.5280730724
note_off channel=0 note=60 velocity=64 time=25.5331552029
note_off channel=0 note=62 velocity=64 time=25.5740630627
note_on channel=0 note=65 velocity=90 time=25.6444470882
note_off channel=0 note=64 velocity=64 time=25.7467391491
note_on channel=0 note=67 velocity=99 time=25.8061881065
note_off channel=0 note=65 velocity=64 time=25.8365311623
note_on channel=0 note=65 velocity=98 time=25.9101061821
note_off channel=0 note=67 velocity=64 time=25.9500920773
note_on channel=0 note=64 velocity=102 time=26.0086731911
note_off channel=0 note=65 velocity=64 time=26.0547430515
note_on channel=0 note=62 velocity=94 time=26.1492571831
note_off channel=0 note=64 velocity=64 time=26.1968560219
note_on channel=0 note=60 velocity=99 time=26.2556381226
note_off channel=0 note=62 velocity=64 time=26.298099041
note_off channel=0 note=60 velocity=64 time=28.0894370079
