note_on channel=0 note=60 velocity=84 time=11.9363789558
note_on channel=0 note=62 velocity=69 time=12.2790570259
note_off channel=0 note=60 velocity=64 time=12.3856260777
note_on channel=0 note=64 velocity=88 time=12.6604969501
note_off channel=0 note=62 velocity=64 time=12.7040271759
note_on channel=0 note=65 velocity=90 time=13.0520479679
note_off channel=0 note=64 velocity=64 time=13.0521621704
note_on channel=0 note=67 velocity=82 time=13.4650170803
note_off channel=0 note=65 velocity=64 time=13.5670781136
note_on channel=0 note=69 velocity=91 time=13.8089029789
note_off channel=0 note=67 velocity=64 time=13.8396701813
note_on channel=0 note=71 velocity=93 time=14.1591231823
note_off channel=0 note=69 velocity=64 time=14.2201061249
note_off channel=0 note=71 velocity=64 time=14.5128180981
note_on channel=0 note=72 velocity=94 time=14.5476150513
note_off channel=0 note=72 velocity=64 time=14.8666400909
note_on channel=0 note=71 velocity=94 time=14.8768661022
note_on channel=0 note=69 velocity=91 time=15.2352659702
note_off channel=0 note=71 velocity=64 time=15.2353751659
note_on channel=0 note=67 velocity=79 time=15.5992910862
note_off channel=0 note=69 velocity=64 time=15.5993931293
note_on channel=0 note=65 velocity=91 time=16.607198
note_off channel=0 note=67 velocity=64 time=16.618543148
note_on channel=0 note=64 velocity=93 time=17.1975991726
note_off channel=0 note=65 velocity=64 time=17.2448921204
note_on channel=0 note=62 velocity=86 time=17.637845993
note_off channel=0 note=64 velocity=64 time=17.651695013
note_on channel=0 note=60 velocity=87 time=18.0263521671
note_off channel=0 note=62 velocity=64 time=18.0264530182
note_on channel=0 note=62 velocity=78 time=18.3710660934
note_off channel=0 note=60 velocity=64 time=18.4499270916
note_on channel=0 note=64 velocity=80 time=18.7367470264
note_off channel=0 note=62 velocity=64 time=18.8594839573
note_on channel=0 note=65 velocity=79 time=19.3686931133
note_off channel=0 note=64 velocity=64 time=19.3823161125
note_on channel=0 note=67 velocity=36 time=19.7807831764
note_off channel=0 note=65 velocity=64 time=19.85384202
note_on channel=0 note=69 velocity=80 time=20.1352200508
note_off channel=0 note=67 velocity=64 time=20.1751711369
note_on channel=0 note=71 velocity=86 time=20.4934129715
note_off channel=0 note=69 velocity=64 time=20.5584030151
note_off channel=0 note=71 velocity=64 time=20.8189611435
note_on channel=0 note=72 velocity=88 time=20.8502161503
note_on channel=0 note=71 velocity=86 time=21.1790771484
note_off channel=0 note=72 velocity=64 time=21.3327550888
note_on channel=0 note=69 velocity=90 time=21.5254330635
note_off channel=0 note=71 velocity=64 time=21.5304851532
note_on channel=0 note=67 velocity=73 time=21.904433012
note_off channel=0 note=69 velocity=64 time=21.9045240879
note_on channel=0 note=65 velocity=84 time=22.2501680851
note_off channel=0 note=67 velocity=64 time=22.2590429783
note_on channel=0 note=64 velocity=84 time=22.6320650578
note_off channel=0 note=65 velocity=64 time=22.6943981647
note_on channel=0 note=62 velocity=79 time=22.9837660789
note_off channel=0 note=64 velocity=64 time=23.012994051
note_off channel=0 note=62 velocity=64 time=23.325617075
note_on channel=0 note=60 velocity=86 time=23.336151123
note_on channel=0 note=62 velocity=73 time=23.6822919846
note_off channel=0 note=60 velocity=64 time=23.7196969986
note_on channel=0 note=64 velocity=67 time=24.0392479897
note_off channel=0 note=62 velocity=64 time=24.0947010517
note_off channel=0 note=64 velocity=64 time=24.375234127
note_on channel=0 note=65 velocity=90 time=24.3871819973
note_on channel=0 note=67 velocity=79 time=24.7588701248
note_off channel=0 note=65 velocity=64 time=24.7907960415
note_on channel=0 note=69 velocity=79 time=25.080698967
note_off channel=0 note=67 velocity=64 time=25.1669020653
note_on channel=0 note=71 velocity=94 time=25.4311211109
note_off channel=0 note=69 velocity=64 time=25.4910211563
note_off channel=0 note=71 velocity=64 time=25.7464540005
note_on channel=0 note=72 velocity=78 time=25.7796940804
note_on channel=0 note=74 velocity=42 time=25.8024330139
note_off channel=0 note=74 velocity=64 time=25.8925461769
note_on channel=0 note=71 velocity=85 time=26.1117091179
note_off channel=0 note=72 velocity=64 time=26.1525120735
note_on channel=0 note=69 velocity=93 time=26.4718461037
note_off channel=0 note=71 velocity=64 time=26.4771399498
note_on channel=0 note=67 velocity=80 time=26.8134281635
note_off channel=0 note=69 velocity=64 time=26.8462080956
note_on channel=0 note=65 velocity=86 time=27.1089031696
note_off channel=0 note=67 velocity=64 time=27.1319310665
note_on channel=0 note=64 velocity=87 time=27.4840250015
note_off channel=0 note=65 velocity=64 time=27.5388271809
note_on channel=0 note=62 velocity=80 time=27.803178072
note_off channel=0 note=64 velocity=64 time=27.819216013
note_off channel=0 note=62 velocity=64 time=28.1850361824
note_on channel=0 note=60 velocity=82 time=28.1947231293
note_off channel=0 note=60 velocity=64 time=30.6032869816
