note_on channel=0 note=61 velocity=75 time=0 when=0.0392889976501
note_on channel=0 note=63 velocity=76 time=0 when=5.80026102066
note_off channel=0 note=61 velocity=64 time=0 when=6.25408887863
note_on channel=0 note=65 velocity=88 time=0 when=6.35993981361
note_off channel=0 note=63 velocity=64 time=0 when=6.73430681229
note_on channel=0 note=66 velocity=93 time=0 when=6.78203582764
note_off channel=0 note=65 velocity=64 time=0 when=7.19342684746
note_on channel=0 note=68 velocity=87 time=0 when=7.23825001717
note_off channel=0 note=66 velocity=64 time=0 when=7.6717479229
note_on channel=0 note=66 velocity=81 time=0 when=7.70959091187
note_off channel=0 note=68 velocity=64 time=0 when=8.12323284149
note_on channel=0 note=64 velocity=77 time=0 when=8.33358883858
note_off channel=0 note=66 velocity=64 time=0 when=8.61477780342
note_on channel=0 note=65 velocity=87 time=0 when=8.61481881142
note_off channel=0 note=65 velocity=64 time=0 when=8.62376093864
note_on channel=0 note=63 velocity=83 time=0 when=8.75990986824
note_off channel=0 note=64 velocity=64 time=0 when=9.07777380943
note_on channel=0 note=61 velocity=76 time=0 when=9.07781791687
note_off channel=0 note=63 velocity=64 time=0 when=9.5252020359
note_off channel=0 note=61 velocity=64 time=0 when=9.5386300087
note_on channel=0 note=61 velocity=83 time=0 when=9.67776989937
note_on channel=0 note=63 velocity=74 time=0 when=11.2443778515
note_off channel=0 note=63 velocity=64 time=0 when=11.6701278687
note_on channel=0 note=65 velocity=76 time=0 when=12.0836298466
note_on channel=0 note=64 velocity=61 time=0 when=12.0901408195
note_off channel=0 note=61 velocity=64 time=0 when=12.1194629669
note_off channel=0 note=64 velocity=64 time=0 when=12.1283450127
note_off channel=0 note=65 velocity=64 time=0 when=12.1734390259
note_on channel=0 note=61 velocity=77 time=0 when=12.4025850296
note_on channel=0 note=63 velocity=82 time=0 when=12.953193903
note_off channel=0 note=61 velocity=64 time=0 when=13.6086468697
note_off channel=0 note=63 velocity=64 time=0 when=13.6170938015
note_on channel=0 note=65 velocity=88 time=0 when=13.8292088509
note_on channel=0 note=61 velocity=68 time=0 when=13.8430328369
note_off channel=0 note=65 velocity=64 time=0 when=14.4356868267
note_off channel=0 note=61 velocity=64 time=0 when=14.4393208027
note_on channel=0 note=65 velocity=82 time=0 when=14.6470189095
note_on channel=0 note=61 velocity=73 time=0 when=14.6524178982
note_off channel=0 note=65 velocity=64 time=0 when=15.0431938171
note_on channel=0 note=65 velocity=88 time=0 when=15.0658698082
note_off channel=0 note=61 velocity=64 time=0 when=15.4804568291
note_off channel=0 note=65 velocity=64 time=0 when=15.5016818047
note_on channel=0 note=64 velocity=73 time=0 when=16.2485368252
note_off channel=0 note=64 velocity=64 time=0 when=16.2839260101
note_on channel=0 note=63 velocity=89 time=0 when=16.6386218071
note_on channel=0 note=65 velocity=90 time=0 when=16.875497818
note_off channel=0 note=63 velocity=64 time=0 when=17.3499779701
note_on channel=0 note=66 velocity=94 time=0 when=17.3825778961
note_off channel=0 note=65 velocity=64 time=0 when=17.5670800209
note_off channel=0 note=66 velocity=64 time=0 when=17.5712029934
note_on channel=0 note=66 velocity=95 time=0 when=17.6577539444
note_on channel=0 note=65 velocity=81 time=0 when=17.7334218025
note_off channel=0 note=66 velocity=64 time=0 when=17.9472219944
note_on channel=0 note=64 velocity=30 time=0 when=17.9616749287
note_off channel=0 note=64 velocity=64 time=0 when=17.9851028919
note_on channel=0 note=63 velocity=86 time=0 when=18.0450839996
note_off channel=0 note=65 velocity=64 time=0 when=18.1716399193
note_off channel=0 note=63 velocity=64 time=0 when=18.1852309704
note_on channel=0 note=66 velocity=81 time=0 when=18.3442409039
note_off channel=0 note=66 velocity=64 time=0 when=18.3666818142
note_on channel=0 note=65 velocity=81 time=0 when=18.4925420284
note_on channel=0 note=66 velocity=46 time=0 when=18.5013740063
note_off channel=0 note=66 velocity=64 time=0 when=18.6412630081
note_off channel=0 note=65 velocity=64 time=0 when=18.6935238838
note_on channel=0 note=66 velocity=91 time=0 when=18.7000060081
note_on channel=0 note=65 velocity=86 time=0 when=18.7745490074
note_off channel=0 note=66 velocity=64 time=0 when=19.9089939594
note_on channel=0 note=64 velocity=81 time=0 when=19.9207019806
note_off channel=0 note=64 velocity=64 time=0 when=19.9270479679
note_off channel=0 note=65 velocity=64 time=0 when=20.074947834
note_on channel=0 note=66 velocity=87 time=0 when=20.2179768085
note_on channel=0 note=65 velocity=86 time=0 when=20.2320578098
note_on channel=0 note=67 velocity=60 time=0 when=20.4036400318
note_off channel=0 note=66 velocity=64 time=0 when=20.4036769867
note_on channel=0 note=69 velocity=80 time=0 when=20.4444079399
note_on channel=0 note=64 velocity=9 time=0 when=20.444464922
note_off channel=0 note=69 velocity=64 time=0 when=20.5689599514
note_on channel=0 note=62 velocity=55 time=0 when=20.5802578926
note_off channel=0 note=67 velocity=64 time=0 when=20.6535019875
note_off channel=0 note=65 velocity=64 time=0 when=20.6794250011
note_off channel=0 note=62 velocity=64 time=0 when=20.7886209488
note_off channel=0 note=64 velocity=64 time=0 when=20.8025109768
