note_on channel=0 note=60 velocity=62 time=0 when=0.0413777828217
note_on channel=0 note=62 velocity=52 time=0 when=8.68591690063
note_off channel=0 note=60 velocity=64 time=0 when=9.17180991173
note_on channel=0 note=64 velocity=70 time=0 when=9.21417593956
note_off channel=0 note=62 velocity=64 time=0 when=9.70597887039
note_on channel=0 note=65 velocity=28 time=0 when=9.75936293602
note_off channel=0 note=64 velocity=64 time=0 when=10.1426529884
note_on channel=0 note=67 velocity=71 time=0 when=10.173366785
note_off channel=0 note=65 velocity=64 time=0 when=10.6923899651
note_on channel=0 note=69 velocity=82 time=0 when=10.7317860126
note_off channel=0 note=67 velocity=64 time=0 when=11.1776709557
note_on channel=0 note=71 velocity=98 time=0 when=11.1992049217
note_off channel=0 note=69 velocity=64 time=0 when=11.6776578426
note_on channel=0 note=72 velocity=93 time=0 when=11.7071089745
note_off channel=0 note=71 velocity=64 time=0 when=12.1719229221
note_on channel=0 note=71 velocity=88 time=0 when=12.1747429371
note_off channel=0 note=72 velocity=64 time=0 when=12.6482667923
note_off channel=0 note=71 velocity=64 time=0 when=12.6939167976
note_on channel=0 note=69 velocity=87 time=0 when=13.1005249023
note_on channel=0 note=67 velocity=90 time=0 when=13.1114559174
note_off channel=0 note=69 velocity=64 time=0 when=13.601733923
note_on channel=0 note=65 velocity=87 time=0 when=13.6017677784
note_off channel=0 note=67 velocity=64 time=0 when=14.0603039265
note_on channel=0 note=64 velocity=89 time=0 when=14.0653939247
note_off channel=0 note=65 velocity=64 time=0 when=14.5630848408
note_off channel=0 note=64 velocity=64 time=0 when=14.5887429714
note_on channel=0 note=62 velocity=90 time=0 when=15.0472829342
note_on channel=0 note=60 velocity=92 time=0 when=15.0578730106
note_off channel=0 note=62 velocity=64 time=0 when=15.5895209312
note_off channel=0 note=60 velocity=64 time=0 when=15.5895760059
note_on channel=0 note=60 velocity=80 time=0 when=18.2504429817
note_on channel=0 note=62 velocity=70 time=0 when=20.6680028439
note_off channel=0 note=60 velocity=64 time=0 when=21.1851987839
note_on channel=0 note=64 velocity=92 time=0 when=21.4875738621
note_off channel=0 note=62 velocity=64 time=0 when=21.660050869
note_on channel=0 note=65 velocity=93 time=0 when=21.6830108166
note_off channel=0 note=64 velocity=64 time=0 when=22.1122319698
note_on channel=0 note=67 velocity=91 time=0 when=22.1240639687
note_off channel=0 note=65 velocity=64 time=0 when=22.5758528709
note_on channel=0 note=69 velocity=93 time=0 when=22.6003057957
note_off channel=0 note=67 velocity=64 time=0 when=23.0149037838
note_on channel=0 note=71 velocity=96 time=0 when=23.038864851
note_off channel=0 note=69 velocity=64 time=0 when=23.4914698601
note_on channel=0 note=72 velocity=95 time=0 when=23.5141758919
note_off channel=0 note=71 velocity=64 time=0 when=23.9512188435
note_on channel=0 note=71 velocity=94 time=0 when=23.9539809227
note_off channel=0 note=72 velocity=64 time=0 when=24.4112308025
note_on channel=0 note=69 velocity=97 time=0 when=24.45398283
note_off channel=0 note=71 velocity=64 time=0 when=24.8523309231
note_on channel=0 note=67 velocity=93 time=0 when=24.8614599705
note_off channel=0 note=69 velocity=64 time=0 when=25.3011469841
note_on channel=0 note=65 velocity=87 time=0 when=25.3163678646
note_off channel=0 note=67 velocity=64 time=0 when=25.7376708984
note_on channel=0 note=64 velocity=87 time=0 when=25.7653069496
note_off channel=0 note=65 velocity=64 time=0 when=26.2165567875
note_on channel=0 note=62 velocity=91 time=0 when=26.2575609684
note_off channel=0 note=64 velocity=64 time=0 when=26.6513898373
note_on channel=0 note=60 velocity=96 time=0 when=26.651444912
note_off channel=0 note=62 velocity=64 time=0 when=27.1697750092
note_off channel=0 note=60 velocity=64 time=0 when=27.1751029491
note_on channel=0 note=60 velocity=89 time=0 when=30.2169559002
note_on channel=0 note=62 velocity=80 time=0 when=31.2219338417
note_off channel=0 note=60 velocity=64 time=0 when=31.7183668613
note_on channel=0 note=64 velocity=86 time=0 when=31.7661678791
note_off channel=0 note=62 velocity=64 time=0 when=32.1879968643
note_on channel=0 note=65 velocity=89 time=0 when=32.2356829643
note_off channel=0 note=64 velocity=64 time=0 when=32.6123898029
note_on channel=0 note=67 velocity=92 time=0 when=32.6367738247
note_off channel=0 note=65 velocity=64 time=0 when=33.0674908161
note_on channel=0 note=69 velocity=102 time=0 when=33.1103758812
note_off channel=0 note=67 velocity=64 time=0 when=33.5064589977
note_on channel=0 note=71 velocity=102 time=0 when=33.515242815
note_off channel=0 note=69 velocity=64 time=0 when=33.9509878159
note_on channel=0 note=72 velocity=99 time=0 when=33.9892098904
note_off channel=0 note=71 velocity=64 time=0 when=34.3860929012
note_on channel=0 note=71 velocity=94 time=0 when=34.4094967842
note_off channel=0 note=72 velocity=64 time=0 when=34.8094158173
note_on channel=0 note=69 velocity=99 time=0 when=34.8747339249
note_off channel=0 note=71 velocity=64 time=0 when=35.2338550091
note_on channel=0 note=67 velocity=97 time=0 when=35.2613408566
note_off channel=0 note=69 velocity=64 time=0 when=35.6614658833
note_on channel=0 note=65 velocity=93 time=0 when=35.6814398766
note_off channel=0 note=67 velocity=64 time=0 when=36.0573768616
note_on channel=0 note=64 velocity=95 time=0 when=36.0812928677
note_off channel=0 note=65 velocity=64 time=0 when=36.4803369045
note_on channel=0 note=62 velocity=90 time=0 when=36.5238409042
note_off channel=0 note=64 velocity=64 time=0 when=36.9041569233
note_on channel=0 note=60 velocity=91 time=0 when=36.9081919193
note_off channel=0 note=62 velocity=64 time=0 when=37.3834497929
note_off channel=0 note=60 velocity=64 time=0 when=37.3862109184
