note_on channel=0 note=60 velocity=65 time=0 when=0.0412590503693
note_on channel=0 note=62 velocity=69 time=0 when=13.3398151398
note_off channel=0 note=60 velocity=64 time=0 when=13.6490061283
note_on channel=0 note=64 velocity=68 time=0 when=13.7126660347
note_off channel=0 note=62 velocity=64 time=0 when=13.9691550732
note_on channel=0 note=65 velocity=85 time=0 when=14.0386981964
note_off channel=0 note=64 velocity=64 time=0 when=14.2963910103
note_on channel=0 note=67 velocity=92 time=0 when=14.3475379944
note_off channel=0 note=65 velocity=64 time=0 when=14.6142141819
note_on channel=0 note=65 velocity=87 time=0 when=14.6205000877
note_off channel=0 note=67 velocity=64 time=0 when=14.9186022282
note_on channel=0 note=64 velocity=83 time=0 when=14.9474740028
note_off channel=0 note=65 velocity=64 time=0 when=15.2266991138
note_off channel=0 note=64 velocity=64 time=0 when=15.2420701981
note_on channel=0 note=62 velocity=84 time=0 when=15.5240671635
note_off channel=0 note=62 velocity=64 time=0 when=15.524105072
note_on channel=0 note=60 velocity=85 time=0 when=15.7869172096
note_on channel=0 note=62 velocity=81 time=0 when=15.7947661877
note_off channel=0 note=60 velocity=64 time=0 when=16.0847971439
note_on channel=0 note=64 velocity=91 time=0 when=16.1354031563
note_off channel=0 note=62 velocity=64 time=0 when=16.3724441528
note_on channel=0 note=65 velocity=90 time=0 when=16.3750531673
note_off channel=0 note=64 velocity=64 time=0 when=16.6447911263
note_on channel=0 note=67 velocity=91 time=0 when=16.6903409958
note_off channel=0 note=65 velocity=64 time=0 when=16.9343121052
note_on channel=0 note=65 velocity=87 time=0 when=16.9404602051
note_off channel=0 note=67 velocity=64 time=0 when=17.2092251778
note_on channel=0 note=64 velocity=84 time=0 when=17.2390742302
note_off channel=0 note=65 velocity=64 time=0 when=17.5157690048
note_on channel=0 note=62 velocity=86 time=0 when=17.5272810459
note_off channel=0 note=64 velocity=64 time=0 when=17.7953271866
note_off channel=0 note=62 velocity=64 time=0 when=17.8064730167
note_on channel=0 note=60 velocity=88 time=0 when=18.0435039997
note_on channel=0 note=62 velocity=79 time=0 when=18.0583100319
note_off channel=0 note=60 velocity=64 time=0 when=18.3413071632
note_on channel=0 note=64 velocity=88 time=0 when=18.3806312084
note_off channel=0 note=62 velocity=64 time=0 when=18.6293311119
note_on channel=0 note=65 velocity=92 time=0 when=18.6320152283
note_off channel=0 note=64 velocity=64 time=0 when=18.8958170414
note_off channel=0 note=65 velocity=64 time=0 when=18.9649460316
note_on channel=0 note=67 velocity=86 time=0 when=19.1905272007
note_on channel=0 note=65 velocity=97 time=0 when=19.207665205
note_off channel=0 note=67 velocity=64 time=0 when=19.4713640213
note_on channel=0 note=64 velocity=85 time=0 when=19.5112040043
note_off channel=0 note=65 velocity=64 time=0 when=19.7537620068
note_off channel=0 note=64 velocity=64 time=0 when=19.7657060623
note_on channel=0 note=62 velocity=78 time=0 when=20.0284881592
note_off channel=0 note=62 velocity=64 time=0 when=20.0363841057
note_on channel=0 note=60 velocity=87 time=0 when=20.317040205
note_off channel=0 note=60 velocity=64 time=0 when=20.3296740055
note_on channel=0 note=60 velocity=86 time=0 when=22.0874750614
note_on channel=0 note=62 velocity=68 time=0 when=23.0629460812
note_off channel=0 note=60 velocity=64 time=0 when=23.2770240307
note_on channel=0 note=64 velocity=86 time=0 when=23.3299741745
note_off channel=0 note=62 velocity=64 time=0 when=23.4772241116
note_on channel=0 note=65 velocity=84 time=0 when=23.5488321781
note_off channel=0 note=64 velocity=64 time=0 when=23.6597521305
note_on channel=0 note=67 velocity=92 time=0 when=23.8043730259
note_off channel=0 note=65 velocity=64 time=0 when=23.8491940498
note_on channel=0 note=65 velocity=93 time=0 when=23.8703532219
note_off channel=0 note=67 velocity=64 time=0 when=24.0135540962
note_on channel=0 note=64 velocity=87 time=0 when=24.0470230579
note_off channel=0 note=65 velocity=64 time=0 when=24.2554850578
note_on channel=0 note=62 velocity=76 time=0 when=24.2849521637
note_off channel=0 note=64 velocity=64 time=0 when=24.4477040768
note_on channel=0 note=60 velocity=76 time=0 when=24.4770441055
note_off channel=0 note=62 velocity=64 time=0 when=24.6403570175
note_on channel=0 note=62 velocity=68 time=0 when=24.6403911114
note_off channel=0 note=60 velocity=64 time=0 when=24.808863163
note_on channel=0 note=64 velocity=86 time=0 when=24.8732221127
note_off channel=0 note=62 velocity=64 time=0 when=25.0141210556
note_on channel=0 note=65 velocity=92 time=0 when=25.0554540157
note_off channel=0 note=64 velocity=64 time=0 when=25.1853940487
note_on channel=0 note=67 velocity=97 time=0 when=25.2744591236
note_off channel=0 note=65 velocity=64 time=0 when=25.4007511139
note_on channel=0 note=65 velocity=81 time=0 when=25.4131550789
note_off channel=0 note=67 velocity=64 time=0 when=25.5545930862
note_on channel=0 note=64 velocity=89 time=0 when=25.5837590694
note_off channel=0 note=65 velocity=64 time=0 when=25.7875401974
note_on channel=0 note=62 velocity=73 time=0 when=25.8146622181
note_off channel=0 note=64 velocity=64 time=0 when=25.9686992168
note_on channel=0 note=60 velocity=93 time=0 when=25.982460022
note_off channel=0 note=62 velocity=64 time=0 when=26.1653590202
note_on channel=0 note=62 velocity=67 time=0 when=26.1654272079
note_off channel=0 note=60 velocity=64 time=0 when=26.3498411179
note_on channel=0 note=64 velocity=87 time=0 when=26.3905141354
note_off channel=0 note=62 velocity=64 time=0 when=26.5489552021
note_on channel=0 note=65 velocity=94 time=0 when=26.5604691505
note_off channel=0 note=64 velocity=64 time=0 when=26.7472810745
note_on channel=0 note=67 velocity=78 time=0 when=26.8247950077
note_on channel=0 note=69 velocity=82 time=0 when=26.966381073
note_off channel=0 note=65 velocity=64 time=0 when=26.9665811062
note_on channel=0 note=65 velocity=92 time=0 when=26.9666850567
note_off channel=0 note=67 velocity=64 time=0 when=27.1308581829
note_off channel=0 note=69 velocity=64 time=0 when=27.1400210857
note_on channel=0 note=64 velocity=91 time=0 when=27.1424751282
note_off channel=0 note=65 velocity=64 time=0 when=27.3829581738
note_on channel=0 note=62 velocity=89 time=0 when=27.4545300007
note_off channel=0 note=64 velocity=64 time=0 when=27.5895950794
note_on channel=0 note=60 velocity=95 time=0 when=27.6080591679
note_off channel=0 note=62 velocity=64 time=0 when=27.7953760624
note_off channel=0 note=60 velocity=64 time=0 when=27.8122141361
note_on channel=0 note=60 velocity=91 time=0 when=29.5001411438
note_on channel=0 note=62 velocity=83 time=0 when=30.4013390541
note_off channel=0 note=60 velocity=64 time=0 when=30.5334331989
note_on channel=0 note=64 velocity=94 time=0 when=30.5978791714
note_off channel=0 note=62 velocity=64 time=0 when=30.6456851959
note_on channel=0 note=65 velocity=88 time=0 when=30.7063832283
note_on channel=0 note=67 velocity=91 time=0 when=30.7383961678
note_off channel=0 note=64 velocity=64 time=0 when=30.9083521366
note_off channel=0 note=67 velocity=64 time=0 when=30.9109060764
note_on channel=0 note=64 velocity=102 time=0 when=31.0196092129
note_off channel=0 note=65 velocity=64 time=0 when=31.1044411659
note_on channel=0 note=62 velocity=70 time=0 when=31.1541800499
note_off channel=0 note=64 velocity=64 time=0 when=31.2006452084
note_on channel=0 note=60 velocity=81 time=0 when=31.2625541687
note_off channel=0 note=62 velocity=64 time=0 when=31.3109920025
note_on channel=0 note=62 velocity=73 time=0 when=31.3413522243
note_off channel=0 note=60 velocity=64 time=0 when=31.4444310665
note_on channel=0 note=64 velocity=91 time=0 when=31.5321002007
note_off channel=0 note=62 velocity=64 time=0 when=31.540979147
note_on channel=0 note=65 velocity=94 time=0 when=31.6194951534
note_on channel=0 note=67 velocity=106 time=0 when=31.632130146
note_off channel=0 note=64 velocity=64 time=0 when=31.7694571018
note_on channel=0 note=65 velocity=53 time=0 when=31.7881581783
note_off channel=0 note=67 velocity=64 time=0 when=31.8613741398
note_on channel=0 note=64 velocity=97 time=0 when=31.9089331627
note_off channel=0 note=65 velocity=64 time=0 when=31.9929590225
note_off channel=0 note=65 velocity=64 time=0 when=32.051762104
note_on channel=0 note=62 velocity=89 time=0 when=32.0517981052
note_off channel=0 note=64 velocity=64 time=0 when=32.1190271378
note_on channel=0 note=60 velocity=94 time=0 when=32.1847860813
note_off channel=0 note=62 velocity=64 time=0 when=32.2491960526
note_on channel=0 note=62 velocity=81 time=0 when=32.2735450268
note_on channel=0 note=64 velocity=89 time=0 when=32.3792080879
note_off channel=0 note=60 velocity=64 time=0 when=32.4498221874
note_off channel=0 note=62 velocity=64 time=0 when=32.459952116
note_on channel=0 note=65 velocity=97 time=0 when=32.5293951035
note_on channel=0 note=67 velocity=100 time=0 when=32.5811672211
note_off channel=0 note=64 velocity=64 time=0 when=32.7178912163
note_off channel=0 note=65 velocity=64 time=0 when=32.7291791439
note_on channel=0 note=65 velocity=96 time=0 when=32.7826452255
note_off channel=0 note=67 velocity=64 time=0 when=32.8415670395
note_on channel=0 note=64 velocity=88 time=0 when=32.882682085
note_off channel=0 note=65 velocity=64 time=0 when=32.981098175
note_on channel=0 note=62 velocity=89 time=0 when=33.0336771011
note_off channel=0 note=64 velocity=64 time=0 when=33.1136000156
note_on channel=0 note=60 velocity=94 time=0 when=33.1709661484
note_off channel=0 note=62 velocity=64 time=0 when=33.2365210056
note_off channel=0 note=60 velocity=64 time=0 when=33.2634470463
note_on channel=0 note=60 velocity=89 time=0 when=36.3418791294
note_on channel=0 note=62 velocity=87 time=0 when=37.0225729942
note_off channel=0 note=60 velocity=64 time=0 when=37.1416041851
note_on channel=0 note=64 velocity=86 time=0 when=37.2248370647
note_off channel=0 note=62 velocity=64 time=0 when=37.2728900909
note_on channel=0 note=65 velocity=93 time=0 when=37.3439311981
note_on channel=0 note=67 velocity=98 time=0 when=37.3693900108
note_off channel=0 note=64 velocity=64 time=0 when=37.4945840836
note_off channel=0 note=67 velocity=64 time=0 when=37.5092580318
note_on channel=0 note=64 velocity=100 time=0 when=37.5844070911
note_off channel=0 note=65 velocity=64 time=0 when=37.7098231316
note_on channel=0 note=62 velocity=71 time=0 when=37.7613041401
note_off channel=0 note=64 velocity=64 time=0 when=37.8010830879
note_on channel=0 note=60 velocity=93 time=0 when=37.8896160126
note_off channel=0 note=62 velocity=64 time=0 when=37.9113361835
note_on channel=0 note=62 velocity=89 time=0 when=37.9380691051
note_on channel=0 note=64 velocity=93 time=0 when=38.0689411163
note_off channel=0 note=60 velocity=64 time=0 when=38.1326560974
note_off channel=0 note=62 velocity=64 time=0 when=38.145802021
note_on channel=0 note=65 velocity=97 time=0 when=38.2053861618
note_on channel=0 note=67 velocity=108 time=0 when=38.2286601067
note_off channel=0 note=64 velocity=64 time=0 when=38.3642721176
note_off channel=0 note=65 velocity=64 time=0 when=38.3817260265
note_on channel=0 note=65 velocity=97 time=0 when=38.4001541138
note_off channel=0 note=67 velocity=64 time=0 when=38.4937341213
note_on channel=0 note=64 velocity=93 time=0 when=38.5395312309
note_off channel=0 note=65 velocity=64 time=0 when=38.6088101864
note_on channel=0 note=62 velocity=87 time=0 when=38.6582660675
note_on channel=0 note=60 velocity=95 time=0 when=38.7192652225
note_off channel=0 note=64 velocity=64 time=0 when=38.8293321133
note_off channel=0 note=62 velocity=64 time=0 when=38.8371441364
note_on channel=0 note=62 velocity=79 time=0 when=38.8557569981
note_on channel=0 note=64 velocity=98 time=0 when=38.9588141441
note_off channel=0 note=60 velocity=64 time=0 when=39.0238490105
note_off channel=0 note=62 velocity=64 time=0 when=39.0386660099
note_on channel=0 note=65 velocity=87 time=0 when=39.0992190838
note_on channel=0 note=67 velocity=106 time=0 when=39.1325211525
note_off channel=0 note=64 velocity=64 time=0 when=39.246527195
note_off channel=0 note=65 velocity=64 time=0 when=39.2616970539
note_on channel=0 note=65 velocity=89 time=0 when=39.2968051434
note_off channel=0 note=67 velocity=64 time=0 when=39.3418581486
note_on channel=0 note=64 velocity=106 time=0 when=39.3870620728
note_off channel=0 note=65 velocity=64 time=0 when=39.4400320053
note_on channel=0 note=62 velocity=89 time=0 when=39.4878730774
note_off channel=0 note=64 velocity=64 time=0 when=39.5375020504
note_on channel=0 note=60 velocity=104 time=0 when=39.610060215
note_off channel=0 note=62 velocity=64 time=0 when=39.6402699947
note_off channel=0 note=60 velocity=64 time=0 when=39.6663570404
note_on channel=0 note=60 velocity=87 time=0 when=40.3710072041
note_on channel=0 note=62 velocity=70 time=0 when=43.3176050186
note_off channel=0 note=60 velocity=64 time=0 when=43.6417870522
note_on channel=0 note=64 velocity=78 time=0 when=43.6817860603
note_off channel=0 note=62 velocity=64 time=0 when=44.0141851902
note_off channel=0 note=64 velocity=64 time=0 when=44.0557541847
note_on channel=0 note=65 velocity=91 time=0 when=44.4016261101
note_on channel=0 note=67 velocity=88 time=0 when=44.410007
note_off channel=0 note=65 velocity=64 time=0 when=44.761070013
note_on channel=0 note=69 velocity=87 time=0 when=44.7906310558
note_off channel=0 note=67 velocity=64 time=0 when=45.0995461941
note_on channel=0 note=71 velocity=93 time=0 when=45.1392560005
note_off channel=0 note=69 velocity=64 time=0 when=45.4368481636
note_on channel=0 note=72 velocity=94 time=0 when=45.7675452232
note_off channel=0 note=71 velocity=64 time=0 when=45.7780880928
note_on channel=0 note=71 velocity=93 time=0 when=45.7839021683
note_off channel=0 note=72 velocity=64 time=0 when=46.1223800182
note_on channel=0 note=69 velocity=93 time=0 when=46.180519104
note_off channel=0 note=71 velocity=64 time=0 when=46.4581770897
note_on channel=0 note=67 velocity=86 time=0 when=46.4940421581
note_off channel=0 note=69 velocity=64 time=0 when=46.8227632046
note_on channel=0 note=65 velocity=89 time=0 when=46.8405561447
note_off channel=0 note=67 velocity=64 time=0 when=47.1193242073
note_on channel=0 note=64 velocity=81 time=0 when=47.1260640621
note_on channel=0 note=62 velocity=71 time=0 when=47.4733700752
note_off channel=0 note=65 velocity=64 time=0 when=47.4909300804
note_off channel=0 note=62 velocity=64 time=0 when=47.5182111263
note_on channel=0 note=62 velocity=91 time=0 when=47.5400500298
note_off channel=0 note=64 velocity=64 time=0 when=47.8554360867
note_on channel=0 note=60 velocity=94 time=0 when=47.8843691349
note_off channel=0 note=62 velocity=64 time=0 when=48.2178330421
note_off channel=0 note=60 velocity=64 time=0 when=48.2242012024
note_on channel=0 note=60 velocity=89 time=0 when=48.8025212288
note_on channel=0 note=62 velocity=73 time=0 when=48.9575660229
note_off channel=0 note=60 velocity=64 time=0 when=49.2830700874
note_on channel=0 note=64 velocity=86 time=0 when=49.3365511894
note_off channel=0 note=62 velocity=64 time=0 when=49.6166360378
note_on channel=0 note=65 velocity=96 time=0 when=49.6695311069
note_off channel=0 note=64 velocity=64 time=0 when=49.9570980072
note_on channel=0 note=67 velocity=86 time=0 when=49.9573020935
note_off channel=0 note=65 velocity=64 time=0 when=50.3018610477
note_on channel=0 note=69 velocity=96 time=0 when=50.3267960548
note_off channel=0 note=67 velocity=64 time=0 when=50.6297991276
note_on channel=0 note=71 velocity=96 time=0 when=50.6590530872
note_off channel=0 note=69 velocity=64 time=0 when=50.972009182
note_on channel=0 note=72 velocity=91 time=0 when=51.046736002
note_off channel=0 note=71 velocity=64 time=0 when=51.3136842251
note_on channel=0 note=71 velocity=96 time=0 when=51.325106144
note_off channel=0 note=72 velocity=64 time=0 when=51.6168792248
note_on channel=0 note=69 velocity=93 time=0 when=51.6768741608
note_off channel=0 note=71 velocity=64 time=0 when=51.9647641182
note_on channel=0 note=67 velocity=89 time=0 when=52.0067551136
note_off channel=0 note=69 velocity=64 time=0 when=52.2924520969
note_on channel=0 note=65 velocity=94 time=0 when=52.3257431984
note_off channel=0 note=67 velocity=64 time=0 when=52.6059610844
note_on channel=0 note=64 velocity=90 time=0 when=52.6155450344
note_off channel=0 note=65 velocity=64 time=0 when=52.9521141052
note_on channel=0 note=62 velocity=85 time=0 when=53.0091791153
note_off channel=0 note=64 velocity=64 time=0 when=53.2770841122
note_off channel=0 note=62 velocity=64 time=0 when=53.2871191502
note_on channel=0 note=60 velocity=89 time=0 when=53.6206741333
note_off channel=0 note=60 velocity=64 time=0 when=53.6351821423
note_on channel=0 note=60 velocity=90 time=0 when=55.1646361351
note_on channel=0 note=62 velocity=71 time=0 when=56.0173070431
note_off channel=0 note=60 velocity=64 time=0 when=56.3386640549
note_on channel=0 note=64 velocity=86 time=0 when=56.400493145
note_off channel=0 note=62 velocity=64 time=0 when=56.6754131317
note_on channel=0 note=65 velocity=88 time=0 when=56.7423961163
note_off channel=0 note=64 velocity=64 time=0 when=56.9940650463
note_on channel=0 note=67 velocity=82 time=0 when=56.9941031933
note_off channel=0 note=65 velocity=64 time=0 when=57.3163480759
note_on channel=0 note=69 velocity=87 time=0 when=57.349312067
note_off channel=0 note=67 velocity=64 time=0 when=57.632158041
note_on channel=0 note=71 velocity=93 time=0 when=57.710239172
note_off channel=0 note=69 velocity=64 time=0 when=57.9524650574
note_on channel=0 note=72 velocity=93 time=0 when=58.0675251484
note_off channel=0 note=71 velocity=64 time=0 when=58.2857692242
note_on channel=0 note=71 velocity=91 time=0 when=58.2985641956
note_off channel=0 note=72 velocity=64 time=0 when=58.6165652275
note_on channel=0 note=69 velocity=91 time=0 when=58.6879031658
note_off channel=0 note=71 velocity=64 time=0 when=58.9232130051
note_on channel=0 note=67 velocity=86 time=0 when=58.9562191963
note_off channel=0 note=69 velocity=64 time=0 when=59.2352290154
note_on channel=0 note=65 velocity=87 time=0 when=59.2908101082
note_off channel=0 note=67 velocity=64 time=0 when=59.536894083
note_on channel=0 note=64 velocity=94 time=0 when=59.5580461025
note_off channel=0 note=65 velocity=64 time=0 when=59.8822720051
note_on channel=0 note=62 velocity=88 time=0 when=59.9412260056
note_off channel=0 note=64 velocity=64 time=0 when=60.1699051857
note_on channel=0 note=60 velocity=84 time=0 when=60.1974310875
note_off channel=0 note=62 velocity=64 time=0 when=60.5494010448
note_off channel=0 note=60 velocity=64 time=0 when=60.5494379997
note_on channel=0 note=60 velocity=82 time=0 when=61.1482791901
note_on channel=0 note=62 velocity=79 time=0 when=61.2441182137
note_off channel=0 note=60 velocity=64 time=0 when=61.545194149
note_on channel=0 note=64 velocity=69 time=0 when=61.6017889977
note_off channel=0 note=62 velocity=64 time=0 when=61.8689360619
note_on channel=0 note=65 velocity=94 time=0 when=61.9579701424
note_off channel=0 note=64 velocity=64 time=0 when=62.1571609974
note_on channel=0 note=67 velocity=86 time=0 when=62.164440155
note_off channel=0 note=65 velocity=64 time=0 when=62.493568182
note_on channel=0 note=69 velocity=87 time=0 when=62.5344030857
note_off channel=0 note=67 velocity=64 time=0 when=62.7925541401
note_on channel=0 note=71 velocity=88 time=0 when=62.8746750355
note_off channel=0 note=69 velocity=64 time=0 when=63.1063380241
note_on channel=0 note=72 velocity=93 time=0 when=63.2481870651
note_off channel=0 note=71 velocity=64 time=0 when=63.4197700024
note_on channel=0 note=71 velocity=94 time=0 when=63.4352149963
note_off channel=0 note=72 velocity=64 time=0 when=63.7200381756
note_on channel=0 note=69 velocity=94 time=0 when=63.798014164
note_off channel=0 note=71 velocity=64 time=0 when=64.0316810608
note_on channel=0 note=67 velocity=86 time=0 when=64.0826840401
note_off channel=0 note=69 velocity=64 time=0 when=64.3292381763
note_off channel=0 note=67 velocity=64 time=0 when=64.398786068
note_on channel=0 note=65 velocity=67 time=0 when=64.6151070595
note_on channel=0 note=64 velocity=72 time=0 when=64.6322720051
note_off channel=0 note=64 velocity=64 time=0 when=64.6323301792
note_on channel=0 note=64 velocity=91 time=0 when=64.7310020924
note_off channel=0 note=65 velocity=64 time=0 when=65.0939910412
note_on channel=0 note=62 velocity=80 time=0 when=65.1377880573
note_off channel=0 note=64 velocity=64 time=0 when=65.4171111584
note_on channel=0 note=60 velocity=91 time=0 when=65.4358241558
note_off channel=0 note=62 velocity=64 time=0 when=65.7417972088
note_on channel=0 note=62 velocity=83 time=0 when=65.7418951988
note_off channel=0 note=60 velocity=64 time=0 when=66.018294096
note_on channel=0 note=64 velocity=83 time=0 when=66.068185091
note_off channel=0 note=62 velocity=64 time=0 when=66.3411221504
note_on channel=0 note=65 velocity=92 time=0 when=66.3927750587
note_on channel=0 note=64 velocity=9 time=0 when=66.611987114
note_on channel=0 note=67 velocity=98 time=0 when=66.8637070656
note_off channel=0 note=64 velocity=64 time=0 when=66.9332661629
note_off channel=0 note=64 velocity=64 time=0 when=66.950728178
note_off channel=0 note=65 velocity=64 time=0 when=66.9507651329
note_on channel=0 note=65 velocity=99 time=0 when=66.9865620136
note_off channel=0 note=67 velocity=64 time=0 when=67.4267570972
note_on channel=0 note=64 velocity=105 time=0 when=67.4755461216
note_off channel=0 note=65 velocity=64 time=0 when=67.546143055
note_on channel=0 note=62 velocity=93 time=0 when=67.672727108
note_off channel=0 note=64 velocity=64 time=0 when=67.8868551254
note_on channel=0 note=60 velocity=97 time=0 when=67.9090151787
note_off channel=0 note=62 velocity=64 time=0 when=68.1878671646
note_on channel=0 note=72 velocity=101 time=0 when=68.1958270073
note_off channel=0 note=60 velocity=64 time=0 when=69.5937280655
note_off channel=0 note=72 velocity=64 time=0 when=69.6265051365
note_on channel=0 note=72 velocity=46 time=0 when=71.5407140255
note_on channel=0 note=60 velocity=57 time=0 when=72.1919250488
note_off channel=0 note=60 velocity=64 time=0 when=72.210624218
note_off channel=0 note=72 velocity=64 time=0 when=74.9375441074
