note_on channel=0 note=77 velocity=32 time=0 when=0.792297124863
note_off channel=0 note=77 velocity=64 time=0 when=11.3160700798
note_on channel=0 note=77 velocity=60 time=0 when=11.4875450134
note_off channel=0 note=77 velocity=64 time=0 when=11.6074311733
note_on channel=0 note=77 velocity=73 time=0 when=11.7400081158
note_off channel=0 note=77 velocity=64 time=0 when=11.8905851841
note_on channel=0 note=77 velocity=73 time=0 when=12.0180711746
note_off channel=0 note=77 velocity=64 time=0 when=12.1789841652
note_on channel=0 note=77 velocity=78 time=0 when=12.292124033
note_off channel=0 note=77 velocity=64 time=0 when=12.4377250671
note_on channel=0 note=77 velocity=76 time=0 when=12.5680820942
note_off channel=0 note=77 velocity=64 time=0 when=12.7295241356
note_on channel=0 note=77 velocity=69 time=0 when=12.8511509895
note_off channel=0 note=77 velocity=64 time=0 when=13.0005559921
note_on channel=0 note=79 velocity=84 time=0 when=13.127821207
note_off channel=0 note=79 velocity=64 time=0 when=13.6571340561
note_on channel=0 note=77 velocity=93 time=0 when=13.7499620914
note_off channel=0 note=77 velocity=64 time=0 when=13.957157135
note_on channel=0 note=76 velocity=92 time=0 when=14.0824010372
note_off channel=0 note=76 velocity=64 time=0 when=14.3046000004
note_on channel=0 note=74 velocity=81 time=0 when=14.4250020981
note_off channel=0 note=74 velocity=64 time=0 when=14.6463711262
note_on channel=0 note=72 velocity=102 time=0 when=14.7884662151
note_off channel=0 note=72 velocity=64 time=0 when=15.3978450298
