note_on channel=0 note=71 velocity=45 time=0 when=0.792669057846
note_off channel=0 note=71 velocity=64 time=0 when=2.52780199051
note_on channel=0 note=72 velocity=60 time=0 when=2.5910718441
note_off channel=0 note=72 velocity=64 time=0 when=2.79375505447
note_on channel=0 note=74 velocity=71 time=0 when=2.85149693489
note_off channel=0 note=74 velocity=64 time=0 when=3.00663399696
note_on channel=0 note=76 velocity=78 time=0 when=3.05019307137
note_off channel=0 note=76 velocity=64 time=0 when=3.27451896667
note_on channel=0 note=77 velocity=65 time=0 when=3.34840989113
note_off channel=0 note=77 velocity=64 time=0 when=3.5598628521
note_on channel=0 note=79 velocity=66 time=0 when=3.62813091278
note_off channel=0 note=79 velocity=64 time=0 when=3.8530049324
note_on channel=0 note=81 velocity=75 time=0 when=3.9395210743
note_off channel=0 note=81 velocity=64 time=0 when=4.17035102844
note_on channel=0 note=93 velocity=62 time=0 when=4.25783491135
note_off channel=0 note=93 velocity=64 time=0 when=7.69034099579
note_on channel=0 note=95 velocity=51 time=0 when=7.81241202354
note_off channel=0 note=95 velocity=64 time=0 when=8.12255597115
note_on channel=0 note=96 velocity=58 time=0 when=8.22659802437
note_off channel=0 note=96 velocity=64 time=0 when=8.89331388474
note_on channel=0 note=98 velocity=23 time=0 when=9.02539396286
note_off channel=0 note=98 velocity=64 time=0 when=9.61907887459
note_on channel=0 note=98 velocity=60 time=0 when=9.7101919651
note_off channel=0 note=98 velocity=64 time=0 when=10.2403008938
note_on channel=0 note=98 velocity=69 time=0 when=10.4022269249
note_off channel=0 note=98 velocity=64 time=0 when=10.7146999836
note_on channel=0 note=98 velocity=73 time=0 when=10.8346920013
note_off channel=0 note=98 velocity=64 time=0 when=11.1076998711
note_on channel=0 note=98 velocity=79 time=0 when=11.2154119015
note_off channel=0 note=98 velocity=64 time=0 when=11.5723628998
note_on channel=0 note=98 velocity=65 time=0 when=11.6962718964
note_off channel=0 note=98 velocity=64 time=0 when=12.2122039795
note_on channel=0 note=98 velocity=65 time=0 when=13.1804318428
note_off channel=0 note=98 velocity=64 time=0 when=13.3762300014
note_on channel=0 note=98 velocity=54 time=0 when=13.4616398811
note_off channel=0 note=98 velocity=64 time=0 when=13.5689730644
note_on channel=0 note=98 velocity=40 time=0 when=13.6281478405
note_off channel=0 note=98 velocity=64 time=0 when=13.7531268597
note_on channel=0 note=98 velocity=56 time=0 when=13.8177349567
note_off channel=0 note=98 velocity=64 time=0 when=13.925552845
note_on channel=0 note=98 velocity=65 time=0 when=13.9805748463
note_off channel=0 note=98 velocity=64 time=0 when=14.0967588425
note_on channel=0 note=98 velocity=69 time=0 when=14.1682920456
note_off channel=0 note=98 velocity=64 time=0 when=14.2782840729
note_on channel=0 note=98 velocity=76 time=0 when=14.3424019814
note_off channel=0 note=98 velocity=64 time=0 when=14.4466249943
note_on channel=0 note=89 velocity=84 time=0 when=14.5398449898
note_off channel=0 note=89 velocity=64 time=0 when=15.3432838917
note_on channel=0 note=88 velocity=81 time=0 when=15.4570639133
note_off channel=0 note=88 velocity=64 time=0 when=15.8666059971
note_on channel=0 note=89 velocity=72 time=0 when=16.0039699078
note_off channel=0 note=89 velocity=64 time=0 when=16.4294919968
note_on channel=0 note=91 velocity=68 time=0 when=16.627959013
note_off channel=0 note=91 velocity=64 time=0 when=17.0180058479
note_on channel=0 note=93 velocity=79 time=0 when=17.1896679401
note_off channel=0 note=93 velocity=64 time=0 when=17.6529290676
note_on channel=0 note=93 velocity=31 time=0 when=17.8468718529
note_on channel=0 note=95 velocity=27 time=0 when=18.3146660328
note_off channel=0 note=95 velocity=64 time=0 when=18.3380529881
note_off channel=0 note=93 velocity=64 time=0 when=18.4340450764
note_on channel=0 note=95 velocity=74 time=0 when=18.5177390575
note_off channel=0 note=95 velocity=64 time=0 when=18.9353849888
note_on channel=0 note=95 velocity=60 time=0 when=19.1570360661
note_off channel=0 note=95 velocity=64 time=0 when=19.600992918
note_on channel=0 note=96 velocity=73 time=0 when=19.8524010181
note_off channel=0 note=96 velocity=64 time=0 when=20.1775109768
note_on channel=0 note=96 velocity=70 time=0 when=20.9869179726
note_off channel=0 note=96 velocity=64 time=0 when=21.4225549698
note_on channel=0 note=96 velocity=72 time=0 when=21.5811169147
note_off channel=0 note=96 velocity=64 time=0 when=21.8809199333
note_on channel=0 note=96 velocity=79 time=0 when=21.9827229977
note_off channel=0 note=96 velocity=64 time=0 when=22.3315658569
note_on channel=0 note=95 velocity=78 time=0 when=22.4552600384
note_on channel=0 note=96 velocity=61 time=0 when=29.3284108639
note_off channel=0 note=96 velocity=64 time=0 when=29.3426969051
note_off channel=0 note=95 velocity=64 time=0 when=29.4030730724
note_on channel=0 note=95 velocity=32 time=0 when=29.4268488884
note_on channel=0 note=96 velocity=40 time=0 when=29.6271529198
note_off channel=0 note=95 velocity=64 time=0 when=29.6346728802
note_off channel=0 note=96 velocity=64 time=0 when=29.6989588737
note_on channel=0 note=96 velocity=42 time=0 when=29.7003200054
note_on channel=0 note=95 velocity=44 time=0 when=29.906265974
note_off channel=0 note=95 velocity=64 time=0 when=29.9062838554
note_off channel=0 note=96 velocity=64 time=0 when=29.9630968571
note_on channel=0 note=96 velocity=34 time=0 when=29.9631149769
note_off channel=0 note=96 velocity=64 time=0 when=30.3461589813
note_on channel=0 note=96 velocity=52 time=0 when=30.4776060581
note_off channel=0 note=96 velocity=64 time=0 when=30.7947819233
note_on channel=0 note=96 velocity=42 time=0 when=30.9403710365
note_on channel=0 note=98 velocity=28 time=0 when=31.2097010612
note_off channel=0 note=98 velocity=64 time=0 when=31.2401669025
note_off channel=0 note=96 velocity=64 time=0 when=31.3106338978
note_on channel=0 note=99 velocity=19 time=0 when=31.3502800465
note_off channel=0 note=99 velocity=64 time=0 when=31.9258229733
note_on channel=0 note=96 velocity=62 time=0 when=31.9839069843
note_off channel=0 note=96 velocity=64 time=0 when=32.1484868526
note_on channel=0 note=96 velocity=35 time=0 when=32.2415809631
note_off channel=0 note=96 velocity=64 time=0 when=32.3624680042
note_on channel=0 note=96 velocity=32 time=0 when=32.4270679951
note_off channel=0 note=96 velocity=64 time=0 when=32.5345430374
note_on channel=0 note=96 velocity=23 time=0 when=32.5950629711
note_off channel=0 note=96 velocity=64 time=0 when=32.7224760056
note_on channel=0 note=98 velocity=35 time=0 when=32.7750089169
note_off channel=0 note=98 velocity=64 time=0 when=33.0842590332
note_on channel=0 note=96 velocity=41 time=0 when=33.1618189812
note_on channel=0 note=98 velocity=38 time=0 when=33.6885640621
note_off channel=0 note=98 velocity=64 time=0 when=33.6885869503
note_off channel=0 note=96 velocity=64 time=0 when=33.7531960011
note_on channel=0 note=96 velocity=36 time=0 when=33.7624850273
note_off channel=0 note=96 velocity=64 time=0 when=34.1591670513
note_on channel=0 note=96 velocity=54 time=0 when=34.2747778893
note_on channel=0 note=98 velocity=65 time=0 when=34.6052930355
note_off channel=0 note=98 velocity=64 time=0 when=34.6236848831
note_off channel=0 note=96 velocity=64 time=0 when=34.6957378387
note_on channel=0 note=96 velocity=69 time=0 when=34.7154369354
note_on channel=0 note=98 velocity=81 time=0 when=35.0617229939
note_off channel=0 note=98 velocity=64 time=0 when=35.0617420673
note_off channel=0 note=96 velocity=64 time=0 when=35.1947200298
note_on channel=0 note=96 velocity=73 time=0 when=35.2027008533
note_on channel=0 note=98 velocity=86 time=0 when=35.508936882
note_off channel=0 note=98 velocity=64 time=0 when=35.5089578629
note_off channel=0 note=96 velocity=64 time=0 when=35.6918940544
note_on channel=0 note=96 velocity=68 time=0 when=35.7103888988
note_on channel=0 note=98 velocity=81 time=0 when=35.9674429893
note_off channel=0 note=98 velocity=64 time=0 when=35.9674608707
note_off channel=0 note=96 velocity=64 time=0 when=36.1207609177
note_on channel=0 note=96 velocity=56 time=0 when=36.1527059078
note_on channel=0 note=98 velocity=75 time=0 when=36.435092926
note_off channel=0 note=98 velocity=64 time=0 when=36.435133934
note_off channel=0 note=96 velocity=64 time=0 when=36.5595879555
note_on channel=0 note=96 velocity=56 time=0 when=36.5698950291
note_on channel=0 note=98 velocity=76 time=0 when=36.8945388794
note_off channel=0 note=98 velocity=64 time=0 when=36.8945560455
note_off channel=0 note=96 velocity=64 time=0 when=37.0234410763
note_on channel=0 note=96 velocity=66 time=0 when=37.0392699242
note_on channel=0 note=98 velocity=82 time=0 when=37.3577079773
note_off channel=0 note=98 velocity=64 time=0 when=37.36281991
note_off channel=0 note=96 velocity=64 time=0 when=37.4905660152
note_on channel=0 note=95 velocity=38 time=0 when=37.5035510063
note_on channel=0 note=93 velocity=41 time=0 when=37.9671158791
note_on channel=0 note=96 velocity=43 time=0 when=37.9935019016
note_off channel=0 note=96 velocity=64 time=0 when=37.9988188744
note_off channel=0 note=93 velocity=64 time=0 when=38.064332962
note_off channel=0 note=95 velocity=64 time=0 when=38.2231729031
note_on channel=0 note=96 velocity=36 time=0 when=38.2666909695
note_on channel=0 note=95 velocity=35 time=0 when=39.3339879513
note_off channel=0 note=96 velocity=64 time=0 when=39.3419539928
note_off channel=0 note=95 velocity=64 time=0 when=39.4911420345
note_on channel=0 note=95 velocity=79 time=0 when=39.5030739307
note_off channel=0 note=95 velocity=64 time=0 when=39.7156529427
note_on channel=0 note=93 velocity=78 time=0 when=39.9036438465
note_off channel=0 note=93 velocity=64 time=0 when=40.1382989883
note_on channel=0 note=91 velocity=31 time=0 when=40.3817250729
note_on channel=0 note=93 velocity=32 time=0 when=40.7201559544
note_off channel=0 note=93 velocity=64 time=0 when=40.7267940044
note_off channel=0 note=91 velocity=64 time=0 when=41.0142710209
note_on channel=0 note=91 velocity=26 time=0 when=41.0301229954
note_on channel=0 note=93 velocity=35 time=0 when=41.3438310623
note_off channel=0 note=93 velocity=64 time=0 when=41.3526539803
note_off channel=0 note=91 velocity=64 time=0 when=41.4963669777
note_on channel=0 note=93 velocity=49 time=0 when=41.5162279606
note_on channel=0 note=95 velocity=47 time=0 when=41.9316539764
note_off channel=0 note=93 velocity=64 time=0 when=41.9316730499
note_off channel=0 note=95 velocity=64 time=0 when=42.0994999409
